<?xml version="1.0" encoding="UTF-8" standalone="no"?>
<!DOCTYPE svg PUBLIC "-//W3C//DTD SVG 1.1//EN"
 "http://www.w3.org/Graphics/SVG/1.1/DTD/svg11.dtd">
<!-- Generated by graphviz version 2.44.0 (20200518.1210)
 -->
<!-- Title: fsm Pages: 1 -->
<svg width="576pt" height="39pt"
 viewBox="0.00 0.00 576.00 38.76" xmlns="http://www.w3.org/2000/svg" xmlns:xlink="http://www.w3.org/1999/xlink">
<g id="graph0" class="graph" transform="scale(0.68 0.68) rotate(0) translate(4 53.39)">
<title>fsm</title>
<polygon fill="white" stroke="transparent" points="-4,4 -4,-53.39 848.8,-53.39 848.8,4 -4,4"/>
<!-- INITIAL_STATE -->
<g id="node1" class="node">
<title>INITIAL_STATE</title>
<ellipse fill="black" stroke="black" cx="1.8" cy="-24.69" rx="1.8" ry="1.8"/>
</g>
<!-- q0 -->
<g id="node3" class="node">
<title>q0</title>
<ellipse fill="none" stroke="black" cx="61.29" cy="-24.69" rx="20.89" ry="20.89"/>
<text text-anchor="middle" x="61.29" y="-20.49" font-family="Times,serif" font-size="14.00">q0</text>
</g>
<!-- INITIAL_STATE&#45;&gt;q0 -->
<g id="edge1" class="edge">
<title>INITIAL_STATE&#45;&gt;q0</title>
<path fill="none" stroke="black" d="M3.8,-24.69C7.17,-24.69 18.55,-24.69 30.23,-24.69"/>
<polygon fill="black" stroke="black" points="30.38,-28.19 40.38,-24.69 30.38,-21.19 30.38,-28.19"/>
</g>
<!-- q9 -->
<g id="node2" class="node">
<title>q9</title>
<ellipse fill="none" stroke="black" cx="820.11" cy="-24.69" rx="20.86" ry="20.86"/>
<ellipse fill="none" stroke="black" cx="820.11" cy="-24.69" rx="24.89" ry="24.89"/>
<text text-anchor="middle" x="820.11" y="-20.49" font-family="Times,serif" font-size="14.00">q9</text>
</g>
<!-- q1 -->
<g id="node4" class="node">
<title>q1</title>
<ellipse fill="none" stroke="black" cx="144.12" cy="-24.69" rx="20.89" ry="20.89"/>
<text text-anchor="middle" x="144.12" y="-20.49" font-family="Times,serif" font-size="14.00">q1</text>
</g>
<!-- q0&#45;&gt;q1 -->
<g id="edge2" class="edge">
<title>q0&#45;&gt;q1</title>
<path fill="none" stroke="black" d="M82.27,-24.69C91.57,-24.69 102.83,-24.69 113.12,-24.69"/>
<polygon fill="black" stroke="black" points="113.37,-28.19 123.37,-24.69 113.37,-21.19 113.37,-28.19"/>
<text text-anchor="middle" x="102.71" y="-28.89" font-family="Times,serif" font-size="14.00">s</text>
</g>
<!-- q2 -->
<g id="node5" class="node">
<title>q2</title>
<ellipse fill="none" stroke="black" cx="228.51" cy="-24.69" rx="20.89" ry="20.89"/>
<text text-anchor="middle" x="228.51" y="-20.49" font-family="Times,serif" font-size="14.00">q2</text>
</g>
<!-- q1&#45;&gt;q2 -->
<g id="edge3" class="edge">
<title>q1&#45;&gt;q2</title>
<path fill="none" stroke="black" d="M165.07,-24.69C174.78,-24.69 186.67,-24.69 197.46,-24.69"/>
<polygon fill="black" stroke="black" points="197.75,-28.19 207.75,-24.69 197.75,-21.19 197.75,-28.19"/>
<text text-anchor="middle" x="186.32" y="-28.89" font-family="Times,serif" font-size="14.00">o</text>
</g>
<!-- q3 -->
<g id="node6" class="node">
<title>q3</title>
<ellipse fill="none" stroke="black" cx="316.79" cy="-24.69" rx="20.89" ry="20.89"/>
<text text-anchor="middle" x="316.79" y="-20.49" font-family="Times,serif" font-size="14.00">q3</text>
</g>
<!-- q2&#45;&gt;q3 -->
<g id="edge4" class="edge">
<title>q2&#45;&gt;q3</title>
<path fill="none" stroke="black" d="M249.52,-24.69C260.3,-24.69 273.82,-24.69 285.83,-24.69"/>
<polygon fill="black" stroke="black" points="285.89,-28.19 295.89,-24.69 285.89,-21.19 285.89,-28.19"/>
<text text-anchor="middle" x="272.65" y="-28.89" font-family="Times,serif" font-size="14.00">m</text>
</g>
<!-- q4 -->
<g id="node7" class="node">
<title>q4</title>
<ellipse fill="none" stroke="black" cx="400.39" cy="-24.69" rx="20.89" ry="20.89"/>
<text text-anchor="middle" x="400.39" y="-20.49" font-family="Times,serif" font-size="14.00">q4</text>
</g>
<!-- q3&#45;&gt;q4 -->
<g id="edge5" class="edge">
<title>q3&#45;&gt;q4</title>
<path fill="none" stroke="black" d="M337.54,-24.69C347.09,-24.69 358.77,-24.69 369.38,-24.69"/>
<polygon fill="black" stroke="black" points="369.54,-28.19 379.54,-24.69 369.54,-21.19 369.54,-28.19"/>
<text text-anchor="middle" x="358.59" y="-28.89" font-family="Times,serif" font-size="14.00">e</text>
</g>
<!-- q5 -->
<g id="node8" class="node">
<title>q5</title>
<ellipse fill="none" stroke="black" cx="481.67" cy="-24.69" rx="20.89" ry="20.89"/>
<text text-anchor="middle" x="481.67" y="-20.49" font-family="Times,serif" font-size="14.00">q5</text>
</g>
<!-- q4&#45;&gt;q5 -->
<g id="edge6" class="edge">
<title>q4&#45;&gt;q5</title>
<path fill="none" stroke="black" d="M421.4,-24.69C430.29,-24.69 440.95,-24.69 450.76,-24.69"/>
<polygon fill="black" stroke="black" points="450.94,-28.19 460.94,-24.69 450.94,-21.19 450.94,-28.19"/>
<text text-anchor="middle" x="441.03" y="-28.89" font-family="Times,serif" font-size="14.00">t</text>
</g>
<!-- q6 -->
<g id="node9" class="node">
<title>q6</title>
<ellipse fill="none" stroke="black" cx="566.06" cy="-24.69" rx="20.89" ry="20.89"/>
<text text-anchor="middle" x="566.06" y="-20.49" font-family="Times,serif" font-size="14.00">q6</text>
</g>
<!-- q5&#45;&gt;q6 -->
<g id="edge7" class="edge">
<title>q5&#45;&gt;q6</title>
<path fill="none" stroke="black" d="M502.61,-24.69C512.33,-24.69 524.21,-24.69 535,-24.69"/>
<polygon fill="black" stroke="black" points="535.3,-28.19 545.3,-24.69 535.3,-21.19 535.3,-28.19"/>
<text text-anchor="middle" x="523.86" y="-28.89" font-family="Times,serif" font-size="14.00">h</text>
</g>
<!-- q7 -->
<g id="node10" class="node">
<title>q7</title>
<ellipse fill="none" stroke="black" cx="647.33" cy="-24.69" rx="20.89" ry="20.89"/>
<text text-anchor="middle" x="647.33" y="-20.49" font-family="Times,serif" font-size="14.00">q7</text>
</g>
<!-- q6&#45;&gt;q7 -->
<g id="edge8" class="edge">
<title>q6&#45;&gt;q7</title>
<path fill="none" stroke="black" d="M587.06,-24.69C595.95,-24.69 606.61,-24.69 616.42,-24.69"/>
<polygon fill="black" stroke="black" points="616.61,-28.19 626.61,-24.69 616.61,-21.19 616.61,-28.19"/>
<text text-anchor="middle" x="606.69" y="-28.89" font-family="Times,serif" font-size="14.00">i</text>
</g>
<!-- q8 -->
<g id="node11" class="node">
<title>q8</title>
<ellipse fill="none" stroke="black" cx="731.72" cy="-24.69" rx="20.89" ry="20.89"/>
<text text-anchor="middle" x="731.72" y="-20.49" font-family="Times,serif" font-size="14.00">q8</text>
</g>
<!-- q7&#45;&gt;q8 -->
<g id="edge9" class="edge">
<title>q7&#45;&gt;q8</title>
<path fill="none" stroke="black" d="M668.28,-24.69C677.99,-24.69 689.88,-24.69 700.66,-24.69"/>
<polygon fill="black" stroke="black" points="700.96,-28.19 710.96,-24.69 700.96,-21.19 700.96,-28.19"/>
<text text-anchor="middle" x="689.53" y="-28.89" font-family="Times,serif" font-size="14.00">n</text>
</g>
<!-- q8&#45;&gt;q9 -->
<g id="edge10" class="edge">
<title>q8&#45;&gt;q9</title>
<path fill="none" stroke="black" d="M752.76,-24.69C762.35,-24.69 774.11,-24.69 785.05,-24.69"/>
<polygon fill="black" stroke="black" points="785.19,-28.19 795.19,-24.69 785.19,-21.19 785.19,-28.19"/>
<text text-anchor="middle" x="773.91" y="-28.89" font-family="Times,serif" font-size="14.00">g</text>
</g>
</g>
</svg>
