<?xml version="1.0" encoding="UTF-8" standalone="no"?>
<!DOCTYPE svg PUBLIC "-//W3C//DTD SVG 1.1//EN"
 "http://www.w3.org/Graphics/SVG/1.1/DTD/svg11.dtd">
<!-- Generated by graphviz version 2.44.0 (20200518.1210)
 -->
<!-- Title: items Pages: 1 -->
<svg width="100%" height="100%"
 viewBox="0.00 0.00 1440.00 295.47" xmlns="http://www.w3.org/2000/svg" xmlns:xlink="http://www.w3.org/1999/xlink">
<g id="graph0" class="graph" transform="scale(0.39 0.39) rotate(0) translate(4 749.2)">
<title>items</title>
<polygon fill="white" stroke="transparent" points="-4,4 -4,-749.2 3666.74,-749.2 3666.74,4 -4,4"/>
<!-- I0 -->
<g id="node1" class="node">
<title>I0</title>
<polygon fill="none" stroke="black" points="266.83,-568.4 0.06,-568.4 0.06,-425.6 266.83,-425.6 266.83,-568.4"/>
<text text-anchor="middle" x="133.44" y="-551.6" font-family="Times,serif" font-size="14.00">I0</text>
<text text-anchor="middle" x="133.44" y="-534.8" font-family="Times,serif" font-size="14.00">E&#39;&#45;&gt;. prod1</text>
<text text-anchor="middle" x="133.44" y="-518" font-family="Times,serif" font-size="14.00">prod1&#45;&gt;. TOKEN_0 TOKEN_1 prod1 prod2</text>
<text text-anchor="middle" x="133.44" y="-501.2" font-family="Times,serif" font-size="14.00">prod1&#45;&gt;. prod3 prod4 digits</text>
<text text-anchor="middle" x="133.44" y="-484.4" font-family="Times,serif" font-size="14.00">prod1&#45;&gt;. number id</text>
<text text-anchor="middle" x="133.44" y="-467.6" font-family="Times,serif" font-size="14.00">prod1&#45;&gt;. string</text>
<text text-anchor="middle" x="133.44" y="-450.8" font-family="Times,serif" font-size="14.00">prod3&#45;&gt;. prod1 TOKEN_5</text>
<text text-anchor="middle" x="133.44" y="-434" font-family="Times,serif" font-size="14.00">prod3&#45;&gt;. id</text>
</g>
<!-- I1 -->
<g id="node2" class="node">
<title>I1</title>
<polygon fill="none" stroke="black" points="690.9,-745.4 525.3,-745.4 525.3,-686.6 690.9,-686.6 690.9,-745.4"/>
<text text-anchor="middle" x="608.1" y="-728.6" font-family="Times,serif" font-size="14.00">I1</text>
<text text-anchor="middle" x="608.1" y="-711.8" font-family="Times,serif" font-size="14.00">E&#39;&#45;&gt;prod1 .</text>
<text text-anchor="middle" x="608.1" y="-695" font-family="Times,serif" font-size="14.00">prod3&#45;&gt;prod1 . TOKEN_5</text>
</g>
<!-- I0&#45;&gt;I1 -->
<g id="edge1" class="edge">
<title>I0&#45;&gt;I1</title>
<path fill="none" stroke="black" d="M171.86,-568.54C197.71,-610.24 236.19,-659.67 284.89,-686 355.4,-724.12 447.4,-729.07 515.03,-725.98"/>
<polygon fill="black" stroke="black" points="515.45,-729.46 525.25,-725.44 515.08,-722.47 515.45,-729.46"/>
<text text-anchor="middle" x="301.22" y="-703.2" font-family="Times,serif" font-size="14.00">prod1</text>
</g>
<!-- I2 -->
<g id="node3" class="node">
<title>I2</title>
<polygon fill="none" stroke="black" points="507.03,-411.3 335.72,-411.3 335.72,-302.7 507.03,-302.7 507.03,-411.3"/>
<text text-anchor="middle" x="421.37" y="-394.8" font-family="Times,serif" font-size="14.00">I2</text>
<text text-anchor="middle" x="421.37" y="-378" font-family="Times,serif" font-size="14.00">prod1&#45;&gt;prod3 . prod4 digits</text>
<text text-anchor="middle" x="421.37" y="-361.2" font-family="Times,serif" font-size="14.00">prod4&#45;&gt;. number</text>
<text text-anchor="middle" x="421.37" y="-344.4" font-family="Times,serif" font-size="14.00">prod4&#45;&gt;. string</text>
<text text-anchor="middle" x="421.37" y="-327.6" font-family="Times,serif" font-size="14.00">prod4&#45;&gt;. digits</text>
<text text-anchor="middle" x="421.37" y="-310.8" font-family="Times,serif" font-size="14.00">prod4&#45;&gt;. prod4 prod2</text>
</g>
<!-- I0&#45;&gt;I2 -->
<g id="edge2" class="edge">
<title>I0&#45;&gt;I2</title>
<path fill="none" stroke="black" d="M266.95,-432.12C287.03,-422.29 307.4,-412.32 326.44,-402.99"/>
<polygon fill="black" stroke="black" points="328.23,-406.01 335.67,-398.47 325.15,-399.73 328.23,-406.01"/>
<text text-anchor="middle" x="301.22" y="-426.2" font-family="Times,serif" font-size="14.00">prod3</text>
</g>
<!-- I3 -->
<g id="node4" class="node">
<title>I3</title>
<polygon fill="none" stroke="black" points="1938.92,-402.6 1672.14,-402.6 1672.14,-361.4 1938.92,-361.4 1938.92,-402.6"/>
<text text-anchor="middle" x="1805.53" y="-386.2" font-family="Times,serif" font-size="14.00">I3</text>
<text text-anchor="middle" x="1805.53" y="-369.4" font-family="Times,serif" font-size="14.00">prod1&#45;&gt;TOKEN_0 . TOKEN_1 prod1 prod2</text>
</g>
<!-- I0&#45;&gt;I3 -->
<g id="edge3" class="edge">
<title>I0&#45;&gt;I3</title>
<path fill="none" stroke="black" d="M267.15,-518.15C425.53,-537.91 695.94,-554.06 910.96,-477 962.66,-458.47 956.67,-419.48 1008.39,-401 1229.17,-322.11 1506.79,-339.4 1669.07,-360.06"/>
<polygon fill="black" stroke="black" points="1668.74,-363.55 1679.11,-361.36 1669.64,-356.61 1668.74,-363.55"/>
<text text-anchor="middle" x="959.68" y="-472.2" font-family="Times,serif" font-size="14.00">TOKEN_0</text>
</g>
<!-- I4 -->
<g id="node5" class="node">
<title>I4</title>
<polygon fill="none" stroke="black" points="3379.49,-77.6 3253.74,-77.6 3253.74,-36.4 3379.49,-36.4 3379.49,-77.6"/>
<text text-anchor="middle" x="3316.61" y="-61.2" font-family="Times,serif" font-size="14.00">I4</text>
<text text-anchor="middle" x="3316.61" y="-44.4" font-family="Times,serif" font-size="14.00">prod1&#45;&gt;number . id</text>
</g>
<!-- I0&#45;&gt;I4 -->
<g id="edge4" class="edge">
<title>I0&#45;&gt;I4</title>
<path fill="none" stroke="black" d="M142.35,-425.79C161.97,-288.37 226.26,0 420.37,0 420.37,0 420.37,0 3003.84,0 3087.28,0 3181.26,-20 3244.02,-36.3"/>
<polygon fill="black" stroke="black" points="3243.25,-39.72 3253.82,-38.89 3245.04,-32.95 3243.25,-39.72"/>
<text text-anchor="middle" x="1623.38" y="-4.2" font-family="Times,serif" font-size="14.00">number</text>
</g>
<!-- I5 -->
<g id="node6" class="node">
<title>I5</title>
<polygon fill="none" stroke="black" points="3356.22,-601.6 3277.01,-601.6 3277.01,-560.4 3356.22,-560.4 3356.22,-601.6"/>
<text text-anchor="middle" x="3316.61" y="-585.2" font-family="Times,serif" font-size="14.00">I5</text>
<text text-anchor="middle" x="3316.61" y="-568.4" font-family="Times,serif" font-size="14.00">prod3&#45;&gt;id .</text>
</g>
<!-- I0&#45;&gt;I5 -->
<g id="edge5" class="edge">
<title>I0&#45;&gt;I5</title>
<path fill="none" stroke="black" d="M202.9,-568.43C256.85,-616.82 336.71,-672 420.37,-672 420.37,-672 420.37,-672 2457.38,-672 2626.63,-672 3048.24,-625.54 3215.71,-601 3232.52,-598.54 3250.79,-595.11 3267.04,-591.78"/>
<polygon fill="black" stroke="black" points="3267.8,-595.2 3276.87,-589.73 3266.37,-588.35 3267.8,-595.2"/>
<text text-anchor="middle" x="1623.38" y="-676.2" font-family="Times,serif" font-size="14.00">id</text>
</g>
<!-- I6 -->
<g id="node7" class="node">
<title>I6</title>
<polygon fill="none" stroke="black" points="3366.72,-341.6 3266.51,-341.6 3266.51,-300.4 3366.72,-300.4 3366.72,-341.6"/>
<text text-anchor="middle" x="3316.61" y="-325.2" font-family="Times,serif" font-size="14.00">I6</text>
<text text-anchor="middle" x="3316.61" y="-308.4" font-family="Times,serif" font-size="14.00">prod1&#45;&gt;string .</text>
</g>
<!-- I0&#45;&gt;I6 -->
<g id="edge6" class="edge">
<title>I0&#45;&gt;I6</title>
<path fill="none" stroke="black" d="M147.26,-425.49C174,-301.8 248.16,-61 420.37,-61 420.37,-61 420.37,-61 1624.38,-61 2184.4,-61 2316.27,-167.43 2869.4,-255 3007.83,-276.92 3170.8,-300.45 3256.33,-312.62"/>
<polygon fill="black" stroke="black" points="3255.98,-316.11 3266.37,-314.05 3256.96,-309.18 3255.98,-316.11"/>
<text text-anchor="middle" x="1623.38" y="-65.2" font-family="Times,serif" font-size="14.00">string</text>
</g>
<!-- I7 -->
<g id="node8" class="node">
<title>I7</title>
<polygon fill="none" stroke="black" points="3662.64,-567.6 3497.04,-567.6 3497.04,-526.4 3662.64,-526.4 3662.64,-567.6"/>
<text text-anchor="middle" x="3579.84" y="-551.2" font-family="Times,serif" font-size="14.00">I7</text>
<text text-anchor="middle" x="3579.84" y="-534.4" font-family="Times,serif" font-size="14.00">prod3&#45;&gt;prod1 TOKEN_5 .</text>
</g>
<!-- I1&#45;&gt;I7 -->
<g id="edge7" class="edge">
<title>I1&#45;&gt;I7</title>
<path fill="none" stroke="black" d="M691.04,-715.63C761.88,-715.35 867.03,-715 958.68,-715 958.68,-715 958.68,-715 3317.61,-715 3419.51,-715 3513.32,-623.45 3555.45,-575.51"/>
<polygon fill="black" stroke="black" points="3558.11,-577.79 3562,-567.94 3552.82,-573.21 3558.11,-577.79"/>
<text text-anchor="middle" x="2039.88" y="-719.2" font-family="Times,serif" font-size="14.00">TOKEN_5</text>
</g>
<!-- I8 -->
<g id="node9" class="node">
<title>I8</title>
<polygon fill="none" stroke="black" points="910.95,-288.3 709.02,-288.3 709.02,-179.7 910.95,-179.7 910.95,-288.3"/>
<text text-anchor="middle" x="809.98" y="-271.8" font-family="Times,serif" font-size="14.00">I8</text>
<text text-anchor="middle" x="809.98" y="-255" font-family="Times,serif" font-size="14.00">prod1&#45;&gt;prod3 prod4 . digits</text>
<text text-anchor="middle" x="809.98" y="-238.2" font-family="Times,serif" font-size="14.00">prod4&#45;&gt;prod4 . prod2</text>
<text text-anchor="middle" x="809.98" y="-221.4" font-family="Times,serif" font-size="14.00">prod2&#45;&gt;. prod2 TOKEN_4 prod3</text>
<text text-anchor="middle" x="809.98" y="-204.6" font-family="Times,serif" font-size="14.00">prod2&#45;&gt;. TOKEN_2 prod1</text>
<text text-anchor="middle" x="809.98" y="-187.8" font-family="Times,serif" font-size="14.00">prod2&#45;&gt;. TOKEN_3</text>
</g>
<!-- I2&#45;&gt;I8 -->
<g id="edge8" class="edge">
<title>I2&#45;&gt;I8</title>
<path fill="none" stroke="black" d="M507.25,-317.99C513.29,-315.59 519.31,-313.3 525.2,-311.2 581.68,-291.07 646.07,-273.16 699.21,-259.68"/>
<polygon fill="black" stroke="black" points="700.16,-263.05 709,-257.21 698.45,-256.26 700.16,-263.05"/>
<text text-anchor="middle" x="608.1" y="-315.2" font-family="Times,serif" font-size="14.00">prod4</text>
</g>
<!-- I9 -->
<g id="node10" class="node">
<title>I9</title>
<polygon fill="none" stroke="black" points="859.82,-467.6 760.15,-467.6 760.15,-426.4 859.82,-426.4 859.82,-467.6"/>
<text text-anchor="middle" x="809.98" y="-451.2" font-family="Times,serif" font-size="14.00">I9</text>
<text text-anchor="middle" x="809.98" y="-434.4" font-family="Times,serif" font-size="14.00">prod4&#45;&gt;digits .</text>
</g>
<!-- I2&#45;&gt;I9 -->
<g id="edge9" class="edge">
<title>I2&#45;&gt;I9</title>
<path fill="none" stroke="black" d="M507.19,-392.4C513.24,-394.43 519.28,-396.33 525.2,-398 601.46,-419.53 692.06,-433.18 750.02,-440.46"/>
<polygon fill="black" stroke="black" points="749.74,-443.95 760.09,-441.7 750.6,-437 749.74,-443.95"/>
<text text-anchor="middle" x="608.1" y="-435.2" font-family="Times,serif" font-size="14.00">digits</text>
</g>
<!-- I10 -->
<g id="node11" class="node">
<title>I10</title>
<polygon fill="none" stroke="black" points="865.47,-407.6 754.5,-407.6 754.5,-366.4 865.47,-366.4 865.47,-407.6"/>
<text text-anchor="middle" x="809.98" y="-391.2" font-family="Times,serif" font-size="14.00">I10</text>
<text text-anchor="middle" x="809.98" y="-374.4" font-family="Times,serif" font-size="14.00">prod4&#45;&gt;number .</text>
</g>
<!-- I2&#45;&gt;I10 -->
<g id="edge10" class="edge">
<title>I2&#45;&gt;I10</title>
<path fill="none" stroke="black" d="M507.22,-363.58C578.64,-369.13 679.26,-376.93 744.31,-381.98"/>
<polygon fill="black" stroke="black" points="744.19,-385.48 754.43,-382.77 744.73,-378.5 744.19,-385.48"/>
<text text-anchor="middle" x="608.1" y="-381.2" font-family="Times,serif" font-size="14.00">number</text>
</g>
<!-- I11 -->
<g id="node12" class="node">
<title>I11</title>
<polygon fill="none" stroke="black" points="860.09,-347.6 759.88,-347.6 759.88,-306.4 860.09,-306.4 860.09,-347.6"/>
<text text-anchor="middle" x="809.98" y="-331.2" font-family="Times,serif" font-size="14.00">I11</text>
<text text-anchor="middle" x="809.98" y="-314.4" font-family="Times,serif" font-size="14.00">prod4&#45;&gt;string .</text>
</g>
<!-- I2&#45;&gt;I11 -->
<g id="edge11" class="edge">
<title>I2&#45;&gt;I11</title>
<path fill="none" stroke="black" d="M507.06,-346.03C513.19,-345.36 519.29,-344.75 525.2,-344.2 602.63,-337.04 692.23,-332.18 749.7,-329.5"/>
<polygon fill="black" stroke="black" points="749.87,-333 759.7,-329.04 749.55,-326 749.87,-333"/>
<text text-anchor="middle" x="608.1" y="-348.2" font-family="Times,serif" font-size="14.00">string</text>
</g>
<!-- I12 -->
<g id="node13" class="node">
<title>I12</title>
<polygon fill="none" stroke="black" points="2407.61,-444.4 2140.83,-444.4 2140.83,-301.6 2407.61,-301.6 2407.61,-444.4"/>
<text text-anchor="middle" x="2274.22" y="-427.6" font-family="Times,serif" font-size="14.00">I12</text>
<text text-anchor="middle" x="2274.22" y="-410.8" font-family="Times,serif" font-size="14.00">prod1&#45;&gt;TOKEN_0 TOKEN_1 . prod1 prod2</text>
<text text-anchor="middle" x="2274.22" y="-394" font-family="Times,serif" font-size="14.00">prod1&#45;&gt;. TOKEN_0 TOKEN_1 prod1 prod2</text>
<text text-anchor="middle" x="2274.22" y="-377.2" font-family="Times,serif" font-size="14.00">prod1&#45;&gt;. prod3 prod4 digits</text>
<text text-anchor="middle" x="2274.22" y="-360.4" font-family="Times,serif" font-size="14.00">prod1&#45;&gt;. number id</text>
<text text-anchor="middle" x="2274.22" y="-343.6" font-family="Times,serif" font-size="14.00">prod1&#45;&gt;. string</text>
<text text-anchor="middle" x="2274.22" y="-326.8" font-family="Times,serif" font-size="14.00">prod3&#45;&gt;. prod1 TOKEN_5</text>
<text text-anchor="middle" x="2274.22" y="-310" font-family="Times,serif" font-size="14.00">prod3&#45;&gt;. id</text>
</g>
<!-- I3&#45;&gt;I12 -->
<g id="edge12" class="edge">
<title>I3&#45;&gt;I12</title>
<path fill="none" stroke="black" d="M1939.02,-379.45C1998.88,-378.29 2069.7,-376.92 2130.71,-375.75"/>
<polygon fill="black" stroke="black" points="2130.88,-379.25 2140.81,-375.55 2130.74,-372.25 2130.88,-379.25"/>
<text text-anchor="middle" x="2039.88" y="-383.2" font-family="Times,serif" font-size="14.00">TOKEN_1</text>
</g>
<!-- I13 -->
<g id="node14" class="node">
<title>I13</title>
<polygon fill="none" stroke="black" points="3642.71,-77.6 3516.97,-77.6 3516.97,-36.4 3642.71,-36.4 3642.71,-77.6"/>
<text text-anchor="middle" x="3579.84" y="-61.2" font-family="Times,serif" font-size="14.00">I13</text>
<text text-anchor="middle" x="3579.84" y="-44.4" font-family="Times,serif" font-size="14.00">prod1&#45;&gt;number id .</text>
</g>
<!-- I4&#45;&gt;I13 -->
<g id="edge13" class="edge">
<title>I4&#45;&gt;I13</title>
<path fill="none" stroke="black" d="M3379.52,-57C3417.69,-57 3466.8,-57 3506.72,-57"/>
<polygon fill="black" stroke="black" points="3506.93,-60.5 3516.93,-57 3506.93,-53.5 3506.93,-60.5"/>
<text text-anchor="middle" x="3448.23" y="-61.2" font-family="Times,serif" font-size="14.00">id</text>
</g>
<!-- I14 -->
<g id="node15" class="node">
<title>I14</title>
<polygon fill="none" stroke="black" points="1210.33,-468.4 1008.41,-468.4 1008.41,-409.6 1210.33,-409.6 1210.33,-468.4"/>
<text text-anchor="middle" x="1109.37" y="-451.6" font-family="Times,serif" font-size="14.00">I14</text>
<text text-anchor="middle" x="1109.37" y="-434.8" font-family="Times,serif" font-size="14.00">prod4&#45;&gt;prod4 prod2 .</text>
<text text-anchor="middle" x="1109.37" y="-418" font-family="Times,serif" font-size="14.00">prod2&#45;&gt;prod2 . TOKEN_4 prod3</text>
</g>
<!-- I8&#45;&gt;I14 -->
<g id="edge14" class="edge">
<title>I8&#45;&gt;I14</title>
<path fill="none" stroke="black" d="M897.9,-288.31C902.33,-291.23 906.71,-294.13 910.96,-297 963.1,-332.13 1021.37,-374.44 1061.01,-403.68"/>
<polygon fill="black" stroke="black" points="1059.05,-406.59 1069.17,-409.72 1063.21,-400.96 1059.05,-406.59"/>
<text text-anchor="middle" x="959.68" y="-354.2" font-family="Times,serif" font-size="14.00">prod2</text>
</g>
<!-- I15 -->
<g id="node16" class="node">
<title>I15</title>
<polygon fill="none" stroke="black" points="3136.23,-246.4 2869.46,-246.4 2869.46,-103.6 3136.23,-103.6 3136.23,-246.4"/>
<text text-anchor="middle" x="3002.84" y="-229.6" font-family="Times,serif" font-size="14.00">I15</text>
<text text-anchor="middle" x="3002.84" y="-212.8" font-family="Times,serif" font-size="14.00">prod2&#45;&gt;TOKEN_2 . prod1</text>
<text text-anchor="middle" x="3002.84" y="-196" font-family="Times,serif" font-size="14.00">prod1&#45;&gt;. TOKEN_0 TOKEN_1 prod1 prod2</text>
<text text-anchor="middle" x="3002.84" y="-179.2" font-family="Times,serif" font-size="14.00">prod1&#45;&gt;. prod3 prod4 digits</text>
<text text-anchor="middle" x="3002.84" y="-162.4" font-family="Times,serif" font-size="14.00">prod1&#45;&gt;. number id</text>
<text text-anchor="middle" x="3002.84" y="-145.6" font-family="Times,serif" font-size="14.00">prod1&#45;&gt;. string</text>
<text text-anchor="middle" x="3002.84" y="-128.8" font-family="Times,serif" font-size="14.00">prod3&#45;&gt;. prod1 TOKEN_5</text>
<text text-anchor="middle" x="3002.84" y="-112" font-family="Times,serif" font-size="14.00">prod3&#45;&gt;. id</text>
</g>
<!-- I8&#45;&gt;I15 -->
<g id="edge15" class="edge">
<title>I8&#45;&gt;I15</title>
<path fill="none" stroke="black" d="M911.17,-220.63C1071.49,-199.94 1395.8,-161.02 1672.09,-146.2 2168.22,-119.59 2293.13,-141.38 2789.98,-140 2817.28,-139.92 2824.28,-136.89 2851.4,-140 2853.97,-140.29 2856.55,-140.62 2859.15,-140.96"/>
<polygon fill="black" stroke="black" points="2858.84,-144.45 2869.23,-142.42 2859.84,-137.53 2858.84,-144.45"/>
<text text-anchor="middle" x="1805.53" y="-151.2" font-family="Times,serif" font-size="14.00">TOKEN_2</text>
</g>
<!-- I16 -->
<g id="node17" class="node">
<title>I16</title>
<polygon fill="none" stroke="black" points="3067.49,-381.6 2938.2,-381.6 2938.2,-340.4 3067.49,-340.4 3067.49,-381.6"/>
<text text-anchor="middle" x="3002.84" y="-365.2" font-family="Times,serif" font-size="14.00">I16</text>
<text text-anchor="middle" x="3002.84" y="-348.4" font-family="Times,serif" font-size="14.00">prod2&#45;&gt;TOKEN_3 .</text>
</g>
<!-- I8&#45;&gt;I16 -->
<g id="edge16" class="edge">
<title>I8&#45;&gt;I16</title>
<path fill="none" stroke="black" d="M911.13,-235.01C968.81,-235.51 1042.67,-236 1108.37,-236 1108.37,-236 1108.37,-236 2040.88,-236 2205.85,-236 2252.37,-237.32 2407.66,-293 2446.27,-306.84 2460.4,-308.85 2487.09,-340 2501.1,-356.36 2487.64,-372.37 2505.09,-385 2556.47,-422.2 2726.57,-401 2789.98,-403 2817.26,-403.86 2825.27,-410.91 2851.4,-403 2860.6,-400.21 2860.57,-394.79 2869.4,-391 2887.84,-383.09 2908.66,-377.12 2928.24,-372.68"/>
<polygon fill="black" stroke="black" points="2929.01,-376.09 2938.04,-370.55 2927.53,-369.25 2929.01,-376.09"/>
<text text-anchor="middle" x="1805.53" y="-240.2" font-family="Times,serif" font-size="14.00">TOKEN_3</text>
</g>
<!-- I17 -->
<g id="node18" class="node">
<title>I17</title>
<polygon fill="none" stroke="black" points="1195.02,-343.6 1023.72,-343.6 1023.72,-302.4 1195.02,-302.4 1195.02,-343.6"/>
<text text-anchor="middle" x="1109.37" y="-327.2" font-family="Times,serif" font-size="14.00">I17</text>
<text text-anchor="middle" x="1109.37" y="-310.4" font-family="Times,serif" font-size="14.00">prod1&#45;&gt;prod3 prod4 digits .</text>
</g>
<!-- I8&#45;&gt;I17 -->
<g id="edge17" class="edge">
<title>I8&#45;&gt;I17</title>
<path fill="none" stroke="black" d="M911.25,-264.01C949.78,-275.54 993.19,-288.53 1029.44,-299.38"/>
<polygon fill="black" stroke="black" points="1028.88,-302.86 1039.46,-302.38 1030.89,-296.16 1028.88,-302.86"/>
<text text-anchor="middle" x="959.68" y="-290.2" font-family="Times,serif" font-size="14.00">digits</text>
</g>
<!-- I12&#45;&gt;I2 -->
<g id="edge19" class="edge">
<title>I12&#45;&gt;I2</title>
<path fill="none" stroke="black" d="M2140.81,-347.84C2134.72,-346.85 2128.69,-345.89 2122.78,-345 1762.2,-290.49 1668.01,-306.76 1307.78,-250 1130.15,-222.01 1089.92,-188.64 910.96,-171 821.64,-162.19 796.54,-151.13 709,-171 620.68,-191.05 599.75,-207.57 525.2,-259 509.87,-269.58 494.64,-282.44 480.78,-295.32"/>
<polygon fill="black" stroke="black" points="478.09,-293.05 473.23,-302.47 482.9,-298.14 478.09,-293.05"/>
<text text-anchor="middle" x="1259.06" y="-250.2" font-family="Times,serif" font-size="14.00">prod3</text>
</g>
<!-- I12&#45;&gt;I3 -->
<g id="edge20" class="edge">
<title>I12&#45;&gt;I3</title>
<path fill="none" stroke="black" d="M2140.81,-355.53C2134.72,-355.02 2128.69,-354.57 2122.78,-354.2 2049.23,-349.62 2030.36,-347.48 1956.98,-354.2 1942.9,-355.49 1928.17,-357.44 1913.68,-359.73"/>
<polygon fill="black" stroke="black" points="1912.99,-356.3 1903.69,-361.37 1914.12,-363.21 1912.99,-356.3"/>
<text text-anchor="middle" x="2039.88" y="-358.2" font-family="Times,serif" font-size="14.00">TOKEN_0</text>
</g>
<!-- I12&#45;&gt;I4 -->
<g id="edge21" class="edge">
<title>I12&#45;&gt;I4</title>
<path fill="none" stroke="black" d="M2407.91,-306.14C2439.64,-290.45 2473.48,-273.95 2505.09,-259 2665.61,-183.1 2697.53,-139.61 2869.4,-95 2998.38,-61.52 3154.67,-55.84 3243.88,-55.74"/>
<polygon fill="black" stroke="black" points="3243.89,-59.24 3253.89,-55.75 3243.89,-52.24 3243.89,-59.24"/>
<text text-anchor="middle" x="2820.69" y="-122.2" font-family="Times,serif" font-size="14.00">number</text>
</g>
<!-- I12&#45;&gt;I5 -->
<g id="edge22" class="edge">
<title>I12&#45;&gt;I5</title>
<path fill="none" stroke="black" d="M2407.84,-421.51C2439.42,-431.92 2473.22,-442.14 2505.09,-450 2789.46,-520.11 3139.49,-562.07 3266.59,-575.9"/>
<polygon fill="black" stroke="black" points="3266.45,-579.4 3276.77,-577 3267.21,-572.45 3266.45,-579.4"/>
<text text-anchor="middle" x="2820.69" y="-522.2" font-family="Times,serif" font-size="14.00">id</text>
</g>
<!-- I12&#45;&gt;I6 -->
<g id="edge23" class="edge">
<title>I12&#45;&gt;I6</title>
<path fill="none" stroke="black" d="M2407.77,-400.35C2439.58,-406.52 2473.49,-412.79 2505.09,-418 2574.49,-429.45 3080.54,-509.91 3136.29,-467 3161.06,-447.93 3134.4,-423.12 3154.29,-399 3180.34,-367.41 3222.25,-347.68 3256.82,-335.97"/>
<polygon fill="black" stroke="black" points="3257.93,-339.29 3266.36,-332.88 3255.77,-332.64 3257.93,-339.29"/>
<text text-anchor="middle" x="2820.69" y="-469.2" font-family="Times,serif" font-size="14.00">string</text>
</g>
<!-- I18 -->
<g id="node19" class="node">
<title>I18</title>
<polygon fill="none" stroke="black" points="2771.92,-376.3 2505.15,-376.3 2505.15,-267.7 2771.92,-267.7 2771.92,-376.3"/>
<text text-anchor="middle" x="2638.53" y="-359.8" font-family="Times,serif" font-size="14.00">I18</text>
<text text-anchor="middle" x="2638.53" y="-343" font-family="Times,serif" font-size="14.00">prod1&#45;&gt;TOKEN_0 TOKEN_1 prod1 . prod2</text>
<text text-anchor="middle" x="2638.53" y="-326.2" font-family="Times,serif" font-size="14.00">prod2&#45;&gt;. prod2 TOKEN_4 prod3</text>
<text text-anchor="middle" x="2638.53" y="-309.4" font-family="Times,serif" font-size="14.00">prod2&#45;&gt;. TOKEN_2 prod1</text>
<text text-anchor="middle" x="2638.53" y="-292.6" font-family="Times,serif" font-size="14.00">prod2&#45;&gt;. TOKEN_3</text>
<text text-anchor="middle" x="2638.53" y="-275.8" font-family="Times,serif" font-size="14.00">prod3&#45;&gt;prod1 . TOKEN_5</text>
</g>
<!-- I12&#45;&gt;I18 -->
<g id="edge18" class="edge">
<title>I12&#45;&gt;I18</title>
<path fill="none" stroke="black" d="M2407.82,-354.34C2436.19,-350.34 2466.29,-346.1 2495.02,-342.06"/>
<polygon fill="black" stroke="black" points="2495.71,-345.5 2505.12,-340.64 2494.73,-338.57 2495.71,-345.5"/>
<text text-anchor="middle" x="2456.38" y="-354.2" font-family="Times,serif" font-size="14.00">prod1</text>
</g>
<!-- I19 -->
<g id="node20" class="node">
<title>I19</title>
<polygon fill="none" stroke="black" points="1574.61,-573.4 1307.83,-573.4 1307.83,-430.6 1574.61,-430.6 1574.61,-573.4"/>
<text text-anchor="middle" x="1441.22" y="-556.6" font-family="Times,serif" font-size="14.00">I19</text>
<text text-anchor="middle" x="1441.22" y="-539.8" font-family="Times,serif" font-size="14.00">prod2&#45;&gt;prod2 TOKEN_4 . prod3</text>
<text text-anchor="middle" x="1441.22" y="-523" font-family="Times,serif" font-size="14.00">prod3&#45;&gt;. prod1 TOKEN_5</text>
<text text-anchor="middle" x="1441.22" y="-506.2" font-family="Times,serif" font-size="14.00">prod3&#45;&gt;. id</text>
<text text-anchor="middle" x="1441.22" y="-489.4" font-family="Times,serif" font-size="14.00">prod1&#45;&gt;. TOKEN_0 TOKEN_1 prod1 prod2</text>
<text text-anchor="middle" x="1441.22" y="-472.6" font-family="Times,serif" font-size="14.00">prod1&#45;&gt;. prod3 prod4 digits</text>
<text text-anchor="middle" x="1441.22" y="-455.8" font-family="Times,serif" font-size="14.00">prod1&#45;&gt;. number id</text>
<text text-anchor="middle" x="1441.22" y="-439" font-family="Times,serif" font-size="14.00">prod1&#45;&gt;. string</text>
</g>
<!-- I14&#45;&gt;I19 -->
<g id="edge24" class="edge">
<title>I14&#45;&gt;I19</title>
<path fill="none" stroke="black" d="M1210.77,-451.95C1236.59,-455.75 1264.29,-460.23 1289.78,-465.2 1292.32,-465.7 1294.88,-466.2 1297.46,-466.73"/>
<polygon fill="black" stroke="black" points="1296.97,-470.2 1307.47,-468.8 1298.39,-463.35 1296.97,-470.2"/>
<text text-anchor="middle" x="1259.06" y="-469.2" font-family="Times,serif" font-size="14.00">TOKEN_4</text>
</g>
<!-- I15&#45;&gt;I2 -->
<g id="edge26" class="edge">
<title>I15&#45;&gt;I2</title>
<path fill="none" stroke="black" d="M2869.19,-138.57C2863.2,-137.29 2857.25,-136.09 2851.4,-135 2691.28,-105.1 2649.73,-103.9 2487.09,-95 2023.39,-69.62 1906.61,-101 1442.22,-101 808.98,-101 808.98,-101 808.98,-101 678.97,-101 628.36,-92.87 525.2,-172 485.66,-202.33 459.15,-252.45 442.97,-292.88"/>
<polygon fill="black" stroke="black" points="439.63,-291.81 439.27,-302.4 446.16,-294.34 439.63,-291.81"/>
<text text-anchor="middle" x="1623.38" y="-104.2" font-family="Times,serif" font-size="14.00">prod3</text>
</g>
<!-- I15&#45;&gt;I3 -->
<g id="edge27" class="edge">
<title>I15&#45;&gt;I3</title>
<path fill="none" stroke="black" d="M2869.42,-192.71C2636.82,-223.87 2176.05,-285.92 2140.78,-293 2051.69,-310.89 1951.15,-338.73 1883.82,-358.5"/>
<polygon fill="black" stroke="black" points="1882.73,-355.17 1874.13,-361.35 1884.71,-361.88 1882.73,-355.17"/>
<text text-anchor="middle" x="2456.38" y="-256.2" font-family="Times,serif" font-size="14.00">TOKEN_0</text>
</g>
<!-- I15&#45;&gt;I4 -->
<g id="edge28" class="edge">
<title>I15&#45;&gt;I4</title>
<path fill="none" stroke="black" d="M3136.51,-124.79C3176.34,-109.71 3218.23,-93.86 3251.47,-81.28"/>
<polygon fill="black" stroke="black" points="3252.94,-84.46 3261.06,-77.65 3250.47,-77.92 3252.94,-84.46"/>
<text text-anchor="middle" x="3185" y="-120.2" font-family="Times,serif" font-size="14.00">number</text>
</g>
<!-- I15&#45;&gt;I5 -->
<g id="edge29" class="edge">
<title>I15&#45;&gt;I5</title>
<path fill="none" stroke="black" d="M3090.87,-246.4C3132.11,-283.17 3180.04,-330.45 3215.71,-379.2 3256.45,-434.87 3288.49,-509.67 3304.47,-550.78"/>
<polygon fill="black" stroke="black" points="3301.25,-552.14 3308.09,-560.23 3307.78,-549.64 3301.25,-552.14"/>
<text text-anchor="middle" x="3185" y="-383.2" font-family="Times,serif" font-size="14.00">id</text>
</g>
<!-- I15&#45;&gt;I6 -->
<g id="edge30" class="edge">
<title>I15&#45;&gt;I6</title>
<path fill="none" stroke="black" d="M3136.31,-182.94C3170.56,-187.12 3201.73,-193.49 3215.71,-203.2 3229.69,-212.91 3223.67,-223.26 3233.71,-237 3248.48,-257.21 3267.94,-277.37 3284.19,-292.88"/>
<polygon fill="black" stroke="black" points="3282.19,-295.8 3291.87,-300.09 3286.98,-290.7 3282.19,-295.8"/>
<text text-anchor="middle" x="3185" y="-208.2" font-family="Times,serif" font-size="14.00">string</text>
</g>
<!-- I20 -->
<g id="node21" class="node">
<title>I20</title>
<polygon fill="none" stroke="black" points="3399.42,-228.4 3233.81,-228.4 3233.81,-169.6 3399.42,-169.6 3399.42,-228.4"/>
<text text-anchor="middle" x="3316.61" y="-211.6" font-family="Times,serif" font-size="14.00">I20</text>
<text text-anchor="middle" x="3316.61" y="-194.8" font-family="Times,serif" font-size="14.00">prod2&#45;&gt;TOKEN_2 prod1 .</text>
<text text-anchor="middle" x="3316.61" y="-178" font-family="Times,serif" font-size="14.00">prod3&#45;&gt;prod1 . TOKEN_5</text>
</g>
<!-- I15&#45;&gt;I20 -->
<g id="edge25" class="edge">
<title>I15&#45;&gt;I20</title>
<path fill="none" stroke="black" d="M3136.33,-158.38C3162.76,-157.66 3190.21,-158.77 3215.71,-163.2 3221.47,-164.2 3227.33,-165.5 3233.19,-167.02"/>
<polygon fill="black" stroke="black" points="3232.44,-170.44 3243.01,-169.75 3234.31,-163.7 3232.44,-170.44"/>
<text text-anchor="middle" x="3185" y="-168.2" font-family="Times,serif" font-size="14.00">prod1</text>
</g>
<!-- I18&#45;&gt;I7 -->
<g id="edge34" class="edge">
<title>I18&#45;&gt;I7</title>
<path fill="none" stroke="black" d="M2771.97,-308.99C2873.2,-302.73 3015.42,-301.92 3136.29,-331 3296.04,-369.43 3465.35,-471.9 3539.83,-520.59"/>
<polygon fill="black" stroke="black" points="3538.16,-523.68 3548.44,-526.26 3542.01,-517.83 3538.16,-523.68"/>
<text text-anchor="middle" x="3185" y="-358.2" font-family="Times,serif" font-size="14.00">TOKEN_5</text>
</g>
<!-- I18&#45;&gt;I15 -->
<g id="edge32" class="edge">
<title>I18&#45;&gt;I15</title>
<path fill="none" stroke="black" d="M2772.13,-268.2C2800.75,-256.59 2831.13,-244.27 2860.08,-232.52"/>
<polygon fill="black" stroke="black" points="2861.48,-235.73 2869.43,-228.72 2858.85,-229.24 2861.48,-235.73"/>
<text text-anchor="middle" x="2820.69" y="-261.2" font-family="Times,serif" font-size="14.00">TOKEN_2</text>
</g>
<!-- I18&#45;&gt;I16 -->
<g id="edge33" class="edge">
<title>I18&#45;&gt;I16</title>
<path fill="none" stroke="black" d="M2772.13,-336.27C2824.62,-341.92 2882.98,-348.2 2927.74,-353.02"/>
<polygon fill="black" stroke="black" points="2927.62,-356.53 2937.94,-354.12 2928.37,-349.57 2927.62,-356.53"/>
<text text-anchor="middle" x="2820.69" y="-347.2" font-family="Times,serif" font-size="14.00">TOKEN_3</text>
</g>
<!-- I21 -->
<g id="node22" class="node">
<title>I21</title>
<polygon fill="none" stroke="black" points="3136.23,-458.4 2869.46,-458.4 2869.46,-399.6 3136.23,-399.6 3136.23,-458.4"/>
<text text-anchor="middle" x="3002.84" y="-441.6" font-family="Times,serif" font-size="14.00">I21</text>
<text text-anchor="middle" x="3002.84" y="-424.8" font-family="Times,serif" font-size="14.00">prod1&#45;&gt;TOKEN_0 TOKEN_1 prod1 prod2 .</text>
<text text-anchor="middle" x="3002.84" y="-408" font-family="Times,serif" font-size="14.00">prod2&#45;&gt;prod2 . TOKEN_4 prod3</text>
</g>
<!-- I18&#45;&gt;I21 -->
<g id="edge31" class="edge">
<title>I18&#45;&gt;I21</title>
<path fill="none" stroke="black" d="M2771.94,-362.05C2803.84,-371.61 2837.82,-381.73 2869.4,-391 2875.95,-392.92 2882.69,-394.89 2889.5,-396.87"/>
<polygon fill="black" stroke="black" points="2888.92,-400.34 2899.49,-399.77 2890.87,-393.62 2888.92,-400.34"/>
<text text-anchor="middle" x="2820.69" y="-389.2" font-family="Times,serif" font-size="14.00">prod2</text>
</g>
<!-- I19&#45;&gt;I2 -->
<g id="edge36" class="edge">
<title>I19&#45;&gt;I2</title>
<path fill="none" stroke="black" d="M1307.55,-501.49C1160.86,-499.98 917.68,-494.71 709,-477 626.86,-470.03 599.77,-487.15 525.2,-452 507.7,-443.75 491.13,-431.44 476.62,-418.4"/>
<polygon fill="black" stroke="black" points="478.93,-415.77 469.22,-411.53 474.17,-420.9 478.93,-415.77"/>
<text text-anchor="middle" x="959.68" y="-497.2" font-family="Times,serif" font-size="14.00">prod3</text>
</g>
<!-- I19&#45;&gt;I3 -->
<g id="edge37" class="edge">
<title>I19&#45;&gt;I3</title>
<path fill="none" stroke="black" d="M1574.82,-458.08C1628.09,-440.44 1687.41,-420.79 1732.43,-405.88"/>
<polygon fill="black" stroke="black" points="1733.7,-409.15 1742.09,-402.68 1731.5,-402.5 1733.7,-409.15"/>
<text text-anchor="middle" x="1623.38" y="-453.2" font-family="Times,serif" font-size="14.00">TOKEN_0</text>
</g>
<!-- I19&#45;&gt;I4 -->
<g id="edge38" class="edge">
<title>I19&#45;&gt;I4</title>
<path fill="none" stroke="black" d="M1478.26,-430.53C1516.53,-362.73 1583.68,-263.99 1672.09,-214 1730.5,-180.97 2802.47,-59.78 2869.4,-55 3022.93,-44.04 3061.84,-48.15 3215.71,-52 3224.76,-52.23 3234.27,-52.57 3243.68,-52.97"/>
<polygon fill="black" stroke="black" points="3243.67,-56.47 3253.81,-53.42 3243.98,-49.48 3243.67,-56.47"/>
<text text-anchor="middle" x="2456.38" y="-109.2" font-family="Times,serif" font-size="14.00">number</text>
</g>
<!-- I19&#45;&gt;I5 -->
<g id="edge39" class="edge">
<title>I19&#45;&gt;I5</title>
<path fill="none" stroke="black" d="M1574.93,-565.45C1580.86,-567.18 1586.78,-568.71 1592.66,-570 1924.31,-642.58 3022.41,-595.1 3267.03,-583.4"/>
<polygon fill="black" stroke="black" points="3267.21,-586.9 3277.04,-582.92 3266.88,-579.91 3267.21,-586.9"/>
<text text-anchor="middle" x="2456.38" y="-612.2" font-family="Times,serif" font-size="14.00">id</text>
</g>
<!-- I19&#45;&gt;I6 -->
<g id="edge40" class="edge">
<title>I19&#45;&gt;I6</title>
<path fill="none" stroke="black" d="M1574.87,-531.37C1643.13,-544.04 1727.9,-556 1804.53,-556 1804.53,-556 1804.53,-556 2457.38,-556 2533.2,-556 3067.18,-518.2 3136.29,-487 3204.59,-456.17 3264.01,-388.85 3294.29,-350.08"/>
<polygon fill="black" stroke="black" points="3297.33,-351.86 3300.65,-341.8 3291.78,-347.6 3297.33,-351.86"/>
<text text-anchor="middle" x="2456.38" y="-560.2" font-family="Times,serif" font-size="14.00">string</text>
</g>
<!-- I22 -->
<g id="node23" class="node">
<title>I22</title>
<polygon fill="none" stroke="black" points="2122.68,-653.6 1957.07,-653.6 1957.07,-612.4 2122.68,-612.4 2122.68,-653.6"/>
<text text-anchor="middle" x="2039.88" y="-637.2" font-family="Times,serif" font-size="14.00">I22</text>
<text text-anchor="middle" x="2039.88" y="-620.4" font-family="Times,serif" font-size="14.00">prod3&#45;&gt;prod1 . TOKEN_5</text>
</g>
<!-- I19&#45;&gt;I22 -->
<g id="edge35" class="edge">
<title>I19&#45;&gt;I22</title>
<path fill="none" stroke="black" d="M1525.04,-573.3C1545.88,-587.6 1569.06,-600.76 1592.66,-609 1709.68,-649.86 1854.42,-649.07 1946.72,-642.7"/>
<polygon fill="black" stroke="black" points="1947.15,-646.18 1956.87,-641.96 1946.64,-639.2 1947.15,-646.18"/>
<text text-anchor="middle" x="1623.38" y="-629.2" font-family="Times,serif" font-size="14.00">prod1</text>
</g>
<!-- I20&#45;&gt;I7 -->
<g id="edge41" class="edge">
<title>I20&#45;&gt;I7</title>
<path fill="none" stroke="black" d="M3344.45,-228.58C3360.58,-246.5 3381.42,-269.9 3399.51,-291 3435.6,-333.09 3446.52,-342.22 3478.94,-387.2 3510.45,-430.93 3542.78,-484.55 3561.82,-517.23"/>
<polygon fill="black" stroke="black" points="3559.01,-519.36 3567.06,-526.26 3565.07,-515.85 3559.01,-519.36"/>
<text text-anchor="middle" x="3448.23" y="-391.2" font-family="Times,serif" font-size="14.00">TOKEN_5</text>
</g>
<!-- I21&#45;&gt;I19 -->
<g id="edge42" class="edge">
<title>I21&#45;&gt;I19</title>
<path fill="none" stroke="black" d="M2939.59,-458.21C2913.03,-469.17 2881.32,-480.35 2851.4,-486 2612.2,-531.2 1893.44,-515.8 1585.16,-506.7"/>
<polygon fill="black" stroke="black" points="1584.92,-503.19 1574.82,-506.39 1584.71,-510.19 1584.92,-503.19"/>
<text text-anchor="middle" x="2274.22" y="-520.2" font-family="Times,serif" font-size="14.00">TOKEN_4</text>
</g>
<!-- I22&#45;&gt;I7 -->
<g id="edge43" class="edge">
<title>I22&#45;&gt;I7</title>
<path fill="none" stroke="black" d="M2122.88,-637.01C2353.31,-647.84 3003.57,-675.37 3215.71,-652 3325.36,-639.92 3447.58,-598.43 3518.58,-571.37"/>
<polygon fill="black" stroke="black" points="3520.18,-574.5 3528.25,-567.65 3517.66,-567.97 3520.18,-574.5"/>
<text text-anchor="middle" x="2820.69" y="-664.2" font-family="Times,serif" font-size="14.00">TOKEN_5</text>
</g>
</g>
</svg>
