<?xml version="1.0" encoding="UTF-8" standalone="no"?>
<!DOCTYPE svg PUBLIC "-//W3C//DTD SVG 1.1//EN"
 "http://www.w3.org/Graphics/SVG/1.1/DTD/svg11.dtd">
<!-- Generated by graphviz version 2.44.0 (20200518.1210)
 -->
<!-- Title: items Pages: 1 -->
<svg width="100%" height="100%"
 viewBox="0.00 0.00 1440.00 393.33" xmlns="http://www.w3.org/2000/svg" xmlns:xlink="http://www.w3.org/1999/xlink">
<g id="graph0" class="graph" transform="scale(0.48 0.48) rotate(0) translate(4 808.8)">
<title>items</title>
<polygon fill="white" stroke="transparent" points="-4,4 -4,-808.8 2971.72,-808.8 2971.72,4 -4,4"/>
<!-- I0 -->
<g id="node1" class="node">
<title>I0</title>
<polygon fill="none" stroke="black" points="244.59,-708.3 0.14,-708.3 0.14,-515.7 244.59,-515.7 244.59,-708.3"/>
<text text-anchor="middle" x="122.36" y="-691.8" font-family="Times,serif" font-size="14.00">I0</text>
<text text-anchor="middle" x="122.36" y="-675" font-family="Times,serif" font-size="14.00">E&#39;&#45;&gt;. expression</text>
<text text-anchor="middle" x="122.36" y="-658.2" font-family="Times,serif" font-size="14.00">expression&#45;&gt;. expression PLUS term</text>
<text text-anchor="middle" x="122.36" y="-641.4" font-family="Times,serif" font-size="14.00">expression&#45;&gt;. expression MINUS term</text>
<text text-anchor="middle" x="122.36" y="-624.6" font-family="Times,serif" font-size="14.00">expression&#45;&gt;. term</text>
<text text-anchor="middle" x="122.36" y="-607.8" font-family="Times,serif" font-size="14.00">term&#45;&gt;. term TIMES factor</text>
<text text-anchor="middle" x="122.36" y="-591" font-family="Times,serif" font-size="14.00">term&#45;&gt;. term DIV factor</text>
<text text-anchor="middle" x="122.36" y="-574.2" font-family="Times,serif" font-size="14.00">term&#45;&gt;. factor</text>
<text text-anchor="middle" x="122.36" y="-557.4" font-family="Times,serif" font-size="14.00">factor&#45;&gt;. LPAREN expression RPAREN</text>
<text text-anchor="middle" x="122.36" y="-540.6" font-family="Times,serif" font-size="14.00">factor&#45;&gt;. ID</text>
<text text-anchor="middle" x="122.36" y="-523.8" font-family="Times,serif" font-size="14.00">factor&#45;&gt;. NUMBER</text>
</g>
<!-- I1 -->
<g id="node2" class="node">
<title>I1</title>
<polygon fill="none" stroke="black" points="573.67,-600.7 340.57,-600.7 340.57,-525.3 573.67,-525.3 573.67,-600.7"/>
<text text-anchor="middle" x="457.12" y="-584" font-family="Times,serif" font-size="14.00">I1</text>
<text text-anchor="middle" x="457.12" y="-567.2" font-family="Times,serif" font-size="14.00">E&#39;&#45;&gt;expression .</text>
<text text-anchor="middle" x="457.12" y="-550.4" font-family="Times,serif" font-size="14.00">expression&#45;&gt;expression . PLUS term</text>
<text text-anchor="middle" x="457.12" y="-533.6" font-family="Times,serif" font-size="14.00">expression&#45;&gt;expression . MINUS term</text>
</g>
<!-- I0&#45;&gt;I1 -->
<g id="edge1" class="edge">
<title>I0&#45;&gt;I1</title>
<path fill="none" stroke="black" d="M244.91,-594.1C272.69,-590.01 302.27,-585.66 330.23,-581.54"/>
<polygon fill="black" stroke="black" points="331.06,-584.95 340.45,-580.03 330.04,-578.03 331.06,-584.95"/>
<text text-anchor="middle" x="292.66" y="-594.2" font-family="Times,serif" font-size="14.00">expression</text>
</g>
<!-- I2 -->
<g id="node3" class="node">
<title>I2</title>
<polygon fill="none" stroke="black" points="1770.82,-274.7 1602.81,-274.7 1602.81,-199.3 1770.82,-199.3 1770.82,-274.7"/>
<text text-anchor="middle" x="1686.82" y="-258" font-family="Times,serif" font-size="14.00">I2</text>
<text text-anchor="middle" x="1686.82" y="-241.2" font-family="Times,serif" font-size="14.00">expression&#45;&gt;term .</text>
<text text-anchor="middle" x="1686.82" y="-224.4" font-family="Times,serif" font-size="14.00">term&#45;&gt;term . TIMES factor</text>
<text text-anchor="middle" x="1686.82" y="-207.6" font-family="Times,serif" font-size="14.00">term&#45;&gt;term . DIV factor</text>
</g>
<!-- I0&#45;&gt;I2 -->
<g id="edge2" class="edge">
<title>I0&#45;&gt;I2</title>
<path fill="none" stroke="black" d="M144.01,-515.62C180.45,-374.96 270.55,-130 456.12,-130 456.12,-130 456.12,-130 1122.61,-130 1168.88,-130 1445.16,-186.47 1592.84,-217.36"/>
<polygon fill="black" stroke="black" points="1592.31,-220.83 1602.81,-219.45 1593.74,-213.98 1592.31,-220.83"/>
<text text-anchor="middle" x="786.45" y="-134.2" font-family="Times,serif" font-size="14.00">term</text>
</g>
<!-- I3 -->
<g id="node4" class="node">
<title>I3</title>
<polygon fill="none" stroke="black" points="2293.06,-612.6 2199.35,-612.6 2199.35,-571.4 2293.06,-571.4 2293.06,-612.6"/>
<text text-anchor="middle" x="2246.2" y="-596.2" font-family="Times,serif" font-size="14.00">I3</text>
<text text-anchor="middle" x="2246.2" y="-579.4" font-family="Times,serif" font-size="14.00">term&#45;&gt;factor .</text>
</g>
<!-- I0&#45;&gt;I3 -->
<g id="edge3" class="edge">
<title>I0&#45;&gt;I3</title>
<path fill="none" stroke="black" d="M244.62,-684.22C305.87,-714.15 382.62,-742 456.12,-742 456.12,-742 456.12,-742 1292.91,-742 1636.96,-742 2042.51,-645.28 2188.94,-607.17"/>
<polygon fill="black" stroke="black" points="2190.25,-610.45 2199.04,-604.53 2188.48,-603.68 2190.25,-610.45"/>
<text text-anchor="middle" x="1121.61" y="-746.2" font-family="Times,serif" font-size="14.00">factor</text>
</g>
<!-- I4 -->
<g id="node5" class="node">
<title>I4</title>
<polygon fill="none" stroke="black" points="2924.94,-616.6 2842.01,-616.6 2842.01,-575.4 2924.94,-575.4 2924.94,-616.6"/>
<text text-anchor="middle" x="2883.47" y="-600.2" font-family="Times,serif" font-size="14.00">I4</text>
<text text-anchor="middle" x="2883.47" y="-583.4" font-family="Times,serif" font-size="14.00">factor&#45;&gt;ID .</text>
</g>
<!-- I0&#45;&gt;I4 -->
<g id="edge4" class="edge">
<title>I0&#45;&gt;I4</title>
<path fill="none" stroke="black" d="M239.3,-708.5C300,-749.49 377.86,-788 456.12,-788 456.12,-788 456.12,-788 2581.97,-788 2701.81,-788 2812.22,-678.23 2858.95,-624.69"/>
<polygon fill="black" stroke="black" points="2861.77,-626.78 2865.64,-616.91 2856.46,-622.22 2861.77,-626.78"/>
<text text-anchor="middle" x="1462.2" y="-792.2" font-family="Times,serif" font-size="14.00">ID</text>
</g>
<!-- I5 -->
<g id="node6" class="node">
<title>I5</title>
<polygon fill="none" stroke="black" points="2947.55,-123.6 2819.39,-123.6 2819.39,-82.4 2947.55,-82.4 2947.55,-123.6"/>
<text text-anchor="middle" x="2883.47" y="-107.2" font-family="Times,serif" font-size="14.00">I5</text>
<text text-anchor="middle" x="2883.47" y="-90.4" font-family="Times,serif" font-size="14.00">factor&#45;&gt;NUMBER .</text>
</g>
<!-- I0&#45;&gt;I5 -->
<g id="edge5" class="edge">
<title>I0&#45;&gt;I5</title>
<path fill="none" stroke="black" d="M131.94,-515.36C153.12,-342.91 224.37,0 456.12,0 456.12,0 456.12,0 2581.97,0 2677.05,0 2780.36,-46.71 2837.68,-77.22"/>
<polygon fill="black" stroke="black" points="2836.36,-80.49 2846.82,-82.16 2839.69,-74.33 2836.36,-80.49"/>
<text text-anchor="middle" x="1462.2" y="-4.2" font-family="Times,serif" font-size="14.00">NUMBER</text>
</g>
<!-- I6 -->
<g id="node7" class="node">
<title>I6</title>
<polygon fill="none" stroke="black" points="1243.83,-521.3 999.38,-521.3 999.38,-328.7 1243.83,-328.7 1243.83,-521.3"/>
<text text-anchor="middle" x="1121.61" y="-504.8" font-family="Times,serif" font-size="14.00">I6</text>
<text text-anchor="middle" x="1121.61" y="-488" font-family="Times,serif" font-size="14.00">factor&#45;&gt;LPAREN . expression RPAREN</text>
<text text-anchor="middle" x="1121.61" y="-471.2" font-family="Times,serif" font-size="14.00">expression&#45;&gt;. expression PLUS term</text>
<text text-anchor="middle" x="1121.61" y="-454.4" font-family="Times,serif" font-size="14.00">expression&#45;&gt;. expression MINUS term</text>
<text text-anchor="middle" x="1121.61" y="-437.6" font-family="Times,serif" font-size="14.00">expression&#45;&gt;. term</text>
<text text-anchor="middle" x="1121.61" y="-420.8" font-family="Times,serif" font-size="14.00">term&#45;&gt;. term TIMES factor</text>
<text text-anchor="middle" x="1121.61" y="-404" font-family="Times,serif" font-size="14.00">term&#45;&gt;. term DIV factor</text>
<text text-anchor="middle" x="1121.61" y="-387.2" font-family="Times,serif" font-size="14.00">term&#45;&gt;. factor</text>
<text text-anchor="middle" x="1121.61" y="-370.4" font-family="Times,serif" font-size="14.00">factor&#45;&gt;. LPAREN expression RPAREN</text>
<text text-anchor="middle" x="1121.61" y="-353.6" font-family="Times,serif" font-size="14.00">factor&#45;&gt;. ID</text>
<text text-anchor="middle" x="1121.61" y="-336.8" font-family="Times,serif" font-size="14.00">factor&#45;&gt;. NUMBER</text>
</g>
<!-- I0&#45;&gt;I6 -->
<g id="edge6" class="edge">
<title>I0&#45;&gt;I6</title>
<path fill="none" stroke="black" d="M245.02,-621.22C336.07,-625.77 463.37,-627.12 573.65,-610 727.9,-586.05 761.25,-555.93 908.81,-505 935.15,-495.91 963.14,-485.72 989.85,-475.73"/>
<polygon fill="black" stroke="black" points="991.11,-479 999.24,-472.21 988.65,-472.45 991.11,-479"/>
<text text-anchor="middle" x="618.87" y="-610.2" font-family="Times,serif" font-size="14.00">LPAREN</text>
</g>
<!-- I7 -->
<g id="node8" class="node">
<title>I7</title>
<polygon fill="none" stroke="black" points="908.67,-496.4 664.22,-496.4 664.22,-353.6 908.67,-353.6 908.67,-496.4"/>
<text text-anchor="middle" x="786.45" y="-479.6" font-family="Times,serif" font-size="14.00">I7</text>
<text text-anchor="middle" x="786.45" y="-462.8" font-family="Times,serif" font-size="14.00">expression&#45;&gt;expression PLUS . term</text>
<text text-anchor="middle" x="786.45" y="-446" font-family="Times,serif" font-size="14.00">term&#45;&gt;. term TIMES factor</text>
<text text-anchor="middle" x="786.45" y="-429.2" font-family="Times,serif" font-size="14.00">term&#45;&gt;. term DIV factor</text>
<text text-anchor="middle" x="786.45" y="-412.4" font-family="Times,serif" font-size="14.00">term&#45;&gt;. factor</text>
<text text-anchor="middle" x="786.45" y="-395.6" font-family="Times,serif" font-size="14.00">factor&#45;&gt;. LPAREN expression RPAREN</text>
<text text-anchor="middle" x="786.45" y="-378.8" font-family="Times,serif" font-size="14.00">factor&#45;&gt;. ID</text>
<text text-anchor="middle" x="786.45" y="-362" font-family="Times,serif" font-size="14.00">factor&#45;&gt;. NUMBER</text>
</g>
<!-- I1&#45;&gt;I7 -->
<g id="edge7" class="edge">
<title>I1&#45;&gt;I7</title>
<path fill="none" stroke="black" d="M547.56,-525.29C580.58,-511.37 618.7,-495.3 654.63,-480.15"/>
<polygon fill="black" stroke="black" points="656.35,-483.23 664.2,-476.12 653.63,-476.78 656.35,-483.23"/>
<text text-anchor="middle" x="618.87" y="-510.2" font-family="Times,serif" font-size="14.00">PLUS</text>
</g>
<!-- I8 -->
<g id="node9" class="node">
<title>I8</title>
<polygon fill="none" stroke="black" points="2033.66,-545.4 1789.21,-545.4 1789.21,-402.6 2033.66,-402.6 2033.66,-545.4"/>
<text text-anchor="middle" x="1911.43" y="-528.6" font-family="Times,serif" font-size="14.00">I8</text>
<text text-anchor="middle" x="1911.43" y="-511.8" font-family="Times,serif" font-size="14.00">expression&#45;&gt;expression MINUS . term</text>
<text text-anchor="middle" x="1911.43" y="-495" font-family="Times,serif" font-size="14.00">term&#45;&gt;. term TIMES factor</text>
<text text-anchor="middle" x="1911.43" y="-478.2" font-family="Times,serif" font-size="14.00">term&#45;&gt;. term DIV factor</text>
<text text-anchor="middle" x="1911.43" y="-461.4" font-family="Times,serif" font-size="14.00">term&#45;&gt;. factor</text>
<text text-anchor="middle" x="1911.43" y="-444.6" font-family="Times,serif" font-size="14.00">factor&#45;&gt;. LPAREN expression RPAREN</text>
<text text-anchor="middle" x="1911.43" y="-427.8" font-family="Times,serif" font-size="14.00">factor&#45;&gt;. ID</text>
<text text-anchor="middle" x="1911.43" y="-411" font-family="Times,serif" font-size="14.00">factor&#45;&gt;. NUMBER</text>
</g>
<!-- I1&#45;&gt;I8 -->
<g id="edge8" class="edge">
<title>I1&#45;&gt;I8</title>
<path fill="none" stroke="black" d="M521.87,-600.68C543.3,-611.38 567.83,-621.59 591.65,-627 615.24,-632.36 621.89,-627.3 646.08,-627 1063.28,-621.89 1169.31,-644.5 1584.57,-604 1668.27,-595.84 1693.33,-604.08 1771.07,-572 1785.09,-566.22 1799.08,-558.82 1812.49,-550.68"/>
<polygon fill="black" stroke="black" points="1814.59,-553.5 1821.22,-545.24 1810.88,-547.56 1814.59,-553.5"/>
<text text-anchor="middle" x="1121.61" y="-632.2" font-family="Times,serif" font-size="14.00">MINUS</text>
</g>
<!-- I9 -->
<g id="node10" class="node">
<title>I9</title>
<polygon fill="none" stroke="black" points="2703.2,-439 2458.75,-439 2458.75,-347 2703.2,-347 2703.2,-439"/>
<text text-anchor="middle" x="2580.97" y="-422.4" font-family="Times,serif" font-size="14.00">I9</text>
<text text-anchor="middle" x="2580.97" y="-405.6" font-family="Times,serif" font-size="14.00">term&#45;&gt;term TIMES . factor</text>
<text text-anchor="middle" x="2580.97" y="-388.8" font-family="Times,serif" font-size="14.00">factor&#45;&gt;. LPAREN expression RPAREN</text>
<text text-anchor="middle" x="2580.97" y="-372" font-family="Times,serif" font-size="14.00">factor&#45;&gt;. ID</text>
<text text-anchor="middle" x="2580.97" y="-355.2" font-family="Times,serif" font-size="14.00">factor&#45;&gt;. NUMBER</text>
</g>
<!-- I2&#45;&gt;I9 -->
<g id="edge9" class="edge">
<title>I2&#45;&gt;I9</title>
<path fill="none" stroke="black" d="M1770.89,-246.25C1869.46,-257.42 2022.02,-275.4 2033.79,-281 2055.38,-291.26 2098.61,-335.18 2111.68,-355.2 2124.54,-374.91 2110.41,-391.48 2129.68,-405 2214.46,-464.5 2259.19,-407.86 2362.73,-405 2390.39,-404.24 2420.01,-402.93 2448.2,-401.45"/>
<polygon fill="black" stroke="black" points="2448.72,-404.93 2458.51,-400.9 2448.34,-397.94 2448.72,-404.93"/>
<text text-anchor="middle" x="2081.74" y="-360.2" font-family="Times,serif" font-size="14.00">TIMES</text>
</g>
<!-- I10 -->
<g id="node11" class="node">
<title>I10</title>
<polygon fill="none" stroke="black" points="2703.2,-322 2458.75,-322 2458.75,-230 2703.2,-230 2703.2,-322"/>
<text text-anchor="middle" x="2580.97" y="-305.4" font-family="Times,serif" font-size="14.00">I10</text>
<text text-anchor="middle" x="2580.97" y="-288.6" font-family="Times,serif" font-size="14.00">term&#45;&gt;term DIV . factor</text>
<text text-anchor="middle" x="2580.97" y="-271.8" font-family="Times,serif" font-size="14.00">factor&#45;&gt;. LPAREN expression RPAREN</text>
<text text-anchor="middle" x="2580.97" y="-255" font-family="Times,serif" font-size="14.00">factor&#45;&gt;. ID</text>
<text text-anchor="middle" x="2580.97" y="-238.2" font-family="Times,serif" font-size="14.00">factor&#45;&gt;. NUMBER</text>
</g>
<!-- I2&#45;&gt;I10 -->
<g id="edge10" class="edge">
<title>I2&#45;&gt;I10</title>
<path fill="none" stroke="black" d="M1771.11,-234.46C1841.47,-233.56 1944.72,-235.14 2033.79,-248 2077.38,-254.29 2086.01,-267.25 2129.68,-273 2236.32,-287.04 2358.41,-286.85 2448.53,-283.68"/>
<polygon fill="black" stroke="black" points="2448.67,-287.17 2458.53,-283.31 2448.41,-280.18 2448.67,-287.17"/>
<text text-anchor="middle" x="2081.74" y="-274.2" font-family="Times,serif" font-size="14.00">DIV</text>
</g>
<!-- I6&#45;&gt;I2 -->
<g id="edge12" class="edge">
<title>I6&#45;&gt;I2</title>
<path fill="none" stroke="black" d="M1230.4,-328.69C1263.3,-304.91 1301.08,-282.64 1339.84,-270 1422.4,-243.07 1521.48,-235.99 1592.41,-234.95"/>
<polygon fill="black" stroke="black" points="1592.71,-238.45 1602.67,-234.84 1592.63,-231.45 1592.71,-238.45"/>
<text text-anchor="middle" x="1291.91" y="-310.2" font-family="Times,serif" font-size="14.00">term</text>
</g>
<!-- I6&#45;&gt;I3 -->
<g id="edge13" class="edge">
<title>I6&#45;&gt;I3</title>
<path fill="none" stroke="black" d="M1243.9,-453.39C1275.1,-460.41 1308.67,-467.71 1339.84,-474 1538.63,-514.1 1587.97,-527.78 1789.07,-554 1932.56,-572.71 2102.71,-584.03 2188.98,-589.01"/>
<polygon fill="black" stroke="black" points="2188.9,-592.51 2199.08,-589.58 2189.3,-585.52 2188.9,-592.51"/>
<text text-anchor="middle" x="1686.82" y="-555.2" font-family="Times,serif" font-size="14.00">factor</text>
</g>
<!-- I6&#45;&gt;I4 -->
<g id="edge14" class="edge">
<title>I6&#45;&gt;I4</title>
<path fill="none" stroke="black" d="M1208.32,-521.52C1245.15,-556.67 1290.95,-592.92 1339.84,-614 1643.68,-745.02 1749.85,-687 2080.74,-687 2080.74,-687 2080.74,-687 2581.97,-687 2673.37,-687 2773.95,-647.97 2832.47,-621.03"/>
<polygon fill="black" stroke="black" points="2834.27,-624.05 2841.85,-616.65 2831.31,-617.71 2834.27,-624.05"/>
<text text-anchor="middle" x="2081.74" y="-691.2" font-family="Times,serif" font-size="14.00">ID</text>
</g>
<!-- I6&#45;&gt;I5 -->
<g id="edge15" class="edge">
<title>I6&#45;&gt;I5</title>
<path fill="none" stroke="black" d="M1241.83,-328.5C1242.56,-327.34 1243.28,-326.17 1243.97,-325 1265.86,-288.02 1236.94,-264.93 1261.97,-230 1285.13,-197.69 1301.95,-198.02 1339.84,-186 1881.5,-14.23 2583.2,-69.93 2809.04,-94.24"/>
<polygon fill="black" stroke="black" points="2808.79,-97.73 2819.11,-95.33 2809.55,-90.77 2808.79,-97.73"/>
<text text-anchor="middle" x="2081.74" y="-75.2" font-family="Times,serif" font-size="14.00">NUMBER</text>
</g>
<!-- I6&#45;&gt;I6 -->
<g id="edge16" class="edge">
<title>I6&#45;&gt;I6</title>
<path fill="none" stroke="black" d="M1095.23,-521.4C1100.17,-532.32 1108.96,-539.4 1121.61,-539.4 1130.5,-539.4 1137.49,-535.9 1142.57,-530.02"/>
<polygon fill="black" stroke="black" points="1145.63,-531.73 1147.98,-521.4 1139.7,-528 1145.63,-531.73"/>
<text text-anchor="middle" x="1121.61" y="-543.6" font-family="Times,serif" font-size="14.00">LPAREN</text>
</g>
<!-- I11 -->
<g id="node12" class="node">
<title>I11</title>
<polygon fill="none" stroke="black" points="1584.43,-354.7 1339.98,-354.7 1339.98,-279.3 1584.43,-279.3 1584.43,-354.7"/>
<text text-anchor="middle" x="1462.2" y="-338" font-family="Times,serif" font-size="14.00">I11</text>
<text text-anchor="middle" x="1462.2" y="-321.2" font-family="Times,serif" font-size="14.00">factor&#45;&gt;LPAREN expression . RPAREN</text>
<text text-anchor="middle" x="1462.2" y="-304.4" font-family="Times,serif" font-size="14.00">expression&#45;&gt;expression . PLUS term</text>
<text text-anchor="middle" x="1462.2" y="-287.6" font-family="Times,serif" font-size="14.00">expression&#45;&gt;expression . MINUS term</text>
</g>
<!-- I6&#45;&gt;I11 -->
<g id="edge11" class="edge">
<title>I6&#45;&gt;I11</title>
<path fill="none" stroke="black" d="M1244.03,-358.89C1250.03,-356.47 1256.03,-354.22 1261.97,-352.2 1283.57,-344.85 1307.04,-338.96 1330.04,-334.26"/>
<polygon fill="black" stroke="black" points="1330.73,-337.7 1339.86,-332.32 1329.37,-330.83 1330.73,-337.7"/>
<text text-anchor="middle" x="1291.91" y="-357.2" font-family="Times,serif" font-size="14.00">expression</text>
</g>
<!-- I7&#45;&gt;I3 -->
<g id="edge18" class="edge">
<title>I7&#45;&gt;I3</title>
<path fill="none" stroke="black" d="M872.54,-496.33C909.17,-522.74 953.95,-549.71 999.25,-564 1225.25,-635.29 1976.74,-605.08 2188.96,-594.87"/>
<polygon fill="black" stroke="black" points="2189.42,-598.36 2199.24,-594.37 2189.08,-591.36 2189.42,-598.36"/>
<text text-anchor="middle" x="1462.2" y="-613.2" font-family="Times,serif" font-size="14.00">factor</text>
</g>
<!-- I7&#45;&gt;I4 -->
<g id="edge19" class="edge">
<title>I7&#45;&gt;I4</title>
<path fill="none" stroke="black" d="M850.79,-496.33C889.37,-534.01 942.13,-576.25 999.25,-595 1103.96,-629.37 1136.73,-609.59 1243.97,-635 1287.42,-645.29 1296.44,-654.54 1339.84,-665 1588.12,-724.83 1655.04,-733 1910.43,-733 1910.43,-733 1910.43,-733 2581.97,-733 2687.01,-733 2795.61,-662.84 2848.87,-622.94"/>
<polygon fill="black" stroke="black" points="2851.09,-625.64 2856.94,-616.81 2846.86,-620.07 2851.09,-625.64"/>
<text text-anchor="middle" x="1911.43" y="-737.2" font-family="Times,serif" font-size="14.00">ID</text>
</g>
<!-- I7&#45;&gt;I5 -->
<g id="edge20" class="edge">
<title>I7&#45;&gt;I5</title>
<path fill="none" stroke="black" d="M812.71,-353.71C856.72,-243.93 958.54,-46 1120.61,-46 1120.61,-46 1120.61,-46 2581.97,-46 2660.69,-46 2749.01,-65.11 2809.41,-81.21"/>
<polygon fill="black" stroke="black" points="2808.67,-84.63 2819.24,-83.86 2810.5,-77.87 2808.67,-84.63"/>
<text text-anchor="middle" x="1911.43" y="-50.2" font-family="Times,serif" font-size="14.00">NUMBER</text>
</g>
<!-- I7&#45;&gt;I6 -->
<g id="edge21" class="edge">
<title>I7&#45;&gt;I6</title>
<path fill="none" stroke="black" d="M909.14,-425C935.18,-425 962.81,-425 989.2,-425"/>
<polygon fill="black" stroke="black" points="989.25,-428.5 999.25,-425 989.25,-421.5 989.25,-428.5"/>
<text text-anchor="middle" x="954.03" y="-429.2" font-family="Times,serif" font-size="14.00">LPAREN</text>
</g>
<!-- I12 -->
<g id="node13" class="node">
<title>I12</title>
<polygon fill="none" stroke="black" points="2357.38,-263.7 2135.03,-263.7 2135.03,-188.3 2357.38,-188.3 2357.38,-263.7"/>
<text text-anchor="middle" x="2246.2" y="-247" font-family="Times,serif" font-size="14.00">I12</text>
<text text-anchor="middle" x="2246.2" y="-230.2" font-family="Times,serif" font-size="14.00">expression&#45;&gt;expression PLUS term .</text>
<text text-anchor="middle" x="2246.2" y="-213.4" font-family="Times,serif" font-size="14.00">term&#45;&gt;term . TIMES factor</text>
<text text-anchor="middle" x="2246.2" y="-196.6" font-family="Times,serif" font-size="14.00">term&#45;&gt;term . DIV factor</text>
</g>
<!-- I7&#45;&gt;I12 -->
<g id="edge17" class="edge">
<title>I7&#45;&gt;I12</title>
<path fill="none" stroke="black" d="M862.46,-353.76C950.12,-276.25 1103.46,-157.8 1261.97,-116 1287.7,-109.21 1295.28,-114.42 1321.84,-116 1400.25,-120.65 1893.04,-181.8 2124.89,-210.86"/>
<polygon fill="black" stroke="black" points="2124.7,-214.36 2135.05,-212.13 2125.57,-207.42 2124.7,-214.36"/>
<text text-anchor="middle" x="1462.2" y="-149.2" font-family="Times,serif" font-size="14.00">term</text>
</g>
<!-- I8&#45;&gt;I3 -->
<g id="edge23" class="edge">
<title>I8&#45;&gt;I3</title>
<path fill="none" stroke="black" d="M2033.78,-514.95C2059.54,-523.81 2086.54,-533.21 2111.68,-542.2 2137.37,-551.39 2165.72,-561.9 2189.65,-570.9"/>
<polygon fill="black" stroke="black" points="2188.69,-574.27 2199.28,-574.52 2191.15,-567.72 2188.69,-574.27"/>
<text text-anchor="middle" x="2081.74" y="-546.2" font-family="Times,serif" font-size="14.00">factor</text>
</g>
<!-- I8&#45;&gt;I4 -->
<g id="edge24" class="edge">
<title>I8&#45;&gt;I4</title>
<path fill="none" stroke="black" d="M2033.81,-489.27C2247.79,-516.18 2683.48,-570.97 2831.75,-589.62"/>
<polygon fill="black" stroke="black" points="2831.56,-593.12 2841.92,-590.9 2832.44,-586.18 2831.56,-593.12"/>
<text text-anchor="middle" x="2410.67" y="-543.2" font-family="Times,serif" font-size="14.00">ID</text>
</g>
<!-- I8&#45;&gt;I5 -->
<g id="edge25" class="edge">
<title>I8&#45;&gt;I5</title>
<path fill="none" stroke="black" d="M2023.61,-402.72C2027.32,-398.34 2030.74,-393.76 2033.79,-389 2057.92,-351.35 2028.9,-328.42 2051.79,-290 2069.26,-260.7 2092.79,-270.41 2111.68,-242 2127.8,-217.75 2107.34,-197.68 2129.68,-179 2231.38,-93.93 2640.81,-95.77 2809.39,-100.35"/>
<polygon fill="black" stroke="black" points="2809.32,-103.85 2819.42,-100.63 2809.52,-96.85 2809.32,-103.85"/>
<text text-anchor="middle" x="2410.67" y="-115.2" font-family="Times,serif" font-size="14.00">NUMBER</text>
</g>
<!-- I8&#45;&gt;I6 -->
<g id="edge26" class="edge">
<title>I8&#45;&gt;I6</title>
<path fill="none" stroke="black" d="M1788.92,-466.44C1644.14,-457.44 1403.15,-442.45 1254.11,-433.18"/>
<polygon fill="black" stroke="black" points="1254.18,-429.68 1243.98,-432.55 1253.74,-436.66 1254.18,-429.68"/>
<text text-anchor="middle" x="1462.2" y="-457.2" font-family="Times,serif" font-size="14.00">LPAREN</text>
</g>
<!-- I13 -->
<g id="node14" class="node">
<title>I13</title>
<polygon fill="none" stroke="black" points="2362.75,-395.7 2129.65,-395.7 2129.65,-320.3 2362.75,-320.3 2362.75,-395.7"/>
<text text-anchor="middle" x="2246.2" y="-379" font-family="Times,serif" font-size="14.00">I13</text>
<text text-anchor="middle" x="2246.2" y="-362.2" font-family="Times,serif" font-size="14.00">expression&#45;&gt;expression MINUS term .</text>
<text text-anchor="middle" x="2246.2" y="-345.4" font-family="Times,serif" font-size="14.00">term&#45;&gt;term . TIMES factor</text>
<text text-anchor="middle" x="2246.2" y="-328.6" font-family="Times,serif" font-size="14.00">term&#45;&gt;term . DIV factor</text>
</g>
<!-- I8&#45;&gt;I13 -->
<g id="edge22" class="edge">
<title>I8&#45;&gt;I13</title>
<path fill="none" stroke="black" d="M2033.98,-431.63C2064.47,-421 2097.13,-409.61 2127.44,-399.05"/>
<polygon fill="black" stroke="black" points="2128.9,-402.25 2137.19,-395.65 2126.59,-395.64 2128.9,-402.25"/>
<text text-anchor="middle" x="2081.74" y="-426.2" font-family="Times,serif" font-size="14.00">term</text>
</g>
<!-- I9&#45;&gt;I4 -->
<g id="edge28" class="edge">
<title>I9&#45;&gt;I4</title>
<path fill="none" stroke="black" d="M2691.8,-439C2701.77,-443.09 2711.73,-447.14 2721.34,-451 2747.82,-461.64 2758.05,-457.54 2781.22,-474.2 2816.12,-499.3 2846.15,-539.16 2864.25,-566.4"/>
<polygon fill="black" stroke="black" points="2861.53,-568.64 2869.92,-575.11 2867.4,-564.82 2861.53,-568.64"/>
<text text-anchor="middle" x="2751.28" y="-478.2" font-family="Times,serif" font-size="14.00">ID</text>
</g>
<!-- I9&#45;&gt;I5 -->
<g id="edge29" class="edge">
<title>I9&#45;&gt;I5</title>
<path fill="none" stroke="black" d="M2687.93,-346.87C2693.59,-342.05 2698.81,-336.77 2703.34,-331 2724.73,-303.77 2701.93,-283.87 2721.34,-255.2 2739.59,-228.24 2756.75,-234.48 2781.22,-213 2810.19,-187.58 2839.62,-154.64 2859.23,-131.45"/>
<polygon fill="black" stroke="black" points="2861.99,-133.6 2865.74,-123.69 2856.63,-129.1 2861.99,-133.6"/>
<text text-anchor="middle" x="2751.28" y="-260.2" font-family="Times,serif" font-size="14.00">NUMBER</text>
</g>
<!-- I9&#45;&gt;I6 -->
<g id="edge30" class="edge">
<title>I9&#45;&gt;I6</title>
<path fill="none" stroke="black" d="M2458.69,-418.7C2427.56,-424.21 2394.03,-429.21 2362.73,-432 2259.56,-441.19 2219.44,-483.68 2129.68,-432 2115.87,-424.05 2124.16,-410.9 2111.68,-401 2083.32,-378.5 2069.59,-382.55 2033.79,-377.2 1926.22,-361.13 1897.77,-373.31 1789.07,-377.2 1603.21,-383.86 1388.75,-400.92 1254.42,-412.75"/>
<polygon fill="black" stroke="black" points="1253.73,-409.3 1244.08,-413.66 1254.35,-416.27 1253.73,-409.3"/>
<text text-anchor="middle" x="1911.43" y="-382.2" font-family="Times,serif" font-size="14.00">LPAREN</text>
</g>
<!-- I14 -->
<g id="node15" class="node">
<title>I14</title>
<polygon fill="none" stroke="black" points="2967.47,-413.6 2799.47,-413.6 2799.47,-372.4 2967.47,-372.4 2967.47,-413.6"/>
<text text-anchor="middle" x="2883.47" y="-397.2" font-family="Times,serif" font-size="14.00">I14</text>
<text text-anchor="middle" x="2883.47" y="-380.4" font-family="Times,serif" font-size="14.00">term&#45;&gt;term TIMES factor .</text>
</g>
<!-- I9&#45;&gt;I14 -->
<g id="edge27" class="edge">
<title>I9&#45;&gt;I14</title>
<path fill="none" stroke="black" d="M2703.33,-393C2731.93,-393 2761.98,-393 2789.12,-393"/>
<polygon fill="black" stroke="black" points="2789.37,-396.5 2799.37,-393 2789.37,-389.5 2789.37,-396.5"/>
<text text-anchor="middle" x="2751.28" y="-397.2" font-family="Times,serif" font-size="14.00">factor</text>
</g>
<!-- I10&#45;&gt;I4 -->
<g id="edge32" class="edge">
<title>I10&#45;&gt;I4</title>
<path fill="none" stroke="black" d="M2687.87,-322.17C2693.55,-326.99 2698.78,-332.25 2703.34,-338 2724.09,-364.19 2698.53,-386.58 2721.34,-411 2740.41,-431.43 2759.25,-412.92 2781.22,-430.2 2826.66,-465.93 2856.64,-528.13 2871.49,-565.35"/>
<polygon fill="black" stroke="black" points="2868.41,-567.07 2875.28,-575.14 2874.94,-564.55 2868.41,-567.07"/>
<text text-anchor="middle" x="2751.28" y="-434.2" font-family="Times,serif" font-size="14.00">ID</text>
</g>
<!-- I10&#45;&gt;I5 -->
<g id="edge33" class="edge">
<title>I10&#45;&gt;I5</title>
<path fill="none" stroke="black" d="M2662.11,-229.87C2718.34,-197.49 2791.47,-155.39 2837.7,-128.77"/>
<polygon fill="black" stroke="black" points="2839.66,-131.69 2846.58,-123.66 2836.16,-125.62 2839.66,-131.69"/>
<text text-anchor="middle" x="2751.28" y="-199.2" font-family="Times,serif" font-size="14.00">NUMBER</text>
</g>
<!-- I10&#45;&gt;I6 -->
<g id="edge34" class="edge">
<title>I10&#45;&gt;I6</title>
<path fill="none" stroke="black" d="M2498.68,-229.92C2459.01,-210.02 2409.79,-189.03 2362.73,-179 2032.26,-108.57 1939.09,-159.73 1602.57,-190 1601.71,-190.08 1340.19,-182.58 1261.97,-274 1248.42,-289.84 1255.2,-301.75 1246.53,-319.87"/>
<polygon fill="black" stroke="black" points="1243.41,-318.28 1241.33,-328.67 1249.43,-321.84 1243.41,-318.28"/>
<text text-anchor="middle" x="1911.43" y="-173.2" font-family="Times,serif" font-size="14.00">LPAREN</text>
</g>
<!-- I15 -->
<g id="node16" class="node">
<title>I15</title>
<polygon fill="none" stroke="black" points="2959.36,-296.6 2807.59,-296.6 2807.59,-255.4 2959.36,-255.4 2959.36,-296.6"/>
<text text-anchor="middle" x="2883.47" y="-280.2" font-family="Times,serif" font-size="14.00">I15</text>
<text text-anchor="middle" x="2883.47" y="-263.4" font-family="Times,serif" font-size="14.00">term&#45;&gt;term DIV factor .</text>
</g>
<!-- I10&#45;&gt;I15 -->
<g id="edge31" class="edge">
<title>I10&#45;&gt;I15</title>
<path fill="none" stroke="black" d="M2703.33,-276C2734.81,-276 2768.04,-276 2797.22,-276"/>
<polygon fill="black" stroke="black" points="2797.36,-279.5 2807.36,-276 2797.36,-272.5 2797.36,-279.5"/>
<text text-anchor="middle" x="2751.28" y="-280.2" font-family="Times,serif" font-size="14.00">factor</text>
</g>
<!-- I11&#45;&gt;I7 -->
<g id="edge35" class="edge">
<title>I11&#45;&gt;I7</title>
<path fill="none" stroke="black" d="M1339.86,-294.6C1245.39,-281.63 1111.84,-273.13 999.25,-303.2 963.47,-312.75 927.47,-329.95 895.55,-348.47"/>
<polygon fill="black" stroke="black" points="893.49,-345.63 886.66,-353.73 897.05,-351.65 893.49,-345.63"/>
<text text-anchor="middle" x="1121.61" y="-308.2" font-family="Times,serif" font-size="14.00">PLUS</text>
</g>
<!-- I11&#45;&gt;I8 -->
<g id="edge36" class="edge">
<title>I11&#45;&gt;I8</title>
<path fill="none" stroke="black" d="M1577.58,-354.63C1635.7,-374.02 1707.33,-398.35 1771.07,-421.2 1773.81,-422.18 1776.58,-423.18 1779.37,-424.19"/>
<polygon fill="black" stroke="black" points="1778.32,-427.54 1788.91,-427.67 1780.72,-420.96 1778.32,-427.54"/>
<text text-anchor="middle" x="1686.82" y="-425.2" font-family="Times,serif" font-size="14.00">MINUS</text>
</g>
<!-- I16 -->
<g id="node17" class="node">
<title>I16</title>
<polygon fill="none" stroke="black" points="2033.66,-331.6 1789.21,-331.6 1789.21,-290.4 2033.66,-290.4 2033.66,-331.6"/>
<text text-anchor="middle" x="1911.43" y="-315.2" font-family="Times,serif" font-size="14.00">I16</text>
<text text-anchor="middle" x="1911.43" y="-298.4" font-family="Times,serif" font-size="14.00">factor&#45;&gt;LPAREN expression RPAREN .</text>
</g>
<!-- I11&#45;&gt;I16 -->
<g id="edge37" class="edge">
<title>I11&#45;&gt;I16</title>
<path fill="none" stroke="black" d="M1584.43,-312.6C1590.56,-312.45 1596.64,-312.31 1602.57,-312.2 1660.42,-311.09 1724.4,-310.71 1778.98,-310.63"/>
<polygon fill="black" stroke="black" points="1779.06,-314.13 1789.06,-310.62 1779.05,-307.13 1779.06,-314.13"/>
<text text-anchor="middle" x="1686.82" y="-317.2" font-family="Times,serif" font-size="14.00">RPAREN</text>
</g>
<!-- I12&#45;&gt;I9 -->
<g id="edge38" class="edge">
<title>I12&#45;&gt;I9</title>
<path fill="none" stroke="black" d="M2357.53,-262.82C2386.08,-275.13 2415.75,-290.56 2440.61,-309.2 2450.66,-316.74 2448.81,-323.13 2458.61,-331 2463.1,-334.61 2467.84,-338.09 2472.73,-341.43"/>
<polygon fill="black" stroke="black" points="2470.82,-344.36 2481.09,-346.94 2474.66,-338.52 2470.82,-344.36"/>
<text text-anchor="middle" x="2410.67" y="-314.2" font-family="Times,serif" font-size="14.00">TIMES</text>
</g>
<!-- I12&#45;&gt;I10 -->
<g id="edge39" class="edge">
<title>I12&#45;&gt;I10</title>
<path fill="none" stroke="black" d="M2357.37,-237.05C2384.63,-240.22 2413.73,-243.98 2440.61,-248.2 2443.17,-248.6 2445.76,-249.02 2448.36,-249.44"/>
<polygon fill="black" stroke="black" points="2448.03,-252.94 2458.47,-251.15 2449.19,-246.03 2448.03,-252.94"/>
<text text-anchor="middle" x="2410.67" y="-253.2" font-family="Times,serif" font-size="14.00">DIV</text>
</g>
<!-- I13&#45;&gt;I9 -->
<g id="edge40" class="edge">
<title>I13&#45;&gt;I9</title>
<path fill="none" stroke="black" d="M2363.12,-370.19C2390.6,-373.08 2420.11,-376.19 2448.24,-379.14"/>
<polygon fill="black" stroke="black" points="2448.22,-382.66 2458.53,-380.23 2448.96,-375.7 2448.22,-382.66"/>
<text text-anchor="middle" x="2410.67" y="-382.2" font-family="Times,serif" font-size="14.00">TIMES</text>
</g>
<!-- I13&#45;&gt;I10 -->
<g id="edge41" class="edge">
<title>I13&#45;&gt;I10</title>
<path fill="none" stroke="black" d="M2362.86,-345.61C2388.67,-341.64 2415.75,-336.53 2440.61,-330 2446.24,-328.52 2451.95,-326.89 2457.69,-325.14"/>
<polygon fill="black" stroke="black" points="2458.87,-328.44 2467.35,-322.09 2456.76,-321.76 2458.87,-328.44"/>
<text text-anchor="middle" x="2410.67" y="-347.2" font-family="Times,serif" font-size="14.00">DIV</text>
</g>
</g>
</svg>
