<?xml version="1.0" encoding="UTF-8" standalone="no"?>
<!DOCTYPE svg PUBLIC "-//W3C//DTD SVG 1.1//EN"
 "http://www.w3.org/Graphics/SVG/1.1/DTD/svg11.dtd">
<!-- Generated by graphviz version 2.44.0 (20200518.1210)
 -->
<!-- Title: items Pages: 1 -->
<svg width="100%" height="100%"
 viewBox="0.00 0.00 1440.00 322.84" xmlns="http://www.w3.org/2000/svg" xmlns:xlink="http://www.w3.org/1999/xlink">
<g id="graph0" class="graph" transform="scale(0.62 0.62) rotate(0) translate(4 515.8)">
<title>items</title>
<polygon fill="white" stroke="transparent" points="-4,4 -4,-515.8 2314.54,-515.8 2314.54,4 -4,4"/>
<!-- I0 -->
<g id="node1" class="node">
<title>I0</title>
<polygon fill="none" stroke="black" points="212.69,-295.3 0.1,-295.3 0.1,-186.7 212.69,-186.7 212.69,-295.3"/>
<text text-anchor="middle" x="106.4" y="-278.8" font-family="Times,serif" font-size="14.00">I0</text>
<text text-anchor="middle" x="106.4" y="-262" font-family="Times,serif" font-size="14.00">E&#39;&#45;&gt;. expression0</text>
<text text-anchor="middle" x="106.4" y="-245.2" font-family="Times,serif" font-size="14.00">expression0&#45;&gt;. term expression</text>
<text text-anchor="middle" x="106.4" y="-228.4" font-family="Times,serif" font-size="14.00">term&#45;&gt;. factor term1</text>
<text text-anchor="middle" x="106.4" y="-211.6" font-family="Times,serif" font-size="14.00">factor&#45;&gt;. lparen expression0 rparen</text>
<text text-anchor="middle" x="106.4" y="-194.8" font-family="Times,serif" font-size="14.00">factor&#45;&gt;. id</text>
</g>
<!-- I1 -->
<g id="node2" class="node">
<title>I1</title>
<polygon fill="none" stroke="black" points="478.96,-507.63 363.66,-507.63 363.66,-466.37 478.96,-466.37 478.96,-507.63"/>
<polygon fill="none" stroke="black" points="482.95,-511.6 359.67,-511.6 359.67,-462.4 482.95,-462.4 482.95,-511.6"/>
<text text-anchor="middle" x="421.31" y="-491.2" font-family="Times,serif" font-size="14.00">I1</text>
<text text-anchor="middle" x="421.31" y="-474.4" font-family="Times,serif" font-size="14.00">E&#39;&#45;&gt;expression0 .</text>
</g>
<!-- I0&#45;&gt;I1 -->
<g id="edge1" class="edge">
<title>I0&#45;&gt;I1</title>
<path fill="none" stroke="black" d="M125.55,-295.62C144.3,-343.34 178.29,-410.66 230.8,-448 265.1,-472.39 311.22,-482.25 349.38,-485.96"/>
<polygon fill="black" stroke="black" points="349.14,-489.45 359.41,-486.81 349.74,-482.47 349.14,-489.45"/>
<text text-anchor="middle" x="264.23" y="-481.2" font-family="Times,serif" font-size="14.00">expression0</text>
</g>
<!-- I2 -->
<g id="node3" class="node">
<title>I2</title>
<polygon fill="none" stroke="black" points="527.1,-278.7 315.52,-278.7 315.52,-203.3 527.1,-203.3 527.1,-278.7"/>
<text text-anchor="middle" x="421.31" y="-262" font-family="Times,serif" font-size="14.00">I2</text>
<text text-anchor="middle" x="421.31" y="-245.2" font-family="Times,serif" font-size="14.00">expression0&#45;&gt;term . expression</text>
<text text-anchor="middle" x="421.31" y="-228.4" font-family="Times,serif" font-size="14.00">expression&#45;&gt;. plus term expression</text>
<text text-anchor="middle" x="421.31" y="-211.6" font-family="Times,serif" font-size="14.00">expression&#45;&gt;. </text>
</g>
<!-- I0&#45;&gt;I2 -->
<g id="edge2" class="edge">
<title>I0&#45;&gt;I2</title>
<path fill="none" stroke="black" d="M212.9,-241C242.63,-241 275.11,-241 305.37,-241"/>
<polygon fill="black" stroke="black" points="305.53,-244.5 315.53,-241 305.53,-237.5 305.53,-244.5"/>
<text text-anchor="middle" x="264.23" y="-245.2" font-family="Times,serif" font-size="14.00">term</text>
</g>
<!-- I3 -->
<g id="node4" class="node">
<title>I3</title>
<polygon fill="none" stroke="black" points="1097.58,-160.7 926.9,-160.7 926.9,-85.3 1097.58,-85.3 1097.58,-160.7"/>
<text text-anchor="middle" x="1012.24" y="-144" font-family="Times,serif" font-size="14.00">I3</text>
<text text-anchor="middle" x="1012.24" y="-127.2" font-family="Times,serif" font-size="14.00">term&#45;&gt;factor . term1</text>
<text text-anchor="middle" x="1012.24" y="-110.4" font-family="Times,serif" font-size="14.00">term1&#45;&gt;. times factor term1</text>
<text text-anchor="middle" x="1012.24" y="-93.6" font-family="Times,serif" font-size="14.00">term1&#45;&gt;. </text>
</g>
<!-- I0&#45;&gt;I3 -->
<g id="edge3" class="edge">
<title>I0&#45;&gt;I3</title>
<path fill="none" stroke="black" d="M212.87,-214.61C245.65,-207.11 282.01,-199.49 315.67,-194 529.04,-159.16 782.21,-138.43 916.51,-129.04"/>
<polygon fill="black" stroke="black" points="917.03,-132.52 926.76,-128.33 916.54,-125.53 917.03,-132.52"/>
<text text-anchor="middle" x="574.89" y="-167.2" font-family="Times,serif" font-size="14.00">factor</text>
</g>
<!-- I4 -->
<g id="node5" class="node">
<title>I4</title>
<polygon fill="none" stroke="black" points="1959.18,-320.6 1880.01,-320.6 1880.01,-279.4 1959.18,-279.4 1959.18,-320.6"/>
<text text-anchor="middle" x="1919.6" y="-304.2" font-family="Times,serif" font-size="14.00">I4</text>
<text text-anchor="middle" x="1919.6" y="-287.4" font-family="Times,serif" font-size="14.00">factor&#45;&gt;id .</text>
</g>
<!-- I0&#45;&gt;I4 -->
<g id="edge4" class="edge">
<title>I0&#45;&gt;I4</title>
<path fill="none" stroke="black" d="M156.68,-295.53C213.94,-352.6 314.2,-434 420.31,-434 420.31,-434 420.31,-434 1604.93,-434 1713.13,-434 1826.67,-365.73 1882.81,-326.65"/>
<polygon fill="black" stroke="black" points="1885.16,-329.27 1891.31,-320.64 1881.13,-323.55 1885.16,-329.27"/>
<text text-anchor="middle" x="1012.24" y="-438.2" font-family="Times,serif" font-size="14.00">id</text>
</g>
<!-- I5 -->
<g id="node6" class="node">
<title>I5</title>
<polygon fill="none" stroke="black" points="1710.23,-140.3 1497.63,-140.3 1497.63,-31.7 1710.23,-31.7 1710.23,-140.3"/>
<text text-anchor="middle" x="1603.93" y="-123.8" font-family="Times,serif" font-size="14.00">I5</text>
<text text-anchor="middle" x="1603.93" y="-107" font-family="Times,serif" font-size="14.00">factor&#45;&gt;lparen . expression0 rparen</text>
<text text-anchor="middle" x="1603.93" y="-90.2" font-family="Times,serif" font-size="14.00">expression0&#45;&gt;. term expression</text>
<text text-anchor="middle" x="1603.93" y="-73.4" font-family="Times,serif" font-size="14.00">term&#45;&gt;. factor term1</text>
<text text-anchor="middle" x="1603.93" y="-56.6" font-family="Times,serif" font-size="14.00">factor&#45;&gt;. lparen expression0 rparen</text>
<text text-anchor="middle" x="1603.93" y="-39.8" font-family="Times,serif" font-size="14.00">factor&#45;&gt;. id</text>
</g>
<!-- I0&#45;&gt;I5 -->
<g id="edge5" class="edge">
<title>I0&#45;&gt;I5</title>
<path fill="none" stroke="black" d="M143.51,-186.61C195.53,-115.53 298.77,0 420.31,0 420.31,0 420.31,0 1321.15,0 1377.61,0 1437.77,-15.99 1487.94,-34.18"/>
<polygon fill="black" stroke="black" points="1486.92,-37.53 1497.52,-37.72 1489.35,-30.97 1486.92,-37.53"/>
<text text-anchor="middle" x="871.11" y="-4.2" font-family="Times,serif" font-size="14.00">lparen</text>
</g>
<!-- I6 -->
<g id="node7" class="node">
<title>I6</title>
<polygon fill="none" stroke="black" points="825.17,-346.6 633.27,-346.6 633.27,-305.4 825.17,-305.4 825.17,-346.6"/>
<text text-anchor="middle" x="729.22" y="-330.2" font-family="Times,serif" font-size="14.00">I6</text>
<text text-anchor="middle" x="729.22" y="-313.4" font-family="Times,serif" font-size="14.00">expression0&#45;&gt;term expression .</text>
</g>
<!-- I2&#45;&gt;I6 -->
<g id="edge6" class="edge">
<title>I2&#45;&gt;I6</title>
<path fill="none" stroke="black" d="M527.16,-270.13C565.26,-280.72 607.79,-292.54 643.89,-302.57"/>
<polygon fill="black" stroke="black" points="643.32,-306.04 653.9,-305.35 645.2,-299.3 643.32,-306.04"/>
<text text-anchor="middle" x="574.89" y="-296.2" font-family="Times,serif" font-size="14.00">expression</text>
</g>
<!-- I7 -->
<g id="node8" class="node">
<title>I7</title>
<polygon fill="none" stroke="black" points="835.52,-287 622.92,-287 622.92,-195 835.52,-195 835.52,-287"/>
<text text-anchor="middle" x="729.22" y="-270.4" font-family="Times,serif" font-size="14.00">I7</text>
<text text-anchor="middle" x="729.22" y="-253.6" font-family="Times,serif" font-size="14.00">expression&#45;&gt;plus . term expression</text>
<text text-anchor="middle" x="729.22" y="-236.8" font-family="Times,serif" font-size="14.00">term&#45;&gt;. factor term1</text>
<text text-anchor="middle" x="729.22" y="-220" font-family="Times,serif" font-size="14.00">factor&#45;&gt;. lparen expression0 rparen</text>
<text text-anchor="middle" x="729.22" y="-203.2" font-family="Times,serif" font-size="14.00">factor&#45;&gt;. id</text>
</g>
<!-- I2&#45;&gt;I7 -->
<g id="edge7" class="edge">
<title>I2&#45;&gt;I7</title>
<path fill="none" stroke="black" d="M527.16,-241C554.65,-241 584.46,-241 612.49,-241"/>
<polygon fill="black" stroke="black" points="612.73,-244.5 622.73,-241 612.73,-237.5 612.73,-244.5"/>
<text text-anchor="middle" x="574.89" y="-245.2" font-family="Times,serif" font-size="14.00">plus</text>
</g>
<!-- I8 -->
<g id="node9" class="node">
<title>I8</title>
<polygon fill="none" stroke="black" points="1385.16,-160.6 1255.14,-160.6 1255.14,-119.4 1385.16,-119.4 1385.16,-160.6"/>
<text text-anchor="middle" x="1320.15" y="-144.2" font-family="Times,serif" font-size="14.00">I8</text>
<text text-anchor="middle" x="1320.15" y="-127.4" font-family="Times,serif" font-size="14.00">term&#45;&gt;factor term1 .</text>
</g>
<!-- I3&#45;&gt;I8 -->
<g id="edge8" class="edge">
<title>I3&#45;&gt;I8</title>
<path fill="none" stroke="black" d="M1097.64,-127.69C1143.75,-130.25 1200.33,-133.4 1244.77,-135.87"/>
<polygon fill="black" stroke="black" points="1244.74,-139.37 1254.92,-136.43 1245.13,-132.38 1244.74,-139.37"/>
<text text-anchor="middle" x="1165.82" y="-138.2" font-family="Times,serif" font-size="14.00">term1</text>
</g>
<!-- I9 -->
<g id="node10" class="node">
<title>I9</title>
<polygon fill="none" stroke="black" points="1426.45,-292.7 1213.86,-292.7 1213.86,-217.3 1426.45,-217.3 1426.45,-292.7"/>
<text text-anchor="middle" x="1320.15" y="-276" font-family="Times,serif" font-size="14.00">I9</text>
<text text-anchor="middle" x="1320.15" y="-259.2" font-family="Times,serif" font-size="14.00">term1&#45;&gt;times . factor term1</text>
<text text-anchor="middle" x="1320.15" y="-242.4" font-family="Times,serif" font-size="14.00">factor&#45;&gt;. lparen expression0 rparen</text>
<text text-anchor="middle" x="1320.15" y="-225.6" font-family="Times,serif" font-size="14.00">factor&#45;&gt;. id</text>
</g>
<!-- I3&#45;&gt;I9 -->
<g id="edge9" class="edge">
<title>I3&#45;&gt;I9</title>
<path fill="none" stroke="black" d="M1057.6,-160.64C1079.86,-177.87 1107.99,-197.24 1135.88,-210 1157.13,-219.72 1180.76,-227.51 1203.8,-233.7"/>
<polygon fill="black" stroke="black" points="1203.07,-237.13 1213.63,-236.26 1204.83,-230.35 1203.07,-237.13"/>
<text text-anchor="middle" x="1165.82" y="-236.2" font-family="Times,serif" font-size="14.00">times</text>
</g>
<!-- I5&#45;&gt;I2 -->
<g id="edge11" class="edge">
<title>I5&#45;&gt;I2</title>
<path fill="none" stroke="black" d="M1497.53,-67.85C1360.26,-47.42 1113.42,-21.66 906.6,-59.2 760.37,-85.74 600.82,-153.94 506.28,-198.85"/>
<polygon fill="black" stroke="black" points="504.57,-195.78 497.05,-203.25 507.58,-202.1 504.57,-195.78"/>
<text text-anchor="middle" x="1012.24" y="-64.2" font-family="Times,serif" font-size="14.00">term</text>
</g>
<!-- I5&#45;&gt;I3 -->
<g id="edge12" class="edge">
<title>I5&#45;&gt;I3</title>
<path fill="none" stroke="black" d="M1497.44,-84.28C1419.05,-83.89 1309.55,-85.23 1213.75,-93.2 1179.11,-96.08 1141.35,-101.18 1108.03,-106.35"/>
<polygon fill="black" stroke="black" points="1107.18,-102.94 1097.84,-107.95 1108.26,-109.85 1107.18,-102.94"/>
<text text-anchor="middle" x="1320.15" y="-98.2" font-family="Times,serif" font-size="14.00">factor</text>
</g>
<!-- I5&#45;&gt;I4 -->
<g id="edge13" class="edge">
<title>I5&#45;&gt;I4</title>
<path fill="none" stroke="black" d="M1693.48,-140.41C1725.85,-160.82 1762.52,-184.56 1795.2,-207.2 1825.88,-228.46 1859.7,-254.05 1884.16,-272.97"/>
<polygon fill="black" stroke="black" points="1882.03,-275.75 1892.08,-279.11 1886.32,-270.22 1882.03,-275.75"/>
<text text-anchor="middle" x="1761.76" y="-212.2" font-family="Times,serif" font-size="14.00">id</text>
</g>
<!-- I5&#45;&gt;I5 -->
<g id="edge14" class="edge">
<title>I5&#45;&gt;I5</title>
<path fill="none" stroke="black" d="M1578.85,-140.31C1581.76,-150.89 1590.12,-158.4 1603.93,-158.4 1613.21,-158.4 1620.03,-155.01 1624.38,-149.57"/>
<polygon fill="black" stroke="black" points="1627.68,-150.82 1629.01,-140.31 1621.41,-147.69 1627.68,-150.82"/>
<text text-anchor="middle" x="1603.93" y="-162.6" font-family="Times,serif" font-size="14.00">lparen</text>
</g>
<!-- I10 -->
<g id="node11" class="node">
<title>I10</title>
<polygon fill="none" stroke="black" points="2025.89,-106.6 1813.3,-106.6 1813.3,-65.4 2025.89,-65.4 2025.89,-106.6"/>
<text text-anchor="middle" x="1919.6" y="-90.2" font-family="Times,serif" font-size="14.00">I10</text>
<text text-anchor="middle" x="1919.6" y="-73.4" font-family="Times,serif" font-size="14.00">factor&#45;&gt;lparen expression0 . rparen</text>
</g>
<!-- I5&#45;&gt;I10 -->
<g id="edge10" class="edge">
<title>I5&#45;&gt;I10</title>
<path fill="none" stroke="black" d="M1710.25,-86C1740.07,-86 1772.69,-86 1803.08,-86"/>
<polygon fill="black" stroke="black" points="1803.29,-89.5 1813.29,-86 1803.29,-82.5 1803.29,-89.5"/>
<text text-anchor="middle" x="1761.76" y="-90.2" font-family="Times,serif" font-size="14.00">expression0</text>
</g>
<!-- I7&#45;&gt;I3 -->
<g id="edge16" class="edge">
<title>I7&#45;&gt;I3</title>
<path fill="none" stroke="black" d="M789.15,-194.98C808.78,-181.47 831.33,-167.76 853.62,-158.2 873.42,-149.7 895.53,-143.14 916.78,-138.11"/>
<polygon fill="black" stroke="black" points="917.83,-141.46 926.8,-135.83 916.28,-134.63 917.83,-141.46"/>
<text text-anchor="middle" x="871.11" y="-163.2" font-family="Times,serif" font-size="14.00">factor</text>
</g>
<!-- I7&#45;&gt;I4 -->
<g id="edge17" class="edge">
<title>I7&#45;&gt;I4</title>
<path fill="none" stroke="black" d="M835.64,-258.36C983.18,-281.68 1259.86,-321.81 1497.53,-336 1591.94,-341.64 1616.1,-344.08 1710.33,-336 1765.38,-331.28 1827.73,-319.65 1869.74,-310.88"/>
<polygon fill="black" stroke="black" points="1870.64,-314.27 1879.7,-308.78 1869.19,-307.42 1870.64,-314.27"/>
<text text-anchor="middle" x="1320.15" y="-335.2" font-family="Times,serif" font-size="14.00">id</text>
</g>
<!-- I7&#45;&gt;I5 -->
<g id="edge18" class="edge">
<title>I7&#45;&gt;I5</title>
<path fill="none" stroke="black" d="M835.93,-225.7C917.68,-214.31 1033.77,-199.08 1135.88,-189.2 1264.75,-176.73 1301.28,-202.68 1426.55,-170 1449.91,-163.9 1473.92,-154.7 1496.41,-144.59"/>
<polygon fill="black" stroke="black" points="1497.99,-147.72 1505.62,-140.37 1495.07,-141.36 1497.99,-147.72"/>
<text text-anchor="middle" x="1165.82" y="-194.2" font-family="Times,serif" font-size="14.00">lparen</text>
</g>
<!-- I11 -->
<g id="node12" class="node">
<title>I11</title>
<polygon fill="none" stroke="black" points="1118.03,-397.7 906.46,-397.7 906.46,-322.3 1118.03,-322.3 1118.03,-397.7"/>
<text text-anchor="middle" x="1012.24" y="-381" font-family="Times,serif" font-size="14.00">I11</text>
<text text-anchor="middle" x="1012.24" y="-364.2" font-family="Times,serif" font-size="14.00">expression&#45;&gt;plus term . expression</text>
<text text-anchor="middle" x="1012.24" y="-347.4" font-family="Times,serif" font-size="14.00">expression&#45;&gt;. plus term expression</text>
<text text-anchor="middle" x="1012.24" y="-330.6" font-family="Times,serif" font-size="14.00">expression&#45;&gt;. </text>
</g>
<!-- I7&#45;&gt;I11 -->
<g id="edge15" class="edge">
<title>I7&#45;&gt;I11</title>
<path fill="none" stroke="black" d="M818.69,-287.16C836.87,-296.59 851.26,-303.98 853.62,-305 867.48,-310.98 882.23,-316.8 896.93,-322.28"/>
<polygon fill="black" stroke="black" points="895.98,-325.66 906.57,-325.83 898.4,-319.09 895.98,-325.66"/>
<text text-anchor="middle" x="871.11" y="-323.2" font-family="Times,serif" font-size="14.00">term</text>
</g>
<!-- I9&#45;&gt;I4 -->
<g id="edge20" class="edge">
<title>I9&#45;&gt;I4</title>
<path fill="none" stroke="black" d="M1426.72,-232.85C1505.39,-219.74 1615.2,-208.63 1710.33,-225.2 1767.21,-235.11 1829.09,-259.16 1870.49,-277.34"/>
<polygon fill="black" stroke="black" points="1869.22,-280.6 1879.78,-281.47 1872.06,-274.21 1869.22,-280.6"/>
<text text-anchor="middle" x="1603.93" y="-230.2" font-family="Times,serif" font-size="14.00">id</text>
</g>
<!-- I9&#45;&gt;I5 -->
<g id="edge21" class="edge">
<title>I9&#45;&gt;I5</title>
<path fill="none" stroke="black" d="M1401.75,-217.29C1410.26,-212.7 1418.67,-207.9 1426.55,-203 1435.11,-197.68 1436.32,-195.02 1444.55,-189.2 1451.59,-184.22 1479.55,-165.93 1510.07,-146.1"/>
<polygon fill="black" stroke="black" points="1512.25,-148.86 1518.73,-140.47 1508.43,-142.99 1512.25,-148.86"/>
<text text-anchor="middle" x="1462.04" y="-194.2" font-family="Times,serif" font-size="14.00">lparen</text>
</g>
<!-- I12 -->
<g id="node13" class="node">
<title>I12</title>
<polygon fill="none" stroke="black" points="1689.27,-326.7 1518.59,-326.7 1518.59,-251.3 1689.27,-251.3 1689.27,-326.7"/>
<text text-anchor="middle" x="1603.93" y="-310" font-family="Times,serif" font-size="14.00">I12</text>
<text text-anchor="middle" x="1603.93" y="-293.2" font-family="Times,serif" font-size="14.00">term1&#45;&gt;times factor . term1</text>
<text text-anchor="middle" x="1603.93" y="-276.4" font-family="Times,serif" font-size="14.00">term1&#45;&gt;. times factor term1</text>
<text text-anchor="middle" x="1603.93" y="-259.6" font-family="Times,serif" font-size="14.00">term1&#45;&gt;. </text>
</g>
<!-- I9&#45;&gt;I12 -->
<g id="edge19" class="edge">
<title>I9&#45;&gt;I12</title>
<path fill="none" stroke="black" d="M1426.63,-251.23C1444.35,-251.71 1462.5,-252.9 1479.53,-255.2 1489.11,-256.49 1498.99,-258.32 1508.8,-260.47"/>
<polygon fill="black" stroke="black" points="1508.05,-263.89 1518.58,-262.71 1509.61,-257.07 1508.05,-263.89"/>
<text text-anchor="middle" x="1462.04" y="-260.2" font-family="Times,serif" font-size="14.00">factor</text>
</g>
<!-- I13 -->
<g id="node14" class="node">
<title>I13</title>
<polygon fill="none" stroke="black" points="2310.44,-106.6 2097.85,-106.6 2097.85,-65.4 2310.44,-65.4 2310.44,-106.6"/>
<text text-anchor="middle" x="2204.14" y="-90.2" font-family="Times,serif" font-size="14.00">I13</text>
<text text-anchor="middle" x="2204.14" y="-73.4" font-family="Times,serif" font-size="14.00">factor&#45;&gt;lparen expression0 rparen .</text>
</g>
<!-- I10&#45;&gt;I13 -->
<g id="edge22" class="edge">
<title>I10&#45;&gt;I13</title>
<path fill="none" stroke="black" d="M2026.21,-86C2046.19,-86 2067.18,-86 2087.46,-86"/>
<polygon fill="black" stroke="black" points="2087.66,-89.5 2097.66,-86 2087.66,-82.5 2087.66,-89.5"/>
<text text-anchor="middle" x="2061.87" y="-90.2" font-family="Times,serif" font-size="14.00">rparen</text>
</g>
<!-- I11&#45;&gt;I7 -->
<g id="edge24" class="edge">
<title>I11&#45;&gt;I7</title>
<path fill="none" stroke="black" d="M906.38,-362.2C887.4,-358.48 868.83,-351.67 853.62,-340 836.85,-327.14 849.85,-311.62 835.62,-296 835.1,-295.43 834.57,-294.86 834.03,-294.3"/>
<polygon fill="black" stroke="black" points="836.34,-291.66 826.7,-287.27 831.49,-296.71 836.34,-291.66"/>
<text text-anchor="middle" x="871.11" y="-362.2" font-family="Times,serif" font-size="14.00">plus</text>
</g>
<!-- I14 -->
<g id="node15" class="node">
<title>I14</title>
<polygon fill="none" stroke="black" points="1425.94,-405.6 1214.37,-405.6 1214.37,-364.4 1425.94,-364.4 1425.94,-405.6"/>
<text text-anchor="middle" x="1320.15" y="-389.2" font-family="Times,serif" font-size="14.00">I14</text>
<text text-anchor="middle" x="1320.15" y="-372.4" font-family="Times,serif" font-size="14.00">expression&#45;&gt;plus term expression .</text>
</g>
<!-- I11&#45;&gt;I14 -->
<g id="edge23" class="edge">
<title>I11&#45;&gt;I14</title>
<path fill="none" stroke="black" d="M1118.09,-368.57C1145.82,-370.83 1175.89,-373.29 1204.13,-375.6"/>
<polygon fill="black" stroke="black" points="1204.19,-379.12 1214.44,-376.44 1204.76,-372.14 1204.19,-379.12"/>
<text text-anchor="middle" x="1165.82" y="-378.2" font-family="Times,serif" font-size="14.00">expression</text>
</g>
<!-- I12&#45;&gt;I9 -->
<g id="edge26" class="edge">
<title>I12&#45;&gt;I9</title>
<path fill="none" stroke="black" d="M1518.22,-280.38C1494.37,-277.83 1468.43,-274.93 1444.55,-272 1441.88,-271.67 1439.17,-271.34 1436.44,-270.99"/>
<polygon fill="black" stroke="black" points="1436.84,-267.52 1426.48,-269.73 1435.95,-274.46 1436.84,-267.52"/>
<text text-anchor="middle" x="1462.04" y="-281.2" font-family="Times,serif" font-size="14.00">times</text>
</g>
<!-- I15 -->
<g id="node16" class="node">
<title>I15</title>
<polygon fill="none" stroke="black" points="2004.94,-205.6 1834.26,-205.6 1834.26,-164.4 2004.94,-164.4 2004.94,-205.6"/>
<text text-anchor="middle" x="1919.6" y="-189.2" font-family="Times,serif" font-size="14.00">I15</text>
<text text-anchor="middle" x="1919.6" y="-172.4" font-family="Times,serif" font-size="14.00">term1&#45;&gt;times factor term1 .</text>
</g>
<!-- I12&#45;&gt;I15 -->
<g id="edge25" class="edge">
<title>I12&#45;&gt;I15</title>
<path fill="none" stroke="black" d="M1689.4,-260.99C1738.53,-244.7 1799.79,-224.39 1846.61,-208.87"/>
<polygon fill="black" stroke="black" points="1847.98,-212.1 1856.37,-205.63 1845.78,-205.46 1847.98,-212.1"/>
<text text-anchor="middle" x="1761.76" y="-251.2" font-family="Times,serif" font-size="14.00">term1</text>
</g>
</g>
</svg>
