<?xml version="1.0" encoding="UTF-8" standalone="no"?>
<!DOCTYPE svg PUBLIC "-//W3C//DTD SVG 1.1//EN"
 "http://www.w3.org/Graphics/SVG/1.1/DTD/svg11.dtd">
<!-- Generated by graphviz version 2.44.0 (20200518.1210)
 -->
<!-- Title: items Pages: 1 -->
<svg width="100%" height="100%"
 viewBox="0.00 0.00 1440.00 352.21" xmlns="http://www.w3.org/2000/svg" xmlns:xlink="http://www.w3.org/1999/xlink">
<g id="graph0" class="graph" transform="scale(0.7 0.7) rotate(0) translate(4 500)">
<title>items</title>
<polygon fill="white" stroke="transparent" points="-4,4 -4,-500 2056.57,-500 2056.57,4 -4,4"/>
<!-- I0 -->
<g id="node1" class="node">
<title>I0</title>
<polygon fill="none" stroke="black" points="211.43,-368.6 -0.14,-368.6 -0.14,-225.8 211.43,-225.8 211.43,-368.6"/>
<text text-anchor="middle" x="105.64" y="-351.8" font-family="Times,serif" font-size="14.00">I0</text>
<text text-anchor="middle" x="105.64" y="-335" font-family="Times,serif" font-size="14.00">E&#39;&#45;&gt;. expression</text>
<text text-anchor="middle" x="105.64" y="-318.2" font-family="Times,serif" font-size="14.00">expression&#45;&gt;. expression plus term</text>
<text text-anchor="middle" x="105.64" y="-301.4" font-family="Times,serif" font-size="14.00">expression&#45;&gt;. term</text>
<text text-anchor="middle" x="105.64" y="-284.6" font-family="Times,serif" font-size="14.00">term&#45;&gt;. term times factor</text>
<text text-anchor="middle" x="105.64" y="-267.8" font-family="Times,serif" font-size="14.00">term&#45;&gt;. factor</text>
<text text-anchor="middle" x="105.64" y="-251" font-family="Times,serif" font-size="14.00">factor&#45;&gt;. lparen expression rparen</text>
<text text-anchor="middle" x="105.64" y="-234.2" font-family="Times,serif" font-size="14.00">factor&#45;&gt;. id</text>
</g>
<!-- I1 -->
<g id="node2" class="node">
<title>I1</title>
<polygon fill="none" stroke="black" points="522.58,-326.58 311.02,-326.58 311.02,-267.82 522.58,-267.82 522.58,-326.58"/>
<polygon fill="none" stroke="black" points="526.58,-330.6 307.01,-330.6 307.01,-263.8 526.58,-263.8 526.58,-330.6"/>
<text text-anchor="middle" x="416.8" y="-309.8" font-family="Times,serif" font-size="14.00">I1</text>
<text text-anchor="middle" x="416.8" y="-293" font-family="Times,serif" font-size="14.00">E&#39;&#45;&gt;expression .</text>
<text text-anchor="middle" x="416.8" y="-276.2" font-family="Times,serif" font-size="14.00">expression&#45;&gt;expression . plus term</text>
</g>
<!-- I0&#45;&gt;I1 -->
<g id="edge1" class="edge">
<title>I0&#45;&gt;I1</title>
<path fill="none" stroke="black" d="M211.31,-297.2C238.77,-297.2 268.58,-297.2 296.73,-297.2"/>
<polygon fill="black" stroke="black" points="297.02,-300.7 307.02,-297.2 297.02,-293.7 297.02,-300.7"/>
<text text-anchor="middle" x="259.22" y="-301.4" font-family="Times,serif" font-size="14.00">expression</text>
</g>
<!-- I2 -->
<g id="node3" class="node">
<title>I2</title>
<polygon fill="none" stroke="black" points="1522.24,-58.6 1365.56,-58.6 1365.56,0.2 1522.24,0.2 1522.24,-58.6"/>
<text text-anchor="middle" x="1443.9" y="-41.8" font-family="Times,serif" font-size="14.00">I2</text>
<text text-anchor="middle" x="1443.9" y="-25" font-family="Times,serif" font-size="14.00">expression&#45;&gt;term .</text>
<text text-anchor="middle" x="1443.9" y="-8.2" font-family="Times,serif" font-size="14.00">term&#45;&gt;term . times factor</text>
</g>
<!-- I0&#45;&gt;I2 -->
<g id="edge2" class="edge">
<title>I0&#45;&gt;I2</title>
<path fill="none" stroke="black" d="M145.21,-225.97C195.61,-143.6 292.19,-19.2 415.8,-19.2 415.8,-19.2 415.8,-19.2 986.33,-19.2 1114.72,-19.2 1263.36,-23.2 1355.27,-26.14"/>
<polygon fill="black" stroke="black" points="1355.25,-29.64 1365.36,-26.47 1355.48,-22.65 1355.25,-29.64"/>
<text text-anchor="middle" x="703.06" y="-23.4" font-family="Times,serif" font-size="14.00">term</text>
</g>
<!-- I3 -->
<g id="node4" class="node">
<title>I3</title>
<polygon fill="none" stroke="black" points="1490.76,-358.8 1397.05,-358.8 1397.05,-317.6 1490.76,-317.6 1490.76,-358.8"/>
<text text-anchor="middle" x="1443.9" y="-342.4" font-family="Times,serif" font-size="14.00">I3</text>
<text text-anchor="middle" x="1443.9" y="-325.6" font-family="Times,serif" font-size="14.00">term&#45;&gt;factor .</text>
</g>
<!-- I0&#45;&gt;I3 -->
<g id="edge3" class="edge">
<title>I0&#45;&gt;I3</title>
<path fill="none" stroke="black" d="M210.82,-368.59C268.58,-401.42 343.24,-433.2 415.8,-433.2 415.8,-433.2 415.8,-433.2 986.33,-433.2 1133.52,-433.2 1301.92,-385.29 1387.17,-357.52"/>
<polygon fill="black" stroke="black" points="1388.49,-360.76 1396.9,-354.32 1386.3,-354.12 1388.49,-360.76"/>
<text text-anchor="middle" x="703.06" y="-437.4" font-family="Times,serif" font-size="14.00">factor</text>
</g>
<!-- I4 -->
<g id="node5" class="node">
<title>I4</title>
<polygon fill="none" stroke="black" points="2013.74,-313.8 1934.57,-313.8 1934.57,-272.6 2013.74,-272.6 2013.74,-313.8"/>
<text text-anchor="middle" x="1974.15" y="-297.4" font-family="Times,serif" font-size="14.00">I4</text>
<text text-anchor="middle" x="1974.15" y="-280.6" font-family="Times,serif" font-size="14.00">factor&#45;&gt;id .</text>
</g>
<!-- I0&#45;&gt;I4 -->
<g id="edge4" class="edge">
<title>I0&#45;&gt;I4</title>
<path fill="none" stroke="black" d="M177.86,-368.61C236.5,-419.6 324.55,-479.2 415.8,-479.2 415.8,-479.2 415.8,-479.2 1725.2,-479.2 1828.68,-479.2 1916.6,-374.25 1953.96,-322.02"/>
<polygon fill="black" stroke="black" points="1956.84,-324.01 1959.72,-313.82 1951.11,-319.99 1956.84,-324.01"/>
<text text-anchor="middle" x="985.33" y="-483.4" font-family="Times,serif" font-size="14.00">id</text>
</g>
<!-- I5 -->
<g id="node6" class="node">
<title>I5</title>
<polygon fill="none" stroke="black" points="1091.12,-227.6 879.55,-227.6 879.55,-84.8 1091.12,-84.8 1091.12,-227.6"/>
<text text-anchor="middle" x="985.33" y="-210.8" font-family="Times,serif" font-size="14.00">I5</text>
<text text-anchor="middle" x="985.33" y="-194" font-family="Times,serif" font-size="14.00">factor&#45;&gt;lparen . expression rparen</text>
<text text-anchor="middle" x="985.33" y="-177.2" font-family="Times,serif" font-size="14.00">expression&#45;&gt;. expression plus term</text>
<text text-anchor="middle" x="985.33" y="-160.4" font-family="Times,serif" font-size="14.00">expression&#45;&gt;. term</text>
<text text-anchor="middle" x="985.33" y="-143.6" font-family="Times,serif" font-size="14.00">term&#45;&gt;. term times factor</text>
<text text-anchor="middle" x="985.33" y="-126.8" font-family="Times,serif" font-size="14.00">term&#45;&gt;. factor</text>
<text text-anchor="middle" x="985.33" y="-110" font-family="Times,serif" font-size="14.00">factor&#45;&gt;. lparen expression rparen</text>
<text text-anchor="middle" x="985.33" y="-93.2" font-family="Times,serif" font-size="14.00">factor&#45;&gt;. id</text>
</g>
<!-- I0&#45;&gt;I5 -->
<g id="edge5" class="edge">
<title>I0&#45;&gt;I5</title>
<path fill="none" stroke="black" d="M211.51,-255.37C349.79,-202.67 601.92,-115.04 826.71,-82.2 842.09,-79.95 846.71,-78.03 861.69,-82.2 864.5,-82.98 867.3,-83.85 870.1,-84.79"/>
<polygon fill="black" stroke="black" points="869,-88.11 879.6,-88.25 871.41,-81.53 869,-88.11"/>
<text text-anchor="middle" x="561.93" y="-147.4" font-family="Times,serif" font-size="14.00">lparen</text>
</g>
<!-- I6 -->
<g id="node7" class="node">
<title>I6</title>
<polygon fill="none" stroke="black" points="808.85,-351.5 597.28,-351.5 597.28,-242.9 808.85,-242.9 808.85,-351.5"/>
<text text-anchor="middle" x="703.06" y="-335" font-family="Times,serif" font-size="14.00">I6</text>
<text text-anchor="middle" x="703.06" y="-318.2" font-family="Times,serif" font-size="14.00">expression&#45;&gt;expression plus . term</text>
<text text-anchor="middle" x="703.06" y="-301.4" font-family="Times,serif" font-size="14.00">term&#45;&gt;. term times factor</text>
<text text-anchor="middle" x="703.06" y="-284.6" font-family="Times,serif" font-size="14.00">term&#45;&gt;. factor</text>
<text text-anchor="middle" x="703.06" y="-267.8" font-family="Times,serif" font-size="14.00">factor&#45;&gt;. lparen expression rparen</text>
<text text-anchor="middle" x="703.06" y="-251" font-family="Times,serif" font-size="14.00">factor&#45;&gt;. id</text>
</g>
<!-- I1&#45;&gt;I6 -->
<g id="edge6" class="edge">
<title>I1&#45;&gt;I6</title>
<path fill="none" stroke="black" d="M526.48,-297.2C546.33,-297.2 567.1,-297.2 587.11,-297.2"/>
<polygon fill="black" stroke="black" points="587.19,-300.7 597.19,-297.2 587.19,-293.7 587.19,-300.7"/>
<text text-anchor="middle" x="561.93" y="-301.4" font-family="Times,serif" font-size="14.00">plus</text>
</g>
<!-- I7 -->
<g id="node8" class="node">
<title>I7</title>
<polygon fill="none" stroke="black" points="1826.99,-138.9 1621.4,-138.9 1621.4,-63.5 1826.99,-63.5 1826.99,-138.9"/>
<text text-anchor="middle" x="1724.2" y="-122.2" font-family="Times,serif" font-size="14.00">I7</text>
<text text-anchor="middle" x="1724.2" y="-105.4" font-family="Times,serif" font-size="14.00">term&#45;&gt;term times . factor</text>
<text text-anchor="middle" x="1724.2" y="-88.6" font-family="Times,serif" font-size="14.00">factor&#45;&gt;. lparen expression rparen</text>
<text text-anchor="middle" x="1724.2" y="-71.8" font-family="Times,serif" font-size="14.00">factor&#45;&gt;. id</text>
</g>
<!-- I2&#45;&gt;I7 -->
<g id="edge7" class="edge">
<title>I2&#45;&gt;I7</title>
<path fill="none" stroke="black" d="M1522.59,-44.47C1548.39,-49.94 1577.19,-56.48 1603.3,-63.4 1606.07,-64.13 1608.87,-64.89 1611.69,-65.67"/>
<polygon fill="black" stroke="black" points="1610.77,-69.05 1621.34,-68.38 1612.66,-62.31 1610.77,-69.05"/>
<text text-anchor="middle" x="1585.42" y="-68.4" font-family="Times,serif" font-size="14.00">times</text>
</g>
<!-- I5&#45;&gt;I2 -->
<g id="edge9" class="edge">
<title>I5&#45;&gt;I2</title>
<path fill="none" stroke="black" d="M1090.98,-120.68C1097.04,-119.11 1103.07,-117.67 1108.97,-116.4 1201.34,-96.56 1236.72,-137.31 1320.26,-93.2 1331.13,-87.46 1328.3,-79.4 1338.26,-72.2 1343.87,-68.14 1349.93,-64.38 1356.19,-60.92"/>
<polygon fill="black" stroke="black" points="1358.26,-63.79 1365.5,-56.06 1355.01,-57.59 1358.26,-63.79"/>
<text text-anchor="middle" x="1214.62" y="-120.4" font-family="Times,serif" font-size="14.00">term</text>
</g>
<!-- I5&#45;&gt;I3 -->
<g id="edge10" class="edge">
<title>I5&#45;&gt;I3</title>
<path fill="none" stroke="black" d="M1080.12,-227.43C1089.62,-233.2 1099.32,-238.57 1108.97,-243.2 1201.51,-287.57 1318.67,-314.94 1386.76,-328.3"/>
<polygon fill="black" stroke="black" points="1386.37,-331.79 1396.85,-330.25 1387.69,-324.91 1386.37,-331.79"/>
<text text-anchor="middle" x="1214.62" y="-317.4" font-family="Times,serif" font-size="14.00">factor</text>
</g>
<!-- I5&#45;&gt;I4 -->
<g id="edge11" class="edge">
<title>I5&#45;&gt;I4</title>
<path fill="none" stroke="black" d="M1091,-154.8C1251.8,-155 1568.18,-164.78 1827.09,-230.2 1861.25,-238.83 1897.64,-254.51 1925.55,-268.06"/>
<polygon fill="black" stroke="black" points="1924.16,-271.28 1934.68,-272.56 1927.26,-265 1924.16,-271.28"/>
<text text-anchor="middle" x="1585.42" y="-191.4" font-family="Times,serif" font-size="14.00">id</text>
</g>
<!-- I5&#45;&gt;I5 -->
<g id="edge12" class="edge">
<title>I5&#45;&gt;I5</title>
<path fill="none" stroke="black" d="M961.52,-227.59C965.23,-238.21 973.16,-245.4 985.33,-245.4 993.7,-245.4 1000.06,-242 1004.43,-236.43"/>
<polygon fill="black" stroke="black" points="1007.53,-238.06 1009.14,-227.59 1001.35,-234.76 1007.53,-238.06"/>
<text text-anchor="middle" x="985.33" y="-249.6" font-family="Times,serif" font-size="14.00">lparen</text>
</g>
<!-- I8 -->
<g id="node9" class="node">
<title>I8</title>
<polygon fill="none" stroke="black" points="1549.69,-289.6 1338.12,-289.6 1338.12,-230.8 1549.69,-230.8 1549.69,-289.6"/>
<text text-anchor="middle" x="1443.9" y="-272.8" font-family="Times,serif" font-size="14.00">I8</text>
<text text-anchor="middle" x="1443.9" y="-256" font-family="Times,serif" font-size="14.00">factor&#45;&gt;lparen expression . rparen</text>
<text text-anchor="middle" x="1443.9" y="-239.2" font-family="Times,serif" font-size="14.00">expression&#45;&gt;expression . plus term</text>
</g>
<!-- I5&#45;&gt;I8 -->
<g id="edge8" class="edge">
<title>I5&#45;&gt;I8</title>
<path fill="none" stroke="black" d="M1091.14,-198.36C1097.13,-200.15 1103.1,-201.78 1108.97,-203.2 1200.79,-225.44 1227.48,-208.64 1320.26,-226.4 1324.12,-227.14 1328.03,-227.94 1331.97,-228.78"/>
<polygon fill="black" stroke="black" points="1331.29,-232.22 1341.81,-230.98 1332.81,-225.39 1331.29,-232.22"/>
<text text-anchor="middle" x="1214.62" y="-230.4" font-family="Times,serif" font-size="14.00">expression</text>
</g>
<!-- I6&#45;&gt;I3 -->
<g id="edge14" class="edge">
<title>I6&#45;&gt;I3</title>
<path fill="none" stroke="black" d="M808.8,-313.43C832.08,-316.51 856.68,-319.34 879.69,-321.2 1064.93,-336.19 1285.4,-338.3 1386.8,-338.38"/>
<polygon fill="black" stroke="black" points="1386.82,-341.88 1396.82,-338.39 1386.82,-334.88 1386.82,-341.88"/>
<text text-anchor="middle" x="985.33" y="-336.4" font-family="Times,serif" font-size="14.00">factor</text>
</g>
<!-- I6&#45;&gt;I4 -->
<g id="edge15" class="edge">
<title>I6&#45;&gt;I4</title>
<path fill="none" stroke="black" d="M806.58,-351.5C858.39,-374.11 923.12,-395.2 984.33,-395.2 984.33,-395.2 984.33,-395.2 1725.2,-395.2 1804.78,-395.2 1888.67,-349.7 1935.61,-319.48"/>
<polygon fill="black" stroke="black" points="1937.77,-322.25 1944.21,-313.84 1933.93,-316.39 1937.77,-322.25"/>
<text text-anchor="middle" x="1443.9" y="-399.4" font-family="Times,serif" font-size="14.00">id</text>
</g>
<!-- I6&#45;&gt;I5 -->
<g id="edge16" class="edge">
<title>I6&#45;&gt;I5</title>
<path fill="none" stroke="black" d="M808.82,-244.5C828.87,-234.41 849.95,-223.81 870.27,-213.58"/>
<polygon fill="black" stroke="black" points="871.87,-216.7 879.23,-209.07 868.73,-210.44 871.87,-216.7"/>
<text text-anchor="middle" x="844.2" y="-238.4" font-family="Times,serif" font-size="14.00">lparen</text>
</g>
<!-- I9 -->
<g id="node10" class="node">
<title>I9</title>
<polygon fill="none" stroke="black" points="1320.4,-92.6 1108.83,-92.6 1108.83,-33.8 1320.4,-33.8 1320.4,-92.6"/>
<text text-anchor="middle" x="1214.62" y="-75.8" font-family="Times,serif" font-size="14.00">I9</text>
<text text-anchor="middle" x="1214.62" y="-59" font-family="Times,serif" font-size="14.00">expression&#45;&gt;expression plus term .</text>
<text text-anchor="middle" x="1214.62" y="-42.2" font-family="Times,serif" font-size="14.00">term&#45;&gt;term . times factor</text>
</g>
<!-- I6&#45;&gt;I9 -->
<g id="edge13" class="edge">
<title>I6&#45;&gt;I9</title>
<path fill="none" stroke="black" d="M729.86,-242.73C758.31,-189.6 809.53,-111.76 879.69,-76.2 946.63,-42.27 1031.19,-39.31 1098.46,-44.69"/>
<polygon fill="black" stroke="black" points="1098.41,-48.2 1108.68,-45.58 1099.02,-41.22 1098.41,-48.2"/>
<text text-anchor="middle" x="844.2" y="-113.4" font-family="Times,serif" font-size="14.00">term</text>
</g>
<!-- I7&#45;&gt;I4 -->
<g id="edge18" class="edge">
<title>I7&#45;&gt;I4</title>
<path fill="none" stroke="black" d="M1827.22,-132.06C1845.04,-140.01 1862.67,-149.7 1877.73,-161.4 1913.58,-189.22 1942.01,-234.01 1958.21,-263.53"/>
<polygon fill="black" stroke="black" points="1955.23,-265.38 1963.04,-272.54 1961.4,-262.07 1955.23,-265.38"/>
<text text-anchor="middle" x="1861.41" y="-165.4" font-family="Times,serif" font-size="14.00">id</text>
</g>
<!-- I7&#45;&gt;I5 -->
<g id="edge19" class="edge">
<title>I7&#45;&gt;I5</title>
<path fill="none" stroke="black" d="M1621.37,-109.58C1539.92,-116.22 1422.78,-125.6 1320.26,-133.2 1247.51,-138.59 1165.81,-144.23 1101.44,-148.57"/>
<polygon fill="black" stroke="black" points="1101,-145.09 1091.26,-149.26 1101.47,-152.08 1101,-145.09"/>
<text text-anchor="middle" x="1443.9" y="-135.4" font-family="Times,serif" font-size="14.00">lparen</text>
</g>
<!-- I10 -->
<g id="node11" class="node">
<title>I10</title>
<polygon fill="none" stroke="black" points="2052.49,-121.8 1895.81,-121.8 1895.81,-80.6 2052.49,-80.6 2052.49,-121.8"/>
<text text-anchor="middle" x="1974.15" y="-105.4" font-family="Times,serif" font-size="14.00">I10</text>
<text text-anchor="middle" x="1974.15" y="-88.6" font-family="Times,serif" font-size="14.00">term&#45;&gt;term times factor .</text>
</g>
<!-- I7&#45;&gt;I10 -->
<g id="edge17" class="edge">
<title>I7&#45;&gt;I10</title>
<path fill="none" stroke="black" d="M1827.12,-101.2C1846.48,-101.2 1866.59,-101.2 1885.46,-101.2"/>
<polygon fill="black" stroke="black" points="1885.51,-104.7 1895.51,-101.2 1885.51,-97.7 1885.51,-104.7"/>
<text text-anchor="middle" x="1861.41" y="-105.4" font-family="Times,serif" font-size="14.00">factor</text>
</g>
<!-- I8&#45;&gt;I6 -->
<g id="edge20" class="edge">
<title>I8&#45;&gt;I6</title>
<path fill="none" stroke="black" d="M1338.03,-281.03C1332.03,-281.86 1326.08,-282.59 1320.26,-283.2 1146.22,-301.37 943.1,-302.04 819.06,-300.15"/>
<polygon fill="black" stroke="black" points="818.84,-296.65 808.79,-299.99 818.73,-303.65 818.84,-296.65"/>
<text text-anchor="middle" x="985.33" y="-304.4" font-family="Times,serif" font-size="14.00">plus</text>
</g>
<!-- I11 -->
<g id="node12" class="node">
<title>I11</title>
<polygon fill="none" stroke="black" points="1826.99,-280.8 1621.4,-280.8 1621.4,-239.6 1826.99,-239.6 1826.99,-280.8"/>
<text text-anchor="middle" x="1724.2" y="-264.4" font-family="Times,serif" font-size="14.00">I11</text>
<text text-anchor="middle" x="1724.2" y="-247.6" font-family="Times,serif" font-size="14.00">factor&#45;&gt;lparen expression rparen .</text>
</g>
<!-- I8&#45;&gt;I11 -->
<g id="edge21" class="edge">
<title>I8&#45;&gt;I11</title>
<path fill="none" stroke="black" d="M1549.72,-260.2C1569.75,-260.2 1590.8,-260.2 1611.05,-260.2"/>
<polygon fill="black" stroke="black" points="1611.24,-263.7 1621.24,-260.2 1611.24,-256.7 1611.24,-263.7"/>
<text text-anchor="middle" x="1585.42" y="-264.4" font-family="Times,serif" font-size="14.00">rparen</text>
</g>
<!-- I9&#45;&gt;I7 -->
<g id="edge22" class="edge">
<title>I9&#45;&gt;I7</title>
<path fill="none" stroke="black" d="M1320.48,-71.05C1405.23,-77.4 1524.26,-86.31 1610.93,-92.8"/>
<polygon fill="black" stroke="black" points="1610.83,-96.3 1621.07,-93.55 1611.36,-89.32 1610.83,-96.3"/>
<text text-anchor="middle" x="1443.9" y="-91.4" font-family="Times,serif" font-size="14.00">times</text>
</g>
</g>
</svg>
