<?xml version="1.0" encoding="UTF-8" standalone="no"?>
<!DOCTYPE svg PUBLIC "-//W3C//DTD SVG 1.1//EN"
 "http://www.w3.org/Graphics/SVG/1.1/DTD/svg11.dtd">
<!-- Generated by graphviz version 2.44.0 (20200518.1210)
 -->
<!-- Title: items Pages: 1 -->
<svg width="100%" height="100%"
 viewBox="0.00 0.00 569.30 553.00" xmlns="http://www.w3.org/2000/svg" xmlns:xlink="http://www.w3.org/1999/xlink">
<g id="graph0" class="graph" transform="scale(1 1) rotate(0) translate(4 549)">
<title>items</title>
<polygon fill="white" stroke="transparent" points="-4,4 -4,-549 565.3,-549 565.3,4 -4,4"/>
<!-- I0 -->
<g id="node1" class="node">
<title>I0</title>
<polygon fill="none" stroke="black" points="82.99,-406.5 0,-406.5 0,-213.9 82.99,-213.9 82.99,-406.5"/>
<text text-anchor="middle" x="41.5" y="-390" font-family="Times,serif" font-size="14.00">I0</text>
<text text-anchor="middle" x="41.5" y="-373.2" font-family="Times,serif" font-size="14.00">E&#39;&#45;&gt;. s</text>
<text text-anchor="middle" x="41.5" y="-356.4" font-family="Times,serif" font-size="14.00">s&#45;&gt;. a c b</text>
<text text-anchor="middle" x="41.5" y="-339.6" font-family="Times,serif" font-size="14.00">s&#45;&gt;. c B B</text>
<text text-anchor="middle" x="41.5" y="-322.8" font-family="Times,serif" font-size="14.00">s&#45;&gt;. b A</text>
<text text-anchor="middle" x="41.5" y="-306" font-family="Times,serif" font-size="14.00">a&#45;&gt;. D A</text>
<text text-anchor="middle" x="41.5" y="-289.2" font-family="Times,serif" font-size="14.00">a&#45;&gt;. b c</text>
<text text-anchor="middle" x="41.5" y="-272.4" font-family="Times,serif" font-size="14.00">c&#45;&gt;. H</text>
<text text-anchor="middle" x="41.5" y="-255.6" font-family="Times,serif" font-size="14.00">c&#45;&gt;. epsilon</text>
<text text-anchor="middle" x="41.5" y="-238.8" font-family="Times,serif" font-size="14.00">b&#45;&gt;. G</text>
<text text-anchor="middle" x="41.5" y="-222" font-family="Times,serif" font-size="14.00">b&#45;&gt;. epsilon</text>
</g>
<!-- I1 -->
<g id="node2" class="node">
<title>I1</title>
<polygon fill="none" stroke="black" points="228.15,-544.8 173.72,-544.8 173.72,-503.6 228.15,-503.6 228.15,-544.8"/>
<text text-anchor="middle" x="200.93" y="-528.4" font-family="Times,serif" font-size="14.00">I1</text>
<text text-anchor="middle" x="200.93" y="-511.6" font-family="Times,serif" font-size="14.00">E&#39;&#45;&gt;s .</text>
</g>
<!-- I0&#45;&gt;I1 -->
<g id="edge1" class="edge">
<title>I0&#45;&gt;I1</title>
<path fill="none" stroke="black" d="M56.93,-406.71C65.51,-436.27 79.19,-466.86 101,-489.2 117.62,-506.23 143.04,-514.99 163.95,-519.49"/>
<polygon fill="black" stroke="black" points="163.31,-522.93 173.79,-521.38 164.63,-516.06 163.31,-522.93"/>
<text text-anchor="middle" x="121.22" y="-516.4" font-family="Times,serif" font-size="14.00">s</text>
</g>
<!-- I2 -->
<g id="node3" class="node">
<title>I2</title>
<polygon fill="none" stroke="black" points="242.14,-389.9 159.72,-389.9 159.72,-314.5 242.14,-314.5 242.14,-389.9"/>
<text text-anchor="middle" x="200.93" y="-373.2" font-family="Times,serif" font-size="14.00">I2</text>
<text text-anchor="middle" x="200.93" y="-356.4" font-family="Times,serif" font-size="14.00">s&#45;&gt;a . c b</text>
<text text-anchor="middle" x="200.93" y="-339.6" font-family="Times,serif" font-size="14.00">c&#45;&gt;. H</text>
<text text-anchor="middle" x="200.93" y="-322.8" font-family="Times,serif" font-size="14.00">c&#45;&gt;. epsilon</text>
</g>
<!-- I0&#45;&gt;I2 -->
<g id="edge2" class="edge">
<title>I0&#45;&gt;I2</title>
<path fill="none" stroke="black" d="M83.04,-321.02C103.5,-326.48 128.51,-333.15 150.13,-338.91"/>
<polygon fill="black" stroke="black" points="149.24,-342.3 159.8,-341.49 151.04,-335.53 149.24,-342.3"/>
<text text-anchor="middle" x="121.22" y="-339.4" font-family="Times,serif" font-size="14.00">a</text>
</g>
<!-- I3 -->
<g id="node4" class="node">
<title>I3</title>
<polygon fill="none" stroke="black" points="242.14,-288.2 159.72,-288.2 159.72,-196.2 242.14,-196.2 242.14,-288.2"/>
<text text-anchor="middle" x="200.93" y="-271.6" font-family="Times,serif" font-size="14.00">I3</text>
<text text-anchor="middle" x="200.93" y="-254.8" font-family="Times,serif" font-size="14.00">s&#45;&gt;b . A</text>
<text text-anchor="middle" x="200.93" y="-238" font-family="Times,serif" font-size="14.00">a&#45;&gt;b . c</text>
<text text-anchor="middle" x="200.93" y="-221.2" font-family="Times,serif" font-size="14.00">c&#45;&gt;. H</text>
<text text-anchor="middle" x="200.93" y="-204.4" font-family="Times,serif" font-size="14.00">c&#45;&gt;. epsilon</text>
</g>
<!-- I0&#45;&gt;I3 -->
<g id="edge3" class="edge">
<title>I0&#45;&gt;I3</title>
<path fill="none" stroke="black" d="M83.04,-292.69C103.6,-283.81 128.73,-272.95 150.42,-263.58"/>
<polygon fill="black" stroke="black" points="152.01,-266.71 159.8,-259.53 149.23,-260.29 152.01,-266.71"/>
<text text-anchor="middle" x="121.22" y="-288.4" font-family="Times,serif" font-size="14.00">b</text>
</g>
<!-- I4 -->
<g id="node5" class="node">
<title>I4</title>
<polygon fill="none" stroke="black" points="237.32,-177.8 164.55,-177.8 164.55,-136.6 237.32,-136.6 237.32,-177.8"/>
<text text-anchor="middle" x="200.93" y="-161.4" font-family="Times,serif" font-size="14.00">I4</text>
<text text-anchor="middle" x="200.93" y="-144.6" font-family="Times,serif" font-size="14.00">s&#45;&gt;c . B B</text>
</g>
<!-- I0&#45;&gt;I4 -->
<g id="edge4" class="edge">
<title>I0&#45;&gt;I4</title>
<path fill="none" stroke="black" d="M83.03,-263.45C104.68,-239.56 132.4,-210.66 159.44,-187.2 160.55,-186.23 161.7,-185.26 162.86,-184.29"/>
<polygon fill="black" stroke="black" points="165.13,-186.96 170.75,-177.97 160.75,-181.5 165.13,-186.96"/>
<text text-anchor="middle" x="121.22" y="-245.4" font-family="Times,serif" font-size="14.00">c</text>
</g>
<!-- I5 -->
<g id="node6" class="node">
<title>I5</title>
<polygon fill="none" stroke="black" points="233.92,-117.8 167.95,-117.8 167.95,-76.6 233.92,-76.6 233.92,-117.8"/>
<text text-anchor="middle" x="200.93" y="-101.4" font-family="Times,serif" font-size="14.00">I5</text>
<text text-anchor="middle" x="200.93" y="-84.6" font-family="Times,serif" font-size="14.00">a&#45;&gt;D . A</text>
</g>
<!-- I0&#45;&gt;I5 -->
<g id="edge5" class="edge">
<title>I0&#45;&gt;I5</title>
<path fill="none" stroke="black" d="M82.91,-213.71C88.48,-203.52 94.53,-193.54 101,-184.4 121.99,-154.73 131.78,-150.78 159.44,-127.2 160.56,-126.24 161.71,-125.28 162.88,-124.32"/>
<polygon fill="black" stroke="black" points="165.14,-126.99 170.8,-118.03 160.79,-121.51 165.14,-126.99"/>
<text text-anchor="middle" x="121.22" y="-188.4" font-family="Times,serif" font-size="14.00">D</text>
</g>
<!-- I6 -->
<g id="node7" class="node">
<title>I6</title>
<polygon fill="none" stroke="black" points="546.81,-489.8 492.81,-489.8 492.81,-448.6 546.81,-448.6 546.81,-489.8"/>
<text text-anchor="middle" x="519.81" y="-473.4" font-family="Times,serif" font-size="14.00">I6</text>
<text text-anchor="middle" x="519.81" y="-456.6" font-family="Times,serif" font-size="14.00">b&#45;&gt;G .</text>
</g>
<!-- I0&#45;&gt;I6 -->
<g id="edge6" class="edge">
<title>I0&#45;&gt;I6</title>
<path fill="none" stroke="black" d="M83.03,-380C102.41,-406.19 128.24,-432.83 159.44,-446.2 269.34,-493.31 415.62,-482.86 482.58,-474.57"/>
<polygon fill="black" stroke="black" points="483.15,-478.02 492.62,-473.26 482.25,-471.08 483.15,-478.02"/>
<text text-anchor="middle" x="280.65" y="-482.4" font-family="Times,serif" font-size="14.00">G</text>
</g>
<!-- I7 -->
<g id="node8" class="node">
<title>I7</title>
<polygon fill="none" stroke="black" points="387.37,-350.8 333.37,-350.8 333.37,-309.6 387.37,-309.6 387.37,-350.8"/>
<text text-anchor="middle" x="360.37" y="-334.4" font-family="Times,serif" font-size="14.00">I7</text>
<text text-anchor="middle" x="360.37" y="-317.6" font-family="Times,serif" font-size="14.00">c&#45;&gt;H .</text>
</g>
<!-- I0&#45;&gt;I7 -->
<g id="edge7" class="edge">
<title>I0&#45;&gt;I7</title>
<path fill="none" stroke="black" d="M83.17,-350.86C104.12,-369.11 131.17,-388.83 159.44,-399.2 218.52,-420.89 249.02,-441.87 300.87,-406.2 319.3,-393.52 305.2,-376.9 318.87,-359.2 320.71,-356.83 322.79,-354.56 325.01,-352.42"/>
<polygon fill="black" stroke="black" points="327.63,-354.79 333,-345.65 323.11,-349.45 327.63,-354.79"/>
<text text-anchor="middle" x="200.93" y="-429.4" font-family="Times,serif" font-size="14.00">H</text>
</g>
<!-- I8 -->
<g id="node9" class="node">
<title>I8</title>
<polygon fill="none" stroke="black" points="242.43,-58.6 159.44,-58.6 159.44,0.2 242.43,0.2 242.43,-58.6"/>
<text text-anchor="middle" x="200.93" y="-41.8" font-family="Times,serif" font-size="14.00">I8</text>
<text text-anchor="middle" x="200.93" y="-25" font-family="Times,serif" font-size="14.00">c&#45;&gt;epsilon .</text>
<text text-anchor="middle" x="200.93" y="-8.2" font-family="Times,serif" font-size="14.00">b&#45;&gt;epsilon .</text>
</g>
<!-- I0&#45;&gt;I8 -->
<g id="edge8" class="edge">
<title>I0&#45;&gt;I8</title>
<path fill="none" stroke="black" d="M61.96,-213.83C70.88,-182.83 83.48,-149.3 101,-121.4 114.32,-100.17 133.74,-80.62 151.85,-65.03"/>
<polygon fill="black" stroke="black" points="154.1,-67.71 159.51,-58.6 149.6,-62.35 154.1,-67.71"/>
<text text-anchor="middle" x="121.22" y="-125.4" font-family="Times,serif" font-size="14.00">epsilon</text>
</g>
<!-- I2&#45;&gt;I7 -->
<g id="edge10" class="edge">
<title>I2&#45;&gt;I7</title>
<path fill="none" stroke="black" d="M242.07,-346.59C266.99,-343.11 298.76,-338.67 322.95,-335.29"/>
<polygon fill="black" stroke="black" points="323.73,-338.72 333.14,-333.86 322.76,-331.78 323.73,-338.72"/>
<text text-anchor="middle" x="280.65" y="-347.4" font-family="Times,serif" font-size="14.00">H</text>
</g>
<!-- I9 -->
<g id="node10" class="node">
<title>I9</title>
<polygon fill="none" stroke="black" points="401.87,-443.9 318.87,-443.9 318.87,-368.5 401.87,-368.5 401.87,-443.9"/>
<text text-anchor="middle" x="360.37" y="-427.2" font-family="Times,serif" font-size="14.00">I9</text>
<text text-anchor="middle" x="360.37" y="-410.4" font-family="Times,serif" font-size="14.00">s&#45;&gt;a c . b</text>
<text text-anchor="middle" x="360.37" y="-393.6" font-family="Times,serif" font-size="14.00">b&#45;&gt;. G</text>
<text text-anchor="middle" x="360.37" y="-376.8" font-family="Times,serif" font-size="14.00">b&#45;&gt;. epsilon</text>
</g>
<!-- I2&#45;&gt;I9 -->
<g id="edge9" class="edge">
<title>I2&#45;&gt;I9</title>
<path fill="none" stroke="black" d="M242.07,-365.97C262.45,-372.96 287.42,-381.52 309.07,-388.95"/>
<polygon fill="black" stroke="black" points="308.17,-392.34 318.76,-392.27 310.44,-385.72 308.17,-392.34"/>
<text text-anchor="middle" x="280.65" y="-389.4" font-family="Times,serif" font-size="14.00">c</text>
</g>
<!-- I10 -->
<g id="node11" class="node">
<title>I10</title>
<polygon fill="none" stroke="black" points="401.58,-290.8 319.16,-290.8 319.16,-249.6 401.58,-249.6 401.58,-290.8"/>
<text text-anchor="middle" x="360.37" y="-274.4" font-family="Times,serif" font-size="14.00">I10</text>
<text text-anchor="middle" x="360.37" y="-257.6" font-family="Times,serif" font-size="14.00">c&#45;&gt;epsilon .</text>
</g>
<!-- I2&#45;&gt;I10 -->
<g id="edge11" class="edge">
<title>I2&#45;&gt;I10</title>
<path fill="none" stroke="black" d="M242.25,-327.56C248.3,-324.06 254.49,-320.58 260.43,-317.4 276.29,-308.93 293.91,-300.28 309.84,-292.74"/>
<polygon fill="black" stroke="black" points="311.43,-295.86 319,-288.44 308.46,-289.52 311.43,-295.86"/>
<text text-anchor="middle" x="280.65" y="-321.4" font-family="Times,serif" font-size="14.00">epsilon</text>
</g>
<!-- I3&#45;&gt;I7 -->
<g id="edge14" class="edge">
<title>I3&#45;&gt;I7</title>
<path fill="none" stroke="black" d="M242.04,-252.96C265.03,-259.65 291.2,-268.3 300.87,-275.4 311.85,-283.46 309.29,-290.52 318.87,-300.2 320.89,-302.24 323.06,-304.25 325.3,-306.2"/>
<polygon fill="black" stroke="black" points="323.17,-308.98 333.13,-312.59 327.6,-303.56 323.17,-308.98"/>
<text text-anchor="middle" x="280.65" y="-279.4" font-family="Times,serif" font-size="14.00">H</text>
</g>
<!-- I3&#45;&gt;I10 -->
<g id="edge15" class="edge">
<title>I3&#45;&gt;I10</title>
<path fill="none" stroke="black" d="M242.41,-236.19C260.54,-234.74 282.02,-234.74 300.87,-239.4 306.51,-240.79 312.21,-242.84 317.72,-245.23"/>
<polygon fill="black" stroke="black" points="316.23,-248.4 326.77,-249.51 319.23,-242.07 316.23,-248.4"/>
<text text-anchor="middle" x="280.65" y="-243.4" font-family="Times,serif" font-size="14.00">epsilon</text>
</g>
<!-- I11 -->
<g id="node12" class="node">
<title>I11</title>
<polygon fill="none" stroke="black" points="389.86,-230.8 330.88,-230.8 330.88,-189.6 389.86,-189.6 389.86,-230.8"/>
<text text-anchor="middle" x="360.37" y="-214.4" font-family="Times,serif" font-size="14.00">I11</text>
<text text-anchor="middle" x="360.37" y="-197.6" font-family="Times,serif" font-size="14.00">a&#45;&gt;b c .</text>
</g>
<!-- I3&#45;&gt;I11 -->
<g id="edge12" class="edge">
<title>I3&#45;&gt;I11</title>
<path fill="none" stroke="black" d="M242.07,-220.58C248.08,-218.1 254.32,-215.92 260.43,-214.4 279.91,-209.57 302.2,-208.27 320.68,-208.29"/>
<polygon fill="black" stroke="black" points="320.75,-211.79 330.8,-208.43 320.85,-204.79 320.75,-211.79"/>
<text text-anchor="middle" x="280.65" y="-218.4" font-family="Times,serif" font-size="14.00">c</text>
</g>
<!-- I12 -->
<g id="node13" class="node">
<title>I12</title>
<polygon fill="none" stroke="black" points="390.98,-170.8 329.76,-170.8 329.76,-129.6 390.98,-129.6 390.98,-170.8"/>
<text text-anchor="middle" x="360.37" y="-154.4" font-family="Times,serif" font-size="14.00">I12</text>
<text text-anchor="middle" x="360.37" y="-137.6" font-family="Times,serif" font-size="14.00">s&#45;&gt;b A .</text>
</g>
<!-- I3&#45;&gt;I12 -->
<g id="edge13" class="edge">
<title>I3&#45;&gt;I12</title>
<path fill="none" stroke="black" d="M242.13,-200.82C247.99,-195.92 254.17,-191.29 260.43,-187.4 278.66,-176.07 300.89,-167.32 319.66,-161.17"/>
<polygon fill="black" stroke="black" points="320.91,-164.44 329.39,-158.1 318.8,-157.77 320.91,-164.44"/>
<text text-anchor="middle" x="280.65" y="-191.4" font-family="Times,serif" font-size="14.00">A</text>
</g>
<!-- I13 -->
<g id="node14" class="node">
<title>I13</title>
<polygon fill="none" stroke="black" points="396.76,-110.8 323.98,-110.8 323.98,-69.6 396.76,-69.6 396.76,-110.8"/>
<text text-anchor="middle" x="360.37" y="-94.4" font-family="Times,serif" font-size="14.00">I13</text>
<text text-anchor="middle" x="360.37" y="-77.6" font-family="Times,serif" font-size="14.00">s&#45;&gt;c B . B</text>
</g>
<!-- I4&#45;&gt;I13 -->
<g id="edge16" class="edge">
<title>I4&#45;&gt;I13</title>
<path fill="none" stroke="black" d="M230.48,-136.51C234.54,-133.44 238.62,-130.28 242.43,-127.2 250.72,-120.52 250.92,-116.18 260.43,-111.4 276.83,-103.16 296.33,-98.11 313.66,-95.03"/>
<polygon fill="black" stroke="black" points="314.26,-98.47 323.57,-93.43 313.14,-91.56 314.26,-98.47"/>
<text text-anchor="middle" x="280.65" y="-115.4" font-family="Times,serif" font-size="14.00">B</text>
</g>
<!-- I14 -->
<g id="node15" class="node">
<title>I14</title>
<polygon fill="none" stroke="black" points="393.35,-50.8 327.39,-50.8 327.39,-9.6 393.35,-9.6 393.35,-50.8"/>
<text text-anchor="middle" x="360.37" y="-34.4" font-family="Times,serif" font-size="14.00">I14</text>
<text text-anchor="middle" x="360.37" y="-17.6" font-family="Times,serif" font-size="14.00">a&#45;&gt;D A .</text>
</g>
<!-- I5&#45;&gt;I14 -->
<g id="edge17" class="edge">
<title>I5&#45;&gt;I14</title>
<path fill="none" stroke="black" d="M233.79,-83.64C258.12,-73.29 291.83,-58.94 318.21,-47.72"/>
<polygon fill="black" stroke="black" points="319.73,-50.87 327.56,-43.74 316.99,-44.43 319.73,-50.87"/>
<text text-anchor="middle" x="280.65" y="-76.4" font-family="Times,serif" font-size="14.00">A</text>
</g>
<!-- I9&#45;&gt;I6 -->
<g id="edge19" class="edge">
<title>I9&#45;&gt;I6</title>
<path fill="none" stroke="black" d="M401.92,-421.52C419.87,-428.38 441.19,-436.66 460.31,-444.4 467.78,-447.43 475.76,-450.75 483.35,-453.95"/>
<polygon fill="black" stroke="black" points="482.1,-457.22 492.67,-457.91 484.84,-450.78 482.1,-457.22"/>
<text text-anchor="middle" x="440.09" y="-448.4" font-family="Times,serif" font-size="14.00">G</text>
</g>
<!-- I15 -->
<g id="node16" class="node">
<title>I15</title>
<polygon fill="none" stroke="black" points="553.74,-423.8 485.88,-423.8 485.88,-382.6 553.74,-382.6 553.74,-423.8"/>
<text text-anchor="middle" x="519.81" y="-407.4" font-family="Times,serif" font-size="14.00">I15</text>
<text text-anchor="middle" x="519.81" y="-390.6" font-family="Times,serif" font-size="14.00">s&#45;&gt;a c b .</text>
</g>
<!-- I9&#45;&gt;I15 -->
<g id="edge18" class="edge">
<title>I9&#45;&gt;I15</title>
<path fill="none" stroke="black" d="M401.96,-404.85C407.97,-404.68 414.08,-404.52 419.87,-404.4 438.07,-404.01 458.16,-403.74 475.46,-403.55"/>
<polygon fill="black" stroke="black" points="475.86,-407.05 485.82,-403.45 475.79,-400.05 475.86,-407.05"/>
<text text-anchor="middle" x="440.09" y="-408.4" font-family="Times,serif" font-size="14.00">b</text>
</g>
<!-- I16 -->
<g id="node17" class="node">
<title>I16</title>
<polygon fill="none" stroke="black" points="561.3,-363.8 478.31,-363.8 478.31,-322.6 561.3,-322.6 561.3,-363.8"/>
<text text-anchor="middle" x="519.81" y="-347.4" font-family="Times,serif" font-size="14.00">I16</text>
<text text-anchor="middle" x="519.81" y="-330.6" font-family="Times,serif" font-size="14.00">b&#45;&gt;epsilon .</text>
</g>
<!-- I9&#45;&gt;I16 -->
<g id="edge20" class="edge">
<title>I9&#45;&gt;I16</title>
<path fill="none" stroke="black" d="M401.95,-389.64C407.95,-387.2 414.07,-384.73 419.87,-382.4 435.63,-376.07 452.83,-369.23 468.4,-363.07"/>
<polygon fill="black" stroke="black" points="469.84,-366.26 477.86,-359.33 467.27,-359.75 469.84,-366.26"/>
<text text-anchor="middle" x="440.09" y="-386.4" font-family="Times,serif" font-size="14.00">epsilon</text>
</g>
<!-- I17 -->
<g id="node18" class="node">
<title>I17</title>
<polygon fill="none" stroke="black" points="556.19,-110.8 483.42,-110.8 483.42,-69.6 556.19,-69.6 556.19,-110.8"/>
<text text-anchor="middle" x="519.81" y="-94.4" font-family="Times,serif" font-size="14.00">I17</text>
<text text-anchor="middle" x="519.81" y="-77.6" font-family="Times,serif" font-size="14.00">s&#45;&gt;c B B .</text>
</g>
<!-- I13&#45;&gt;I17 -->
<g id="edge21" class="edge">
<title>I13&#45;&gt;I17</title>
<path fill="none" stroke="black" d="M397.09,-90.2C419.64,-90.2 448.97,-90.2 473.19,-90.2"/>
<polygon fill="black" stroke="black" points="473.22,-93.7 483.22,-90.2 473.22,-86.7 473.22,-93.7"/>
<text text-anchor="middle" x="440.09" y="-94.4" font-family="Times,serif" font-size="14.00">B</text>
</g>
</g>
</svg>
