<?xml version="1.0" encoding="UTF-8" standalone="no"?>
<!DOCTYPE svg PUBLIC "-//W3C//DTD SVG 1.1//EN"
 "http://www.w3.org/Graphics/SVG/1.1/DTD/svg11.dtd">
<!-- Generated by graphviz version 2.44.0 (20200518.1210)
 -->
<!-- Title: items Pages: 1 -->
<svg width="100%" height="100%"
 viewBox="0.00 0.00 1440.00 353.59" xmlns="http://www.w3.org/2000/svg" xmlns:xlink="http://www.w3.org/1999/xlink">
<g id="graph0" class="graph" transform="scale(0.7 0.7) rotate(0) translate(4 500)">
<title>items</title>
<polygon fill="white" stroke="transparent" points="-4,4 -4,-500 2048.57,-500 2048.57,4 -4,4"/>
<!-- I0 -->
<g id="node1" class="node">
<title>I0</title>
<polygon fill="none" stroke="black" points="211.43,-368.6 -0.14,-368.6 -0.14,-225.8 211.43,-225.8 211.43,-368.6"/>
<text text-anchor="middle" x="105.64" y="-351.8" font-family="Times,serif" font-size="14.00">I0</text>
<text text-anchor="middle" x="105.64" y="-335" font-family="Times,serif" font-size="14.00">E&#39;&#45;&gt;. expression</text>
<text text-anchor="middle" x="105.64" y="-318.2" font-family="Times,serif" font-size="14.00">expression&#45;&gt;. expression plus term</text>
<text text-anchor="middle" x="105.64" y="-301.4" font-family="Times,serif" font-size="14.00">expression&#45;&gt;. term</text>
<text text-anchor="middle" x="105.64" y="-284.6" font-family="Times,serif" font-size="14.00">term&#45;&gt;. term times factor</text>
<text text-anchor="middle" x="105.64" y="-267.8" font-family="Times,serif" font-size="14.00">term&#45;&gt;. factor</text>
<text text-anchor="middle" x="105.64" y="-251" font-family="Times,serif" font-size="14.00">factor&#45;&gt;. lparen expression rparen</text>
<text text-anchor="middle" x="105.64" y="-234.2" font-family="Times,serif" font-size="14.00">factor&#45;&gt;. id</text>
</g>
<!-- I1 -->
<g id="node2" class="node">
<title>I1</title>
<polygon fill="none" stroke="black" points="518.58,-326.6 307.01,-326.6 307.01,-267.8 518.58,-267.8 518.58,-326.6"/>
<text text-anchor="middle" x="412.8" y="-309.8" font-family="Times,serif" font-size="14.00">I1</text>
<text text-anchor="middle" x="412.8" y="-293" font-family="Times,serif" font-size="14.00">E&#39;&#45;&gt;expression .</text>
<text text-anchor="middle" x="412.8" y="-276.2" font-family="Times,serif" font-size="14.00">expression&#45;&gt;expression . plus term</text>
</g>
<!-- I0&#45;&gt;I1 -->
<g id="edge1" class="edge">
<title>I0&#45;&gt;I1</title>
<path fill="none" stroke="black" d="M211.66,-297.2C239.15,-297.2 268.92,-297.2 296.89,-297.2"/>
<polygon fill="black" stroke="black" points="297.1,-300.7 307.1,-297.2 297.1,-293.7 297.1,-300.7"/>
<text text-anchor="middle" x="259.22" y="-301.4" font-family="Times,serif" font-size="14.00">expression</text>
</g>
<!-- I2 -->
<g id="node3" class="node">
<title>I2</title>
<polygon fill="none" stroke="black" points="1514.24,-58.6 1357.56,-58.6 1357.56,0.2 1514.24,0.2 1514.24,-58.6"/>
<text text-anchor="middle" x="1435.9" y="-41.8" font-family="Times,serif" font-size="14.00">I2</text>
<text text-anchor="middle" x="1435.9" y="-25" font-family="Times,serif" font-size="14.00">expression&#45;&gt;term .</text>
<text text-anchor="middle" x="1435.9" y="-8.2" font-family="Times,serif" font-size="14.00">term&#45;&gt;term . times factor</text>
</g>
<!-- I0&#45;&gt;I2 -->
<g id="edge2" class="edge">
<title>I0&#45;&gt;I2</title>
<path fill="none" stroke="black" d="M144.48,-225.97C193.99,-143.6 289.07,-19.2 411.8,-19.2 411.8,-19.2 411.8,-19.2 978.33,-19.2 1106.72,-19.2 1255.36,-23.2 1347.27,-26.14"/>
<polygon fill="black" stroke="black" points="1347.25,-29.64 1357.36,-26.47 1347.48,-22.65 1347.25,-29.64"/>
<text text-anchor="middle" x="695.07" y="-23.4" font-family="Times,serif" font-size="14.00">term</text>
</g>
<!-- I3 -->
<g id="node4" class="node">
<title>I3</title>
<polygon fill="none" stroke="black" points="1482.76,-358.8 1389.05,-358.8 1389.05,-317.6 1482.76,-317.6 1482.76,-358.8"/>
<text text-anchor="middle" x="1435.9" y="-342.4" font-family="Times,serif" font-size="14.00">I3</text>
<text text-anchor="middle" x="1435.9" y="-325.6" font-family="Times,serif" font-size="14.00">term&#45;&gt;factor .</text>
</g>
<!-- I0&#45;&gt;I3 -->
<g id="edge3" class="edge">
<title>I0&#45;&gt;I3</title>
<path fill="none" stroke="black" d="M209.35,-368.59C266.33,-401.42 340.02,-433.2 411.8,-433.2 411.8,-433.2 411.8,-433.2 978.33,-433.2 1125.52,-433.2 1293.92,-385.29 1379.17,-357.52"/>
<polygon fill="black" stroke="black" points="1380.49,-360.76 1388.9,-354.32 1378.3,-354.12 1380.49,-360.76"/>
<text text-anchor="middle" x="695.07" y="-437.4" font-family="Times,serif" font-size="14.00">factor</text>
</g>
<!-- I4 -->
<g id="node5" class="node">
<title>I4</title>
<polygon fill="none" stroke="black" points="2005.74,-313.8 1926.57,-313.8 1926.57,-272.6 2005.74,-272.6 2005.74,-313.8"/>
<text text-anchor="middle" x="1966.15" y="-297.4" font-family="Times,serif" font-size="14.00">I4</text>
<text text-anchor="middle" x="1966.15" y="-280.6" font-family="Times,serif" font-size="14.00">factor&#45;&gt;id .</text>
</g>
<!-- I0&#45;&gt;I4 -->
<g id="edge4" class="edge">
<title>I0&#45;&gt;I4</title>
<path fill="none" stroke="black" d="M176.77,-368.61C234.56,-419.6 321.43,-479.2 411.8,-479.2 411.8,-479.2 411.8,-479.2 1717.2,-479.2 1820.68,-479.2 1908.6,-374.25 1945.96,-322.02"/>
<polygon fill="black" stroke="black" points="1948.84,-324.01 1951.72,-313.82 1943.11,-319.99 1948.84,-324.01"/>
<text text-anchor="middle" x="977.33" y="-483.4" font-family="Times,serif" font-size="14.00">id</text>
</g>
<!-- I5 -->
<g id="node6" class="node">
<title>I5</title>
<polygon fill="none" stroke="black" points="1083.12,-227.6 871.55,-227.6 871.55,-84.8 1083.12,-84.8 1083.12,-227.6"/>
<text text-anchor="middle" x="977.33" y="-210.8" font-family="Times,serif" font-size="14.00">I5</text>
<text text-anchor="middle" x="977.33" y="-194" font-family="Times,serif" font-size="14.00">factor&#45;&gt;lparen . expression rparen</text>
<text text-anchor="middle" x="977.33" y="-177.2" font-family="Times,serif" font-size="14.00">expression&#45;&gt;. expression plus term</text>
<text text-anchor="middle" x="977.33" y="-160.4" font-family="Times,serif" font-size="14.00">expression&#45;&gt;. term</text>
<text text-anchor="middle" x="977.33" y="-143.6" font-family="Times,serif" font-size="14.00">term&#45;&gt;. term times factor</text>
<text text-anchor="middle" x="977.33" y="-126.8" font-family="Times,serif" font-size="14.00">term&#45;&gt;. factor</text>
<text text-anchor="middle" x="977.33" y="-110" font-family="Times,serif" font-size="14.00">factor&#45;&gt;. lparen expression rparen</text>
<text text-anchor="middle" x="977.33" y="-93.2" font-family="Times,serif" font-size="14.00">factor&#45;&gt;. id</text>
</g>
<!-- I0&#45;&gt;I5 -->
<g id="edge5" class="edge">
<title>I0&#45;&gt;I5</title>
<path fill="none" stroke="black" d="M211.48,-254.92C348.42,-202.18 596.9,-114.96 818.71,-82.2 834.09,-79.93 838.71,-78.03 853.69,-82.2 856.5,-82.98 859.3,-83.85 862.1,-84.79"/>
<polygon fill="black" stroke="black" points="861,-88.11 871.6,-88.25 863.41,-81.53 861,-88.11"/>
<text text-anchor="middle" x="553.93" y="-147.4" font-family="Times,serif" font-size="14.00">lparen</text>
</g>
<!-- I6 -->
<g id="node7" class="node">
<title>I6</title>
<polygon fill="none" stroke="black" points="800.85,-351.5 589.28,-351.5 589.28,-242.9 800.85,-242.9 800.85,-351.5"/>
<text text-anchor="middle" x="695.07" y="-335" font-family="Times,serif" font-size="14.00">I6</text>
<text text-anchor="middle" x="695.07" y="-318.2" font-family="Times,serif" font-size="14.00">expression&#45;&gt;expression plus . term</text>
<text text-anchor="middle" x="695.07" y="-301.4" font-family="Times,serif" font-size="14.00">term&#45;&gt;. term times factor</text>
<text text-anchor="middle" x="695.07" y="-284.6" font-family="Times,serif" font-size="14.00">term&#45;&gt;. factor</text>
<text text-anchor="middle" x="695.07" y="-267.8" font-family="Times,serif" font-size="14.00">factor&#45;&gt;. lparen expression rparen</text>
<text text-anchor="middle" x="695.07" y="-251" font-family="Times,serif" font-size="14.00">factor&#45;&gt;. id</text>
</g>
<!-- I1&#45;&gt;I6 -->
<g id="edge6" class="edge">
<title>I1&#45;&gt;I6</title>
<path fill="none" stroke="black" d="M518.56,-297.2C538.24,-297.2 558.92,-297.2 578.91,-297.2"/>
<polygon fill="black" stroke="black" points="578.97,-300.7 588.97,-297.2 578.97,-293.7 578.97,-300.7"/>
<text text-anchor="middle" x="553.93" y="-301.4" font-family="Times,serif" font-size="14.00">plus</text>
</g>
<!-- I7 -->
<g id="node8" class="node">
<title>I7</title>
<polygon fill="none" stroke="black" points="1818.99,-138.9 1613.4,-138.9 1613.4,-63.5 1818.99,-63.5 1818.99,-138.9"/>
<text text-anchor="middle" x="1716.2" y="-122.2" font-family="Times,serif" font-size="14.00">I7</text>
<text text-anchor="middle" x="1716.2" y="-105.4" font-family="Times,serif" font-size="14.00">term&#45;&gt;term times . factor</text>
<text text-anchor="middle" x="1716.2" y="-88.6" font-family="Times,serif" font-size="14.00">factor&#45;&gt;. lparen expression rparen</text>
<text text-anchor="middle" x="1716.2" y="-71.8" font-family="Times,serif" font-size="14.00">factor&#45;&gt;. id</text>
</g>
<!-- I2&#45;&gt;I7 -->
<g id="edge7" class="edge">
<title>I2&#45;&gt;I7</title>
<path fill="none" stroke="black" d="M1514.59,-44.47C1540.39,-49.94 1569.19,-56.48 1595.3,-63.4 1598.07,-64.13 1600.87,-64.89 1603.69,-65.67"/>
<polygon fill="black" stroke="black" points="1602.77,-69.05 1613.34,-68.38 1604.66,-62.31 1602.77,-69.05"/>
<text text-anchor="middle" x="1577.42" y="-68.4" font-family="Times,serif" font-size="14.00">times</text>
</g>
<!-- I5&#45;&gt;I2 -->
<g id="edge9" class="edge">
<title>I5&#45;&gt;I2</title>
<path fill="none" stroke="black" d="M1082.98,-120.68C1089.04,-119.11 1095.07,-117.67 1100.97,-116.4 1193.34,-96.56 1228.72,-137.31 1312.26,-93.2 1323.13,-87.46 1320.3,-79.4 1330.26,-72.2 1335.87,-68.14 1341.93,-64.38 1348.19,-60.92"/>
<polygon fill="black" stroke="black" points="1350.26,-63.79 1357.5,-56.06 1347.01,-57.59 1350.26,-63.79"/>
<text text-anchor="middle" x="1206.62" y="-120.4" font-family="Times,serif" font-size="14.00">term</text>
</g>
<!-- I5&#45;&gt;I3 -->
<g id="edge10" class="edge">
<title>I5&#45;&gt;I3</title>
<path fill="none" stroke="black" d="M1072.12,-227.43C1081.62,-233.2 1091.32,-238.57 1100.97,-243.2 1193.51,-287.57 1310.67,-314.94 1378.76,-328.3"/>
<polygon fill="black" stroke="black" points="1378.37,-331.79 1388.85,-330.25 1379.69,-324.91 1378.37,-331.79"/>
<text text-anchor="middle" x="1206.62" y="-317.4" font-family="Times,serif" font-size="14.00">factor</text>
</g>
<!-- I5&#45;&gt;I4 -->
<g id="edge11" class="edge">
<title>I5&#45;&gt;I4</title>
<path fill="none" stroke="black" d="M1083,-154.8C1243.8,-155 1560.18,-164.78 1819.09,-230.2 1853.25,-238.83 1889.64,-254.51 1917.55,-268.06"/>
<polygon fill="black" stroke="black" points="1916.16,-271.28 1926.68,-272.56 1919.26,-265 1916.16,-271.28"/>
<text text-anchor="middle" x="1577.42" y="-191.4" font-family="Times,serif" font-size="14.00">id</text>
</g>
<!-- I5&#45;&gt;I5 -->
<g id="edge12" class="edge">
<title>I5&#45;&gt;I5</title>
<path fill="none" stroke="black" d="M953.52,-227.59C957.23,-238.21 965.16,-245.4 977.33,-245.4 985.7,-245.4 992.06,-242 996.43,-236.43"/>
<polygon fill="black" stroke="black" points="999.53,-238.06 1001.14,-227.59 993.35,-234.76 999.53,-238.06"/>
<text text-anchor="middle" x="977.33" y="-249.6" font-family="Times,serif" font-size="14.00">lparen</text>
</g>
<!-- I8 -->
<g id="node9" class="node">
<title>I8</title>
<polygon fill="none" stroke="black" points="1541.69,-289.6 1330.12,-289.6 1330.12,-230.8 1541.69,-230.8 1541.69,-289.6"/>
<text text-anchor="middle" x="1435.9" y="-272.8" font-family="Times,serif" font-size="14.00">I8</text>
<text text-anchor="middle" x="1435.9" y="-256" font-family="Times,serif" font-size="14.00">factor&#45;&gt;lparen expression . rparen</text>
<text text-anchor="middle" x="1435.9" y="-239.2" font-family="Times,serif" font-size="14.00">expression&#45;&gt;expression . plus term</text>
</g>
<!-- I5&#45;&gt;I8 -->
<g id="edge8" class="edge">
<title>I5&#45;&gt;I8</title>
<path fill="none" stroke="black" d="M1083.14,-198.36C1089.13,-200.15 1095.1,-201.78 1100.97,-203.2 1192.79,-225.44 1219.48,-208.64 1312.26,-226.4 1316.12,-227.14 1320.03,-227.94 1323.97,-228.78"/>
<polygon fill="black" stroke="black" points="1323.29,-232.22 1333.81,-230.98 1324.81,-225.39 1323.29,-232.22"/>
<text text-anchor="middle" x="1206.62" y="-230.4" font-family="Times,serif" font-size="14.00">expression</text>
</g>
<!-- I6&#45;&gt;I3 -->
<g id="edge14" class="edge">
<title>I6&#45;&gt;I3</title>
<path fill="none" stroke="black" d="M800.8,-313.43C824.08,-316.51 848.68,-319.34 871.69,-321.2 1056.93,-336.19 1277.4,-338.3 1378.8,-338.38"/>
<polygon fill="black" stroke="black" points="1378.82,-341.88 1388.82,-338.39 1378.82,-334.88 1378.82,-341.88"/>
<text text-anchor="middle" x="977.33" y="-336.4" font-family="Times,serif" font-size="14.00">factor</text>
</g>
<!-- I6&#45;&gt;I4 -->
<g id="edge15" class="edge">
<title>I6&#45;&gt;I4</title>
<path fill="none" stroke="black" d="M798.58,-351.5C850.39,-374.11 915.12,-395.2 976.33,-395.2 976.33,-395.2 976.33,-395.2 1717.2,-395.2 1796.78,-395.2 1880.67,-349.7 1927.61,-319.48"/>
<polygon fill="black" stroke="black" points="1929.77,-322.25 1936.21,-313.84 1925.93,-316.39 1929.77,-322.25"/>
<text text-anchor="middle" x="1435.9" y="-399.4" font-family="Times,serif" font-size="14.00">id</text>
</g>
<!-- I6&#45;&gt;I5 -->
<g id="edge16" class="edge">
<title>I6&#45;&gt;I5</title>
<path fill="none" stroke="black" d="M800.82,-244.5C820.87,-234.41 841.95,-223.81 862.27,-213.58"/>
<polygon fill="black" stroke="black" points="863.87,-216.7 871.23,-209.07 860.73,-210.44 863.87,-216.7"/>
<text text-anchor="middle" x="836.2" y="-238.4" font-family="Times,serif" font-size="14.00">lparen</text>
</g>
<!-- I9 -->
<g id="node10" class="node">
<title>I9</title>
<polygon fill="none" stroke="black" points="1312.4,-92.6 1100.83,-92.6 1100.83,-33.8 1312.4,-33.8 1312.4,-92.6"/>
<text text-anchor="middle" x="1206.62" y="-75.8" font-family="Times,serif" font-size="14.00">I9</text>
<text text-anchor="middle" x="1206.62" y="-59" font-family="Times,serif" font-size="14.00">expression&#45;&gt;expression plus term .</text>
<text text-anchor="middle" x="1206.62" y="-42.2" font-family="Times,serif" font-size="14.00">term&#45;&gt;term . times factor</text>
</g>
<!-- I6&#45;&gt;I9 -->
<g id="edge13" class="edge">
<title>I6&#45;&gt;I9</title>
<path fill="none" stroke="black" d="M721.86,-242.73C750.31,-189.6 801.53,-111.76 871.69,-76.2 938.63,-42.27 1023.19,-39.31 1090.46,-44.69"/>
<polygon fill="black" stroke="black" points="1090.41,-48.2 1100.68,-45.58 1091.02,-41.22 1090.41,-48.2"/>
<text text-anchor="middle" x="836.2" y="-113.4" font-family="Times,serif" font-size="14.00">term</text>
</g>
<!-- I7&#45;&gt;I4 -->
<g id="edge18" class="edge">
<title>I7&#45;&gt;I4</title>
<path fill="none" stroke="black" d="M1819.22,-132.06C1837.04,-140.01 1854.67,-149.7 1869.73,-161.4 1905.58,-189.22 1934.01,-234.01 1950.21,-263.53"/>
<polygon fill="black" stroke="black" points="1947.23,-265.38 1955.04,-272.54 1953.4,-262.07 1947.23,-265.38"/>
<text text-anchor="middle" x="1853.41" y="-165.4" font-family="Times,serif" font-size="14.00">id</text>
</g>
<!-- I7&#45;&gt;I5 -->
<g id="edge19" class="edge">
<title>I7&#45;&gt;I5</title>
<path fill="none" stroke="black" d="M1613.37,-109.58C1531.92,-116.22 1414.78,-125.6 1312.26,-133.2 1239.51,-138.59 1157.81,-144.23 1093.44,-148.57"/>
<polygon fill="black" stroke="black" points="1093,-145.09 1083.26,-149.26 1093.47,-152.08 1093,-145.09"/>
<text text-anchor="middle" x="1435.9" y="-135.4" font-family="Times,serif" font-size="14.00">lparen</text>
</g>
<!-- I10 -->
<g id="node11" class="node">
<title>I10</title>
<polygon fill="none" stroke="black" points="2044.49,-121.8 1887.81,-121.8 1887.81,-80.6 2044.49,-80.6 2044.49,-121.8"/>
<text text-anchor="middle" x="1966.15" y="-105.4" font-family="Times,serif" font-size="14.00">I10</text>
<text text-anchor="middle" x="1966.15" y="-88.6" font-family="Times,serif" font-size="14.00">term&#45;&gt;term times factor .</text>
</g>
<!-- I7&#45;&gt;I10 -->
<g id="edge17" class="edge">
<title>I7&#45;&gt;I10</title>
<path fill="none" stroke="black" d="M1819.12,-101.2C1838.48,-101.2 1858.59,-101.2 1877.46,-101.2"/>
<polygon fill="black" stroke="black" points="1877.51,-104.7 1887.51,-101.2 1877.51,-97.7 1877.51,-104.7"/>
<text text-anchor="middle" x="1853.41" y="-105.4" font-family="Times,serif" font-size="14.00">factor</text>
</g>
<!-- I8&#45;&gt;I6 -->
<g id="edge20" class="edge">
<title>I8&#45;&gt;I6</title>
<path fill="none" stroke="black" d="M1330.03,-281.03C1324.03,-281.86 1318.08,-282.59 1312.26,-283.2 1138.22,-301.37 935.1,-302.04 811.06,-300.15"/>
<polygon fill="black" stroke="black" points="810.84,-296.65 800.79,-299.99 810.73,-303.65 810.84,-296.65"/>
<text text-anchor="middle" x="977.33" y="-304.4" font-family="Times,serif" font-size="14.00">plus</text>
</g>
<!-- I11 -->
<g id="node12" class="node">
<title>I11</title>
<polygon fill="none" stroke="black" points="1818.99,-280.8 1613.4,-280.8 1613.4,-239.6 1818.99,-239.6 1818.99,-280.8"/>
<text text-anchor="middle" x="1716.2" y="-264.4" font-family="Times,serif" font-size="14.00">I11</text>
<text text-anchor="middle" x="1716.2" y="-247.6" font-family="Times,serif" font-size="14.00">factor&#45;&gt;lparen expression rparen .</text>
</g>
<!-- I8&#45;&gt;I11 -->
<g id="edge21" class="edge">
<title>I8&#45;&gt;I11</title>
<path fill="none" stroke="black" d="M1541.72,-260.2C1561.75,-260.2 1582.8,-260.2 1603.05,-260.2"/>
<polygon fill="black" stroke="black" points="1603.24,-263.7 1613.24,-260.2 1603.24,-256.7 1603.24,-263.7"/>
<text text-anchor="middle" x="1577.42" y="-264.4" font-family="Times,serif" font-size="14.00">rparen</text>
</g>
<!-- I9&#45;&gt;I7 -->
<g id="edge22" class="edge">
<title>I9&#45;&gt;I7</title>
<path fill="none" stroke="black" d="M1312.48,-71.05C1397.23,-77.4 1516.26,-86.31 1602.93,-92.8"/>
<polygon fill="black" stroke="black" points="1602.83,-96.3 1613.07,-93.55 1603.36,-89.32 1602.83,-96.3"/>
<text text-anchor="middle" x="1435.9" y="-91.4" font-family="Times,serif" font-size="14.00">times</text>
</g>
</g>
</svg>
