<?xml version="1.0" encoding="UTF-8" standalone="no"?>
<!DOCTYPE svg PUBLIC "-//W3C//DTD SVG 1.1//EN"
 "http://www.w3.org/Graphics/SVG/1.1/DTD/svg11.dtd">
<!-- Generated by graphviz version 2.44.0 (20200518.1210)
 -->
<!-- Title: items Pages: 1 -->
<svg width="100%" height="100%"
 viewBox="0.00 0.00 1440.00 283.97" xmlns="http://www.w3.org/2000/svg" xmlns:xlink="http://www.w3.org/1999/xlink">
<g id="graph0" class="graph" transform="scale(0.63 0.63) rotate(0) translate(4 446.8)">
<title>items</title>
<polygon fill="white" stroke="transparent" points="-4,4 -4,-446.8 2282.01,-446.8 2282.01,4 -4,4"/>
<!-- I0 -->
<g id="node1" class="node">
<title>I0</title>
<polygon fill="none" stroke="black" points="205.7,-222.3 0.1,-222.3 0.1,-113.7 205.7,-113.7 205.7,-222.3"/>
<text text-anchor="middle" x="102.9" y="-205.8" font-family="Times,serif" font-size="14.00">I0</text>
<text text-anchor="middle" x="102.9" y="-189" font-family="Times,serif" font-size="14.00">E&#39;&#45;&gt;. expression0</text>
<text text-anchor="middle" x="102.9" y="-172.2" font-family="Times,serif" font-size="14.00">expression0&#45;&gt;. term expression</text>
<text text-anchor="middle" x="102.9" y="-155.4" font-family="Times,serif" font-size="14.00">term&#45;&gt;. factor term1</text>
<text text-anchor="middle" x="102.9" y="-138.6" font-family="Times,serif" font-size="14.00">factor&#45;&gt;. lparen expression rparen</text>
<text text-anchor="middle" x="102.9" y="-121.8" font-family="Times,serif" font-size="14.00">factor&#45;&gt;. id</text>
</g>
<!-- I1 -->
<g id="node2" class="node">
<title>I1</title>
<polygon fill="none" stroke="black" points="471.96,-438.63 356.66,-438.63 356.66,-397.37 471.96,-397.37 471.96,-438.63"/>
<polygon fill="none" stroke="black" points="475.95,-442.6 352.67,-442.6 352.67,-393.4 475.95,-393.4 475.95,-442.6"/>
<text text-anchor="middle" x="414.31" y="-422.2" font-family="Times,serif" font-size="14.00">I1</text>
<text text-anchor="middle" x="414.31" y="-405.4" font-family="Times,serif" font-size="14.00">E&#39;&#45;&gt;expression0 .</text>
</g>
<!-- I0&#45;&gt;I1 -->
<g id="edge1" class="edge">
<title>I0&#45;&gt;I1</title>
<path fill="none" stroke="black" d="M120.49,-222.68C138.16,-271.35 170.97,-340.6 223.8,-379 257.97,-403.84 304.3,-413.68 342.6,-417.27"/>
<polygon fill="black" stroke="black" points="342.41,-420.77 352.66,-418.09 342.98,-413.79 342.41,-420.77"/>
<text text-anchor="middle" x="257.23" y="-412.2" font-family="Times,serif" font-size="14.00">expression0</text>
</g>
<!-- I2 -->
<g id="node3" class="node">
<title>I2</title>
<polygon fill="none" stroke="black" points="520.1,-205.7 308.52,-205.7 308.52,-130.3 520.1,-130.3 520.1,-205.7"/>
<text text-anchor="middle" x="414.31" y="-189" font-family="Times,serif" font-size="14.00">I2</text>
<text text-anchor="middle" x="414.31" y="-172.2" font-family="Times,serif" font-size="14.00">expression0&#45;&gt;term . expression</text>
<text text-anchor="middle" x="414.31" y="-155.4" font-family="Times,serif" font-size="14.00">expression&#45;&gt;. plus term expression</text>
<text text-anchor="middle" x="414.31" y="-138.6" font-family="Times,serif" font-size="14.00">expression&#45;&gt;. </text>
</g>
<!-- I0&#45;&gt;I2 -->
<g id="edge2" class="edge">
<title>I0&#45;&gt;I2</title>
<path fill="none" stroke="black" d="M206.07,-168C235.64,-168 268.12,-168 298.42,-168"/>
<polygon fill="black" stroke="black" points="298.6,-171.5 308.6,-168 298.6,-164.5 298.6,-171.5"/>
<text text-anchor="middle" x="257.23" y="-172.2" font-family="Times,serif" font-size="14.00">term</text>
</g>
<!-- I3 -->
<g id="node4" class="node">
<title>I3</title>
<polygon fill="none" stroke="black" points="1089.07,-160.7 918.39,-160.7 918.39,-85.3 1089.07,-85.3 1089.07,-160.7"/>
<text text-anchor="middle" x="1003.73" y="-144" font-family="Times,serif" font-size="14.00">I3</text>
<text text-anchor="middle" x="1003.73" y="-127.2" font-family="Times,serif" font-size="14.00">term&#45;&gt;factor . term1</text>
<text text-anchor="middle" x="1003.73" y="-110.4" font-family="Times,serif" font-size="14.00">term1&#45;&gt;. times factor term1</text>
<text text-anchor="middle" x="1003.73" y="-93.6" font-family="Times,serif" font-size="14.00">term1&#45;&gt;. </text>
</g>
<!-- I0&#45;&gt;I3 -->
<g id="edge3" class="edge">
<title>I0&#45;&gt;I3</title>
<path fill="none" stroke="black" d="M205.93,-141.53C238.56,-133.89 274.96,-126.21 308.67,-121 536.64,-85.75 597.09,-78.42 827.11,-96 853.56,-98.02 882.07,-101.73 908.26,-105.77"/>
<polygon fill="black" stroke="black" points="907.75,-109.23 918.17,-107.33 908.84,-102.32 907.75,-109.23"/>
<text text-anchor="middle" x="567.89" y="-95.2" font-family="Times,serif" font-size="14.00">factor</text>
</g>
<!-- I4 -->
<g id="node5" class="node">
<title>I4</title>
<polygon fill="none" stroke="black" points="1632.74,-58.6 1553.57,-58.6 1553.57,-17.4 1632.74,-17.4 1632.74,-58.6"/>
<text text-anchor="middle" x="1593.15" y="-42.2" font-family="Times,serif" font-size="14.00">I4</text>
<text text-anchor="middle" x="1593.15" y="-25.4" font-family="Times,serif" font-size="14.00">factor&#45;&gt;id .</text>
</g>
<!-- I0&#45;&gt;I4 -->
<g id="edge4" class="edge">
<title>I0&#45;&gt;I4</title>
<path fill="none" stroke="black" d="M161.92,-113.69C220.6,-64.6 316.27,0 413.31,0 413.31,0 413.31,0 1311.89,0 1393.71,0 1487.75,-16.1 1543.45,-27.34"/>
<polygon fill="black" stroke="black" points="1542.89,-30.8 1553.39,-29.38 1544.29,-23.94 1542.89,-30.8"/>
<text text-anchor="middle" x="862.6" y="-4.2" font-family="Times,serif" font-size="14.00">id</text>
</g>
<!-- I5 -->
<g id="node6" class="node">
<title>I5</title>
<polygon fill="none" stroke="black" points="1698.94,-279.7 1487.37,-279.7 1487.37,-204.3 1698.94,-204.3 1698.94,-279.7"/>
<text text-anchor="middle" x="1593.15" y="-263" font-family="Times,serif" font-size="14.00">I5</text>
<text text-anchor="middle" x="1593.15" y="-246.2" font-family="Times,serif" font-size="14.00">factor&#45;&gt;lparen . expression rparen</text>
<text text-anchor="middle" x="1593.15" y="-229.4" font-family="Times,serif" font-size="14.00">expression&#45;&gt;. plus term expression</text>
<text text-anchor="middle" x="1593.15" y="-212.6" font-family="Times,serif" font-size="14.00">expression&#45;&gt;. </text>
</g>
<!-- I0&#45;&gt;I5 -->
<g id="edge5" class="edge">
<title>I0&#45;&gt;I5</title>
<path fill="none" stroke="black" d="M151.02,-222.35C207.1,-280.66 306.64,-365 413.31,-365 413.31,-365 413.31,-365 1311.89,-365 1393.47,-365 1478.01,-320.76 1532.61,-285.34"/>
<polygon fill="black" stroke="black" points="1534.68,-288.16 1541.11,-279.74 1530.83,-282.32 1534.68,-288.16"/>
<text text-anchor="middle" x="862.6" y="-369.2" font-family="Times,serif" font-size="14.00">lparen</text>
</g>
<!-- I6 -->
<g id="node7" class="node">
<title>I6</title>
<polygon fill="none" stroke="black" points="817.42,-146.6 625.51,-146.6 625.51,-105.4 817.42,-105.4 817.42,-146.6"/>
<text text-anchor="middle" x="721.46" y="-130.2" font-family="Times,serif" font-size="14.00">I6</text>
<text text-anchor="middle" x="721.46" y="-113.4" font-family="Times,serif" font-size="14.00">expression0&#45;&gt;term expression .</text>
</g>
<!-- I2&#45;&gt;I6 -->
<g id="edge6" class="edge">
<title>I2&#45;&gt;I6</title>
<path fill="none" stroke="black" d="M520.33,-153.55C551.21,-149.3 584.97,-144.65 615.83,-140.4"/>
<polygon fill="black" stroke="black" points="616.31,-143.87 625.74,-139.04 615.36,-136.93 616.31,-143.87"/>
<text text-anchor="middle" x="567.89" y="-155.2" font-family="Times,serif" font-size="14.00">expression</text>
</g>
<!-- I7 -->
<g id="node8" class="node">
<title>I7</title>
<polygon fill="none" stroke="black" points="827.25,-257 615.68,-257 615.68,-165 827.25,-165 827.25,-257"/>
<text text-anchor="middle" x="721.46" y="-240.4" font-family="Times,serif" font-size="14.00">I7</text>
<text text-anchor="middle" x="721.46" y="-223.6" font-family="Times,serif" font-size="14.00">expression&#45;&gt;plus . term expression</text>
<text text-anchor="middle" x="721.46" y="-206.8" font-family="Times,serif" font-size="14.00">term&#45;&gt;. factor term1</text>
<text text-anchor="middle" x="721.46" y="-190" font-family="Times,serif" font-size="14.00">factor&#45;&gt;. lparen expression rparen</text>
<text text-anchor="middle" x="721.46" y="-173.2" font-family="Times,serif" font-size="14.00">factor&#45;&gt;. id</text>
</g>
<!-- I2&#45;&gt;I7 -->
<g id="edge7" class="edge">
<title>I2&#45;&gt;I7</title>
<path fill="none" stroke="black" d="M520.33,-182.8C547.81,-186.67 577.58,-190.87 605.56,-194.81"/>
<polygon fill="black" stroke="black" points="605.38,-198.32 615.77,-196.25 606.36,-191.39 605.38,-198.32"/>
<text text-anchor="middle" x="567.89" y="-198.2" font-family="Times,serif" font-size="14.00">plus</text>
</g>
<!-- I8 -->
<g id="node9" class="node">
<title>I8</title>
<polygon fill="none" stroke="black" points="1375.9,-200.6 1245.88,-200.6 1245.88,-159.4 1375.9,-159.4 1375.9,-200.6"/>
<text text-anchor="middle" x="1310.89" y="-184.2" font-family="Times,serif" font-size="14.00">I8</text>
<text text-anchor="middle" x="1310.89" y="-167.4" font-family="Times,serif" font-size="14.00">term&#45;&gt;factor term1 .</text>
</g>
<!-- I3&#45;&gt;I8 -->
<g id="edge8" class="edge">
<title>I3&#45;&gt;I8</title>
<path fill="none" stroke="black" d="M1089.33,-138.8C1135.15,-147.36 1191.25,-157.84 1235.4,-166.09"/>
<polygon fill="black" stroke="black" points="1235.02,-169.58 1245.49,-167.97 1236.3,-162.69 1235.02,-169.58"/>
<text text-anchor="middle" x="1157.31" y="-161.2" font-family="Times,serif" font-size="14.00">term1</text>
</g>
<!-- I9 -->
<g id="node10" class="node">
<title>I9</title>
<polygon fill="none" stroke="black" points="1413.68,-141.7 1208.09,-141.7 1208.09,-66.3 1413.68,-66.3 1413.68,-141.7"/>
<text text-anchor="middle" x="1310.89" y="-125" font-family="Times,serif" font-size="14.00">I9</text>
<text text-anchor="middle" x="1310.89" y="-108.2" font-family="Times,serif" font-size="14.00">term1&#45;&gt;times . factor term1</text>
<text text-anchor="middle" x="1310.89" y="-91.4" font-family="Times,serif" font-size="14.00">factor&#45;&gt;. lparen expression rparen</text>
<text text-anchor="middle" x="1310.89" y="-74.6" font-family="Times,serif" font-size="14.00">factor&#45;&gt;. id</text>
</g>
<!-- I3&#45;&gt;I9 -->
<g id="edge9" class="edge">
<title>I3&#45;&gt;I9</title>
<path fill="none" stroke="black" d="M1089.33,-117.73C1122.94,-115.64 1162.09,-113.2 1198,-110.97"/>
<polygon fill="black" stroke="black" points="1198.27,-114.46 1208.03,-110.34 1197.84,-107.47 1198.27,-114.46"/>
<text text-anchor="middle" x="1157.31" y="-120.2" font-family="Times,serif" font-size="14.00">times</text>
</g>
<!-- I5&#45;&gt;I7 -->
<g id="edge11" class="edge">
<title>I5&#45;&gt;I7</title>
<path fill="none" stroke="black" d="M1510.37,-279.69C1481.37,-291.17 1448.1,-302.26 1416.53,-308 1303.18,-328.6 1009.65,-336.76 898.09,-308 862.48,-298.82 826.37,-280.71 796.23,-262.6"/>
<polygon fill="black" stroke="black" points="797.84,-259.49 787.48,-257.25 794.19,-265.46 797.84,-259.49"/>
<text text-anchor="middle" x="1157.31" y="-330.2" font-family="Times,serif" font-size="14.00">plus</text>
</g>
<!-- I10 -->
<g id="node11" class="node">
<title>I10</title>
<polygon fill="none" stroke="black" points="2000.36,-262.6 1794.77,-262.6 1794.77,-221.4 2000.36,-221.4 2000.36,-262.6"/>
<text text-anchor="middle" x="1897.56" y="-246.2" font-family="Times,serif" font-size="14.00">I10</text>
<text text-anchor="middle" x="1897.56" y="-229.4" font-family="Times,serif" font-size="14.00">factor&#45;&gt;lparen expression . rparen</text>
</g>
<!-- I5&#45;&gt;I10 -->
<g id="edge10" class="edge">
<title>I5&#45;&gt;I10</title>
<path fill="none" stroke="black" d="M1699.07,-242C1726.65,-242 1756.5,-242 1784.44,-242"/>
<polygon fill="black" stroke="black" points="1784.64,-245.5 1794.64,-242 1784.64,-238.5 1784.64,-245.5"/>
<text text-anchor="middle" x="1746.73" y="-246.2" font-family="Times,serif" font-size="14.00">expression</text>
</g>
<!-- I7&#45;&gt;I3 -->
<g id="edge13" class="edge">
<title>I7&#45;&gt;I3</title>
<path fill="none" stroke="black" d="M827.24,-170.16C833.26,-168.08 839.25,-166.08 845.11,-164.2 865.34,-157.72 887.26,-151.49 908.15,-145.93"/>
<polygon fill="black" stroke="black" points="909.21,-149.27 917.99,-143.34 907.42,-142.5 909.21,-149.27"/>
<text text-anchor="middle" x="862.6" y="-169.2" font-family="Times,serif" font-size="14.00">factor</text>
</g>
<!-- I7&#45;&gt;I4 -->
<g id="edge14" class="edge">
<title>I7&#45;&gt;I4</title>
<path fill="none" stroke="black" d="M814.97,-164.84C819.16,-161.99 823.23,-159.04 827.11,-156 864.53,-126.69 855.36,-96.82 898.09,-76 1011.75,-20.62 1404.35,-30.44 1543.1,-35.83"/>
<polygon fill="black" stroke="black" points="1543.29,-39.34 1553.42,-36.24 1543.57,-32.34 1543.29,-39.34"/>
<text text-anchor="middle" x="1157.31" y="-41.2" font-family="Times,serif" font-size="14.00">id</text>
</g>
<!-- I7&#45;&gt;I5 -->
<g id="edge15" class="edge">
<title>I7&#45;&gt;I5</title>
<path fill="none" stroke="black" d="M827.18,-210.39C905.04,-210.29 1013.87,-210.86 1109.37,-214 1235.19,-218.13 1379.25,-227.03 1477.01,-233.69"/>
<polygon fill="black" stroke="black" points="1477,-237.2 1487.22,-234.39 1477.48,-230.22 1477,-237.2"/>
<text text-anchor="middle" x="1157.31" y="-221.2" font-family="Times,serif" font-size="14.00">lparen</text>
</g>
<!-- I11 -->
<g id="node12" class="node">
<title>I11</title>
<polygon fill="none" stroke="black" points="1109.52,-298.7 897.95,-298.7 897.95,-223.3 1109.52,-223.3 1109.52,-298.7"/>
<text text-anchor="middle" x="1003.73" y="-282" font-family="Times,serif" font-size="14.00">I11</text>
<text text-anchor="middle" x="1003.73" y="-265.2" font-family="Times,serif" font-size="14.00">expression&#45;&gt;plus term . expression</text>
<text text-anchor="middle" x="1003.73" y="-248.4" font-family="Times,serif" font-size="14.00">expression&#45;&gt;. plus term expression</text>
<text text-anchor="middle" x="1003.73" y="-231.6" font-family="Times,serif" font-size="14.00">expression&#45;&gt;. </text>
</g>
<!-- I7&#45;&gt;I11 -->
<g id="edge12" class="edge">
<title>I7&#45;&gt;I11</title>
<path fill="none" stroke="black" d="M827.48,-221.07C845.11,-223.34 863.16,-226.04 880.09,-229.2 882.73,-229.69 885.41,-230.21 888.1,-230.75"/>
<polygon fill="black" stroke="black" points="887.4,-234.18 897.91,-232.8 888.83,-227.33 887.4,-234.18"/>
<text text-anchor="middle" x="862.6" y="-234.2" font-family="Times,serif" font-size="14.00">term</text>
</g>
<!-- I9&#45;&gt;I4 -->
<g id="edge17" class="edge">
<title>I9&#45;&gt;I4</title>
<path fill="none" stroke="black" d="M1413.86,-79.99C1458.02,-69.59 1507.66,-57.9 1543.32,-49.5"/>
<polygon fill="black" stroke="black" points="1544.52,-52.81 1553.45,-47.11 1542.92,-46 1544.52,-52.81"/>
<text text-anchor="middle" x="1452.02" y="-79.2" font-family="Times,serif" font-size="14.00">id</text>
</g>
<!-- I9&#45;&gt;I5 -->
<g id="edge18" class="edge">
<title>I9&#45;&gt;I5</title>
<path fill="none" stroke="black" d="M1398.89,-141.7C1404.88,-144.46 1410.81,-147.25 1416.53,-150 1448.58,-165.41 1483.36,-183.37 1513.45,-199.31"/>
<polygon fill="black" stroke="black" points="1512.16,-202.58 1522.63,-204.18 1515.44,-196.4 1512.16,-202.58"/>
<text text-anchor="middle" x="1452.02" y="-179.2" font-family="Times,serif" font-size="14.00">lparen</text>
</g>
<!-- I12 -->
<g id="node13" class="node">
<title>I12</title>
<polygon fill="none" stroke="black" points="1678.49,-175.7 1507.81,-175.7 1507.81,-100.3 1678.49,-100.3 1678.49,-175.7"/>
<text text-anchor="middle" x="1593.15" y="-159" font-family="Times,serif" font-size="14.00">I12</text>
<text text-anchor="middle" x="1593.15" y="-142.2" font-family="Times,serif" font-size="14.00">term1&#45;&gt;times factor . term1</text>
<text text-anchor="middle" x="1593.15" y="-125.4" font-family="Times,serif" font-size="14.00">term1&#45;&gt;. times factor term1</text>
<text text-anchor="middle" x="1593.15" y="-108.6" font-family="Times,serif" font-size="14.00">term1&#45;&gt;. </text>
</g>
<!-- I9&#45;&gt;I12 -->
<g id="edge16" class="edge">
<title>I9&#45;&gt;I12</title>
<path fill="none" stroke="black" d="M1413.76,-125.93C1420.77,-127.08 1427.74,-128.12 1434.53,-129 1454.85,-131.64 1476.75,-133.5 1497.57,-134.82"/>
<polygon fill="black" stroke="black" points="1497.5,-138.32 1507.69,-135.42 1497.91,-131.33 1497.5,-138.32"/>
<text text-anchor="middle" x="1452.02" y="-137.2" font-family="Times,serif" font-size="14.00">factor</text>
</g>
<!-- I13 -->
<g id="node14" class="node">
<title>I13</title>
<polygon fill="none" stroke="black" points="2277.91,-262.6 2072.31,-262.6 2072.31,-221.4 2277.91,-221.4 2277.91,-262.6"/>
<text text-anchor="middle" x="2175.11" y="-246.2" font-family="Times,serif" font-size="14.00">I13</text>
<text text-anchor="middle" x="2175.11" y="-229.4" font-family="Times,serif" font-size="14.00">factor&#45;&gt;lparen expression rparen .</text>
</g>
<!-- I10&#45;&gt;I13 -->
<g id="edge19" class="edge">
<title>I10&#45;&gt;I13</title>
<path fill="none" stroke="black" d="M2000.38,-242C2020.45,-242 2041.61,-242 2061.99,-242"/>
<polygon fill="black" stroke="black" points="2062.25,-245.5 2072.25,-242 2062.25,-238.5 2062.25,-245.5"/>
<text text-anchor="middle" x="2036.34" y="-246.2" font-family="Times,serif" font-size="14.00">rparen</text>
</g>
<!-- I11&#45;&gt;I7 -->
<g id="edge21" class="edge">
<title>I11&#45;&gt;I7</title>
<path fill="none" stroke="black" d="M898.06,-253.75C880.31,-251.75 862.13,-249.21 845.11,-246 842.45,-245.5 839.76,-244.96 837.05,-244.4"/>
<polygon fill="black" stroke="black" points="837.72,-240.96 827.2,-242.25 836.23,-247.8 837.72,-240.96"/>
<text text-anchor="middle" x="862.6" y="-256.2" font-family="Times,serif" font-size="14.00">plus</text>
</g>
<!-- I14 -->
<g id="node15" class="node">
<title>I14</title>
<polygon fill="none" stroke="black" points="1416.67,-298.6 1205.1,-298.6 1205.1,-257.4 1416.67,-257.4 1416.67,-298.6"/>
<text text-anchor="middle" x="1310.89" y="-282.2" font-family="Times,serif" font-size="14.00">I14</text>
<text text-anchor="middle" x="1310.89" y="-265.4" font-family="Times,serif" font-size="14.00">expression&#45;&gt;plus term expression .</text>
</g>
<!-- I11&#45;&gt;I14 -->
<g id="edge20" class="edge">
<title>I11&#45;&gt;I14</title>
<path fill="none" stroke="black" d="M1109.75,-266.85C1137.23,-268.38 1167.01,-270.04 1194.98,-271.6"/>
<polygon fill="black" stroke="black" points="1195.01,-275.11 1205.19,-272.17 1195.4,-268.12 1195.01,-275.11"/>
<text text-anchor="middle" x="1157.31" y="-275.2" font-family="Times,serif" font-size="14.00">expression</text>
</g>
<!-- I12&#45;&gt;I9 -->
<g id="edge23" class="edge">
<title>I12&#45;&gt;I9</title>
<path fill="none" stroke="black" d="M1507.49,-114.97C1494.84,-112.24 1481.89,-109.85 1469.51,-108.2 1454.82,-106.24 1439.29,-104.92 1423.94,-104.06"/>
<polygon fill="black" stroke="black" points="1424.05,-100.56 1413.89,-103.56 1423.7,-107.56 1424.05,-100.56"/>
<text text-anchor="middle" x="1452.02" y="-113.2" font-family="Times,serif" font-size="14.00">times</text>
</g>
<!-- I15 -->
<g id="node16" class="node">
<title>I15</title>
<polygon fill="none" stroke="black" points="1982.9,-158.6 1812.22,-158.6 1812.22,-117.4 1982.9,-117.4 1982.9,-158.6"/>
<text text-anchor="middle" x="1897.56" y="-142.2" font-family="Times,serif" font-size="14.00">I15</text>
<text text-anchor="middle" x="1897.56" y="-125.4" font-family="Times,serif" font-size="14.00">term1&#45;&gt;times factor term1 .</text>
</g>
<!-- I12&#45;&gt;I15 -->
<g id="edge22" class="edge">
<title>I12&#45;&gt;I15</title>
<path fill="none" stroke="black" d="M1678.79,-138C1717.13,-138 1762.6,-138 1802.05,-138"/>
<polygon fill="black" stroke="black" points="1802.21,-141.5 1812.21,-138 1802.21,-134.5 1802.21,-141.5"/>
<text text-anchor="middle" x="1746.73" y="-142.2" font-family="Times,serif" font-size="14.00">term1</text>
</g>
</g>
</svg>
