<?xml version="1.0" encoding="UTF-8" standalone="no"?>
<!DOCTYPE svg PUBLIC "-//W3C//DTD SVG 1.1//EN"
 "http://www.w3.org/Graphics/SVG/1.1/DTD/svg11.dtd">
<!-- Generated by graphviz version 2.44.0 (20200518.1210)
 -->
<!-- Title: items Pages: 1 -->
<svg width="100%" height="100%"
 viewBox="0.00 0.00 680.89 562.80" xmlns="http://www.w3.org/2000/svg" xmlns:xlink="http://www.w3.org/1999/xlink">
<g id="graph0" class="graph" transform="scale(1 1) rotate(0) translate(4 558.8)">
<title>items</title>
<polygon fill="white" stroke="transparent" points="-4,4 -4,-558.8 676.89,-558.8 676.89,4 -4,4"/>
<!-- I0 -->
<g id="node1" class="node">
<title>I0</title>
<polygon fill="none" stroke="black" points="85.57,-325.7 0.14,-325.7 0.14,-250.3 85.57,-250.3 85.57,-325.7"/>
<text text-anchor="middle" x="42.86" y="-309" font-family="Times,serif" font-size="14.00">I0</text>
<text text-anchor="middle" x="42.86" y="-292.2" font-family="Times,serif" font-size="14.00">E&#39;&#45;&gt;. s</text>
<text text-anchor="middle" x="42.86" y="-275.4" font-family="Times,serif" font-size="14.00">s&#45;&gt;. </text>
<text text-anchor="middle" x="42.86" y="-258.6" font-family="Times,serif" font-size="14.00">s&#45;&gt;. A b d H</text>
</g>
<!-- I1 -->
<g id="node2" class="node">
<title>I1</title>
<polygon fill="none" stroke="black" points="201.89,-346.6 147.46,-346.6 147.46,-305.4 201.89,-305.4 201.89,-346.6"/>
<text text-anchor="middle" x="174.68" y="-330.2" font-family="Times,serif" font-size="14.00">I1</text>
<text text-anchor="middle" x="174.68" y="-313.4" font-family="Times,serif" font-size="14.00">E&#39;&#45;&gt;s .</text>
</g>
<!-- I0&#45;&gt;I1 -->
<g id="edge1" class="edge">
<title>I0&#45;&gt;I1</title>
<path fill="none" stroke="black" d="M85.65,-300.23C102.47,-305.16 121.67,-310.78 137.83,-315.51"/>
<polygon fill="black" stroke="black" points="136.88,-318.88 147.46,-318.33 138.85,-312.16 136.88,-318.88"/>
<text text-anchor="middle" x="108.77" y="-312.2" font-family="Times,serif" font-size="14.00">s</text>
</g>
<!-- I2 -->
<g id="node3" class="node">
<title>I2</title>
<polygon fill="none" stroke="black" points="217.39,-287.7 131.96,-287.7 131.96,-212.3 217.39,-212.3 217.39,-287.7"/>
<text text-anchor="middle" x="174.68" y="-271" font-family="Times,serif" font-size="14.00">I2</text>
<text text-anchor="middle" x="174.68" y="-254.2" font-family="Times,serif" font-size="14.00">s&#45;&gt;A . b d H</text>
<text text-anchor="middle" x="174.68" y="-237.4" font-family="Times,serif" font-size="14.00">b&#45;&gt;. </text>
<text text-anchor="middle" x="174.68" y="-220.6" font-family="Times,serif" font-size="14.00">b&#45;&gt;. C c</text>
</g>
<!-- I0&#45;&gt;I2 -->
<g id="edge2" class="edge">
<title>I0&#45;&gt;I2</title>
<path fill="none" stroke="black" d="M85.65,-275.77C97.11,-272.41 109.69,-268.73 121.65,-265.23"/>
<polygon fill="black" stroke="black" points="122.9,-268.51 131.52,-262.34 120.94,-261.79 122.9,-268.51"/>
<text text-anchor="middle" x="108.77" y="-274.2" font-family="Times,serif" font-size="14.00">A</text>
</g>
<!-- I3 -->
<g id="node4" class="node">
<title>I3</title>
<polygon fill="none" stroke="black" points="348.44,-392.3 263.01,-392.3 263.01,-283.7 348.44,-283.7 348.44,-392.3"/>
<text text-anchor="middle" x="305.73" y="-375.8" font-family="Times,serif" font-size="14.00">I3</text>
<text text-anchor="middle" x="305.73" y="-359" font-family="Times,serif" font-size="14.00">s&#45;&gt;A b . d H</text>
<text text-anchor="middle" x="305.73" y="-342.2" font-family="Times,serif" font-size="14.00">d&#45;&gt;. </text>
<text text-anchor="middle" x="305.73" y="-325.4" font-family="Times,serif" font-size="14.00">d&#45;&gt;. e f</text>
<text text-anchor="middle" x="305.73" y="-308.6" font-family="Times,serif" font-size="14.00">e&#45;&gt;. G</text>
<text text-anchor="middle" x="305.73" y="-291.8" font-family="Times,serif" font-size="14.00">e&#45;&gt;. epsilon</text>
</g>
<!-- I2&#45;&gt;I3 -->
<g id="edge3" class="edge">
<title>I2&#45;&gt;I3</title>
<path fill="none" stroke="black" d="M217.57,-278.57C229.3,-286.56 242.16,-295.33 254.31,-303.62"/>
<polygon fill="black" stroke="black" points="252.36,-306.53 262.6,-309.27 256.31,-300.75 252.36,-306.53"/>
<text text-anchor="middle" x="240.2" y="-300.2" font-family="Times,serif" font-size="14.00">b</text>
</g>
<!-- I4 -->
<g id="node5" class="node">
<title>I4</title>
<polygon fill="none" stroke="black" points="346.94,-236 264.52,-236 264.52,-144 346.94,-144 346.94,-236"/>
<text text-anchor="middle" x="305.73" y="-219.4" font-family="Times,serif" font-size="14.00">I4</text>
<text text-anchor="middle" x="305.73" y="-202.6" font-family="Times,serif" font-size="14.00">b&#45;&gt;C . c</text>
<text text-anchor="middle" x="305.73" y="-185.8" font-family="Times,serif" font-size="14.00">c&#45;&gt;. </text>
<text text-anchor="middle" x="305.73" y="-169" font-family="Times,serif" font-size="14.00">c&#45;&gt;. B c</text>
<text text-anchor="middle" x="305.73" y="-152.2" font-family="Times,serif" font-size="14.00">c&#45;&gt;. epsilon</text>
</g>
<!-- I2&#45;&gt;I4 -->
<g id="edge4" class="edge">
<title>I2&#45;&gt;I4</title>
<path fill="none" stroke="black" d="M217.57,-230.52C229.54,-224.96 242.69,-218.84 255.07,-213.09"/>
<polygon fill="black" stroke="black" points="256.76,-216.16 264.36,-208.77 253.81,-209.81 256.76,-216.16"/>
<text text-anchor="middle" x="240.2" y="-225.2" font-family="Times,serif" font-size="14.00">C</text>
</g>
<!-- I5 -->
<g id="node6" class="node">
<title>I5</title>
<polygon fill="none" stroke="black" points="510.59,-545.6 425.17,-545.6 425.17,-504.4 510.59,-504.4 510.59,-545.6"/>
<text text-anchor="middle" x="467.88" y="-529.2" font-family="Times,serif" font-size="14.00">I5</text>
<text text-anchor="middle" x="467.88" y="-512.4" font-family="Times,serif" font-size="14.00">s&#45;&gt;A b d . H</text>
</g>
<!-- I3&#45;&gt;I5 -->
<g id="edge5" class="edge">
<title>I3&#45;&gt;I5</title>
<path fill="none" stroke="black" d="M348.72,-389.61C354.68,-396.82 360.76,-404.12 366.58,-411 392.1,-441.17 398.9,-448.36 425.02,-478 430.31,-483.99 435.99,-490.4 441.4,-496.49"/>
<polygon fill="black" stroke="black" points="438.82,-498.85 448.08,-503.98 444.04,-494.19 438.82,-498.85"/>
<text text-anchor="middle" x="386.8" y="-461.2" font-family="Times,serif" font-size="14.00">d</text>
</g>
<!-- I6 -->
<g id="node7" class="node">
<title>I6</title>
<polygon fill="none" stroke="black" points="508.04,-469 427.72,-469 427.72,-377 508.04,-377 508.04,-469"/>
<text text-anchor="middle" x="467.88" y="-452.4" font-family="Times,serif" font-size="14.00">I6</text>
<text text-anchor="middle" x="467.88" y="-435.6" font-family="Times,serif" font-size="14.00">d&#45;&gt;e . f</text>
<text text-anchor="middle" x="467.88" y="-418.8" font-family="Times,serif" font-size="14.00">f&#45;&gt;. </text>
<text text-anchor="middle" x="467.88" y="-402" font-family="Times,serif" font-size="14.00">f&#45;&gt;. F</text>
<text text-anchor="middle" x="467.88" y="-385.2" font-family="Times,serif" font-size="14.00">f&#45;&gt;. epsilon</text>
</g>
<!-- I3&#45;&gt;I6 -->
<g id="edge6" class="edge">
<title>I3&#45;&gt;I6</title>
<path fill="none" stroke="black" d="M348.8,-360.33C370.23,-371.7 396.37,-385.58 418.61,-397.38"/>
<polygon fill="black" stroke="black" points="417.08,-400.53 427.56,-402.13 420.36,-394.35 417.08,-400.53"/>
<text text-anchor="middle" x="386.8" y="-394.2" font-family="Times,serif" font-size="14.00">e</text>
</g>
<!-- I7 -->
<g id="node8" class="node">
<title>I7</title>
<polygon fill="none" stroke="black" points="509.09,-358.6 426.67,-358.6 426.67,-317.4 509.09,-317.4 509.09,-358.6"/>
<text text-anchor="middle" x="467.88" y="-342.2" font-family="Times,serif" font-size="14.00">I7</text>
<text text-anchor="middle" x="467.88" y="-325.4" font-family="Times,serif" font-size="14.00">e&#45;&gt;epsilon .</text>
</g>
<!-- I3&#45;&gt;I7 -->
<g id="edge7" class="edge">
<title>I3&#45;&gt;I7</title>
<path fill="none" stroke="black" d="M348.8,-338C369.61,-338 394.86,-338 416.67,-338"/>
<polygon fill="black" stroke="black" points="416.74,-341.5 426.74,-338 416.74,-334.5 416.74,-341.5"/>
<text text-anchor="middle" x="386.8" y="-342.2" font-family="Times,serif" font-size="14.00">epsilon</text>
</g>
<!-- I8 -->
<g id="node9" class="node">
<title>I8</title>
<polygon fill="none" stroke="black" points="494.88,-298.6 440.88,-298.6 440.88,-257.4 494.88,-257.4 494.88,-298.6"/>
<text text-anchor="middle" x="467.88" y="-282.2" font-family="Times,serif" font-size="14.00">I8</text>
<text text-anchor="middle" x="467.88" y="-265.4" font-family="Times,serif" font-size="14.00">e&#45;&gt;G .</text>
</g>
<!-- I3&#45;&gt;I8 -->
<g id="edge8" class="edge">
<title>I3&#45;&gt;I8</title>
<path fill="none" stroke="black" d="M348.8,-322.24C374.38,-312.65 406.69,-300.55 431.04,-291.43"/>
<polygon fill="black" stroke="black" points="432.48,-294.62 440.62,-287.84 430.03,-288.07 432.48,-294.62"/>
<text text-anchor="middle" x="386.8" y="-319.2" font-family="Times,serif" font-size="14.00">G</text>
</g>
<!-- I9 -->
<g id="node10" class="node">
<title>I9</title>
<polygon fill="none" stroke="black" points="498.49,-238.6 437.27,-238.6 437.27,-197.4 498.49,-197.4 498.49,-238.6"/>
<text text-anchor="middle" x="467.88" y="-222.2" font-family="Times,serif" font-size="14.00">I9</text>
<text text-anchor="middle" x="467.88" y="-205.4" font-family="Times,serif" font-size="14.00">b&#45;&gt;C c .</text>
</g>
<!-- I4&#45;&gt;I9 -->
<g id="edge9" class="edge">
<title>I4&#45;&gt;I9</title>
<path fill="none" stroke="black" d="M347.14,-197.07C371.63,-201.35 402.73,-206.79 427.1,-211.05"/>
<polygon fill="black" stroke="black" points="426.64,-214.52 437.1,-212.79 427.85,-207.62 426.64,-214.52"/>
<text text-anchor="middle" x="386.8" y="-211.2" font-family="Times,serif" font-size="14.00">c</text>
</g>
<!-- I10 -->
<g id="node11" class="node">
<title>I10</title>
<polygon fill="none" stroke="black" points="671.24,-160.6 588.82,-160.6 588.82,-119.4 671.24,-119.4 671.24,-160.6"/>
<text text-anchor="middle" x="630.03" y="-144.2" font-family="Times,serif" font-size="14.00">I10</text>
<text text-anchor="middle" x="630.03" y="-127.4" font-family="Times,serif" font-size="14.00">c&#45;&gt;epsilon .</text>
</g>
<!-- I4&#45;&gt;I10 -->
<g id="edge10" class="edge">
<title>I4&#45;&gt;I10</title>
<path fill="none" stroke="black" d="M346.96,-183.55C369.84,-179.89 399.03,-175.25 425.02,-171.2 477.4,-163.03 537.39,-153.88 578.68,-147.62"/>
<polygon fill="black" stroke="black" points="579.4,-151.05 588.76,-146.09 578.35,-144.13 579.4,-151.05"/>
<text text-anchor="middle" x="467.88" y="-175.2" font-family="Times,serif" font-size="14.00">epsilon</text>
</g>
<!-- I11 -->
<g id="node12" class="node">
<title>I11</title>
<polygon fill="none" stroke="black" points="509.09,-92 426.67,-92 426.67,0 509.09,0 509.09,-92"/>
<text text-anchor="middle" x="467.88" y="-75.4" font-family="Times,serif" font-size="14.00">I11</text>
<text text-anchor="middle" x="467.88" y="-58.6" font-family="Times,serif" font-size="14.00">c&#45;&gt;B . c</text>
<text text-anchor="middle" x="467.88" y="-41.8" font-family="Times,serif" font-size="14.00">c&#45;&gt;. </text>
<text text-anchor="middle" x="467.88" y="-25" font-family="Times,serif" font-size="14.00">c&#45;&gt;. B c</text>
<text text-anchor="middle" x="467.88" y="-8.2" font-family="Times,serif" font-size="14.00">c&#45;&gt;. epsilon</text>
</g>
<!-- I4&#45;&gt;I11 -->
<g id="edge11" class="edge">
<title>I4&#45;&gt;I11</title>
<path fill="none" stroke="black" d="M346.91,-149.74C353.41,-143.46 360.13,-137.1 366.58,-131.2 383.25,-115.97 402,-99.8 418.73,-85.69"/>
<polygon fill="black" stroke="black" points="421.36,-88.05 426.77,-78.94 416.86,-82.69 421.36,-88.05"/>
<text text-anchor="middle" x="386.8" y="-135.2" font-family="Times,serif" font-size="14.00">B</text>
</g>
<!-- I12 -->
<g id="node13" class="node">
<title>I12</title>
<polygon fill="none" stroke="black" points="672.75,-554.6 587.32,-554.6 587.32,-513.4 672.75,-513.4 672.75,-554.6"/>
<text text-anchor="middle" x="630.03" y="-538.2" font-family="Times,serif" font-size="14.00">I12</text>
<text text-anchor="middle" x="630.03" y="-521.4" font-family="Times,serif" font-size="14.00">s&#45;&gt;A b d H .</text>
</g>
<!-- I5&#45;&gt;I12 -->
<g id="edge12" class="edge">
<title>I5&#45;&gt;I12</title>
<path fill="none" stroke="black" d="M510.96,-527.36C531.19,-528.5 555.63,-529.88 577.01,-531.08"/>
<polygon fill="black" stroke="black" points="577.05,-534.58 587.24,-531.65 577.45,-527.6 577.05,-534.58"/>
<text text-anchor="middle" x="548.96" y="-534.2" font-family="Times,serif" font-size="14.00">H</text>
</g>
<!-- I13 -->
<g id="node14" class="node">
<title>I13</title>
<polygon fill="none" stroke="black" points="658.46,-494.6 601.6,-494.6 601.6,-453.4 658.46,-453.4 658.46,-494.6"/>
<text text-anchor="middle" x="630.03" y="-478.2" font-family="Times,serif" font-size="14.00">I13</text>
<text text-anchor="middle" x="630.03" y="-461.4" font-family="Times,serif" font-size="14.00">d&#45;&gt;e f .</text>
</g>
<!-- I6&#45;&gt;I13 -->
<g id="edge13" class="edge">
<title>I6&#45;&gt;I13</title>
<path fill="none" stroke="black" d="M508.06,-435.48C533.56,-443.6 566.64,-454.13 591.76,-462.13"/>
<polygon fill="black" stroke="black" points="590.71,-465.47 601.3,-465.17 592.84,-458.8 590.71,-465.47"/>
<text text-anchor="middle" x="548.96" y="-458.2" font-family="Times,serif" font-size="14.00">f</text>
</g>
<!-- I14 -->
<g id="node15" class="node">
<title>I14</title>
<polygon fill="none" stroke="black" points="670.19,-434.6 589.88,-434.6 589.88,-393.4 670.19,-393.4 670.19,-434.6"/>
<text text-anchor="middle" x="630.03" y="-418.2" font-family="Times,serif" font-size="14.00">I14</text>
<text text-anchor="middle" x="630.03" y="-401.4" font-family="Times,serif" font-size="14.00">f&#45;&gt;epsilon .</text>
</g>
<!-- I6&#45;&gt;I14 -->
<g id="edge14" class="edge">
<title>I6&#45;&gt;I14</title>
<path fill="none" stroke="black" d="M508.06,-420.8C529.58,-419.59 556.49,-418.08 579.46,-416.79"/>
<polygon fill="black" stroke="black" points="579.92,-420.27 589.7,-416.21 579.52,-413.28 579.92,-420.27"/>
<text text-anchor="middle" x="548.96" y="-423.2" font-family="Times,serif" font-size="14.00">epsilon</text>
</g>
<!-- I15 -->
<g id="node16" class="node">
<title>I15</title>
<polygon fill="none" stroke="black" points="657.03,-374.6 603.03,-374.6 603.03,-333.4 657.03,-333.4 657.03,-374.6"/>
<text text-anchor="middle" x="630.03" y="-358.2" font-family="Times,serif" font-size="14.00">I15</text>
<text text-anchor="middle" x="630.03" y="-341.4" font-family="Times,serif" font-size="14.00">f&#45;&gt;F .</text>
</g>
<!-- I6&#45;&gt;I15 -->
<g id="edge15" class="edge">
<title>I6&#45;&gt;I15</title>
<path fill="none" stroke="black" d="M508.1,-405.28C514.97,-402.23 522.05,-399.1 528.74,-396.2 550.23,-386.87 574.44,-376.67 593.69,-368.64"/>
<polygon fill="black" stroke="black" points="595.1,-371.84 602.99,-364.77 592.41,-365.38 595.1,-371.84"/>
<text text-anchor="middle" x="548.96" y="-400.2" font-family="Times,serif" font-size="14.00">F</text>
</g>
<!-- I11&#45;&gt;I10 -->
<g id="edge17" class="edge">
<title>I11&#45;&gt;I10</title>
<path fill="none" stroke="black" d="M509.29,-69.72C532.38,-83.27 561.36,-100.28 585.02,-114.17"/>
<polygon fill="black" stroke="black" points="583.41,-117.28 593.81,-119.32 586.95,-111.24 583.41,-117.28"/>
<text text-anchor="middle" x="548.96" y="-108.2" font-family="Times,serif" font-size="14.00">epsilon</text>
</g>
<!-- I11&#45;&gt;I11 -->
<g id="edge18" class="edge">
<title>I11&#45;&gt;I11</title>
<path fill="none" stroke="black" d="M453.25,-92.02C454.56,-102.41 459.44,-110 467.88,-110 473.28,-110 477.23,-106.88 479.71,-101.91"/>
<polygon fill="black" stroke="black" points="483.16,-102.6 482.51,-92.02 476.42,-100.69 483.16,-102.6"/>
<text text-anchor="middle" x="467.88" y="-114.2" font-family="Times,serif" font-size="14.00">B</text>
</g>
<!-- I16 -->
<g id="node17" class="node">
<title>I16</title>
<polygon fill="none" stroke="black" points="660.35,-66.6 599.71,-66.6 599.71,-25.4 660.35,-25.4 660.35,-66.6"/>
<text text-anchor="middle" x="630.03" y="-50.2" font-family="Times,serif" font-size="14.00">I16</text>
<text text-anchor="middle" x="630.03" y="-33.4" font-family="Times,serif" font-size="14.00">c&#45;&gt;B c .</text>
</g>
<!-- I11&#45;&gt;I16 -->
<g id="edge16" class="edge">
<title>I11&#45;&gt;I16</title>
<path fill="none" stroke="black" d="M509.29,-46C533.86,-46 565.09,-46 589.5,-46"/>
<polygon fill="black" stroke="black" points="589.5,-49.5 599.5,-46 589.5,-42.5 589.5,-49.5"/>
<text text-anchor="middle" x="548.96" y="-50.2" font-family="Times,serif" font-size="14.00">c</text>
</g>
</g>
</svg>
