<?xml version="1.0" encoding="UTF-8" standalone="no"?>
<!DOCTYPE svg PUBLIC "-//W3C//DTD SVG 1.1//EN"
 "http://www.w3.org/Graphics/SVG/1.1/DTD/svg11.dtd">
<!-- Generated by graphviz version 2.44.0 (20200518.1210)
 -->
<!-- Title: items Pages: 1 -->
<svg width="100%" height="100%"
 viewBox="0.00 0.00 569.30 582.00" xmlns="http://www.w3.org/2000/svg" xmlns:xlink="http://www.w3.org/1999/xlink">
<g id="graph0" class="graph" transform="scale(1 1) rotate(0) translate(4 578)">
<title>items</title>
<polygon fill="white" stroke="transparent" points="-4,4 -4,-578 565.3,-578 565.3,4 -4,4"/>
<!-- I0 -->
<g id="node1" class="node">
<title>I0</title>
<polygon fill="none" stroke="black" points="82.99,-454.2 0,-454.2 0,-194.2 82.99,-194.2 82.99,-454.2"/>
<text text-anchor="middle" x="41.5" y="-437.6" font-family="Times,serif" font-size="14.00">I0</text>
<text text-anchor="middle" x="41.5" y="-420.8" font-family="Times,serif" font-size="14.00">E&#39;&#45;&gt;. s</text>
<text text-anchor="middle" x="41.5" y="-404" font-family="Times,serif" font-size="14.00">s&#45;&gt;. </text>
<text text-anchor="middle" x="41.5" y="-387.2" font-family="Times,serif" font-size="14.00">s&#45;&gt;. a c b</text>
<text text-anchor="middle" x="41.5" y="-370.4" font-family="Times,serif" font-size="14.00">s&#45;&gt;. c B B</text>
<text text-anchor="middle" x="41.5" y="-353.6" font-family="Times,serif" font-size="14.00">s&#45;&gt;. b A</text>
<text text-anchor="middle" x="41.5" y="-336.8" font-family="Times,serif" font-size="14.00">a&#45;&gt;. </text>
<text text-anchor="middle" x="41.5" y="-320" font-family="Times,serif" font-size="14.00">a&#45;&gt;. D A</text>
<text text-anchor="middle" x="41.5" y="-303.2" font-family="Times,serif" font-size="14.00">a&#45;&gt;. b c</text>
<text text-anchor="middle" x="41.5" y="-286.4" font-family="Times,serif" font-size="14.00">c&#45;&gt;. </text>
<text text-anchor="middle" x="41.5" y="-269.6" font-family="Times,serif" font-size="14.00">c&#45;&gt;. H</text>
<text text-anchor="middle" x="41.5" y="-252.8" font-family="Times,serif" font-size="14.00">c&#45;&gt;. epsilon</text>
<text text-anchor="middle" x="41.5" y="-236" font-family="Times,serif" font-size="14.00">b&#45;&gt;. </text>
<text text-anchor="middle" x="41.5" y="-219.2" font-family="Times,serif" font-size="14.00">b&#45;&gt;. G</text>
<text text-anchor="middle" x="41.5" y="-202.4" font-family="Times,serif" font-size="14.00">b&#45;&gt;. epsilon</text>
</g>
<!-- I1 -->
<g id="node2" class="node">
<title>I1</title>
<polygon fill="none" stroke="black" points="228.13,-569.83 173.73,-569.83 173.73,-528.57 228.13,-528.57 228.13,-569.83"/>
<polygon fill="none" stroke="black" points="232.15,-573.8 169.72,-573.8 169.72,-524.6 232.15,-524.6 232.15,-573.8"/>
<text text-anchor="middle" x="200.93" y="-553.4" font-family="Times,serif" font-size="14.00">I1</text>
<text text-anchor="middle" x="200.93" y="-536.6" font-family="Times,serif" font-size="14.00">E&#39;&#45;&gt;s .</text>
</g>
<!-- I0&#45;&gt;I1 -->
<g id="edge1" class="edge">
<title>I0&#45;&gt;I1</title>
<path fill="none" stroke="black" d="M66.93,-454.39C75.19,-474.8 86.23,-494.35 101,-510.2 116.39,-526.73 139.67,-536.36 159.77,-541.92"/>
<polygon fill="black" stroke="black" points="159.09,-545.36 169.64,-544.4 160.8,-538.57 159.09,-545.36"/>
<text text-anchor="middle" x="121.22" y="-538.4" font-family="Times,serif" font-size="14.00">s</text>
</g>
<!-- I2 -->
<g id="node3" class="node">
<title>I2</title>
<polygon fill="none" stroke="black" points="242.14,-414.2 159.72,-414.2 159.72,-322.2 242.14,-322.2 242.14,-414.2"/>
<text text-anchor="middle" x="200.93" y="-397.6" font-family="Times,serif" font-size="14.00">I2</text>
<text text-anchor="middle" x="200.93" y="-380.8" font-family="Times,serif" font-size="14.00">s&#45;&gt;a . c b</text>
<text text-anchor="middle" x="200.93" y="-364" font-family="Times,serif" font-size="14.00">c&#45;&gt;. </text>
<text text-anchor="middle" x="200.93" y="-347.2" font-family="Times,serif" font-size="14.00">c&#45;&gt;. H</text>
<text text-anchor="middle" x="200.93" y="-330.4" font-family="Times,serif" font-size="14.00">c&#45;&gt;. epsilon</text>
</g>
<!-- I0&#45;&gt;I2 -->
<g id="edge2" class="edge">
<title>I0&#45;&gt;I2</title>
<path fill="none" stroke="black" d="M83.04,-335.53C103.5,-341.25 128.51,-348.24 150.13,-354.28"/>
<polygon fill="black" stroke="black" points="149.23,-357.66 159.8,-356.98 151.11,-350.92 149.23,-357.66"/>
<text text-anchor="middle" x="121.22" y="-355.4" font-family="Times,serif" font-size="14.00">a</text>
</g>
<!-- I3 -->
<g id="node4" class="node">
<title>I3</title>
<polygon fill="none" stroke="black" points="242.14,-304.5 159.72,-304.5 159.72,-195.9 242.14,-195.9 242.14,-304.5"/>
<text text-anchor="middle" x="200.93" y="-288" font-family="Times,serif" font-size="14.00">I3</text>
<text text-anchor="middle" x="200.93" y="-271.2" font-family="Times,serif" font-size="14.00">s&#45;&gt;b . A</text>
<text text-anchor="middle" x="200.93" y="-254.4" font-family="Times,serif" font-size="14.00">a&#45;&gt;b . c</text>
<text text-anchor="middle" x="200.93" y="-237.6" font-family="Times,serif" font-size="14.00">c&#45;&gt;. </text>
<text text-anchor="middle" x="200.93" y="-220.8" font-family="Times,serif" font-size="14.00">c&#45;&gt;. H</text>
<text text-anchor="middle" x="200.93" y="-204" font-family="Times,serif" font-size="14.00">c&#45;&gt;. epsilon</text>
</g>
<!-- I0&#45;&gt;I3 -->
<g id="edge3" class="edge">
<title>I0&#45;&gt;I3</title>
<path fill="none" stroke="black" d="M83.04,-305.14C103.69,-295.44 128.96,-283.56 150.72,-273.33"/>
<polygon fill="black" stroke="black" points="152.24,-276.49 159.8,-269.06 149.26,-270.15 152.24,-276.49"/>
<text text-anchor="middle" x="121.22" y="-299.4" font-family="Times,serif" font-size="14.00">b</text>
</g>
<!-- I4 -->
<g id="node5" class="node">
<title>I4</title>
<polygon fill="none" stroke="black" points="237.32,-177.8 164.55,-177.8 164.55,-136.6 237.32,-136.6 237.32,-177.8"/>
<text text-anchor="middle" x="200.93" y="-161.4" font-family="Times,serif" font-size="14.00">I4</text>
<text text-anchor="middle" x="200.93" y="-144.6" font-family="Times,serif" font-size="14.00">s&#45;&gt;c . B B</text>
</g>
<!-- I0&#45;&gt;I4 -->
<g id="edge4" class="edge">
<title>I0&#45;&gt;I4</title>
<path fill="none" stroke="black" d="M83.21,-270.96C104.59,-244.51 132,-212.8 159.44,-187.2 160.37,-186.33 161.33,-185.46 162.31,-184.59"/>
<polygon fill="black" stroke="black" points="164.68,-187.17 170.11,-178.08 160.19,-181.8 164.68,-187.17"/>
<text text-anchor="middle" x="121.22" y="-252.4" font-family="Times,serif" font-size="14.00">c</text>
</g>
<!-- I5 -->
<g id="node6" class="node">
<title>I5</title>
<polygon fill="none" stroke="black" points="233.92,-117.8 167.95,-117.8 167.95,-76.6 233.92,-76.6 233.92,-117.8"/>
<text text-anchor="middle" x="200.93" y="-101.4" font-family="Times,serif" font-size="14.00">I5</text>
<text text-anchor="middle" x="200.93" y="-84.6" font-family="Times,serif" font-size="14.00">a&#45;&gt;D . A</text>
</g>
<!-- I0&#45;&gt;I5 -->
<g id="edge5" class="edge">
<title>I0&#45;&gt;I5</title>
<path fill="none" stroke="black" d="M83.13,-217.12C88.59,-206.44 94.56,-196.01 101,-186.4 117.17,-162.25 141.31,-140.31 161.7,-124.24"/>
<polygon fill="black" stroke="black" points="164.09,-126.81 169.88,-117.94 159.82,-121.26 164.09,-126.81"/>
<text text-anchor="middle" x="121.22" y="-190.4" font-family="Times,serif" font-size="14.00">D</text>
</g>
<!-- I6 -->
<g id="node7" class="node">
<title>I6</title>
<polygon fill="none" stroke="black" points="546.81,-509.8 492.81,-509.8 492.81,-468.6 546.81,-468.6 546.81,-509.8"/>
<text text-anchor="middle" x="519.81" y="-493.4" font-family="Times,serif" font-size="14.00">I6</text>
<text text-anchor="middle" x="519.81" y="-476.6" font-family="Times,serif" font-size="14.00">b&#45;&gt;G .</text>
</g>
<!-- I0&#45;&gt;I6 -->
<g id="edge6" class="edge">
<title>I0&#45;&gt;I6</title>
<path fill="none" stroke="black" d="M83.26,-398.7C102.39,-425.46 127.98,-452.22 159.44,-465.2 269.99,-510.83 415.95,-501.67 482.7,-494.12"/>
<polygon fill="black" stroke="black" points="483.2,-497.59 492.71,-492.94 482.37,-490.64 483.2,-497.59"/>
<text text-anchor="middle" x="280.65" y="-500.4" font-family="Times,serif" font-size="14.00">G</text>
</g>
<!-- I7 -->
<g id="node8" class="node">
<title>I7</title>
<polygon fill="none" stroke="black" points="387.37,-357.8 333.37,-357.8 333.37,-316.6 387.37,-316.6 387.37,-357.8"/>
<text text-anchor="middle" x="360.37" y="-341.4" font-family="Times,serif" font-size="14.00">I7</text>
<text text-anchor="middle" x="360.37" y="-324.6" font-family="Times,serif" font-size="14.00">c&#45;&gt;H .</text>
</g>
<!-- I0&#45;&gt;I7 -->
<g id="edge7" class="edge">
<title>I0&#45;&gt;I7</title>
<path fill="none" stroke="black" d="M83.17,-371.11C103.74,-391.26 130.46,-412.58 159.44,-423.2 218.46,-444.83 250.29,-459.53 300.87,-422.2 321.57,-406.93 303.83,-388.06 318.87,-367.2 320.82,-364.5 323.08,-361.95 325.51,-359.55"/>
<polygon fill="black" stroke="black" points="327.98,-362.04 333.23,-352.84 323.39,-356.76 327.98,-362.04"/>
<text text-anchor="middle" x="200.93" y="-448.4" font-family="Times,serif" font-size="14.00">H</text>
</g>
<!-- I8 -->
<g id="node9" class="node">
<title>I8</title>
<polygon fill="none" stroke="black" points="242.43,-58.6 159.44,-58.6 159.44,0.2 242.43,0.2 242.43,-58.6"/>
<text text-anchor="middle" x="200.93" y="-41.8" font-family="Times,serif" font-size="14.00">I8</text>
<text text-anchor="middle" x="200.93" y="-25" font-family="Times,serif" font-size="14.00">c&#45;&gt;epsilon .</text>
<text text-anchor="middle" x="200.93" y="-8.2" font-family="Times,serif" font-size="14.00">b&#45;&gt;epsilon .</text>
</g>
<!-- I0&#45;&gt;I8 -->
<g id="edge8" class="edge">
<title>I0&#45;&gt;I8</title>
<path fill="none" stroke="black" d="M68.75,-194.01C76.89,-168.86 87.43,-143.49 101,-121.4 114.11,-100.04 133.49,-80.46 151.63,-64.9"/>
<polygon fill="black" stroke="black" points="153.88,-67.58 159.31,-58.48 149.39,-62.21 153.88,-67.58"/>
<text text-anchor="middle" x="121.22" y="-126.4" font-family="Times,serif" font-size="14.00">epsilon</text>
</g>
<!-- I2&#45;&gt;I7 -->
<g id="edge10" class="edge">
<title>I2&#45;&gt;I7</title>
<path fill="none" stroke="black" d="M242.15,-364.46C260.23,-362.39 281.74,-359.37 300.87,-355.2 308.22,-353.6 315.98,-351.5 323.36,-349.31"/>
<polygon fill="black" stroke="black" points="324.6,-352.6 333.12,-346.31 322.53,-345.91 324.6,-352.6"/>
<text text-anchor="middle" x="280.65" y="-365.4" font-family="Times,serif" font-size="14.00">H</text>
</g>
<!-- I9 -->
<g id="node10" class="node">
<title>I9</title>
<polygon fill="none" stroke="black" points="401.87,-468.2 318.87,-468.2 318.87,-376.2 401.87,-376.2 401.87,-468.2"/>
<text text-anchor="middle" x="360.37" y="-451.6" font-family="Times,serif" font-size="14.00">I9</text>
<text text-anchor="middle" x="360.37" y="-434.8" font-family="Times,serif" font-size="14.00">s&#45;&gt;a c . b</text>
<text text-anchor="middle" x="360.37" y="-418" font-family="Times,serif" font-size="14.00">b&#45;&gt;. </text>
<text text-anchor="middle" x="360.37" y="-401.2" font-family="Times,serif" font-size="14.00">b&#45;&gt;. G</text>
<text text-anchor="middle" x="360.37" y="-384.4" font-family="Times,serif" font-size="14.00">b&#45;&gt;. epsilon</text>
</g>
<!-- I2&#45;&gt;I9 -->
<g id="edge9" class="edge">
<title>I2&#45;&gt;I9</title>
<path fill="none" stroke="black" d="M242.07,-381.97C262.45,-388.96 287.42,-397.52 309.07,-404.95"/>
<polygon fill="black" stroke="black" points="308.17,-408.34 318.76,-408.27 310.44,-401.72 308.17,-408.34"/>
<text text-anchor="middle" x="280.65" y="-405.4" font-family="Times,serif" font-size="14.00">c</text>
</g>
<!-- I10 -->
<g id="node11" class="node">
<title>I10</title>
<polygon fill="none" stroke="black" points="401.58,-297.8 319.16,-297.8 319.16,-256.6 401.58,-256.6 401.58,-297.8"/>
<text text-anchor="middle" x="360.37" y="-281.4" font-family="Times,serif" font-size="14.00">I10</text>
<text text-anchor="middle" x="360.37" y="-264.6" font-family="Times,serif" font-size="14.00">c&#45;&gt;epsilon .</text>
</g>
<!-- I2&#45;&gt;I10 -->
<g id="edge11" class="edge">
<title>I2&#45;&gt;I10</title>
<path fill="none" stroke="black" d="M242.29,-344.32C248.33,-340.91 254.51,-337.51 260.43,-334.4 278.05,-325.15 283.5,-324.91 300.87,-315.2 307.34,-311.58 314.06,-307.53 320.54,-303.44"/>
<polygon fill="black" stroke="black" points="322.65,-306.25 329.18,-297.9 318.87,-300.35 322.65,-306.25"/>
<text text-anchor="middle" x="280.65" y="-338.4" font-family="Times,serif" font-size="14.00">epsilon</text>
</g>
<!-- I3&#45;&gt;I7 -->
<g id="edge14" class="edge">
<title>I3&#45;&gt;I7</title>
<path fill="none" stroke="black" d="M242.51,-268.48C260.66,-277.03 282.13,-287.68 300.87,-298.4 308.79,-302.93 317.08,-308.12 324.84,-313.21"/>
<polygon fill="black" stroke="black" points="323.07,-316.24 333.34,-318.87 326.95,-310.41 323.07,-316.24"/>
<text text-anchor="middle" x="280.65" y="-302.4" font-family="Times,serif" font-size="14.00">H</text>
</g>
<!-- I3&#45;&gt;I10 -->
<g id="edge15" class="edge">
<title>I3&#45;&gt;I10</title>
<path fill="none" stroke="black" d="M242.18,-251.45C260.26,-252.55 281.77,-254.59 300.87,-258.4 303.67,-258.96 306.52,-259.6 309.38,-260.31"/>
<polygon fill="black" stroke="black" points="308.52,-263.71 319.09,-262.94 310.35,-256.95 308.52,-263.71"/>
<text text-anchor="middle" x="280.65" y="-262.4" font-family="Times,serif" font-size="14.00">epsilon</text>
</g>
<!-- I11 -->
<g id="node12" class="node">
<title>I11</title>
<polygon fill="none" stroke="black" points="389.86,-237.8 330.88,-237.8 330.88,-196.6 389.86,-196.6 389.86,-237.8"/>
<text text-anchor="middle" x="360.37" y="-221.4" font-family="Times,serif" font-size="14.00">I11</text>
<text text-anchor="middle" x="360.37" y="-204.6" font-family="Times,serif" font-size="14.00">a&#45;&gt;b c .</text>
</g>
<!-- I3&#45;&gt;I11 -->
<g id="edge12" class="edge">
<title>I3&#45;&gt;I11</title>
<path fill="none" stroke="black" d="M242.28,-236.26C248.32,-234.46 254.51,-232.77 260.43,-231.4 280.17,-226.85 302.48,-223.49 320.91,-221.19"/>
<polygon fill="black" stroke="black" points="321.47,-224.65 330.99,-219.99 320.65,-217.7 321.47,-224.65"/>
<text text-anchor="middle" x="280.65" y="-235.4" font-family="Times,serif" font-size="14.00">c</text>
</g>
<!-- I12 -->
<g id="node13" class="node">
<title>I12</title>
<polygon fill="none" stroke="black" points="390.98,-177.8 329.76,-177.8 329.76,-136.6 390.98,-136.6 390.98,-177.8"/>
<text text-anchor="middle" x="360.37" y="-161.4" font-family="Times,serif" font-size="14.00">I12</text>
<text text-anchor="middle" x="360.37" y="-144.6" font-family="Times,serif" font-size="14.00">s&#45;&gt;b A .</text>
</g>
<!-- I3&#45;&gt;I12 -->
<g id="edge13" class="edge">
<title>I3&#45;&gt;I12</title>
<path fill="none" stroke="black" d="M242.25,-215.93C248.19,-211.49 254.36,-207.17 260.43,-203.4 279.22,-191.73 301.43,-181.1 320.04,-172.99"/>
<polygon fill="black" stroke="black" points="321.59,-176.13 329.41,-168.98 318.84,-169.7 321.59,-176.13"/>
<text text-anchor="middle" x="280.65" y="-207.4" font-family="Times,serif" font-size="14.00">A</text>
</g>
<!-- I13 -->
<g id="node14" class="node">
<title>I13</title>
<polygon fill="none" stroke="black" points="396.76,-117.8 323.98,-117.8 323.98,-76.6 396.76,-76.6 396.76,-117.8"/>
<text text-anchor="middle" x="360.37" y="-101.4" font-family="Times,serif" font-size="14.00">I13</text>
<text text-anchor="middle" x="360.37" y="-84.6" font-family="Times,serif" font-size="14.00">s&#45;&gt;c B . B</text>
</g>
<!-- I4&#45;&gt;I13 -->
<g id="edge16" class="edge">
<title>I4&#45;&gt;I13</title>
<path fill="none" stroke="black" d="M228.7,-136.4C238.27,-129.8 249.42,-123.03 260.43,-118.4 277.06,-111.4 296.26,-106.61 313.31,-103.37"/>
<polygon fill="black" stroke="black" points="314.36,-106.74 323.6,-101.56 313.14,-99.85 314.36,-106.74"/>
<text text-anchor="middle" x="280.65" y="-123.4" font-family="Times,serif" font-size="14.00">B</text>
</g>
<!-- I14 -->
<g id="node15" class="node">
<title>I14</title>
<polygon fill="none" stroke="black" points="393.35,-57.8 327.39,-57.8 327.39,-16.6 393.35,-16.6 393.35,-57.8"/>
<text text-anchor="middle" x="360.37" y="-41.4" font-family="Times,serif" font-size="14.00">I14</text>
<text text-anchor="middle" x="360.37" y="-24.6" font-family="Times,serif" font-size="14.00">a&#45;&gt;D A .</text>
</g>
<!-- I5&#45;&gt;I14 -->
<g id="edge17" class="edge">
<title>I5&#45;&gt;I14</title>
<path fill="none" stroke="black" d="M233.79,-85.06C258.12,-75.79 291.83,-62.94 318.21,-52.89"/>
<polygon fill="black" stroke="black" points="319.46,-56.16 327.56,-49.32 316.97,-49.61 319.46,-56.16"/>
<text text-anchor="middle" x="280.65" y="-79.4" font-family="Times,serif" font-size="14.00">A</text>
</g>
<!-- I9&#45;&gt;I6 -->
<g id="edge19" class="edge">
<title>I9&#45;&gt;I6</title>
<path fill="none" stroke="black" d="M401.91,-439.45C427.06,-450.15 459.06,-463.77 483.22,-474.05"/>
<polygon fill="black" stroke="black" points="482.15,-477.4 492.72,-478.1 484.89,-470.96 482.15,-477.4"/>
<text text-anchor="middle" x="440.09" y="-467.4" font-family="Times,serif" font-size="14.00">G</text>
</g>
<!-- I15 -->
<g id="node16" class="node">
<title>I15</title>
<polygon fill="none" stroke="black" points="553.74,-442.8 485.88,-442.8 485.88,-401.6 553.74,-401.6 553.74,-442.8"/>
<text text-anchor="middle" x="519.81" y="-426.4" font-family="Times,serif" font-size="14.00">I15</text>
<text text-anchor="middle" x="519.81" y="-409.6" font-family="Times,serif" font-size="14.00">s&#45;&gt;a c b .</text>
</g>
<!-- I9&#45;&gt;I15 -->
<g id="edge18" class="edge">
<title>I9&#45;&gt;I15</title>
<path fill="none" stroke="black" d="M401.91,-422.2C424.59,-422.2 452.84,-422.2 475.89,-422.2"/>
<polygon fill="black" stroke="black" points="476.07,-425.7 486.07,-422.2 476.07,-418.7 476.07,-425.7"/>
<text text-anchor="middle" x="440.09" y="-426.4" font-family="Times,serif" font-size="14.00">b</text>
</g>
<!-- I16 -->
<g id="node17" class="node">
<title>I16</title>
<polygon fill="none" stroke="black" points="561.3,-382.8 478.31,-382.8 478.31,-341.6 561.3,-341.6 561.3,-382.8"/>
<text text-anchor="middle" x="519.81" y="-366.4" font-family="Times,serif" font-size="14.00">I16</text>
<text text-anchor="middle" x="519.81" y="-349.6" font-family="Times,serif" font-size="14.00">b&#45;&gt;epsilon .</text>
</g>
<!-- I9&#45;&gt;I16 -->
<g id="edge20" class="edge">
<title>I9&#45;&gt;I16</title>
<path fill="none" stroke="black" d="M401.91,-406.75C422.22,-399.01 446.99,-389.57 468.5,-381.37"/>
<polygon fill="black" stroke="black" points="470.03,-384.54 478.13,-377.7 467.54,-377.99 470.03,-384.54"/>
<text text-anchor="middle" x="440.09" y="-403.4" font-family="Times,serif" font-size="14.00">epsilon</text>
</g>
<!-- I17 -->
<g id="node18" class="node">
<title>I17</title>
<polygon fill="none" stroke="black" points="556.19,-117.8 483.42,-117.8 483.42,-76.6 556.19,-76.6 556.19,-117.8"/>
<text text-anchor="middle" x="519.81" y="-101.4" font-family="Times,serif" font-size="14.00">I17</text>
<text text-anchor="middle" x="519.81" y="-84.6" font-family="Times,serif" font-size="14.00">s&#45;&gt;c B B .</text>
</g>
<!-- I13&#45;&gt;I17 -->
<g id="edge21" class="edge">
<title>I13&#45;&gt;I17</title>
<path fill="none" stroke="black" d="M397.09,-97.2C419.64,-97.2 448.97,-97.2 473.19,-97.2"/>
<polygon fill="black" stroke="black" points="473.22,-100.7 483.22,-97.2 473.22,-93.7 473.22,-100.7"/>
<text text-anchor="middle" x="440.09" y="-101.4" font-family="Times,serif" font-size="14.00">B</text>
</g>
</g>
</svg>
