<?xml version="1.0" encoding="UTF-8" standalone="no"?>
<!DOCTYPE svg PUBLIC "-//W3C//DTD SVG 1.1//EN"
 "http://www.w3.org/Graphics/SVG/1.1/DTD/svg11.dtd">
<!-- Generated by graphviz version 2.44.0 (20200518.1210)
 -->
<!-- Title: items Pages: 1 -->
<svg width="100%" height="100%"
 viewBox="0.00 0.00 1440.00 452.35" xmlns="http://www.w3.org/2000/svg" xmlns:xlink="http://www.w3.org/1999/xlink">
<g id="graph0" class="graph" transform="scale(0.68 0.68) rotate(0) translate(4 659.6)">
<title>items</title>
<polygon fill="white" stroke="transparent" points="-4,4 -4,-659.6 2108.51,-659.6 2108.51,4 -4,4"/>
<!-- I0 -->
<g id="node1" class="node">
<title>I0</title>
<polygon fill="none" stroke="black" points="211.43,-467.4 -0.14,-467.4 -0.14,-342.2 211.43,-342.2 211.43,-467.4"/>
<text text-anchor="middle" x="105.64" y="-451" font-family="Times,serif" font-size="14.00">E&#39;&#45;&gt;. expression</text>
<text text-anchor="middle" x="105.64" y="-434.2" font-family="Times,serif" font-size="14.00">expression&#45;&gt;. expression plus term</text>
<text text-anchor="middle" x="105.64" y="-417.4" font-family="Times,serif" font-size="14.00">expression&#45;&gt;. term</text>
<text text-anchor="middle" x="105.64" y="-400.6" font-family="Times,serif" font-size="14.00">term&#45;&gt;. term times factor</text>
<text text-anchor="middle" x="105.64" y="-383.8" font-family="Times,serif" font-size="14.00">term&#45;&gt;. factor</text>
<text text-anchor="middle" x="105.64" y="-367" font-family="Times,serif" font-size="14.00">factor&#45;&gt;. lparen expression rparen</text>
<text text-anchor="middle" x="105.64" y="-350.2" font-family="Times,serif" font-size="14.00">factor&#45;&gt;. id</text>
</g>
<!-- I1 -->
<g id="node2" class="node">
<title>I1</title>
<polygon fill="none" stroke="black" points="518.58,-467.4 307.01,-467.4 307.01,-342.2 518.58,-342.2 518.58,-467.4"/>
<text text-anchor="middle" x="412.8" y="-451" font-family="Times,serif" font-size="14.00">E&#39;&#45;&gt;. expression</text>
<text text-anchor="middle" x="412.8" y="-434.2" font-family="Times,serif" font-size="14.00">expression&#45;&gt;. expression plus term</text>
<text text-anchor="middle" x="412.8" y="-417.4" font-family="Times,serif" font-size="14.00">expression&#45;&gt;. term</text>
<text text-anchor="middle" x="412.8" y="-400.6" font-family="Times,serif" font-size="14.00">term&#45;&gt;. term times factor</text>
<text text-anchor="middle" x="412.8" y="-383.8" font-family="Times,serif" font-size="14.00">term&#45;&gt;. factor</text>
<text text-anchor="middle" x="412.8" y="-367" font-family="Times,serif" font-size="14.00">factor&#45;&gt;. lparen expression rparen</text>
<text text-anchor="middle" x="412.8" y="-350.2" font-family="Times,serif" font-size="14.00">factor&#45;&gt;. id</text>
</g>
<!-- I0&#45;&gt;I1 -->
<g id="edge1" class="edge">
<title>I0&#45;&gt;I1</title>
<path fill="none" stroke="black" d="M211.66,-404.8C239.15,-404.8 268.92,-404.8 296.89,-404.8"/>
<polygon fill="black" stroke="black" points="297.1,-408.3 307.1,-404.8 297.1,-401.3 297.1,-408.3"/>
<text text-anchor="middle" x="259.22" y="-409" font-family="Times,serif" font-size="14.00">expression</text>
</g>
<!-- I2 -->
<g id="node3" class="node">
<title>I2</title>
<polygon fill="none" stroke="black" points="1541.69,-125.4 1330.12,-125.4 1330.12,-0.2 1541.69,-0.2 1541.69,-125.4"/>
<text text-anchor="middle" x="1435.9" y="-109" font-family="Times,serif" font-size="14.00">E&#39;&#45;&gt;. expression</text>
<text text-anchor="middle" x="1435.9" y="-92.2" font-family="Times,serif" font-size="14.00">expression&#45;&gt;. expression plus term</text>
<text text-anchor="middle" x="1435.9" y="-75.4" font-family="Times,serif" font-size="14.00">expression&#45;&gt;. term</text>
<text text-anchor="middle" x="1435.9" y="-58.6" font-family="Times,serif" font-size="14.00">term&#45;&gt;. term times factor</text>
<text text-anchor="middle" x="1435.9" y="-41.8" font-family="Times,serif" font-size="14.00">term&#45;&gt;. factor</text>
<text text-anchor="middle" x="1435.9" y="-25" font-family="Times,serif" font-size="14.00">factor&#45;&gt;. lparen expression rparen</text>
<text text-anchor="middle" x="1435.9" y="-8.2" font-family="Times,serif" font-size="14.00">factor&#45;&gt;. id</text>
</g>
<!-- I0&#45;&gt;I2 -->
<g id="edge2" class="edge">
<title>I0&#45;&gt;I2</title>
<path fill="none" stroke="black" d="M129.41,-342.07C169.77,-243.34 263.79,-62.8 411.8,-62.8 411.8,-62.8 411.8,-62.8 978.33,-62.8 1094.65,-62.8 1227.65,-62.8 1319.97,-62.8"/>
<polygon fill="black" stroke="black" points="1320.18,-66.3 1330.18,-62.8 1320.18,-59.3 1320.18,-66.3"/>
<text text-anchor="middle" x="695.06" y="-67" font-family="Times,serif" font-size="14.00">term</text>
</g>
<!-- I3 -->
<g id="node4" class="node">
<title>I3</title>
<polygon fill="none" stroke="black" points="1541.69,-557.4 1330.12,-557.4 1330.12,-432.2 1541.69,-432.2 1541.69,-557.4"/>
<text text-anchor="middle" x="1435.9" y="-541" font-family="Times,serif" font-size="14.00">E&#39;&#45;&gt;. expression</text>
<text text-anchor="middle" x="1435.9" y="-524.2" font-family="Times,serif" font-size="14.00">expression&#45;&gt;. expression plus term</text>
<text text-anchor="middle" x="1435.9" y="-507.4" font-family="Times,serif" font-size="14.00">expression&#45;&gt;. term</text>
<text text-anchor="middle" x="1435.9" y="-490.6" font-family="Times,serif" font-size="14.00">term&#45;&gt;. term times factor</text>
<text text-anchor="middle" x="1435.9" y="-473.8" font-family="Times,serif" font-size="14.00">term&#45;&gt;. factor</text>
<text text-anchor="middle" x="1435.9" y="-457" font-family="Times,serif" font-size="14.00">factor&#45;&gt;. lparen expression rparen</text>
<text text-anchor="middle" x="1435.9" y="-440.2" font-family="Times,serif" font-size="14.00">factor&#45;&gt;. id</text>
</g>
<!-- I0&#45;&gt;I3 -->
<g id="edge3" class="edge">
<title>I0&#45;&gt;I3</title>
<path fill="none" stroke="black" d="M164.42,-467.4C221.47,-522.09 314.1,-592.8 411.8,-592.8 411.8,-592.8 411.8,-592.8 978.33,-592.8 1096.84,-592.8 1228.87,-560.85 1320.34,-533.43"/>
<polygon fill="black" stroke="black" points="1321.62,-536.7 1330.18,-530.46 1319.59,-530 1321.62,-536.7"/>
<text text-anchor="middle" x="695.06" y="-597" font-family="Times,serif" font-size="14.00">factor</text>
</g>
<!-- I4 -->
<g id="node5" class="node">
<title>I4</title>
<polygon fill="none" stroke="black" points="2104.65,-489.4 1893.08,-489.4 1893.08,-364.2 2104.65,-364.2 2104.65,-489.4"/>
<text text-anchor="middle" x="1998.87" y="-473" font-family="Times,serif" font-size="14.00">E&#39;&#45;&gt;. expression</text>
<text text-anchor="middle" x="1998.87" y="-456.2" font-family="Times,serif" font-size="14.00">expression&#45;&gt;. expression plus term</text>
<text text-anchor="middle" x="1998.87" y="-439.4" font-family="Times,serif" font-size="14.00">expression&#45;&gt;. term</text>
<text text-anchor="middle" x="1998.87" y="-422.6" font-family="Times,serif" font-size="14.00">term&#45;&gt;. term times factor</text>
<text text-anchor="middle" x="1998.87" y="-405.8" font-family="Times,serif" font-size="14.00">term&#45;&gt;. factor</text>
<text text-anchor="middle" x="1998.87" y="-389" font-family="Times,serif" font-size="14.00">factor&#45;&gt;. lparen expression rparen</text>
<text text-anchor="middle" x="1998.87" y="-372.2" font-family="Times,serif" font-size="14.00">factor&#45;&gt;. id</text>
</g>
<!-- I0&#45;&gt;I4 -->
<g id="edge4" class="edge">
<title>I0&#45;&gt;I4</title>
<path fill="none" stroke="black" d="M149.33,-467.51C202.12,-536.82 298.97,-638.8 411.8,-638.8 411.8,-638.8 411.8,-638.8 1719.94,-638.8 1815.04,-638.8 1897.86,-559.35 1947.79,-497.73"/>
<polygon fill="black" stroke="black" points="1950.82,-499.55 1954.32,-489.55 1945.35,-495.18 1950.82,-499.55"/>
<text text-anchor="middle" x="977.33" y="-643" font-family="Times,serif" font-size="14.00">id</text>
</g>
<!-- I5 -->
<g id="node6" class="node">
<title>I5</title>
<polygon fill="none" stroke="black" points="1083.12,-334.4 871.55,-334.4 871.55,-209.2 1083.12,-209.2 1083.12,-334.4"/>
<text text-anchor="middle" x="977.33" y="-318" font-family="Times,serif" font-size="14.00">E&#39;&#45;&gt;. expression</text>
<text text-anchor="middle" x="977.33" y="-301.2" font-family="Times,serif" font-size="14.00">expression&#45;&gt;. expression plus term</text>
<text text-anchor="middle" x="977.33" y="-284.4" font-family="Times,serif" font-size="14.00">expression&#45;&gt;. term</text>
<text text-anchor="middle" x="977.33" y="-267.6" font-family="Times,serif" font-size="14.00">term&#45;&gt;. term times factor</text>
<text text-anchor="middle" x="977.33" y="-250.8" font-family="Times,serif" font-size="14.00">term&#45;&gt;. factor</text>
<text text-anchor="middle" x="977.33" y="-234" font-family="Times,serif" font-size="14.00">factor&#45;&gt;. lparen expression rparen</text>
<text text-anchor="middle" x="977.33" y="-217.2" font-family="Times,serif" font-size="14.00">factor&#45;&gt;. id</text>
</g>
<!-- I0&#45;&gt;I5 -->
<g id="edge5" class="edge">
<title>I0&#45;&gt;I5</title>
<path fill="none" stroke="black" d="M211.44,-365.46C348.59,-316.47 597.55,-236.01 818.71,-209.8 834.15,-207.97 838.57,-206.19 853.69,-209.8 856.37,-210.44 859.06,-211.15 861.75,-211.92"/>
<polygon fill="black" stroke="black" points="860.9,-215.32 871.49,-214.95 862.99,-208.64 860.9,-215.32"/>
<text text-anchor="middle" x="553.93" y="-267" font-family="Times,serif" font-size="14.00">lparen</text>
</g>
<!-- I6 -->
<g id="node7" class="node">
<title>I6</title>
<polygon fill="none" stroke="black" points="800.85,-425.4 589.28,-425.4 589.28,-384.2 800.85,-384.2 800.85,-425.4"/>
<text text-anchor="middle" x="695.06" y="-409" font-family="Times,serif" font-size="14.00">E&#39;&#45;&gt;expression .</text>
<text text-anchor="middle" x="695.06" y="-392.2" font-family="Times,serif" font-size="14.00">expression&#45;&gt;expression . plus term</text>
</g>
<!-- I1&#45;&gt;I6 -->
<g id="edge6" class="edge">
<title>I1&#45;&gt;I6</title>
<path fill="none" stroke="black" d="M518.56,-404.8C538.24,-404.8 558.92,-404.8 578.91,-404.8"/>
<polygon fill="black" stroke="black" points="578.97,-408.3 588.97,-404.8 578.97,-401.3 578.97,-408.3"/>
<text text-anchor="middle" x="553.93" y="-409" font-family="Times,serif" font-size="14.00">plus</text>
</g>
<!-- I7 -->
<g id="node8" class="node">
<title>I7</title>
<polygon fill="none" stroke="black" points="1797.28,-189.4 1640.6,-189.4 1640.6,-148.2 1797.28,-148.2 1797.28,-189.4"/>
<text text-anchor="middle" x="1718.94" y="-173" font-family="Times,serif" font-size="14.00">expression&#45;&gt;term .</text>
<text text-anchor="middle" x="1718.94" y="-156.2" font-family="Times,serif" font-size="14.00">term&#45;&gt;term . times factor</text>
</g>
<!-- I2&#45;&gt;I7 -->
<g id="edge7" class="edge">
<title>I2&#45;&gt;I7</title>
<path fill="none" stroke="black" d="M1541.55,-102.27C1579.19,-116.47 1620.51,-132.05 1653.69,-144.57"/>
<polygon fill="black" stroke="black" points="1652.68,-147.93 1663.27,-148.18 1655.15,-141.38 1652.68,-147.93"/>
<text text-anchor="middle" x="1577.42" y="-127" font-family="Times,serif" font-size="14.00">times</text>
</g>
<!-- I5&#45;&gt;I2 -->
<g id="edge9" class="edge">
<title>I5&#45;&gt;I2</title>
<path fill="none" stroke="black" d="M1067.04,-209.11C1078.1,-203.24 1089.55,-198.01 1100.97,-194 1190.12,-162.73 1233.09,-222.34 1312.26,-170.8 1325.61,-162.11 1319.62,-151.66 1330.26,-139.8 1332.44,-137.37 1334.72,-134.96 1337.06,-132.59"/>
<polygon fill="black" stroke="black" points="1339.55,-135.05 1344.29,-125.57 1334.67,-130.03 1339.55,-135.05"/>
<text text-anchor="middle" x="1206.62" y="-199" font-family="Times,serif" font-size="14.00">term</text>
</g>
<!-- I5&#45;&gt;I3 -->
<g id="edge10" class="edge">
<title>I5&#45;&gt;I3</title>
<path fill="none" stroke="black" d="M1083.3,-334.39C1089.24,-337.63 1095.16,-340.79 1100.97,-343.8 1111.76,-349.38 1228.44,-402.01 1320.87,-443.58"/>
<polygon fill="black" stroke="black" points="1319.47,-446.79 1330.02,-447.7 1322.34,-440.4 1319.47,-446.79"/>
<text text-anchor="middle" x="1206.62" y="-440" font-family="Times,serif" font-size="14.00">factor</text>
</g>
<!-- I5&#45;&gt;I4 -->
<g id="edge11" class="edge">
<title>I5&#45;&gt;I4</title>
<path fill="none" stroke="black" d="M1083.1,-259.13C1246.89,-243.4 1571.08,-228.8 1824.58,-320.8 1850.86,-330.34 1877.48,-344.13 1901.71,-358.63"/>
<polygon fill="black" stroke="black" points="1900.16,-361.79 1910.52,-364 1903.8,-355.81 1900.16,-361.79"/>
<text text-anchor="middle" x="1577.42" y="-269" font-family="Times,serif" font-size="14.00">id</text>
</g>
<!-- I5&#45;&gt;I5 -->
<g id="edge12" class="edge">
<title>I5&#45;&gt;I5</title>
<path fill="none" stroke="black" d="M952.83,-334.48C956.17,-345.18 964.34,-352.6 977.33,-352.6 986.26,-352.6 992.91,-349.09 997.29,-343.42"/>
<polygon fill="black" stroke="black" points="1000.42,-344.98 1001.84,-334.48 994.18,-341.8 1000.42,-344.98"/>
<text text-anchor="middle" x="977.33" y="-356.8" font-family="Times,serif" font-size="14.00">lparen</text>
</g>
<!-- I8 -->
<g id="node9" class="node">
<title>I8</title>
<polygon fill="none" stroke="black" points="1541.69,-413.4 1330.12,-413.4 1330.12,-288.2 1541.69,-288.2 1541.69,-413.4"/>
<text text-anchor="middle" x="1435.9" y="-397" font-family="Times,serif" font-size="14.00">factor&#45;&gt;lparen . expression rparen</text>
<text text-anchor="middle" x="1435.9" y="-380.2" font-family="Times,serif" font-size="14.00">expression&#45;&gt;. expression plus term</text>
<text text-anchor="middle" x="1435.9" y="-363.4" font-family="Times,serif" font-size="14.00">expression&#45;&gt;. term</text>
<text text-anchor="middle" x="1435.9" y="-346.6" font-family="Times,serif" font-size="14.00">term&#45;&gt;. term times factor</text>
<text text-anchor="middle" x="1435.9" y="-329.8" font-family="Times,serif" font-size="14.00">term&#45;&gt;. factor</text>
<text text-anchor="middle" x="1435.9" y="-313" font-family="Times,serif" font-size="14.00">factor&#45;&gt;. lparen expression rparen</text>
<text text-anchor="middle" x="1435.9" y="-296.2" font-family="Times,serif" font-size="14.00">factor&#45;&gt;. id</text>
</g>
<!-- I5&#45;&gt;I8 -->
<g id="edge8" class="edge">
<title>I5&#45;&gt;I8</title>
<path fill="none" stroke="black" d="M1082.99,-288.33C1148.87,-298.93 1235.63,-313.23 1312.26,-327 1314.92,-327.48 1317.61,-327.97 1320.33,-328.46"/>
<polygon fill="black" stroke="black" points="1319.76,-331.92 1330.23,-330.29 1321.03,-325.03 1319.76,-331.92"/>
<text text-anchor="middle" x="1206.62" y="-331" font-family="Times,serif" font-size="14.00">expression</text>
</g>
<!-- I6&#45;&gt;I3 -->
<g id="edge14" class="edge">
<title>I6&#45;&gt;I3</title>
<path fill="none" stroke="black" d="M800.8,-424.64C824.08,-428.68 848.68,-432.64 871.69,-435.8 1026.4,-457.02 1205.93,-474.62 1319.94,-484.92"/>
<polygon fill="black" stroke="black" points="1319.81,-488.43 1330.08,-485.84 1320.43,-481.45 1319.81,-488.43"/>
<text text-anchor="middle" x="977.33" y="-465" font-family="Times,serif" font-size="14.00">factor</text>
</g>
<!-- I6&#45;&gt;I4 -->
<g id="edge15" class="edge">
<title>I6&#45;&gt;I4</title>
<path fill="none" stroke="black" d="M735.87,-425.41C770.82,-442.73 823.48,-466.98 871.69,-481.8 1158.54,-569.98 1244.76,-611.3 1541.55,-566.8 1661.06,-548.88 1792.5,-505.94 1883.49,-472.31"/>
<polygon fill="black" stroke="black" points="1884.84,-475.54 1892.99,-468.77 1882.4,-468.98 1884.84,-475.54"/>
<text text-anchor="middle" x="1435.9" y="-589" font-family="Times,serif" font-size="14.00">id</text>
</g>
<!-- I6&#45;&gt;I5 -->
<g id="edge16" class="edge">
<title>I6&#45;&gt;I5</title>
<path fill="none" stroke="black" d="M739.55,-384.16C772.42,-368.57 819.13,-346.4 862.38,-325.88"/>
<polygon fill="black" stroke="black" points="864.02,-328.97 871.55,-321.52 861.02,-322.65 864.02,-328.97"/>
<text text-anchor="middle" x="836.2" y="-350" font-family="Times,serif" font-size="14.00">lparen</text>
</g>
<!-- I9 -->
<g id="node10" class="node">
<title>I9</title>
<polygon fill="none" stroke="black" points="1312.4,-169.8 1100.83,-169.8 1100.83,-77.8 1312.4,-77.8 1312.4,-169.8"/>
<text text-anchor="middle" x="1206.62" y="-153.2" font-family="Times,serif" font-size="14.00">expression&#45;&gt;expression plus . term</text>
<text text-anchor="middle" x="1206.62" y="-136.4" font-family="Times,serif" font-size="14.00">term&#45;&gt;. term times factor</text>
<text text-anchor="middle" x="1206.62" y="-119.6" font-family="Times,serif" font-size="14.00">term&#45;&gt;. factor</text>
<text text-anchor="middle" x="1206.62" y="-102.8" font-family="Times,serif" font-size="14.00">factor&#45;&gt;. lparen expression rparen</text>
<text text-anchor="middle" x="1206.62" y="-86" font-family="Times,serif" font-size="14.00">factor&#45;&gt;. id</text>
</g>
<!-- I6&#45;&gt;I9 -->
<g id="edge13" class="edge">
<title>I6&#45;&gt;I9</title>
<path fill="none" stroke="black" d="M707.53,-384.12C731.88,-342.22 793.05,-247.27 871.69,-199.8 937.78,-159.91 1022.72,-140.93 1090.4,-131.91"/>
<polygon fill="black" stroke="black" points="1091.2,-135.34 1100.68,-130.6 1090.32,-128.4 1091.2,-135.34"/>
<text text-anchor="middle" x="836.2" y="-241" font-family="Times,serif" font-size="14.00">term</text>
</g>
<!-- I7&#45;&gt;I4 -->
<g id="edge18" class="edge">
<title>I7&#45;&gt;I4</title>
<path fill="none" stroke="black" d="M1797.47,-187.91C1824.13,-197.17 1852.86,-210.44 1875.22,-229 1915.77,-262.66 1946.84,-313.37 1967.56,-355.01"/>
<polygon fill="black" stroke="black" points="1964.43,-356.57 1971.95,-364.02 1970.72,-353.5 1964.43,-356.57"/>
<text text-anchor="middle" x="1858.9" y="-233" font-family="Times,serif" font-size="14.00">id</text>
</g>
<!-- I7&#45;&gt;I5 -->
<g id="edge19" class="edge">
<title>I7&#45;&gt;I5</title>
<path fill="none" stroke="black" d="M1640.2,-176.37C1522.92,-188.26 1293.91,-213.37 1100.97,-245.8 1098.44,-246.23 1095.88,-246.67 1093.29,-247.12"/>
<polygon fill="black" stroke="black" points="1092.47,-243.72 1083.26,-248.95 1093.72,-250.6 1092.47,-243.72"/>
<text text-anchor="middle" x="1435.9" y="-215" font-family="Times,serif" font-size="14.00">lparen</text>
</g>
<!-- I10 -->
<g id="node11" class="node">
<title>I10</title>
<polygon fill="none" stroke="black" points="2101.66,-198.2 1896.07,-198.2 1896.07,-139.4 2101.66,-139.4 2101.66,-198.2"/>
<text text-anchor="middle" x="1998.87" y="-181.4" font-family="Times,serif" font-size="14.00">term&#45;&gt;term times . factor</text>
<text text-anchor="middle" x="1998.87" y="-164.6" font-family="Times,serif" font-size="14.00">factor&#45;&gt;. lparen expression rparen</text>
<text text-anchor="middle" x="1998.87" y="-147.8" font-family="Times,serif" font-size="14.00">factor&#45;&gt;. id</text>
</g>
<!-- I7&#45;&gt;I10 -->
<g id="edge17" class="edge">
<title>I7&#45;&gt;I10</title>
<path fill="none" stroke="black" d="M1797.36,-168.8C1824.78,-168.8 1856.2,-168.8 1885.91,-168.8"/>
<polygon fill="black" stroke="black" points="1885.91,-172.3 1895.91,-168.8 1885.91,-165.3 1885.91,-172.3"/>
<text text-anchor="middle" x="1858.9" y="-173" font-family="Times,serif" font-size="14.00">factor</text>
</g>
<!-- I8&#45;&gt;I6 -->
<g id="edge20" class="edge">
<title>I8&#45;&gt;I6</title>
<path fill="none" stroke="black" d="M1330.04,-387.2C1324.06,-388.58 1318.11,-389.8 1312.26,-390.8 1139.51,-420.27 935.61,-417.77 811.11,-412.13"/>
<polygon fill="black" stroke="black" points="810.95,-408.62 800.8,-411.65 810.62,-415.62 810.95,-408.62"/>
<text text-anchor="middle" x="977.33" y="-419" font-family="Times,serif" font-size="14.00">plus</text>
</g>
<!-- I11 -->
<g id="node12" class="node">
<title>I11</title>
<polygon fill="none" stroke="black" points="1824.73,-371.4 1613.15,-371.4 1613.15,-330.2 1824.73,-330.2 1824.73,-371.4"/>
<text text-anchor="middle" x="1718.94" y="-355" font-family="Times,serif" font-size="14.00">factor&#45;&gt;lparen expression . rparen</text>
<text text-anchor="middle" x="1718.94" y="-338.2" font-family="Times,serif" font-size="14.00">expression&#45;&gt;expression . plus term</text>
</g>
<!-- I8&#45;&gt;I11 -->
<g id="edge21" class="edge">
<title>I8&#45;&gt;I11</title>
<path fill="none" stroke="black" d="M1541.55,-350.8C1561.58,-350.8 1582.64,-350.8 1602.97,-350.8"/>
<polygon fill="black" stroke="black" points="1603.2,-354.3 1613.2,-350.8 1603.2,-347.3 1603.2,-354.3"/>
<text text-anchor="middle" x="1577.42" y="-355" font-family="Times,serif" font-size="14.00">rparen</text>
</g>
<!-- I9&#45;&gt;I7 -->
<g id="edge22" class="edge">
<title>I9&#45;&gt;I7</title>
<path fill="none" stroke="black" d="M1312.32,-133.21C1318.39,-133.75 1324.4,-134.28 1330.26,-134.8 1433.15,-143.93 1551.42,-154.28 1630,-161.14"/>
<polygon fill="black" stroke="black" points="1630.07,-164.66 1640.34,-162.04 1630.68,-157.68 1630.07,-164.66"/>
<text text-anchor="middle" x="1435.9" y="-158" font-family="Times,serif" font-size="14.00">times</text>
</g>
</g>
</svg>
