<?xml version="1.0" encoding="UTF-8" standalone="no"?>
<!DOCTYPE svg PUBLIC "-//W3C//DTD SVG 1.1//EN"
 "http://www.w3.org/Graphics/SVG/1.1/DTD/svg11.dtd">
<!-- Generated by graphviz version 2.44.0 (20200518.1210)
 -->
<!-- Title: fsm Pages: 1 -->
<svg width="576pt" height="24pt"
 viewBox="0.00 0.00 576.00 23.78" xmlns="http://www.w3.org/2000/svg" xmlns:xlink="http://www.w3.org/1999/xlink">
<g id="graph0" class="graph" transform="scale(0.35 0.35) rotate(0) translate(4 63.04)">
<title>fsm</title>
<polygon fill="white" stroke="transparent" points="-4,4 -4,-63.04 1620.09,-63.04 1620.09,4 -4,4"/>
<!-- INITIAL_STATE -->
<g id="node1" class="node">
<title>INITIAL_STATE</title>
<ellipse fill="black" stroke="black" cx="1.8" cy="-29.52" rx="1.8" ry="1.8"/>
</g>
<!-- q1 -->
<g id="node3" class="node">
<title>q1</title>
<ellipse fill="none" stroke="black" cx="61.29" cy="-29.52" rx="20.89" ry="20.89"/>
<text text-anchor="middle" x="61.29" y="-25.32" font-family="Times,serif" font-size="14.00">q1</text>
</g>
<!-- INITIAL_STATE&#45;&gt;q1 -->
<g id="edge1" class="edge">
<title>INITIAL_STATE&#45;&gt;q1</title>
<path fill="none" stroke="black" d="M3.8,-29.52C7.17,-29.52 18.55,-29.52 30.23,-29.52"/>
<polygon fill="black" stroke="black" points="30.38,-33.02 40.38,-29.52 30.38,-26.02 30.38,-33.02"/>
</g>
<!-- q18 -->
<g id="node2" class="node">
<title>q18</title>
<ellipse fill="none" stroke="black" cx="1586.57" cy="-29.52" rx="25.54" ry="25.54"/>
<ellipse fill="none" stroke="black" cx="1586.57" cy="-29.52" rx="29.54" ry="29.54"/>
<text text-anchor="middle" x="1586.57" y="-25.32" font-family="Times,serif" font-size="14.00">q18</text>
</g>
<!-- q2 -->
<g id="node4" class="node">
<title>q2</title>
<ellipse fill="none" stroke="black" cx="144.12" cy="-29.52" rx="20.89" ry="20.89"/>
<text text-anchor="middle" x="144.12" y="-25.32" font-family="Times,serif" font-size="14.00">q2</text>
</g>
<!-- q1&#45;&gt;q2 -->
<g id="edge2" class="edge">
<title>q1&#45;&gt;q2</title>
<path fill="none" stroke="black" d="M82.27,-29.52C91.57,-29.52 102.83,-29.52 113.12,-29.52"/>
<polygon fill="black" stroke="black" points="113.37,-33.02 123.37,-29.52 113.37,-26.02 113.37,-33.02"/>
<text text-anchor="middle" x="102.71" y="-33.72" font-family="Times,serif" font-size="14.00">s</text>
</g>
<!-- q3 -->
<g id="node5" class="node">
<title>q3</title>
<ellipse fill="none" stroke="black" cx="229.67" cy="-29.52" rx="20.89" ry="20.89"/>
<text text-anchor="middle" x="229.67" y="-25.32" font-family="Times,serif" font-size="14.00">q3</text>
</g>
<!-- q2&#45;&gt;q3 -->
<g id="edge3" class="edge">
<title>q2&#45;&gt;q3</title>
<path fill="none" stroke="black" d="M164.92,-29.52C174.94,-29.52 187.32,-29.52 198.5,-29.52"/>
<polygon fill="black" stroke="black" points="198.73,-33.02 208.73,-29.52 198.73,-26.02 198.73,-33.02"/>
<text text-anchor="middle" x="186.9" y="-33.72" font-family="Times,serif" font-size="14.00">ε</text>
</g>
<!-- q4 -->
<g id="node6" class="node">
<title>q4</title>
<ellipse fill="none" stroke="black" cx="314.06" cy="-29.52" rx="20.89" ry="20.89"/>
<text text-anchor="middle" x="314.06" y="-25.32" font-family="Times,serif" font-size="14.00">q4</text>
</g>
<!-- q3&#45;&gt;q4 -->
<g id="edge4" class="edge">
<title>q3&#45;&gt;q4</title>
<path fill="none" stroke="black" d="M250.62,-29.52C260.33,-29.52 272.22,-29.52 283,-29.52"/>
<polygon fill="black" stroke="black" points="283.3,-33.02 293.3,-29.52 283.3,-26.02 283.3,-33.02"/>
<text text-anchor="middle" x="271.87" y="-33.72" font-family="Times,serif" font-size="14.00">o</text>
</g>
<!-- q5 -->
<g id="node7" class="node">
<title>q5</title>
<ellipse fill="none" stroke="black" cx="399.61" cy="-29.52" rx="20.89" ry="20.89"/>
<text text-anchor="middle" x="399.61" y="-25.32" font-family="Times,serif" font-size="14.00">q5</text>
</g>
<!-- q4&#45;&gt;q5 -->
<g id="edge5" class="edge">
<title>q4&#45;&gt;q5</title>
<path fill="none" stroke="black" d="M334.86,-29.52C344.88,-29.52 357.26,-29.52 368.43,-29.52"/>
<polygon fill="black" stroke="black" points="368.66,-33.02 378.66,-29.52 368.66,-26.02 368.66,-33.02"/>
<text text-anchor="middle" x="356.83" y="-33.72" font-family="Times,serif" font-size="14.00">ε</text>
</g>
<!-- q6 -->
<g id="node8" class="node">
<title>q6</title>
<ellipse fill="none" stroke="black" cx="487.88" cy="-29.52" rx="20.89" ry="20.89"/>
<text text-anchor="middle" x="487.88" y="-25.32" font-family="Times,serif" font-size="14.00">q6</text>
</g>
<!-- q5&#45;&gt;q6 -->
<g id="edge6" class="edge">
<title>q5&#45;&gt;q6</title>
<path fill="none" stroke="black" d="M420.62,-29.52C431.4,-29.52 444.91,-29.52 456.92,-29.52"/>
<polygon fill="black" stroke="black" points="456.98,-33.02 466.98,-29.52 456.98,-26.02 456.98,-33.02"/>
<text text-anchor="middle" x="443.75" y="-33.72" font-family="Times,serif" font-size="14.00">m</text>
</g>
<!-- q7 -->
<g id="node9" class="node">
<title>q7</title>
<ellipse fill="none" stroke="black" cx="573.43" cy="-29.52" rx="20.89" ry="20.89"/>
<text text-anchor="middle" x="573.43" y="-25.32" font-family="Times,serif" font-size="14.00">q7</text>
</g>
<!-- q6&#45;&gt;q7 -->
<g id="edge7" class="edge">
<title>q6&#45;&gt;q7</title>
<path fill="none" stroke="black" d="M508.68,-29.52C518.7,-29.52 531.08,-29.52 542.26,-29.52"/>
<polygon fill="black" stroke="black" points="542.48,-33.02 552.48,-29.52 542.48,-26.02 542.48,-33.02"/>
<text text-anchor="middle" x="530.66" y="-33.72" font-family="Times,serif" font-size="14.00">ε</text>
</g>
<!-- q8 -->
<g id="node10" class="node">
<title>q8</title>
<ellipse fill="none" stroke="black" cx="657.03" cy="-29.52" rx="20.89" ry="20.89"/>
<text text-anchor="middle" x="657.03" y="-25.32" font-family="Times,serif" font-size="14.00">q8</text>
</g>
<!-- q7&#45;&gt;q8 -->
<g id="edge8" class="edge">
<title>q7&#45;&gt;q8</title>
<path fill="none" stroke="black" d="M594.19,-29.52C603.74,-29.52 615.41,-29.52 626.03,-29.52"/>
<polygon fill="black" stroke="black" points="626.18,-33.02 636.18,-29.52 626.18,-26.02 626.18,-33.02"/>
<text text-anchor="middle" x="615.23" y="-33.72" font-family="Times,serif" font-size="14.00">e</text>
</g>
<!-- q9 -->
<g id="node11" class="node">
<title>q9</title>
<ellipse fill="none" stroke="black" cx="742.58" cy="-29.52" rx="20.89" ry="20.89"/>
<text text-anchor="middle" x="742.58" y="-25.32" font-family="Times,serif" font-size="14.00">q9</text>
</g>
<!-- q8&#45;&gt;q9 -->
<g id="edge9" class="edge">
<title>q8&#45;&gt;q9</title>
<path fill="none" stroke="black" d="M677.83,-29.52C687.85,-29.52 700.23,-29.52 711.4,-29.52"/>
<polygon fill="black" stroke="black" points="711.63,-33.02 721.63,-29.52 711.63,-26.02 711.63,-33.02"/>
<text text-anchor="middle" x="699.81" y="-33.72" font-family="Times,serif" font-size="14.00">ε</text>
</g>
<!-- q10 -->
<g id="node12" class="node">
<title>q10</title>
<ellipse fill="none" stroke="black" cx="828.69" cy="-29.52" rx="25.54" ry="25.54"/>
<text text-anchor="middle" x="828.69" y="-25.32" font-family="Times,serif" font-size="14.00">q10</text>
</g>
<!-- q9&#45;&gt;q10 -->
<g id="edge10" class="edge">
<title>q9&#45;&gt;q10</title>
<path fill="none" stroke="black" d="M763.51,-29.52C772.31,-29.52 782.91,-29.52 792.94,-29.52"/>
<polygon fill="black" stroke="black" points="793.09,-33.02 803.09,-29.52 793.09,-26.02 793.09,-33.02"/>
<text text-anchor="middle" x="783.22" y="-33.72" font-family="Times,serif" font-size="14.00">t</text>
</g>
<!-- q11 -->
<g id="node13" class="node">
<title>q11</title>
<ellipse fill="none" stroke="black" cx="923.89" cy="-29.52" rx="25.54" ry="25.54"/>
<text text-anchor="middle" x="923.89" y="-25.32" font-family="Times,serif" font-size="14.00">q11</text>
</g>
<!-- q10&#45;&gt;q11 -->
<g id="edge11" class="edge">
<title>q10&#45;&gt;q11</title>
<path fill="none" stroke="black" d="M854.66,-29.52C864.88,-29.52 876.88,-29.52 887.94,-29.52"/>
<polygon fill="black" stroke="black" points="888.17,-33.02 898.17,-29.52 888.17,-26.02 888.17,-33.02"/>
<text text-anchor="middle" x="876.29" y="-33.72" font-family="Times,serif" font-size="14.00">ε</text>
</g>
<!-- q12 -->
<g id="node14" class="node">
<title>q12</title>
<ellipse fill="none" stroke="black" cx="1017.94" cy="-29.52" rx="25.54" ry="25.54"/>
<text text-anchor="middle" x="1017.94" y="-25.32" font-family="Times,serif" font-size="14.00">q12</text>
</g>
<!-- q11&#45;&gt;q12 -->
<g id="edge12" class="edge">
<title>q11&#45;&gt;q12</title>
<path fill="none" stroke="black" d="M949.56,-29.52C959.57,-29.52 971.3,-29.52 982.16,-29.52"/>
<polygon fill="black" stroke="black" points="982.2,-33.02 992.2,-29.52 982.2,-26.02 982.2,-33.02"/>
<text text-anchor="middle" x="970.91" y="-33.72" font-family="Times,serif" font-size="14.00">h</text>
</g>
<!-- q13 -->
<g id="node15" class="node">
<title>q13</title>
<ellipse fill="none" stroke="black" cx="1113.14" cy="-29.52" rx="25.54" ry="25.54"/>
<text text-anchor="middle" x="1113.14" y="-25.32" font-family="Times,serif" font-size="14.00">q13</text>
</g>
<!-- q12&#45;&gt;q13 -->
<g id="edge13" class="edge">
<title>q12&#45;&gt;q13</title>
<path fill="none" stroke="black" d="M1043.91,-29.52C1054.13,-29.52 1066.13,-29.52 1077.19,-29.52"/>
<polygon fill="black" stroke="black" points="1077.42,-33.02 1087.42,-29.52 1077.42,-26.02 1077.42,-33.02"/>
<text text-anchor="middle" x="1065.54" y="-33.72" font-family="Times,serif" font-size="14.00">ε</text>
</g>
<!-- q14 -->
<g id="node16" class="node">
<title>q14</title>
<ellipse fill="none" stroke="black" cx="1204.07" cy="-29.52" rx="25.54" ry="25.54"/>
<text text-anchor="middle" x="1204.07" y="-25.32" font-family="Times,serif" font-size="14.00">q14</text>
</g>
<!-- q13&#45;&gt;q14 -->
<g id="edge14" class="edge">
<title>q13&#45;&gt;q14</title>
<path fill="none" stroke="black" d="M1138.91,-29.52C1147.97,-29.52 1158.4,-29.52 1168.17,-29.52"/>
<polygon fill="black" stroke="black" points="1168.43,-33.02 1178.43,-29.52 1168.43,-26.02 1168.43,-33.02"/>
<text text-anchor="middle" x="1158.61" y="-33.72" font-family="Times,serif" font-size="14.00">i</text>
</g>
<!-- q15 -->
<g id="node17" class="node">
<title>q15</title>
<ellipse fill="none" stroke="black" cx="1299.28" cy="-29.52" rx="25.54" ry="25.54"/>
<text text-anchor="middle" x="1299.28" y="-25.32" font-family="Times,serif" font-size="14.00">q15</text>
</g>
<!-- q14&#45;&gt;q15 -->
<g id="edge15" class="edge">
<title>q14&#45;&gt;q15</title>
<path fill="none" stroke="black" d="M1230.05,-29.52C1240.27,-29.52 1252.26,-29.52 1263.33,-29.52"/>
<polygon fill="black" stroke="black" points="1263.56,-33.02 1273.56,-29.52 1263.56,-26.02 1263.56,-33.02"/>
<text text-anchor="middle" x="1251.68" y="-33.72" font-family="Times,serif" font-size="14.00">ε</text>
</g>
<!-- q16 -->
<g id="node18" class="node">
<title>q16</title>
<ellipse fill="none" stroke="black" cx="1393.32" cy="-29.52" rx="25.54" ry="25.54"/>
<text text-anchor="middle" x="1393.32" y="-25.32" font-family="Times,serif" font-size="14.00">q16</text>
</g>
<!-- q15&#45;&gt;q16 -->
<g id="edge16" class="edge">
<title>q15&#45;&gt;q16</title>
<path fill="none" stroke="black" d="M1324.94,-29.52C1334.95,-29.52 1346.69,-29.52 1357.54,-29.52"/>
<polygon fill="black" stroke="black" points="1357.59,-33.02 1367.59,-29.52 1357.59,-26.02 1357.59,-33.02"/>
<text text-anchor="middle" x="1346.3" y="-33.72" font-family="Times,serif" font-size="14.00">n</text>
</g>
<!-- q17 -->
<g id="node19" class="node">
<title>q17</title>
<ellipse fill="none" stroke="black" cx="1488.53" cy="-29.52" rx="25.54" ry="25.54"/>
<text text-anchor="middle" x="1488.53" y="-25.32" font-family="Times,serif" font-size="14.00">q17</text>
</g>
<!-- q16&#45;&gt;q17 -->
<g id="edge17" class="edge">
<title>q16&#45;&gt;q17</title>
<path fill="none" stroke="black" d="M1419.3,-29.52C1429.52,-29.52 1441.51,-29.52 1452.57,-29.52"/>
<polygon fill="black" stroke="black" points="1452.8,-33.02 1462.8,-29.52 1452.8,-26.02 1452.8,-33.02"/>
<text text-anchor="middle" x="1440.92" y="-33.72" font-family="Times,serif" font-size="14.00">ε</text>
</g>
<!-- q17&#45;&gt;q18 -->
<g id="edge18" class="edge">
<title>q17&#45;&gt;q18</title>
<path fill="none" stroke="black" d="M1514.26,-29.52C1524.12,-29.52 1535.7,-29.52 1546.63,-29.52"/>
<polygon fill="black" stroke="black" points="1546.83,-33.02 1556.83,-29.52 1546.83,-26.02 1546.83,-33.02"/>
<text text-anchor="middle" x="1535.55" y="-33.72" font-family="Times,serif" font-size="14.00">g</text>
</g>
</g>
</svg>
