<?xml version="1.0" encoding="UTF-8" standalone="no"?>
<!DOCTYPE svg PUBLIC "-//W3C//DTD SVG 1.1//EN"
 "http://www.w3.org/Graphics/SVG/1.1/DTD/svg11.dtd">
<!-- Generated by graphviz version 2.44.0 (20200518.1210)
 -->
<!-- Title: G Pages: 1 -->
<svg width="100%" height="100%"
 viewBox="0.00 0.00 1096.00 304.00" xmlns="http://www.w3.org/2000/svg" xmlns:xlink="http://www.w3.org/1999/xlink">
<g id="graph0" class="graph" transform="scale(1 1) rotate(0) translate(4 300)">
<title>G</title>
<polygon fill="white" stroke="transparent" points="-4,4 -4,-300 1092,-300 1092,4 -4,4"/>
<!-- table -->
<g id="node1" class="node">
<title>table</title>
<polygon fill="none" stroke="black" points="9,-269 9,-291 109,-291 109,-269 9,-269"/>
<text text-anchor="start" x="11.96" y="-275.4" font-family="Times,serif" font-size="14.00">Terminals/States</text>
<polygon fill="none" stroke="black" points="109,-269 109,-291 152,-291 152,-269 109,-269"/>
<text text-anchor="start" x="125.05" y="-275.4" font-family="Times,serif" font-size="14.00">id</text>
<polygon fill="none" stroke="black" points="152,-269 152,-291 341,-291 341,-269 152,-269"/>
<text text-anchor="start" x="234.83" y="-275.4" font-family="Times,serif" font-size="14.00">plus</text>
<polygon fill="none" stroke="black" points="341,-269 341,-291 384,-291 384,-269 341,-269"/>
<text text-anchor="start" x="345.01" y="-275.4" font-family="Times,serif" font-size="14.00">lparen</text>
<polygon fill="none" stroke="black" points="384,-269 384,-291 573,-291 573,-269 384,-269"/>
<text text-anchor="start" x="460.62" y="-275.4" font-family="Times,serif" font-size="14.00">rparen</text>
<polygon fill="none" stroke="black" points="573,-269 573,-291 756,-291 756,-269 573,-269"/>
<text text-anchor="start" x="649.33" y="-275.4" font-family="Times,serif" font-size="14.00">times</text>
<polygon fill="none" stroke="black" points="756,-269 756,-291 945,-291 945,-269 756,-269"/>
<text text-anchor="start" x="847" y="-275.4" font-family="Times,serif" font-size="14.00">$</text>
<polygon fill="none" stroke="black" points="945,-269 945,-291 1010,-291 1010,-269 945,-269"/>
<text text-anchor="start" x="947.57" y="-275.4" font-family="Times,serif" font-size="14.00">expression</text>
<polygon fill="none" stroke="black" points="1010,-269 1010,-291 1041,-291 1041,-269 1010,-269"/>
<text text-anchor="start" x="1012.67" y="-275.4" font-family="Times,serif" font-size="14.00">term</text>
<polygon fill="none" stroke="black" points="1041,-269 1041,-291 1079,-291 1079,-269 1041,-269"/>
<text text-anchor="start" x="1043.68" y="-275.4" font-family="Times,serif" font-size="14.00">factor</text>
<polygon fill="none" stroke="black" points="9,-247 9,-269 109,-269 109,-247 9,-247"/>
<text text-anchor="start" x="53.17" y="-253.4" font-family="Times,serif" font-size="14.00">I0</text>
<polygon fill="none" stroke="black" points="109,-247 109,-269 152,-269 152,-247 109,-247"/>
<text text-anchor="start" x="124.28" y="-253.4" font-family="Times,serif" font-size="14.00">s4</text>
<polygon fill="none" stroke="black" points="152,-247 152,-269 341,-269 341,-247 152,-247"/>
<text text-anchor="start" x="227.84" y="-253.4" font-family="Times,serif" font-size="14.00">NULL</text>
<polygon fill="none" stroke="black" points="341,-247 341,-269 384,-269 384,-247 341,-247"/>
<text text-anchor="start" x="356.28" y="-253.4" font-family="Times,serif" font-size="14.00">s5</text>
<polygon fill="none" stroke="black" points="384,-247 384,-269 573,-269 573,-247 384,-247"/>
<text text-anchor="start" x="459.84" y="-253.4" font-family="Times,serif" font-size="14.00">NULL</text>
<polygon fill="none" stroke="black" points="573,-247 573,-269 756,-269 756,-247 573,-247"/>
<text text-anchor="start" x="645.84" y="-253.4" font-family="Times,serif" font-size="14.00">NULL</text>
<polygon fill="none" stroke="black" points="756,-247 756,-269 945,-269 945,-247 756,-247"/>
<text text-anchor="start" x="831.84" y="-253.4" font-family="Times,serif" font-size="14.00">NULL</text>
<polygon fill="none" stroke="black" points="945,-247 945,-269 1010,-269 1010,-247 945,-247"/>
<text text-anchor="start" x="974" y="-253.4" font-family="Times,serif" font-size="14.00">1</text>
<polygon fill="none" stroke="black" points="1010,-247 1010,-269 1041,-269 1041,-247 1010,-247"/>
<text text-anchor="start" x="1022" y="-253.4" font-family="Times,serif" font-size="14.00">2</text>
<polygon fill="none" stroke="black" points="1041,-247 1041,-269 1079,-269 1079,-247 1041,-247"/>
<text text-anchor="start" x="1056.5" y="-253.4" font-family="Times,serif" font-size="14.00">3</text>
<polygon fill="none" stroke="black" points="9,-225 9,-247 109,-247 109,-225 9,-225"/>
<text text-anchor="start" x="53.17" y="-231.4" font-family="Times,serif" font-size="14.00">I1</text>
<polygon fill="none" stroke="black" points="109,-225 109,-247 152,-247 152,-225 109,-225"/>
<text text-anchor="start" x="111.84" y="-231.4" font-family="Times,serif" font-size="14.00">NULL</text>
<polygon fill="none" stroke="black" points="152,-225 152,-247 341,-247 341,-225 152,-225"/>
<text text-anchor="start" x="240.28" y="-231.4" font-family="Times,serif" font-size="14.00">s6</text>
<polygon fill="none" stroke="black" points="341,-225 341,-247 384,-247 384,-225 341,-225"/>
<text text-anchor="start" x="343.84" y="-231.4" font-family="Times,serif" font-size="14.00">NULL</text>
<polygon fill="none" stroke="black" points="384,-225 384,-247 573,-247 573,-225 384,-225"/>
<text text-anchor="start" x="459.84" y="-231.4" font-family="Times,serif" font-size="14.00">NULL</text>
<polygon fill="none" stroke="black" points="573,-225 573,-247 756,-247 756,-225 573,-225"/>
<text text-anchor="start" x="645.84" y="-231.4" font-family="Times,serif" font-size="14.00">NULL</text>
<polygon fill="none" stroke="black" points="756,-225 756,-247 945,-247 945,-225 756,-225"/>
<text text-anchor="start" x="832.63" y="-231.4" font-family="Times,serif" font-size="14.00">accept</text>
<polygon fill="none" stroke="black" points="945,-225 945,-247 1010,-247 1010,-225 945,-225"/>
<text text-anchor="start" x="966.61" y="-231.4" font-family="Times,serif" font-size="14.00">null</text>
<polygon fill="none" stroke="black" points="1010,-225 1010,-247 1041,-247 1041,-225 1010,-225"/>
<text text-anchor="start" x="1014.61" y="-231.4" font-family="Times,serif" font-size="14.00">null</text>
<polygon fill="none" stroke="black" points="1041,-225 1041,-247 1079,-247 1079,-225 1041,-225"/>
<text text-anchor="start" x="1049.11" y="-231.4" font-family="Times,serif" font-size="14.00">null</text>
<polygon fill="none" stroke="black" points="9,-203 9,-225 109,-225 109,-203 9,-203"/>
<text text-anchor="start" x="53.17" y="-209.4" font-family="Times,serif" font-size="14.00">I2</text>
<polygon fill="none" stroke="black" points="109,-203 109,-225 152,-225 152,-203 109,-203"/>
<text text-anchor="start" x="111.84" y="-209.4" font-family="Times,serif" font-size="14.00">NULL</text>
<polygon fill="none" stroke="black" points="152,-203 152,-225 341,-225 341,-203 152,-203"/>
<text text-anchor="start" x="200.04" y="-209.4" font-family="Times,serif" font-size="14.00">expression: term</text>
<polygon fill="none" stroke="black" points="341,-203 341,-225 384,-225 384,-203 341,-203"/>
<text text-anchor="start" x="343.84" y="-209.4" font-family="Times,serif" font-size="14.00">NULL</text>
<polygon fill="none" stroke="black" points="384,-203 384,-225 573,-225 573,-203 384,-203"/>
<text text-anchor="start" x="432.04" y="-209.4" font-family="Times,serif" font-size="14.00">expression: term</text>
<polygon fill="none" stroke="black" points="573,-203 573,-225 756,-225 756,-203 573,-203"/>
<text text-anchor="start" x="658.28" y="-209.4" font-family="Times,serif" font-size="14.00">s7</text>
<polygon fill="none" stroke="black" points="756,-203 756,-225 945,-225 945,-203 756,-203"/>
<text text-anchor="start" x="804.04" y="-209.4" font-family="Times,serif" font-size="14.00">expression: term</text>
<polygon fill="none" stroke="black" points="945,-203 945,-225 1010,-225 1010,-203 945,-203"/>
<text text-anchor="start" x="966.61" y="-209.4" font-family="Times,serif" font-size="14.00">null</text>
<polygon fill="none" stroke="black" points="1010,-203 1010,-225 1041,-225 1041,-203 1010,-203"/>
<text text-anchor="start" x="1014.61" y="-209.4" font-family="Times,serif" font-size="14.00">null</text>
<polygon fill="none" stroke="black" points="1041,-203 1041,-225 1079,-225 1079,-203 1041,-203"/>
<text text-anchor="start" x="1049.11" y="-209.4" font-family="Times,serif" font-size="14.00">null</text>
<polygon fill="none" stroke="black" points="9,-181 9,-203 109,-203 109,-181 9,-181"/>
<text text-anchor="start" x="53.17" y="-187.4" font-family="Times,serif" font-size="14.00">I3</text>
<polygon fill="none" stroke="black" points="109,-181 109,-203 152,-203 152,-181 109,-181"/>
<text text-anchor="start" x="111.84" y="-187.4" font-family="Times,serif" font-size="14.00">NULL</text>
<polygon fill="none" stroke="black" points="152,-181 152,-203 341,-203 341,-181 152,-181"/>
<text text-anchor="start" x="213.66" y="-187.4" font-family="Times,serif" font-size="14.00">term: factor</text>
<polygon fill="none" stroke="black" points="341,-181 341,-203 384,-203 384,-181 341,-181"/>
<text text-anchor="start" x="343.84" y="-187.4" font-family="Times,serif" font-size="14.00">NULL</text>
<polygon fill="none" stroke="black" points="384,-181 384,-203 573,-203 573,-181 384,-181"/>
<text text-anchor="start" x="445.66" y="-187.4" font-family="Times,serif" font-size="14.00">term: factor</text>
<polygon fill="none" stroke="black" points="573,-181 573,-203 756,-203 756,-181 573,-181"/>
<text text-anchor="start" x="631.66" y="-187.4" font-family="Times,serif" font-size="14.00">term: factor</text>
<polygon fill="none" stroke="black" points="756,-181 756,-203 945,-203 945,-181 756,-181"/>
<text text-anchor="start" x="817.66" y="-187.4" font-family="Times,serif" font-size="14.00">term: factor</text>
<polygon fill="none" stroke="black" points="945,-181 945,-203 1010,-203 1010,-181 945,-181"/>
<text text-anchor="start" x="966.61" y="-187.4" font-family="Times,serif" font-size="14.00">null</text>
<polygon fill="none" stroke="black" points="1010,-181 1010,-203 1041,-203 1041,-181 1010,-181"/>
<text text-anchor="start" x="1014.61" y="-187.4" font-family="Times,serif" font-size="14.00">null</text>
<polygon fill="none" stroke="black" points="1041,-181 1041,-203 1079,-203 1079,-181 1041,-181"/>
<text text-anchor="start" x="1049.11" y="-187.4" font-family="Times,serif" font-size="14.00">null</text>
<polygon fill="none" stroke="black" points="9,-159 9,-181 109,-181 109,-159 9,-159"/>
<text text-anchor="start" x="53.17" y="-165.4" font-family="Times,serif" font-size="14.00">I4</text>
<polygon fill="none" stroke="black" points="109,-159 109,-181 152,-181 152,-159 109,-159"/>
<text text-anchor="start" x="111.84" y="-165.4" font-family="Times,serif" font-size="14.00">NULL</text>
<polygon fill="none" stroke="black" points="152,-159 152,-181 341,-181 341,-159 152,-159"/>
<text text-anchor="start" x="221.04" y="-165.4" font-family="Times,serif" font-size="14.00">factor: id</text>
<polygon fill="none" stroke="black" points="341,-159 341,-181 384,-181 384,-159 341,-159"/>
<text text-anchor="start" x="343.84" y="-165.4" font-family="Times,serif" font-size="14.00">NULL</text>
<polygon fill="none" stroke="black" points="384,-159 384,-181 573,-181 573,-159 384,-159"/>
<text text-anchor="start" x="453.04" y="-165.4" font-family="Times,serif" font-size="14.00">factor: id</text>
<polygon fill="none" stroke="black" points="573,-159 573,-181 756,-181 756,-159 573,-159"/>
<text text-anchor="start" x="639.04" y="-165.4" font-family="Times,serif" font-size="14.00">factor: id</text>
<polygon fill="none" stroke="black" points="756,-159 756,-181 945,-181 945,-159 756,-159"/>
<text text-anchor="start" x="825.04" y="-165.4" font-family="Times,serif" font-size="14.00">factor: id</text>
<polygon fill="none" stroke="black" points="945,-159 945,-181 1010,-181 1010,-159 945,-159"/>
<text text-anchor="start" x="966.61" y="-165.4" font-family="Times,serif" font-size="14.00">null</text>
<polygon fill="none" stroke="black" points="1010,-159 1010,-181 1041,-181 1041,-159 1010,-159"/>
<text text-anchor="start" x="1014.61" y="-165.4" font-family="Times,serif" font-size="14.00">null</text>
<polygon fill="none" stroke="black" points="1041,-159 1041,-181 1079,-181 1079,-159 1041,-159"/>
<text text-anchor="start" x="1049.11" y="-165.4" font-family="Times,serif" font-size="14.00">null</text>
<polygon fill="none" stroke="black" points="9,-137 9,-159 109,-159 109,-137 9,-137"/>
<text text-anchor="start" x="53.17" y="-143.4" font-family="Times,serif" font-size="14.00">I5</text>
<polygon fill="none" stroke="black" points="109,-137 109,-159 152,-159 152,-137 109,-137"/>
<text text-anchor="start" x="124.28" y="-143.4" font-family="Times,serif" font-size="14.00">s4</text>
<polygon fill="none" stroke="black" points="152,-137 152,-159 341,-159 341,-137 152,-137"/>
<text text-anchor="start" x="227.84" y="-143.4" font-family="Times,serif" font-size="14.00">NULL</text>
<polygon fill="none" stroke="black" points="341,-137 341,-159 384,-159 384,-137 341,-137"/>
<text text-anchor="start" x="356.28" y="-143.4" font-family="Times,serif" font-size="14.00">s5</text>
<polygon fill="none" stroke="black" points="384,-137 384,-159 573,-159 573,-137 384,-137"/>
<text text-anchor="start" x="459.84" y="-143.4" font-family="Times,serif" font-size="14.00">NULL</text>
<polygon fill="none" stroke="black" points="573,-137 573,-159 756,-159 756,-137 573,-137"/>
<text text-anchor="start" x="645.84" y="-143.4" font-family="Times,serif" font-size="14.00">NULL</text>
<polygon fill="none" stroke="black" points="756,-137 756,-159 945,-159 945,-137 756,-137"/>
<text text-anchor="start" x="831.84" y="-143.4" font-family="Times,serif" font-size="14.00">NULL</text>
<polygon fill="none" stroke="black" points="945,-137 945,-159 1010,-159 1010,-137 945,-137"/>
<text text-anchor="start" x="974" y="-143.4" font-family="Times,serif" font-size="14.00">8</text>
<polygon fill="none" stroke="black" points="1010,-137 1010,-159 1041,-159 1041,-137 1010,-137"/>
<text text-anchor="start" x="1022" y="-143.4" font-family="Times,serif" font-size="14.00">2</text>
<polygon fill="none" stroke="black" points="1041,-137 1041,-159 1079,-159 1079,-137 1041,-137"/>
<text text-anchor="start" x="1056.5" y="-143.4" font-family="Times,serif" font-size="14.00">3</text>
<polygon fill="none" stroke="black" points="9,-115 9,-137 109,-137 109,-115 9,-115"/>
<text text-anchor="start" x="53.17" y="-121.4" font-family="Times,serif" font-size="14.00">I6</text>
<polygon fill="none" stroke="black" points="109,-115 109,-137 152,-137 152,-115 109,-115"/>
<text text-anchor="start" x="124.28" y="-121.4" font-family="Times,serif" font-size="14.00">s4</text>
<polygon fill="none" stroke="black" points="152,-115 152,-137 341,-137 341,-115 152,-115"/>
<text text-anchor="start" x="227.84" y="-121.4" font-family="Times,serif" font-size="14.00">NULL</text>
<polygon fill="none" stroke="black" points="341,-115 341,-137 384,-137 384,-115 341,-115"/>
<text text-anchor="start" x="356.28" y="-121.4" font-family="Times,serif" font-size="14.00">s5</text>
<polygon fill="none" stroke="black" points="384,-115 384,-137 573,-137 573,-115 384,-115"/>
<text text-anchor="start" x="459.84" y="-121.4" font-family="Times,serif" font-size="14.00">NULL</text>
<polygon fill="none" stroke="black" points="573,-115 573,-137 756,-137 756,-115 573,-115"/>
<text text-anchor="start" x="645.84" y="-121.4" font-family="Times,serif" font-size="14.00">NULL</text>
<polygon fill="none" stroke="black" points="756,-115 756,-137 945,-137 945,-115 756,-115"/>
<text text-anchor="start" x="831.84" y="-121.4" font-family="Times,serif" font-size="14.00">NULL</text>
<polygon fill="none" stroke="black" points="945,-115 945,-137 1010,-137 1010,-115 945,-115"/>
<text text-anchor="start" x="966.61" y="-121.4" font-family="Times,serif" font-size="14.00">null</text>
<polygon fill="none" stroke="black" points="1010,-115 1010,-137 1041,-137 1041,-115 1010,-115"/>
<text text-anchor="start" x="1022" y="-121.4" font-family="Times,serif" font-size="14.00">9</text>
<polygon fill="none" stroke="black" points="1041,-115 1041,-137 1079,-137 1079,-115 1041,-115"/>
<text text-anchor="start" x="1056.5" y="-121.4" font-family="Times,serif" font-size="14.00">3</text>
<polygon fill="none" stroke="black" points="9,-93 9,-115 109,-115 109,-93 9,-93"/>
<text text-anchor="start" x="53.17" y="-99.4" font-family="Times,serif" font-size="14.00">I7</text>
<polygon fill="none" stroke="black" points="109,-93 109,-115 152,-115 152,-93 109,-93"/>
<text text-anchor="start" x="124.28" y="-99.4" font-family="Times,serif" font-size="14.00">s4</text>
<polygon fill="none" stroke="black" points="152,-93 152,-115 341,-115 341,-93 152,-93"/>
<text text-anchor="start" x="227.84" y="-99.4" font-family="Times,serif" font-size="14.00">NULL</text>
<polygon fill="none" stroke="black" points="341,-93 341,-115 384,-115 384,-93 341,-93"/>
<text text-anchor="start" x="356.28" y="-99.4" font-family="Times,serif" font-size="14.00">s5</text>
<polygon fill="none" stroke="black" points="384,-93 384,-115 573,-115 573,-93 384,-93"/>
<text text-anchor="start" x="459.84" y="-99.4" font-family="Times,serif" font-size="14.00">NULL</text>
<polygon fill="none" stroke="black" points="573,-93 573,-115 756,-115 756,-93 573,-93"/>
<text text-anchor="start" x="645.84" y="-99.4" font-family="Times,serif" font-size="14.00">NULL</text>
<polygon fill="none" stroke="black" points="756,-93 756,-115 945,-115 945,-93 756,-93"/>
<text text-anchor="start" x="831.84" y="-99.4" font-family="Times,serif" font-size="14.00">NULL</text>
<polygon fill="none" stroke="black" points="945,-93 945,-115 1010,-115 1010,-93 945,-93"/>
<text text-anchor="start" x="966.61" y="-99.4" font-family="Times,serif" font-size="14.00">null</text>
<polygon fill="none" stroke="black" points="1010,-93 1010,-115 1041,-115 1041,-93 1010,-93"/>
<text text-anchor="start" x="1014.61" y="-99.4" font-family="Times,serif" font-size="14.00">null</text>
<polygon fill="none" stroke="black" points="1041,-93 1041,-115 1079,-115 1079,-93 1041,-93"/>
<text text-anchor="start" x="1053" y="-99.4" font-family="Times,serif" font-size="14.00">10</text>
<polygon fill="none" stroke="black" points="9,-71 9,-93 109,-93 109,-71 9,-71"/>
<text text-anchor="start" x="53.17" y="-77.4" font-family="Times,serif" font-size="14.00">I8</text>
<polygon fill="none" stroke="black" points="109,-71 109,-93 152,-93 152,-71 109,-71"/>
<text text-anchor="start" x="111.84" y="-77.4" font-family="Times,serif" font-size="14.00">NULL</text>
<polygon fill="none" stroke="black" points="152,-71 152,-93 341,-93 341,-71 152,-71"/>
<text text-anchor="start" x="240.28" y="-77.4" font-family="Times,serif" font-size="14.00">s6</text>
<polygon fill="none" stroke="black" points="341,-71 341,-93 384,-93 384,-71 341,-71"/>
<text text-anchor="start" x="343.84" y="-77.4" font-family="Times,serif" font-size="14.00">NULL</text>
<polygon fill="none" stroke="black" points="384,-71 384,-93 573,-93 573,-71 384,-71"/>
<text text-anchor="start" x="468.78" y="-77.4" font-family="Times,serif" font-size="14.00">s11</text>
<polygon fill="none" stroke="black" points="573,-71 573,-93 756,-93 756,-71 573,-71"/>
<text text-anchor="start" x="645.84" y="-77.4" font-family="Times,serif" font-size="14.00">NULL</text>
<polygon fill="none" stroke="black" points="756,-71 756,-93 945,-93 945,-71 756,-71"/>
<text text-anchor="start" x="831.84" y="-77.4" font-family="Times,serif" font-size="14.00">NULL</text>
<polygon fill="none" stroke="black" points="945,-71 945,-93 1010,-93 1010,-71 945,-71"/>
<text text-anchor="start" x="966.61" y="-77.4" font-family="Times,serif" font-size="14.00">null</text>
<polygon fill="none" stroke="black" points="1010,-71 1010,-93 1041,-93 1041,-71 1010,-71"/>
<text text-anchor="start" x="1014.61" y="-77.4" font-family="Times,serif" font-size="14.00">null</text>
<polygon fill="none" stroke="black" points="1041,-71 1041,-93 1079,-93 1079,-71 1041,-71"/>
<text text-anchor="start" x="1049.11" y="-77.4" font-family="Times,serif" font-size="14.00">null</text>
<polygon fill="none" stroke="black" points="9,-49 9,-71 109,-71 109,-49 9,-49"/>
<text text-anchor="start" x="53.17" y="-55.4" font-family="Times,serif" font-size="14.00">I9</text>
<polygon fill="none" stroke="black" points="109,-49 109,-71 152,-71 152,-49 109,-49"/>
<text text-anchor="start" x="111.84" y="-55.4" font-family="Times,serif" font-size="14.00">NULL</text>
<polygon fill="none" stroke="black" points="152,-49 152,-71 341,-71 341,-49 152,-49"/>
<text text-anchor="start" x="154.94" y="-55.4" font-family="Times,serif" font-size="14.00">expression: expression plus term</text>
<polygon fill="none" stroke="black" points="341,-49 341,-71 384,-71 384,-49 341,-49"/>
<text text-anchor="start" x="343.84" y="-55.4" font-family="Times,serif" font-size="14.00">NULL</text>
<polygon fill="none" stroke="black" points="384,-49 384,-71 573,-71 573,-49 384,-49"/>
<text text-anchor="start" x="386.94" y="-55.4" font-family="Times,serif" font-size="14.00">expression: expression plus term</text>
<polygon fill="none" stroke="black" points="573,-49 573,-71 756,-71 756,-49 573,-49"/>
<text text-anchor="start" x="658.28" y="-55.4" font-family="Times,serif" font-size="14.00">s7</text>
<polygon fill="none" stroke="black" points="756,-49 756,-71 945,-71 945,-49 756,-49"/>
<text text-anchor="start" x="758.94" y="-55.4" font-family="Times,serif" font-size="14.00">expression: expression plus term</text>
<polygon fill="none" stroke="black" points="945,-49 945,-71 1010,-71 1010,-49 945,-49"/>
<text text-anchor="start" x="966.61" y="-55.4" font-family="Times,serif" font-size="14.00">null</text>
<polygon fill="none" stroke="black" points="1010,-49 1010,-71 1041,-71 1041,-49 1010,-49"/>
<text text-anchor="start" x="1014.61" y="-55.4" font-family="Times,serif" font-size="14.00">null</text>
<polygon fill="none" stroke="black" points="1041,-49 1041,-71 1079,-71 1079,-49 1041,-49"/>
<text text-anchor="start" x="1049.11" y="-55.4" font-family="Times,serif" font-size="14.00">null</text>
<polygon fill="none" stroke="black" points="9,-27 9,-49 109,-49 109,-27 9,-27"/>
<text text-anchor="start" x="49.67" y="-33.4" font-family="Times,serif" font-size="14.00">I10</text>
<polygon fill="none" stroke="black" points="109,-27 109,-49 152,-49 152,-27 109,-27"/>
<text text-anchor="start" x="111.84" y="-33.4" font-family="Times,serif" font-size="14.00">NULL</text>
<polygon fill="none" stroke="black" points="152,-27 152,-49 341,-49 341,-27 152,-27"/>
<text text-anchor="start" x="182.16" y="-33.4" font-family="Times,serif" font-size="14.00">term: term times factor</text>
<polygon fill="none" stroke="black" points="341,-27 341,-49 384,-49 384,-27 341,-27"/>
<text text-anchor="start" x="343.84" y="-33.4" font-family="Times,serif" font-size="14.00">NULL</text>
<polygon fill="none" stroke="black" points="384,-27 384,-49 573,-49 573,-27 384,-27"/>
<text text-anchor="start" x="414.16" y="-33.4" font-family="Times,serif" font-size="14.00">term: term times factor</text>
<polygon fill="none" stroke="black" points="573,-27 573,-49 756,-49 756,-27 573,-27"/>
<text text-anchor="start" x="600.16" y="-33.4" font-family="Times,serif" font-size="14.00">term: term times factor</text>
<polygon fill="none" stroke="black" points="756,-27 756,-49 945,-49 945,-27 756,-27"/>
<text text-anchor="start" x="786.16" y="-33.4" font-family="Times,serif" font-size="14.00">term: term times factor</text>
<polygon fill="none" stroke="black" points="945,-27 945,-49 1010,-49 1010,-27 945,-27"/>
<text text-anchor="start" x="966.61" y="-33.4" font-family="Times,serif" font-size="14.00">null</text>
<polygon fill="none" stroke="black" points="1010,-27 1010,-49 1041,-49 1041,-27 1010,-27"/>
<text text-anchor="start" x="1014.61" y="-33.4" font-family="Times,serif" font-size="14.00">null</text>
<polygon fill="none" stroke="black" points="1041,-27 1041,-49 1079,-49 1079,-27 1041,-27"/>
<text text-anchor="start" x="1049.11" y="-33.4" font-family="Times,serif" font-size="14.00">null</text>
<polygon fill="none" stroke="black" points="9,-5 9,-27 109,-27 109,-5 9,-5"/>
<text text-anchor="start" x="49.67" y="-11.4" font-family="Times,serif" font-size="14.00">I11</text>
<polygon fill="none" stroke="black" points="109,-5 109,-27 152,-27 152,-5 109,-5"/>
<text text-anchor="start" x="111.84" y="-11.4" font-family="Times,serif" font-size="14.00">NULL</text>
<polygon fill="none" stroke="black" points="152,-5 152,-27 341,-27 341,-5 152,-5"/>
<text text-anchor="start" x="157.68" y="-11.4" font-family="Times,serif" font-size="14.00">factor: lparen expression rparen</text>
<polygon fill="none" stroke="black" points="341,-5 341,-27 384,-27 384,-5 341,-5"/>
<text text-anchor="start" x="343.84" y="-11.4" font-family="Times,serif" font-size="14.00">NULL</text>
<polygon fill="none" stroke="black" points="384,-5 384,-27 573,-27 573,-5 384,-5"/>
<text text-anchor="start" x="389.68" y="-11.4" font-family="Times,serif" font-size="14.00">factor: lparen expression rparen</text>
<polygon fill="none" stroke="black" points="573,-5 573,-27 756,-27 756,-5 573,-5"/>
<text text-anchor="start" x="575.68" y="-11.4" font-family="Times,serif" font-size="14.00">factor: lparen expression rparen</text>
<polygon fill="none" stroke="black" points="756,-5 756,-27 945,-27 945,-5 756,-5"/>
<text text-anchor="start" x="761.68" y="-11.4" font-family="Times,serif" font-size="14.00">factor: lparen expression rparen</text>
<polygon fill="none" stroke="black" points="945,-5 945,-27 1010,-27 1010,-5 945,-5"/>
<text text-anchor="start" x="966.61" y="-11.4" font-family="Times,serif" font-size="14.00">null</text>
<polygon fill="none" stroke="black" points="1010,-5 1010,-27 1041,-27 1041,-5 1010,-5"/>
<text text-anchor="start" x="1014.61" y="-11.4" font-family="Times,serif" font-size="14.00">null</text>
<polygon fill="none" stroke="black" points="1041,-5 1041,-27 1079,-27 1079,-5 1041,-5"/>
<text text-anchor="start" x="1049.11" y="-11.4" font-family="Times,serif" font-size="14.00">null</text>
<polygon fill="none" stroke="black" points="8,-4 8,-292 1080,-292 1080,-4 8,-4"/>
</g>
</g>
</svg>
