<?xml version="1.0" encoding="UTF-8" standalone="no"?>
<!DOCTYPE svg PUBLIC "-//W3C//DTD SVG 1.1//EN"
 "http://www.w3.org/Graphics/SVG/1.1/DTD/svg11.dtd">
<!-- Generated by graphviz version 2.44.0 (20200518.1210)
 -->
<!-- Title: G Pages: 1 -->
<svg width="100%" height="100%"
 viewBox="0.00 0.00 1123.00 304.00" xmlns="http://www.w3.org/2000/svg" xmlns:xlink="http://www.w3.org/1999/xlink">
<g id="graph0" class="graph" transform="scale(1 1) rotate(0) translate(4 300)">
<title>G</title>
<polygon fill="white" stroke="transparent" points="-4,4 -4,-300 1119,-300 1119,4 -4,4"/>
<!-- table -->
<g id="node1" class="node">
<title>table</title>
<polygon fill="none" stroke="black" points="9.5,-269 9.5,-291 109.5,-291 109.5,-269 9.5,-269"/>
<text text-anchor="start" x="12.46" y="-275.4" font-family="Times,serif" font-size="14.00">Terminals/States</text>
<polygon fill="none" stroke="black" points="109.5,-269 109.5,-291 152.5,-291 152.5,-269 109.5,-269"/>
<text text-anchor="start" x="125.55" y="-275.4" font-family="Times,serif" font-size="14.00">id</text>
<polygon fill="none" stroke="black" points="152.5,-269 152.5,-291 341.5,-291 341.5,-269 152.5,-269"/>
<text text-anchor="start" x="235.33" y="-275.4" font-family="Times,serif" font-size="14.00">plus</text>
<polygon fill="none" stroke="black" points="341.5,-269 341.5,-291 384.5,-291 384.5,-269 341.5,-269"/>
<text text-anchor="start" x="345.51" y="-275.4" font-family="Times,serif" font-size="14.00">lparen</text>
<polygon fill="none" stroke="black" points="384.5,-269 384.5,-291 573.5,-291 573.5,-269 384.5,-269"/>
<text text-anchor="start" x="461.12" y="-275.4" font-family="Times,serif" font-size="14.00">rparen</text>
<polygon fill="none" stroke="black" points="573.5,-269 573.5,-291 756.5,-291 756.5,-269 573.5,-269"/>
<text text-anchor="start" x="649.83" y="-275.4" font-family="Times,serif" font-size="14.00">times</text>
<polygon fill="none" stroke="black" points="756.5,-269 756.5,-291 945.5,-291 945.5,-269 756.5,-269"/>
<text text-anchor="start" x="847.5" y="-275.4" font-family="Times,serif" font-size="14.00">$</text>
<polygon fill="none" stroke="black" points="945.5,-269 945.5,-291 1010.5,-291 1010.5,-269 945.5,-269"/>
<text text-anchor="start" x="948.07" y="-275.4" font-family="Times,serif" font-size="14.00">expression</text>
<polygon fill="none" stroke="black" points="1010.5,-269 1010.5,-291 1041.5,-291 1041.5,-269 1010.5,-269"/>
<text text-anchor="start" x="1013.17" y="-275.4" font-family="Times,serif" font-size="14.00">term</text>
<polygon fill="none" stroke="black" points="1041.5,-269 1041.5,-291 1079.5,-291 1079.5,-269 1041.5,-269"/>
<text text-anchor="start" x="1044.18" y="-275.4" font-family="Times,serif" font-size="14.00">factor</text>
<polygon fill="none" stroke="black" points="9.5,-247 9.5,-269 109.5,-269 109.5,-247 9.5,-247"/>
<text text-anchor="start" x="53.67" y="-253.4" font-family="Times,serif" font-size="14.00">I0</text>
<polygon fill="none" stroke="black" points="109.5,-247 109.5,-269 152.5,-269 152.5,-247 109.5,-247"/>
<text text-anchor="start" x="124.78" y="-253.4" font-family="Times,serif" font-size="14.00">s4</text>
<polygon fill="none" stroke="black" points="152.5,-247 152.5,-269 341.5,-269 341.5,-247 152.5,-247"/>
<text text-anchor="start" x="228.34" y="-253.4" font-family="Times,serif" font-size="14.00">NULL</text>
<polygon fill="none" stroke="black" points="341.5,-247 341.5,-269 384.5,-269 384.5,-247 341.5,-247"/>
<text text-anchor="start" x="356.78" y="-253.4" font-family="Times,serif" font-size="14.00">s5</text>
<polygon fill="none" stroke="black" points="384.5,-247 384.5,-269 573.5,-269 573.5,-247 384.5,-247"/>
<text text-anchor="start" x="460.34" y="-253.4" font-family="Times,serif" font-size="14.00">NULL</text>
<polygon fill="none" stroke="black" points="573.5,-247 573.5,-269 756.5,-269 756.5,-247 573.5,-247"/>
<text text-anchor="start" x="646.34" y="-253.4" font-family="Times,serif" font-size="14.00">NULL</text>
<polygon fill="none" stroke="black" points="756.5,-247 756.5,-269 945.5,-269 945.5,-247 756.5,-247"/>
<text text-anchor="start" x="832.34" y="-253.4" font-family="Times,serif" font-size="14.00">NULL</text>
<polygon fill="none" stroke="black" points="945.5,-247 945.5,-269 1010.5,-269 1010.5,-247 945.5,-247"/>
<text text-anchor="start" x="974.5" y="-253.4" font-family="Times,serif" font-size="14.00">1</text>
<polygon fill="none" stroke="black" points="1010.5,-247 1010.5,-269 1041.5,-269 1041.5,-247 1010.5,-247"/>
<text text-anchor="start" x="1022.5" y="-253.4" font-family="Times,serif" font-size="14.00">2</text>
<polygon fill="none" stroke="black" points="1041.5,-247 1041.5,-269 1079.5,-269 1079.5,-247 1041.5,-247"/>
<text text-anchor="start" x="1057" y="-253.4" font-family="Times,serif" font-size="14.00">3</text>
<polygon fill="none" stroke="black" points="1079.5,-247 1079.5,-269 1106.5,-269 1106.5,-247 1079.5,-247"/>
<text text-anchor="start" x="1082.11" y="-253.4" font-family="Times,serif" font-size="14.00">null</text>
<polygon fill="none" stroke="black" points="9.5,-225 9.5,-247 109.5,-247 109.5,-225 9.5,-225"/>
<text text-anchor="start" x="53.67" y="-231.4" font-family="Times,serif" font-size="14.00">I1</text>
<polygon fill="none" stroke="black" points="109.5,-225 109.5,-247 152.5,-247 152.5,-225 109.5,-225"/>
<text text-anchor="start" x="112.34" y="-231.4" font-family="Times,serif" font-size="14.00">NULL</text>
<polygon fill="none" stroke="black" points="152.5,-225 152.5,-247 341.5,-247 341.5,-225 152.5,-225"/>
<text text-anchor="start" x="240.78" y="-231.4" font-family="Times,serif" font-size="14.00">s6</text>
<polygon fill="none" stroke="black" points="341.5,-225 341.5,-247 384.5,-247 384.5,-225 341.5,-225"/>
<text text-anchor="start" x="344.34" y="-231.4" font-family="Times,serif" font-size="14.00">NULL</text>
<polygon fill="none" stroke="black" points="384.5,-225 384.5,-247 573.5,-247 573.5,-225 384.5,-225"/>
<text text-anchor="start" x="460.34" y="-231.4" font-family="Times,serif" font-size="14.00">NULL</text>
<polygon fill="none" stroke="black" points="573.5,-225 573.5,-247 756.5,-247 756.5,-225 573.5,-225"/>
<text text-anchor="start" x="646.34" y="-231.4" font-family="Times,serif" font-size="14.00">NULL</text>
<polygon fill="none" stroke="black" points="756.5,-225 756.5,-247 945.5,-247 945.5,-225 756.5,-225"/>
<text text-anchor="start" x="833.13" y="-231.4" font-family="Times,serif" font-size="14.00">accept</text>
<polygon fill="none" stroke="black" points="945.5,-225 945.5,-247 1010.5,-247 1010.5,-225 945.5,-225"/>
<text text-anchor="start" x="967.11" y="-231.4" font-family="Times,serif" font-size="14.00">null</text>
<polygon fill="none" stroke="black" points="1010.5,-225 1010.5,-247 1041.5,-247 1041.5,-225 1010.5,-225"/>
<text text-anchor="start" x="1015.11" y="-231.4" font-family="Times,serif" font-size="14.00">null</text>
<polygon fill="none" stroke="black" points="1041.5,-225 1041.5,-247 1079.5,-247 1079.5,-225 1041.5,-225"/>
<text text-anchor="start" x="1049.61" y="-231.4" font-family="Times,serif" font-size="14.00">null</text>
<polygon fill="none" stroke="black" points="1079.5,-225 1079.5,-247 1106.5,-247 1106.5,-225 1079.5,-225"/>
<text text-anchor="start" x="1082.11" y="-231.4" font-family="Times,serif" font-size="14.00">null</text>
<polygon fill="none" stroke="black" points="9.5,-203 9.5,-225 109.5,-225 109.5,-203 9.5,-203"/>
<text text-anchor="start" x="53.67" y="-209.4" font-family="Times,serif" font-size="14.00">I2</text>
<polygon fill="none" stroke="black" points="109.5,-203 109.5,-225 152.5,-225 152.5,-203 109.5,-203"/>
<text text-anchor="start" x="112.34" y="-209.4" font-family="Times,serif" font-size="14.00">NULL</text>
<polygon fill="none" stroke="black" points="152.5,-203 152.5,-225 341.5,-225 341.5,-203 152.5,-203"/>
<text text-anchor="start" x="200.54" y="-209.4" font-family="Times,serif" font-size="14.00">expression: term</text>
<polygon fill="none" stroke="black" points="341.5,-203 341.5,-225 384.5,-225 384.5,-203 341.5,-203"/>
<text text-anchor="start" x="344.34" y="-209.4" font-family="Times,serif" font-size="14.00">NULL</text>
<polygon fill="none" stroke="black" points="384.5,-203 384.5,-225 573.5,-225 573.5,-203 384.5,-203"/>
<text text-anchor="start" x="432.54" y="-209.4" font-family="Times,serif" font-size="14.00">expression: term</text>
<polygon fill="none" stroke="black" points="573.5,-203 573.5,-225 756.5,-225 756.5,-203 573.5,-203"/>
<text text-anchor="start" x="658.78" y="-209.4" font-family="Times,serif" font-size="14.00">s7</text>
<polygon fill="none" stroke="black" points="756.5,-203 756.5,-225 945.5,-225 945.5,-203 756.5,-203"/>
<text text-anchor="start" x="804.54" y="-209.4" font-family="Times,serif" font-size="14.00">expression: term</text>
<polygon fill="none" stroke="black" points="945.5,-203 945.5,-225 1010.5,-225 1010.5,-203 945.5,-203"/>
<text text-anchor="start" x="967.11" y="-209.4" font-family="Times,serif" font-size="14.00">null</text>
<polygon fill="none" stroke="black" points="1010.5,-203 1010.5,-225 1041.5,-225 1041.5,-203 1010.5,-203"/>
<text text-anchor="start" x="1015.11" y="-209.4" font-family="Times,serif" font-size="14.00">null</text>
<polygon fill="none" stroke="black" points="1041.5,-203 1041.5,-225 1079.5,-225 1079.5,-203 1041.5,-203"/>
<text text-anchor="start" x="1049.61" y="-209.4" font-family="Times,serif" font-size="14.00">null</text>
<polygon fill="none" stroke="black" points="1079.5,-203 1079.5,-225 1106.5,-225 1106.5,-203 1079.5,-203"/>
<text text-anchor="start" x="1082.11" y="-209.4" font-family="Times,serif" font-size="14.00">null</text>
<polygon fill="none" stroke="black" points="9.5,-181 9.5,-203 109.5,-203 109.5,-181 9.5,-181"/>
<text text-anchor="start" x="53.67" y="-187.4" font-family="Times,serif" font-size="14.00">I3</text>
<polygon fill="none" stroke="black" points="109.5,-181 109.5,-203 152.5,-203 152.5,-181 109.5,-181"/>
<text text-anchor="start" x="112.34" y="-187.4" font-family="Times,serif" font-size="14.00">NULL</text>
<polygon fill="none" stroke="black" points="152.5,-181 152.5,-203 341.5,-203 341.5,-181 152.5,-181"/>
<text text-anchor="start" x="214.16" y="-187.4" font-family="Times,serif" font-size="14.00">term: factor</text>
<polygon fill="none" stroke="black" points="341.5,-181 341.5,-203 384.5,-203 384.5,-181 341.5,-181"/>
<text text-anchor="start" x="344.34" y="-187.4" font-family="Times,serif" font-size="14.00">NULL</text>
<polygon fill="none" stroke="black" points="384.5,-181 384.5,-203 573.5,-203 573.5,-181 384.5,-181"/>
<text text-anchor="start" x="446.16" y="-187.4" font-family="Times,serif" font-size="14.00">term: factor</text>
<polygon fill="none" stroke="black" points="573.5,-181 573.5,-203 756.5,-203 756.5,-181 573.5,-181"/>
<text text-anchor="start" x="632.16" y="-187.4" font-family="Times,serif" font-size="14.00">term: factor</text>
<polygon fill="none" stroke="black" points="756.5,-181 756.5,-203 945.5,-203 945.5,-181 756.5,-181"/>
<text text-anchor="start" x="818.16" y="-187.4" font-family="Times,serif" font-size="14.00">term: factor</text>
<polygon fill="none" stroke="black" points="945.5,-181 945.5,-203 1010.5,-203 1010.5,-181 945.5,-181"/>
<text text-anchor="start" x="967.11" y="-187.4" font-family="Times,serif" font-size="14.00">null</text>
<polygon fill="none" stroke="black" points="1010.5,-181 1010.5,-203 1041.5,-203 1041.5,-181 1010.5,-181"/>
<text text-anchor="start" x="1015.11" y="-187.4" font-family="Times,serif" font-size="14.00">null</text>
<polygon fill="none" stroke="black" points="1041.5,-181 1041.5,-203 1079.5,-203 1079.5,-181 1041.5,-181"/>
<text text-anchor="start" x="1049.61" y="-187.4" font-family="Times,serif" font-size="14.00">null</text>
<polygon fill="none" stroke="black" points="1079.5,-181 1079.5,-203 1106.5,-203 1106.5,-181 1079.5,-181"/>
<text text-anchor="start" x="1082.11" y="-187.4" font-family="Times,serif" font-size="14.00">null</text>
<polygon fill="none" stroke="black" points="9.5,-159 9.5,-181 109.5,-181 109.5,-159 9.5,-159"/>
<text text-anchor="start" x="53.67" y="-165.4" font-family="Times,serif" font-size="14.00">I4</text>
<polygon fill="none" stroke="black" points="109.5,-159 109.5,-181 152.5,-181 152.5,-159 109.5,-159"/>
<text text-anchor="start" x="112.34" y="-165.4" font-family="Times,serif" font-size="14.00">NULL</text>
<polygon fill="none" stroke="black" points="152.5,-159 152.5,-181 341.5,-181 341.5,-159 152.5,-159"/>
<text text-anchor="start" x="221.54" y="-165.4" font-family="Times,serif" font-size="14.00">factor: id</text>
<polygon fill="none" stroke="black" points="341.5,-159 341.5,-181 384.5,-181 384.5,-159 341.5,-159"/>
<text text-anchor="start" x="344.34" y="-165.4" font-family="Times,serif" font-size="14.00">NULL</text>
<polygon fill="none" stroke="black" points="384.5,-159 384.5,-181 573.5,-181 573.5,-159 384.5,-159"/>
<text text-anchor="start" x="453.54" y="-165.4" font-family="Times,serif" font-size="14.00">factor: id</text>
<polygon fill="none" stroke="black" points="573.5,-159 573.5,-181 756.5,-181 756.5,-159 573.5,-159"/>
<text text-anchor="start" x="639.54" y="-165.4" font-family="Times,serif" font-size="14.00">factor: id</text>
<polygon fill="none" stroke="black" points="756.5,-159 756.5,-181 945.5,-181 945.5,-159 756.5,-159"/>
<text text-anchor="start" x="825.54" y="-165.4" font-family="Times,serif" font-size="14.00">factor: id</text>
<polygon fill="none" stroke="black" points="945.5,-159 945.5,-181 1010.5,-181 1010.5,-159 945.5,-159"/>
<text text-anchor="start" x="967.11" y="-165.4" font-family="Times,serif" font-size="14.00">null</text>
<polygon fill="none" stroke="black" points="1010.5,-159 1010.5,-181 1041.5,-181 1041.5,-159 1010.5,-159"/>
<text text-anchor="start" x="1015.11" y="-165.4" font-family="Times,serif" font-size="14.00">null</text>
<polygon fill="none" stroke="black" points="1041.5,-159 1041.5,-181 1079.5,-181 1079.5,-159 1041.5,-159"/>
<text text-anchor="start" x="1049.61" y="-165.4" font-family="Times,serif" font-size="14.00">null</text>
<polygon fill="none" stroke="black" points="1079.5,-159 1079.5,-181 1106.5,-181 1106.5,-159 1079.5,-159"/>
<text text-anchor="start" x="1082.11" y="-165.4" font-family="Times,serif" font-size="14.00">null</text>
<polygon fill="none" stroke="black" points="9.5,-137 9.5,-159 109.5,-159 109.5,-137 9.5,-137"/>
<text text-anchor="start" x="53.67" y="-143.4" font-family="Times,serif" font-size="14.00">I5</text>
<polygon fill="none" stroke="black" points="109.5,-137 109.5,-159 152.5,-159 152.5,-137 109.5,-137"/>
<text text-anchor="start" x="124.78" y="-143.4" font-family="Times,serif" font-size="14.00">s4</text>
<polygon fill="none" stroke="black" points="152.5,-137 152.5,-159 341.5,-159 341.5,-137 152.5,-137"/>
<text text-anchor="start" x="228.34" y="-143.4" font-family="Times,serif" font-size="14.00">NULL</text>
<polygon fill="none" stroke="black" points="341.5,-137 341.5,-159 384.5,-159 384.5,-137 341.5,-137"/>
<text text-anchor="start" x="356.78" y="-143.4" font-family="Times,serif" font-size="14.00">s5</text>
<polygon fill="none" stroke="black" points="384.5,-137 384.5,-159 573.5,-159 573.5,-137 384.5,-137"/>
<text text-anchor="start" x="460.34" y="-143.4" font-family="Times,serif" font-size="14.00">NULL</text>
<polygon fill="none" stroke="black" points="573.5,-137 573.5,-159 756.5,-159 756.5,-137 573.5,-137"/>
<text text-anchor="start" x="646.34" y="-143.4" font-family="Times,serif" font-size="14.00">NULL</text>
<polygon fill="none" stroke="black" points="756.5,-137 756.5,-159 945.5,-159 945.5,-137 756.5,-137"/>
<text text-anchor="start" x="832.34" y="-143.4" font-family="Times,serif" font-size="14.00">NULL</text>
<polygon fill="none" stroke="black" points="945.5,-137 945.5,-159 1010.5,-159 1010.5,-137 945.5,-137"/>
<text text-anchor="start" x="974.5" y="-143.4" font-family="Times,serif" font-size="14.00">8</text>
<polygon fill="none" stroke="black" points="1010.5,-137 1010.5,-159 1041.5,-159 1041.5,-137 1010.5,-137"/>
<text text-anchor="start" x="1022.5" y="-143.4" font-family="Times,serif" font-size="14.00">2</text>
<polygon fill="none" stroke="black" points="1041.5,-137 1041.5,-159 1079.5,-159 1079.5,-137 1041.5,-137"/>
<text text-anchor="start" x="1057" y="-143.4" font-family="Times,serif" font-size="14.00">3</text>
<polygon fill="none" stroke="black" points="1079.5,-137 1079.5,-159 1106.5,-159 1106.5,-137 1079.5,-137"/>
<text text-anchor="start" x="1082.11" y="-143.4" font-family="Times,serif" font-size="14.00">null</text>
<polygon fill="none" stroke="black" points="9.5,-115 9.5,-137 109.5,-137 109.5,-115 9.5,-115"/>
<text text-anchor="start" x="53.67" y="-121.4" font-family="Times,serif" font-size="14.00">I6</text>
<polygon fill="none" stroke="black" points="109.5,-115 109.5,-137 152.5,-137 152.5,-115 109.5,-115"/>
<text text-anchor="start" x="124.78" y="-121.4" font-family="Times,serif" font-size="14.00">s4</text>
<polygon fill="none" stroke="black" points="152.5,-115 152.5,-137 341.5,-137 341.5,-115 152.5,-115"/>
<text text-anchor="start" x="228.34" y="-121.4" font-family="Times,serif" font-size="14.00">NULL</text>
<polygon fill="none" stroke="black" points="341.5,-115 341.5,-137 384.5,-137 384.5,-115 341.5,-115"/>
<text text-anchor="start" x="356.78" y="-121.4" font-family="Times,serif" font-size="14.00">s5</text>
<polygon fill="none" stroke="black" points="384.5,-115 384.5,-137 573.5,-137 573.5,-115 384.5,-115"/>
<text text-anchor="start" x="460.34" y="-121.4" font-family="Times,serif" font-size="14.00">NULL</text>
<polygon fill="none" stroke="black" points="573.5,-115 573.5,-137 756.5,-137 756.5,-115 573.5,-115"/>
<text text-anchor="start" x="646.34" y="-121.4" font-family="Times,serif" font-size="14.00">NULL</text>
<polygon fill="none" stroke="black" points="756.5,-115 756.5,-137 945.5,-137 945.5,-115 756.5,-115"/>
<text text-anchor="start" x="832.34" y="-121.4" font-family="Times,serif" font-size="14.00">NULL</text>
<polygon fill="none" stroke="black" points="945.5,-115 945.5,-137 1010.5,-137 1010.5,-115 945.5,-115"/>
<text text-anchor="start" x="967.11" y="-121.4" font-family="Times,serif" font-size="14.00">null</text>
<polygon fill="none" stroke="black" points="1010.5,-115 1010.5,-137 1041.5,-137 1041.5,-115 1010.5,-115"/>
<text text-anchor="start" x="1022.5" y="-121.4" font-family="Times,serif" font-size="14.00">9</text>
<polygon fill="none" stroke="black" points="1041.5,-115 1041.5,-137 1079.5,-137 1079.5,-115 1041.5,-115"/>
<text text-anchor="start" x="1057" y="-121.4" font-family="Times,serif" font-size="14.00">3</text>
<polygon fill="none" stroke="black" points="1079.5,-115 1079.5,-137 1106.5,-137 1106.5,-115 1079.5,-115"/>
<text text-anchor="start" x="1082.11" y="-121.4" font-family="Times,serif" font-size="14.00">null</text>
<polygon fill="none" stroke="black" points="9.5,-93 9.5,-115 109.5,-115 109.5,-93 9.5,-93"/>
<text text-anchor="start" x="53.67" y="-99.4" font-family="Times,serif" font-size="14.00">I7</text>
<polygon fill="none" stroke="black" points="109.5,-93 109.5,-115 152.5,-115 152.5,-93 109.5,-93"/>
<text text-anchor="start" x="124.78" y="-99.4" font-family="Times,serif" font-size="14.00">s4</text>
<polygon fill="none" stroke="black" points="152.5,-93 152.5,-115 341.5,-115 341.5,-93 152.5,-93"/>
<text text-anchor="start" x="228.34" y="-99.4" font-family="Times,serif" font-size="14.00">NULL</text>
<polygon fill="none" stroke="black" points="341.5,-93 341.5,-115 384.5,-115 384.5,-93 341.5,-93"/>
<text text-anchor="start" x="356.78" y="-99.4" font-family="Times,serif" font-size="14.00">s5</text>
<polygon fill="none" stroke="black" points="384.5,-93 384.5,-115 573.5,-115 573.5,-93 384.5,-93"/>
<text text-anchor="start" x="460.34" y="-99.4" font-family="Times,serif" font-size="14.00">NULL</text>
<polygon fill="none" stroke="black" points="573.5,-93 573.5,-115 756.5,-115 756.5,-93 573.5,-93"/>
<text text-anchor="start" x="646.34" y="-99.4" font-family="Times,serif" font-size="14.00">NULL</text>
<polygon fill="none" stroke="black" points="756.5,-93 756.5,-115 945.5,-115 945.5,-93 756.5,-93"/>
<text text-anchor="start" x="832.34" y="-99.4" font-family="Times,serif" font-size="14.00">NULL</text>
<polygon fill="none" stroke="black" points="945.5,-93 945.5,-115 1010.5,-115 1010.5,-93 945.5,-93"/>
<text text-anchor="start" x="967.11" y="-99.4" font-family="Times,serif" font-size="14.00">null</text>
<polygon fill="none" stroke="black" points="1010.5,-93 1010.5,-115 1041.5,-115 1041.5,-93 1010.5,-93"/>
<text text-anchor="start" x="1015.11" y="-99.4" font-family="Times,serif" font-size="14.00">null</text>
<polygon fill="none" stroke="black" points="1041.5,-93 1041.5,-115 1079.5,-115 1079.5,-93 1041.5,-93"/>
<text text-anchor="start" x="1053.5" y="-99.4" font-family="Times,serif" font-size="14.00">10</text>
<polygon fill="none" stroke="black" points="1079.5,-93 1079.5,-115 1106.5,-115 1106.5,-93 1079.5,-93"/>
<text text-anchor="start" x="1082.11" y="-99.4" font-family="Times,serif" font-size="14.00">null</text>
<polygon fill="none" stroke="black" points="9.5,-71 9.5,-93 109.5,-93 109.5,-71 9.5,-71"/>
<text text-anchor="start" x="53.67" y="-77.4" font-family="Times,serif" font-size="14.00">I8</text>
<polygon fill="none" stroke="black" points="109.5,-71 109.5,-93 152.5,-93 152.5,-71 109.5,-71"/>
<text text-anchor="start" x="112.34" y="-77.4" font-family="Times,serif" font-size="14.00">NULL</text>
<polygon fill="none" stroke="black" points="152.5,-71 152.5,-93 341.5,-93 341.5,-71 152.5,-71"/>
<text text-anchor="start" x="240.78" y="-77.4" font-family="Times,serif" font-size="14.00">s6</text>
<polygon fill="none" stroke="black" points="341.5,-71 341.5,-93 384.5,-93 384.5,-71 341.5,-71"/>
<text text-anchor="start" x="344.34" y="-77.4" font-family="Times,serif" font-size="14.00">NULL</text>
<polygon fill="none" stroke="black" points="384.5,-71 384.5,-93 573.5,-93 573.5,-71 384.5,-71"/>
<text text-anchor="start" x="469.28" y="-77.4" font-family="Times,serif" font-size="14.00">s11</text>
<polygon fill="none" stroke="black" points="573.5,-71 573.5,-93 756.5,-93 756.5,-71 573.5,-71"/>
<text text-anchor="start" x="646.34" y="-77.4" font-family="Times,serif" font-size="14.00">NULL</text>
<polygon fill="none" stroke="black" points="756.5,-71 756.5,-93 945.5,-93 945.5,-71 756.5,-71"/>
<text text-anchor="start" x="832.34" y="-77.4" font-family="Times,serif" font-size="14.00">NULL</text>
<polygon fill="none" stroke="black" points="945.5,-71 945.5,-93 1010.5,-93 1010.5,-71 945.5,-71"/>
<text text-anchor="start" x="967.11" y="-77.4" font-family="Times,serif" font-size="14.00">null</text>
<polygon fill="none" stroke="black" points="1010.5,-71 1010.5,-93 1041.5,-93 1041.5,-71 1010.5,-71"/>
<text text-anchor="start" x="1015.11" y="-77.4" font-family="Times,serif" font-size="14.00">null</text>
<polygon fill="none" stroke="black" points="1041.5,-71 1041.5,-93 1079.5,-93 1079.5,-71 1041.5,-71"/>
<text text-anchor="start" x="1049.61" y="-77.4" font-family="Times,serif" font-size="14.00">null</text>
<polygon fill="none" stroke="black" points="1079.5,-71 1079.5,-93 1106.5,-93 1106.5,-71 1079.5,-71"/>
<text text-anchor="start" x="1082.11" y="-77.4" font-family="Times,serif" font-size="14.00">null</text>
<polygon fill="none" stroke="black" points="9.5,-49 9.5,-71 109.5,-71 109.5,-49 9.5,-49"/>
<text text-anchor="start" x="53.67" y="-55.4" font-family="Times,serif" font-size="14.00">I9</text>
<polygon fill="none" stroke="black" points="109.5,-49 109.5,-71 152.5,-71 152.5,-49 109.5,-49"/>
<text text-anchor="start" x="112.34" y="-55.4" font-family="Times,serif" font-size="14.00">NULL</text>
<polygon fill="none" stroke="black" points="152.5,-49 152.5,-71 341.5,-71 341.5,-49 152.5,-49"/>
<text text-anchor="start" x="155.44" y="-55.4" font-family="Times,serif" font-size="14.00">expression: expression plus term</text>
<polygon fill="none" stroke="black" points="341.5,-49 341.5,-71 384.5,-71 384.5,-49 341.5,-49"/>
<text text-anchor="start" x="344.34" y="-55.4" font-family="Times,serif" font-size="14.00">NULL</text>
<polygon fill="none" stroke="black" points="384.5,-49 384.5,-71 573.5,-71 573.5,-49 384.5,-49"/>
<text text-anchor="start" x="387.44" y="-55.4" font-family="Times,serif" font-size="14.00">expression: expression plus term</text>
<polygon fill="none" stroke="black" points="573.5,-49 573.5,-71 756.5,-71 756.5,-49 573.5,-49"/>
<text text-anchor="start" x="658.78" y="-55.4" font-family="Times,serif" font-size="14.00">s7</text>
<polygon fill="none" stroke="black" points="756.5,-49 756.5,-71 945.5,-71 945.5,-49 756.5,-49"/>
<text text-anchor="start" x="759.44" y="-55.4" font-family="Times,serif" font-size="14.00">expression: expression plus term</text>
<polygon fill="none" stroke="black" points="945.5,-49 945.5,-71 1010.5,-71 1010.5,-49 945.5,-49"/>
<text text-anchor="start" x="967.11" y="-55.4" font-family="Times,serif" font-size="14.00">null</text>
<polygon fill="none" stroke="black" points="1010.5,-49 1010.5,-71 1041.5,-71 1041.5,-49 1010.5,-49"/>
<text text-anchor="start" x="1015.11" y="-55.4" font-family="Times,serif" font-size="14.00">null</text>
<polygon fill="none" stroke="black" points="1041.5,-49 1041.5,-71 1079.5,-71 1079.5,-49 1041.5,-49"/>
<text text-anchor="start" x="1049.61" y="-55.4" font-family="Times,serif" font-size="14.00">null</text>
<polygon fill="none" stroke="black" points="1079.5,-49 1079.5,-71 1106.5,-71 1106.5,-49 1079.5,-49"/>
<text text-anchor="start" x="1082.11" y="-55.4" font-family="Times,serif" font-size="14.00">null</text>
<polygon fill="none" stroke="black" points="9.5,-27 9.5,-49 109.5,-49 109.5,-27 9.5,-27"/>
<text text-anchor="start" x="50.17" y="-33.4" font-family="Times,serif" font-size="14.00">I10</text>
<polygon fill="none" stroke="black" points="109.5,-27 109.5,-49 152.5,-49 152.5,-27 109.5,-27"/>
<text text-anchor="start" x="112.34" y="-33.4" font-family="Times,serif" font-size="14.00">NULL</text>
<polygon fill="none" stroke="black" points="152.5,-27 152.5,-49 341.5,-49 341.5,-27 152.5,-27"/>
<text text-anchor="start" x="182.66" y="-33.4" font-family="Times,serif" font-size="14.00">term: term times factor</text>
<polygon fill="none" stroke="black" points="341.5,-27 341.5,-49 384.5,-49 384.5,-27 341.5,-27"/>
<text text-anchor="start" x="344.34" y="-33.4" font-family="Times,serif" font-size="14.00">NULL</text>
<polygon fill="none" stroke="black" points="384.5,-27 384.5,-49 573.5,-49 573.5,-27 384.5,-27"/>
<text text-anchor="start" x="414.66" y="-33.4" font-family="Times,serif" font-size="14.00">term: term times factor</text>
<polygon fill="none" stroke="black" points="573.5,-27 573.5,-49 756.5,-49 756.5,-27 573.5,-27"/>
<text text-anchor="start" x="600.66" y="-33.4" font-family="Times,serif" font-size="14.00">term: term times factor</text>
<polygon fill="none" stroke="black" points="756.5,-27 756.5,-49 945.5,-49 945.5,-27 756.5,-27"/>
<text text-anchor="start" x="786.66" y="-33.4" font-family="Times,serif" font-size="14.00">term: term times factor</text>
<polygon fill="none" stroke="black" points="945.5,-27 945.5,-49 1010.5,-49 1010.5,-27 945.5,-27"/>
<text text-anchor="start" x="967.11" y="-33.4" font-family="Times,serif" font-size="14.00">null</text>
<polygon fill="none" stroke="black" points="1010.5,-27 1010.5,-49 1041.5,-49 1041.5,-27 1010.5,-27"/>
<text text-anchor="start" x="1015.11" y="-33.4" font-family="Times,serif" font-size="14.00">null</text>
<polygon fill="none" stroke="black" points="1041.5,-27 1041.5,-49 1079.5,-49 1079.5,-27 1041.5,-27"/>
<text text-anchor="start" x="1049.61" y="-33.4" font-family="Times,serif" font-size="14.00">null</text>
<polygon fill="none" stroke="black" points="1079.5,-27 1079.5,-49 1106.5,-49 1106.5,-27 1079.5,-27"/>
<text text-anchor="start" x="1082.11" y="-33.4" font-family="Times,serif" font-size="14.00">null</text>
<polygon fill="none" stroke="black" points="9.5,-5 9.5,-27 109.5,-27 109.5,-5 9.5,-5"/>
<text text-anchor="start" x="50.17" y="-11.4" font-family="Times,serif" font-size="14.00">I11</text>
<polygon fill="none" stroke="black" points="109.5,-5 109.5,-27 152.5,-27 152.5,-5 109.5,-5"/>
<text text-anchor="start" x="112.34" y="-11.4" font-family="Times,serif" font-size="14.00">NULL</text>
<polygon fill="none" stroke="black" points="152.5,-5 152.5,-27 341.5,-27 341.5,-5 152.5,-5"/>
<text text-anchor="start" x="158.18" y="-11.4" font-family="Times,serif" font-size="14.00">factor: lparen expression rparen</text>
<polygon fill="none" stroke="black" points="341.5,-5 341.5,-27 384.5,-27 384.5,-5 341.5,-5"/>
<text text-anchor="start" x="344.34" y="-11.4" font-family="Times,serif" font-size="14.00">NULL</text>
<polygon fill="none" stroke="black" points="384.5,-5 384.5,-27 573.5,-27 573.5,-5 384.5,-5"/>
<text text-anchor="start" x="390.18" y="-11.4" font-family="Times,serif" font-size="14.00">factor: lparen expression rparen</text>
<polygon fill="none" stroke="black" points="573.5,-5 573.5,-27 756.5,-27 756.5,-5 573.5,-5"/>
<text text-anchor="start" x="576.18" y="-11.4" font-family="Times,serif" font-size="14.00">factor: lparen expression rparen</text>
<polygon fill="none" stroke="black" points="756.5,-5 756.5,-27 945.5,-27 945.5,-5 756.5,-5"/>
<text text-anchor="start" x="762.18" y="-11.4" font-family="Times,serif" font-size="14.00">factor: lparen expression rparen</text>
<polygon fill="none" stroke="black" points="945.5,-5 945.5,-27 1010.5,-27 1010.5,-5 945.5,-5"/>
<text text-anchor="start" x="967.11" y="-11.4" font-family="Times,serif" font-size="14.00">null</text>
<polygon fill="none" stroke="black" points="1010.5,-5 1010.5,-27 1041.5,-27 1041.5,-5 1010.5,-5"/>
<text text-anchor="start" x="1015.11" y="-11.4" font-family="Times,serif" font-size="14.00">null</text>
<polygon fill="none" stroke="black" points="1041.5,-5 1041.5,-27 1079.5,-27 1079.5,-5 1041.5,-5"/>
<text text-anchor="start" x="1049.61" y="-11.4" font-family="Times,serif" font-size="14.00">null</text>
<polygon fill="none" stroke="black" points="1079.5,-5 1079.5,-27 1106.5,-27 1106.5,-5 1079.5,-5"/>
<text text-anchor="start" x="1082.11" y="-11.4" font-family="Times,serif" font-size="14.00">null</text>
<polygon fill="none" stroke="black" points="8,-4 8,-292 1107,-292 1107,-4 8,-4"/>
</g>
</g>
</svg>
