<?xml version="1.0" encoding="UTF-8" standalone="no"?>
<!DOCTYPE svg PUBLIC "-//W3C//DTD SVG 1.1//EN"
 "http://www.w3.org/Graphics/SVG/1.1/DTD/svg11.dtd">
<!-- Generated by graphviz version 2.44.0 (20200518.1210)
 -->
<!-- Title: fsm Pages: 1 -->
<svg width="100%" height="100%"
 viewBox="0.00 0.00 441.98 360.00" xmlns="http://www.w3.org/2000/svg" xmlns:xlink="http://www.w3.org/1999/xlink">
<g id="graph0" class="graph" transform="scale(0.53 0.53) rotate(0) translate(4 675.11)">
<title>fsm</title>
<polygon fill="white" stroke="transparent" points="-4,4 -4,-675.11 829.76,-675.11 829.76,4 -4,4"/>
<!-- INITIAL_STATE -->
<g id="node1" class="node">
<title>INITIAL_STATE</title>
<ellipse fill="black" stroke="black" cx="359.07" cy="-669.31" rx="1.8" ry="1.8"/>
</g>
<!-- q0 -->
<g id="node5" class="node">
<title>q0</title>
<ellipse fill="none" stroke="black" cx="359.07" cy="-609.81" rx="20.89" ry="20.89"/>
<text text-anchor="middle" x="359.07" y="-605.61" font-family="Times,serif" font-size="14.00">q0</text>
</g>
<!-- INITIAL_STATE&#45;&gt;q0 -->
<g id="edge1" class="edge">
<title>INITIAL_STATE&#45;&gt;q0</title>
<path fill="none" stroke="black" d="M359.07,-667.31C359.07,-663.94 359.07,-652.55 359.07,-640.88"/>
<polygon fill="black" stroke="black" points="362.57,-640.73 359.07,-630.73 355.57,-640.73 362.57,-640.73"/>
</g>
<!-- q1 -->
<g id="node2" class="node">
<title>q1</title>
<ellipse fill="none" stroke="black" cx="359.07" cy="-511.63" rx="20.86" ry="20.86"/>
<ellipse fill="none" stroke="black" cx="359.07" cy="-511.63" rx="24.89" ry="24.89"/>
<text text-anchor="middle" x="359.07" y="-507.43" font-family="Times,serif" font-size="14.00">q1</text>
</g>
<!-- q1&#45;&gt;q1 -->
<g id="edge12" class="edge">
<title>q1&#45;&gt;q1</title>
<path fill="none" stroke="black" d="M384.06,-513.12C393.73,-513.19 401.76,-512.69 401.76,-511.63 401.76,-510.98 398.78,-510.54 394.26,-510.31"/>
<polygon fill="black" stroke="black" points="394.12,-506.81 384.06,-510.13 394,-513.81 394.12,-506.81"/>
<text text-anchor="middle" x="408.76" y="-507.43" font-family="Times,serif" font-size="14.00">48</text>
</g>
<!-- q1&#45;&gt;q1 -->
<g id="edge13" class="edge">
<title>q1&#45;&gt;q1</title>
<path fill="none" stroke="black" d="M383.69,-514.29C401.71,-515.19 419.76,-514.3 419.76,-511.63 419.76,-509.46 407.84,-508.46 393.71,-508.65"/>
<polygon fill="black" stroke="black" points="393.57,-505.15 383.69,-508.97 393.79,-512.15 393.57,-505.15"/>
<text text-anchor="middle" x="426.76" y="-507.43" font-family="Times,serif" font-size="14.00">49</text>
</g>
<!-- q1&#45;&gt;q1 -->
<g id="edge14" class="edge">
<title>q1&#45;&gt;q1</title>
<path fill="none" stroke="black" d="M383.64,-515.11C409.16,-517.22 437.76,-516.06 437.76,-511.63 437.76,-507.79 416.26,-506.4 393.9,-507.48"/>
<polygon fill="black" stroke="black" points="393.39,-504.01 383.64,-508.15 393.85,-510.99 393.39,-504.01"/>
<text text-anchor="middle" x="444.76" y="-507.43" font-family="Times,serif" font-size="14.00">50</text>
</g>
<!-- q1&#45;&gt;q1 -->
<g id="edge15" class="edge">
<title>q1&#45;&gt;q1</title>
<path fill="none" stroke="black" d="M383.83,-515.73C416.41,-519.25 455.76,-517.88 455.76,-511.63 455.76,-506.01 424,-504.34 393.92,-506.61"/>
<polygon fill="black" stroke="black" points="393.47,-503.13 383.83,-507.53 394.11,-510.1 393.47,-503.13"/>
<text text-anchor="middle" x="462.76" y="-507.43" font-family="Times,serif" font-size="14.00">51</text>
</g>
<!-- q1&#45;&gt;q1 -->
<g id="edge16" class="edge">
<title>q1&#45;&gt;q1</title>
<path fill="none" stroke="black" d="M383.56,-516.16C423.04,-521.28 473.76,-519.77 473.76,-511.63 473.76,-504.18 431.38,-502.28 393.95,-505.92"/>
<polygon fill="black" stroke="black" points="393.11,-502.49 383.56,-507.09 393.89,-509.45 393.11,-502.49"/>
<text text-anchor="middle" x="480.76" y="-507.43" font-family="Times,serif" font-size="14.00">52</text>
</g>
<!-- q1&#45;&gt;q1 -->
<g id="edge17" class="edge">
<title>q1&#45;&gt;q1</title>
<path fill="none" stroke="black" d="M383.5,-516.52C429.65,-523.31 491.76,-521.68 491.76,-511.63 491.76,-502.28 438.08,-500.21 393.44,-505.43"/>
<polygon fill="black" stroke="black" points="392.96,-501.96 383.5,-506.74 393.87,-508.9 392.96,-501.96"/>
<text text-anchor="middle" x="498.76" y="-507.43" font-family="Times,serif" font-size="14.00">53</text>
</g>
<!-- q1&#45;&gt;q1 -->
<g id="edge18" class="edge">
<title>q1&#45;&gt;q1</title>
<path fill="none" stroke="black" d="M383.54,-516.82C436.24,-525.34 509.76,-523.6 509.76,-511.63 509.76,-500.4 445.14,-498.18 393.64,-504.96"/>
<polygon fill="black" stroke="black" points="392.93,-501.53 383.54,-506.44 393.94,-508.45 392.93,-501.53"/>
<text text-anchor="middle" x="516.76" y="-507.43" font-family="Times,serif" font-size="14.00">54</text>
</g>
<!-- q1&#45;&gt;q1 -->
<g id="edge19" class="edge">
<title>q1&#45;&gt;q1</title>
<path fill="none" stroke="black" d="M383.25,-517.02C442.42,-527.36 527.76,-525.57 527.76,-511.63 527.76,-498.45 451.5,-496.13 393.18,-504.65"/>
<polygon fill="black" stroke="black" points="392.57,-501.2 383.25,-506.24 393.68,-508.11 392.57,-501.2"/>
<text text-anchor="middle" x="534.76" y="-507.43" font-family="Times,serif" font-size="14.00">55</text>
</g>
<!-- q1&#45;&gt;q1 -->
<g id="edge20" class="edge">
<title>q1&#45;&gt;q1</title>
<path fill="none" stroke="black" d="M383.21,-517.21C448.76,-529.38 545.76,-527.52 545.76,-511.63 545.76,-496.54 458.36,-494.1 393.42,-504.3"/>
<polygon fill="black" stroke="black" points="392.48,-500.91 383.21,-506.04 393.65,-507.81 392.48,-500.91"/>
<text text-anchor="middle" x="552.76" y="-507.43" font-family="Times,serif" font-size="14.00">56</text>
</g>
<!-- q1&#45;&gt;q1 -->
<g id="edge21" class="edge">
<title>q1&#45;&gt;q1</title>
<path fill="none" stroke="black" d="M383.16,-517.38C455.04,-531.4 563.76,-529.48 563.76,-511.63 563.76,-494.58 464.59,-492.06 393.06,-504.08"/>
<polygon fill="black" stroke="black" points="392.38,-500.65 383.16,-505.88 393.63,-507.54 392.38,-500.65"/>
<text text-anchor="middle" x="570.76" y="-507.43" font-family="Times,serif" font-size="14.00">57</text>
</g>
<!-- q2 -->
<g id="node6" class="node">
<title>q2</title>
<ellipse fill="none" stroke="black" cx="191.07" cy="-413.44" rx="20.89" ry="20.89"/>
<text text-anchor="middle" x="191.07" y="-409.24" font-family="Times,serif" font-size="14.00">q2</text>
</g>
<!-- q1&#45;&gt;q2 -->
<g id="edge22" class="edge">
<title>q1&#45;&gt;q2</title>
<path fill="none" stroke="black" d="M337.79,-498.45C307.12,-480.89 250.54,-448.49 217.31,-429.47"/>
<polygon fill="black" stroke="black" points="219.02,-426.41 208.6,-424.48 215.54,-432.49 219.02,-426.41"/>
<text text-anchor="middle" x="293.07" y="-456.33" font-family="Times,serif" font-size="14.00">46</text>
</g>
<!-- q3 -->
<g id="node7" class="node">
<title>q3</title>
<ellipse fill="none" stroke="black" cx="340.07" cy="-217.07" rx="20.89" ry="20.89"/>
<text text-anchor="middle" x="340.07" y="-212.87" font-family="Times,serif" font-size="14.00">q3</text>
</g>
<!-- q1&#45;&gt;q3 -->
<g id="edge23" class="edge">
<title>q1&#45;&gt;q3</title>
<path fill="none" stroke="black" d="M379.87,-497.81C431.99,-464.08 560.29,-369.98 508.07,-290.56 477.53,-244.12 410.26,-227.3 370.73,-221.3"/>
<polygon fill="black" stroke="black" points="370.99,-217.8 360.61,-219.91 370.04,-224.74 370.99,-217.8"/>
<text text-anchor="middle" x="522.07" y="-362.15" font-family="Times,serif" font-size="14.00">69</text>
</g>
<!-- q4 -->
<g id="node3" class="node">
<title>q4</title>
<ellipse fill="none" stroke="black" cx="481.07" cy="-24.69" rx="20.86" ry="20.86"/>
<ellipse fill="none" stroke="black" cx="481.07" cy="-24.69" rx="24.89" ry="24.89"/>
<text text-anchor="middle" x="481.07" y="-20.49" font-family="Times,serif" font-size="14.00">q4</text>
</g>
<!-- q4&#45;&gt;q4 -->
<g id="edge46" class="edge">
<title>q4&#45;&gt;q4</title>
<path fill="none" stroke="black" d="M506.06,-26.19C515.73,-26.25 523.76,-25.76 523.76,-24.69 523.76,-24.05 520.78,-23.61 516.26,-23.38"/>
<polygon fill="black" stroke="black" points="516.12,-19.88 506.06,-23.2 516,-26.88 516.12,-19.88"/>
<text text-anchor="middle" x="530.76" y="-20.49" font-family="Times,serif" font-size="14.00">48</text>
</g>
<!-- q4&#45;&gt;q4 -->
<g id="edge47" class="edge">
<title>q4&#45;&gt;q4</title>
<path fill="none" stroke="black" d="M505.69,-27.35C523.71,-28.25 541.76,-27.37 541.76,-24.69 541.76,-22.52 529.84,-21.53 515.71,-21.72"/>
<polygon fill="black" stroke="black" points="515.57,-18.22 505.69,-22.03 515.79,-25.21 515.57,-18.22"/>
<text text-anchor="middle" x="548.76" y="-20.49" font-family="Times,serif" font-size="14.00">49</text>
</g>
<!-- q4&#45;&gt;q4 -->
<g id="edge48" class="edge">
<title>q4&#45;&gt;q4</title>
<path fill="none" stroke="black" d="M505.64,-28.17C531.16,-30.28 559.76,-29.12 559.76,-24.69 559.76,-20.85 538.26,-19.47 515.9,-20.55"/>
<polygon fill="black" stroke="black" points="515.39,-17.07 505.64,-21.22 515.85,-24.06 515.39,-17.07"/>
<text text-anchor="middle" x="566.76" y="-20.49" font-family="Times,serif" font-size="14.00">50</text>
</g>
<!-- q4&#45;&gt;q4 -->
<g id="edge49" class="edge">
<title>q4&#45;&gt;q4</title>
<path fill="none" stroke="black" d="M505.83,-28.8C538.41,-32.31 577.76,-30.94 577.76,-24.69 577.76,-19.08 546,-17.4 515.92,-19.67"/>
<polygon fill="black" stroke="black" points="515.47,-16.2 505.83,-20.59 516.11,-23.17 515.47,-16.2"/>
<text text-anchor="middle" x="584.76" y="-20.49" font-family="Times,serif" font-size="14.00">51</text>
</g>
<!-- q4&#45;&gt;q4 -->
<g id="edge50" class="edge">
<title>q4&#45;&gt;q4</title>
<path fill="none" stroke="black" d="M505.56,-29.23C545.04,-34.35 595.76,-32.84 595.76,-24.69 595.76,-17.25 553.38,-15.35 515.95,-18.99"/>
<polygon fill="black" stroke="black" points="515.11,-15.56 505.56,-20.16 515.89,-22.51 515.11,-15.56"/>
<text text-anchor="middle" x="602.76" y="-20.49" font-family="Times,serif" font-size="14.00">52</text>
</g>
<!-- q4&#45;&gt;q4 -->
<g id="edge51" class="edge">
<title>q4&#45;&gt;q4</title>
<path fill="none" stroke="black" d="M505.5,-29.58C551.65,-36.38 613.76,-34.75 613.76,-24.69 613.76,-15.35 560.08,-13.28 515.44,-18.5"/>
<polygon fill="black" stroke="black" points="514.96,-15.03 505.5,-19.8 515.87,-21.97 514.96,-15.03"/>
<text text-anchor="middle" x="620.76" y="-20.49" font-family="Times,serif" font-size="14.00">53</text>
</g>
<!-- q4&#45;&gt;q4 -->
<g id="edge52" class="edge">
<title>q4&#45;&gt;q4</title>
<path fill="none" stroke="black" d="M505.54,-29.89C558.24,-38.4 631.76,-36.67 631.76,-24.69 631.76,-13.47 567.14,-11.24 515.64,-18.02"/>
<polygon fill="black" stroke="black" points="514.93,-14.59 505.54,-19.5 515.94,-21.52 514.93,-14.59"/>
<text text-anchor="middle" x="638.76" y="-20.49" font-family="Times,serif" font-size="14.00">54</text>
</g>
<!-- q4&#45;&gt;q4 -->
<g id="edge53" class="edge">
<title>q4&#45;&gt;q4</title>
<path fill="none" stroke="black" d="M505.25,-30.08C564.42,-40.43 649.76,-38.63 649.76,-24.69 649.76,-11.52 573.5,-9.19 515.18,-17.72"/>
<polygon fill="black" stroke="black" points="514.57,-14.27 505.25,-19.3 515.68,-21.18 514.57,-14.27"/>
<text text-anchor="middle" x="656.76" y="-20.49" font-family="Times,serif" font-size="14.00">55</text>
</g>
<!-- q4&#45;&gt;q4 -->
<g id="edge54" class="edge">
<title>q4&#45;&gt;q4</title>
<path fill="none" stroke="black" d="M505.21,-30.28C570.76,-42.45 667.76,-40.58 667.76,-24.69 667.76,-9.61 580.36,-7.17 515.42,-17.36"/>
<polygon fill="black" stroke="black" points="514.48,-13.97 505.21,-19.11 515.65,-20.87 514.48,-13.97"/>
<text text-anchor="middle" x="674.76" y="-20.49" font-family="Times,serif" font-size="14.00">56</text>
</g>
<!-- q4&#45;&gt;q4 -->
<g id="edge55" class="edge">
<title>q4&#45;&gt;q4</title>
<path fill="none" stroke="black" d="M505.16,-30.45C577.04,-44.46 685.76,-42.55 685.76,-24.69 685.76,-7.64 586.59,-5.13 515.06,-17.15"/>
<polygon fill="black" stroke="black" points="514.38,-13.71 505.16,-18.94 515.63,-20.6 514.38,-13.71"/>
<text text-anchor="middle" x="692.76" y="-20.49" font-family="Times,serif" font-size="14.00">57</text>
</g>
<!-- q6 -->
<g id="node4" class="node">
<title>q6</title>
<ellipse fill="none" stroke="black" cx="154.07" cy="-315.25" rx="20.86" ry="20.86"/>
<ellipse fill="none" stroke="black" cx="154.07" cy="-315.25" rx="24.89" ry="24.89"/>
<text text-anchor="middle" x="154.07" y="-311.05" font-family="Times,serif" font-size="14.00">q6</text>
</g>
<!-- q6&#45;&gt;q6 -->
<g id="edge66" class="edge">
<title>q6&#45;&gt;q6</title>
<path fill="none" stroke="black" d="M179.06,-316.75C188.73,-316.81 196.76,-316.32 196.76,-315.25 196.76,-314.61 193.78,-314.17 189.26,-313.94"/>
<polygon fill="black" stroke="black" points="189.12,-310.44 179.06,-313.76 189,-317.44 189.12,-310.44"/>
<text text-anchor="middle" x="203.76" y="-311.05" font-family="Times,serif" font-size="14.00">48</text>
</g>
<!-- q6&#45;&gt;q6 -->
<g id="edge67" class="edge">
<title>q6&#45;&gt;q6</title>
<path fill="none" stroke="black" d="M178.69,-317.92C196.71,-318.81 214.76,-317.93 214.76,-315.25 214.76,-313.08 202.84,-312.09 188.71,-312.28"/>
<polygon fill="black" stroke="black" points="188.57,-308.78 178.69,-312.59 188.79,-315.78 188.57,-308.78"/>
<text text-anchor="middle" x="221.76" y="-311.05" font-family="Times,serif" font-size="14.00">49</text>
</g>
<!-- q6&#45;&gt;q6 -->
<g id="edge68" class="edge">
<title>q6&#45;&gt;q6</title>
<path fill="none" stroke="black" d="M178.64,-318.73C204.16,-320.84 232.76,-319.68 232.76,-315.25 232.76,-311.41 211.26,-310.03 188.9,-311.11"/>
<polygon fill="black" stroke="black" points="188.39,-307.63 178.64,-311.78 188.85,-314.62 188.39,-307.63"/>
<text text-anchor="middle" x="239.76" y="-311.05" font-family="Times,serif" font-size="14.00">50</text>
</g>
<!-- q6&#45;&gt;q6 -->
<g id="edge69" class="edge">
<title>q6&#45;&gt;q6</title>
<path fill="none" stroke="black" d="M178.83,-319.36C211.41,-322.87 250.76,-321.5 250.76,-315.25 250.76,-309.64 219,-307.97 188.92,-310.23"/>
<polygon fill="black" stroke="black" points="188.47,-306.76 178.83,-311.15 189.11,-313.73 188.47,-306.76"/>
<text text-anchor="middle" x="257.76" y="-311.05" font-family="Times,serif" font-size="14.00">51</text>
</g>
<!-- q6&#45;&gt;q6 -->
<g id="edge70" class="edge">
<title>q6&#45;&gt;q6</title>
<path fill="none" stroke="black" d="M178.56,-319.79C218.04,-324.91 268.76,-323.4 268.76,-315.25 268.76,-307.81 226.38,-305.91 188.95,-309.55"/>
<polygon fill="black" stroke="black" points="188.11,-306.12 178.56,-310.72 188.89,-313.08 188.11,-306.12"/>
<text text-anchor="middle" x="275.76" y="-311.05" font-family="Times,serif" font-size="14.00">52</text>
</g>
<!-- q6&#45;&gt;q6 -->
<g id="edge71" class="edge">
<title>q6&#45;&gt;q6</title>
<path fill="none" stroke="black" d="M178.5,-320.14C224.65,-326.94 286.76,-325.31 286.76,-315.25 286.76,-305.91 233.08,-303.84 188.44,-309.06"/>
<polygon fill="black" stroke="black" points="187.96,-305.59 178.5,-310.36 188.87,-312.53 187.96,-305.59"/>
<text text-anchor="middle" x="293.76" y="-311.05" font-family="Times,serif" font-size="14.00">53</text>
</g>
<!-- q6&#45;&gt;q6 -->
<g id="edge72" class="edge">
<title>q6&#45;&gt;q6</title>
<path fill="none" stroke="black" d="M178.54,-320.45C231.24,-328.96 304.76,-327.23 304.76,-315.25 304.76,-304.03 240.14,-301.8 188.64,-308.58"/>
<polygon fill="black" stroke="black" points="187.93,-305.15 178.54,-310.06 188.94,-312.08 187.93,-305.15"/>
<text text-anchor="middle" x="311.76" y="-311.05" font-family="Times,serif" font-size="14.00">54</text>
</g>
<!-- q6&#45;&gt;q6 -->
<g id="edge73" class="edge">
<title>q6&#45;&gt;q6</title>
<path fill="none" stroke="black" d="M178.25,-320.64C237.42,-330.99 322.76,-329.19 322.76,-315.25 322.76,-302.08 246.5,-299.75 188.18,-308.28"/>
<polygon fill="black" stroke="black" points="187.57,-304.83 178.25,-309.86 188.68,-311.74 187.57,-304.83"/>
<text text-anchor="middle" x="329.76" y="-311.05" font-family="Times,serif" font-size="14.00">55</text>
</g>
<!-- q6&#45;&gt;q6 -->
<g id="edge74" class="edge">
<title>q6&#45;&gt;q6</title>
<path fill="none" stroke="black" d="M178.21,-320.84C243.76,-333.01 340.76,-331.14 340.76,-315.25 340.76,-300.17 253.36,-297.73 188.42,-307.92"/>
<polygon fill="black" stroke="black" points="187.48,-304.53 178.21,-309.67 188.65,-311.43 187.48,-304.53"/>
<text text-anchor="middle" x="347.76" y="-311.05" font-family="Times,serif" font-size="14.00">56</text>
</g>
<!-- q6&#45;&gt;q6 -->
<g id="edge75" class="edge">
<title>q6&#45;&gt;q6</title>
<path fill="none" stroke="black" d="M178.16,-321.01C250.04,-335.02 358.76,-333.11 358.76,-315.25 358.76,-298.2 259.59,-295.69 188.06,-307.71"/>
<polygon fill="black" stroke="black" points="187.38,-304.27 178.16,-309.5 188.63,-311.16 187.38,-304.27"/>
<text text-anchor="middle" x="365.76" y="-311.05" font-family="Times,serif" font-size="14.00">57</text>
</g>
<!-- q6&#45;&gt;q3 -->
<g id="edge76" class="edge">
<title>q6&#45;&gt;q3</title>
<path fill="none" stroke="black" d="M175.77,-303.03C209.81,-285.43 275.71,-251.35 312.87,-232.13"/>
<polygon fill="black" stroke="black" points="314.83,-235.06 322.1,-227.36 311.61,-228.84 314.83,-235.06"/>
<text text-anchor="middle" x="271.07" y="-259.96" font-family="Times,serif" font-size="14.00">69</text>
</g>
<!-- q0&#45;&gt;q1 -->
<g id="edge2" class="edge">
<title>q0&#45;&gt;q1</title>
<path fill="none" stroke="black" d="M338.47,-607.23C298.31,-603.67 211.93,-593.52 194.07,-571.12 158.21,-526.16 265.51,-515.71 323.92,-513.31"/>
<polygon fill="black" stroke="black" points="324.35,-516.8 334.22,-512.95 324.1,-509.8 324.35,-516.8"/>
<text text-anchor="middle" x="201.07" y="-558.52" font-family="Times,serif" font-size="14.00">48</text>
</g>
<!-- q0&#45;&gt;q1 -->
<g id="edge3" class="edge">
<title>q0&#45;&gt;q1</title>
<path fill="none" stroke="black" d="M338.03,-609.65C308.59,-609.53 255.9,-604.33 231.07,-571.12 204.81,-536.02 278.24,-521.39 324.52,-515.77"/>
<polygon fill="black" stroke="black" points="324.95,-519.25 334.49,-514.65 324.17,-512.29 324.95,-519.25"/>
<text text-anchor="middle" x="238.07" y="-558.52" font-family="Times,serif" font-size="14.00">49</text>
</g>
<!-- q0&#45;&gt;q1 -->
<g id="edge4" class="edge">
<title>q0&#45;&gt;q1</title>
<path fill="none" stroke="black" d="M338.29,-606.74C316.61,-603.35 283.65,-594.44 268.07,-571.12 251,-545.58 292.9,-528.8 325.37,-520.01"/>
<polygon fill="black" stroke="black" points="326.25,-523.4 335.08,-517.54 324.52,-516.61 326.25,-523.4"/>
<text text-anchor="middle" x="275.07" y="-558.52" font-family="Times,serif" font-size="14.00">50</text>
</g>
<!-- q0&#45;&gt;q1 -->
<g id="edge5" class="edge">
<title>q0&#45;&gt;q1</title>
<path fill="none" stroke="black" d="M340.14,-601.22C327.7,-595.11 312.41,-585.21 305.07,-571.12 296.47,-554.63 311.82,-539.32 328.33,-528.5"/>
<polygon fill="black" stroke="black" points="330.21,-531.45 336.95,-523.27 326.58,-525.47 330.21,-531.45"/>
<text text-anchor="middle" x="312.07" y="-558.52" font-family="Times,serif" font-size="14.00">51</text>
</g>
<!-- q0&#45;&gt;q1 -->
<g id="edge6" class="edge">
<title>q0&#45;&gt;q1</title>
<path fill="none" stroke="black" d="M349.32,-591.32C346.38,-585.14 343.55,-578 342.07,-571.12 340.11,-562.03 341.5,-552.29 344.18,-543.41"/>
<polygon fill="black" stroke="black" points="347.53,-544.43 347.62,-533.83 340.94,-542.06 347.53,-544.43"/>
<text text-anchor="middle" x="349.07" y="-558.52" font-family="Times,serif" font-size="14.00">52</text>
</g>
<!-- q0&#45;&gt;q1 -->
<g id="edge7" class="edge">
<title>q0&#45;&gt;q1</title>
<path fill="none" stroke="black" d="M359.07,-588.88C359.07,-576.78 359.07,-561.01 359.07,-546.95"/>
<polygon fill="black" stroke="black" points="362.57,-546.62 359.07,-536.62 355.57,-546.62 362.57,-546.62"/>
<text text-anchor="middle" x="366.07" y="-558.52" font-family="Times,serif" font-size="14.00">53</text>
</g>
<!-- q0&#45;&gt;q1 -->
<g id="edge8" class="edge">
<title>q0&#45;&gt;q1</title>
<path fill="none" stroke="black" d="M369.19,-591.76C372.37,-585.49 375.46,-578.19 377.07,-571.12 379.17,-561.84 377.6,-551.89 374.66,-542.87"/>
<polygon fill="black" stroke="black" points="377.92,-541.6 371.05,-533.54 371.39,-544.13 377.92,-541.6"/>
<text text-anchor="middle" x="385.07" y="-558.52" font-family="Times,serif" font-size="14.00">54</text>
</g>
<!-- q0&#45;&gt;q1 -->
<g id="edge9" class="edge">
<title>q0&#45;&gt;q1</title>
<path fill="none" stroke="black" d="M375.77,-596.83C383.51,-590.23 391.9,-581.31 396.07,-571.12 398.89,-564.21 398.72,-561.3 396.07,-554.32 393.53,-547.63 389.37,-541.33 384.74,-535.75"/>
<polygon fill="black" stroke="black" points="387.09,-533.14 377.76,-528.13 381.93,-537.87 387.09,-533.14"/>
<text text-anchor="middle" x="405.07" y="-558.52" font-family="Times,serif" font-size="14.00">55</text>
</g>
<!-- q0&#45;&gt;q1 -->
<g id="edge10" class="edge">
<title>q0&#45;&gt;q1</title>
<path fill="none" stroke="black" d="M378.44,-601.75C391.66,-595.79 408.15,-585.86 416.07,-571.12 425.36,-553.84 407.95,-538.15 390,-527.38"/>
<polygon fill="black" stroke="black" points="391.69,-524.32 381.25,-522.51 388.28,-530.44 391.69,-524.32"/>
<text text-anchor="middle" x="425.07" y="-558.52" font-family="Times,serif" font-size="14.00">56</text>
</g>
<!-- q0&#45;&gt;q1 -->
<g id="edge11" class="edge">
<title>q0&#45;&gt;q1</title>
<path fill="none" stroke="black" d="M379.51,-605.07C397.87,-600.51 423.78,-590.82 436.07,-571.12 449.76,-549.18 419.08,-532.46 392.47,-522.62"/>
<polygon fill="black" stroke="black" points="393.54,-519.29 382.95,-519.32 391.25,-525.9 393.54,-519.29"/>
<text text-anchor="middle" x="446.07" y="-558.52" font-family="Times,serif" font-size="14.00">57</text>
</g>
<!-- q2&#45;&gt;q6 -->
<g id="edge24" class="edge">
<title>q2&#45;&gt;q6</title>
<path fill="none" stroke="black" d="M170.15,-411.37C126.38,-408.63 27.47,-399.76 7.07,-374.75 -25.08,-335.34 66.17,-322.34 119.14,-318.16"/>
<polygon fill="black" stroke="black" points="119.45,-321.65 129.17,-317.44 118.95,-314.67 119.45,-321.65"/>
<text text-anchor="middle" x="14.07" y="-362.15" font-family="Times,serif" font-size="14.00">48</text>
</g>
<!-- q2&#45;&gt;q6 -->
<g id="edge25" class="edge">
<title>q2&#45;&gt;q6</title>
<path fill="none" stroke="black" d="M170.43,-410.23C133.73,-405.82 59.49,-394.63 44.07,-374.75 21.13,-345.19 79.39,-328.88 119.6,-321.4"/>
<polygon fill="black" stroke="black" points="120.38,-324.81 129.63,-319.64 119.18,-317.92 120.38,-324.81"/>
<text text-anchor="middle" x="51.07" y="-362.15" font-family="Times,serif" font-size="14.00">49</text>
</g>
<!-- q2&#45;&gt;q6 -->
<g id="edge26" class="edge">
<title>q2&#45;&gt;q6</title>
<path fill="none" stroke="black" d="M170.28,-412.09C144.47,-410.39 101.37,-403.16 81.07,-374.75 66.67,-354.59 95.34,-337.69 120.87,-327.32"/>
<polygon fill="black" stroke="black" points="122.31,-330.52 130.4,-323.67 119.81,-323.98 122.31,-330.52"/>
<text text-anchor="middle" x="88.07" y="-362.15" font-family="Times,serif" font-size="14.00">50</text>
</g>
<!-- q2&#45;&gt;q6 -->
<g id="edge27" class="edge">
<title>q2&#45;&gt;q6</title>
<path fill="none" stroke="black" d="M170.98,-408.19C153.59,-403.34 129.49,-393.51 118.07,-374.75 110.71,-362.67 117.9,-349.22 127.74,-338.27"/>
<polygon fill="black" stroke="black" points="130.26,-340.7 134.82,-331.14 125.29,-335.77 130.26,-340.7"/>
<text text-anchor="middle" x="125.07" y="-362.15" font-family="Times,serif" font-size="14.00">51</text>
</g>
<!-- q2&#45;&gt;q6 -->
<g id="edge28" class="edge">
<title>q2&#45;&gt;q6</title>
<path fill="none" stroke="black" d="M174.87,-400.33C167.36,-393.7 159.19,-384.79 155.07,-374.75 151.92,-367.08 150.67,-358.37 150.44,-350.05"/>
<polygon fill="black" stroke="black" points="153.95,-349.88 150.62,-339.82 146.95,-349.76 153.95,-349.88"/>
<text text-anchor="middle" x="162.07" y="-362.15" font-family="Times,serif" font-size="14.00">52</text>
</g>
<!-- q2&#45;&gt;q6 -->
<g id="edge29" class="edge">
<title>q2&#45;&gt;q6</title>
<path fill="none" stroke="black" d="M183.93,-393.9C178.94,-380.91 172.14,-363.23 166.29,-348.02"/>
<polygon fill="black" stroke="black" points="169.46,-346.53 162.61,-338.46 162.93,-349.05 169.46,-346.53"/>
<text text-anchor="middle" x="183.07" y="-362.15" font-family="Times,serif" font-size="14.00">53</text>
</g>
<!-- q2&#45;&gt;q6 -->
<g id="edge30" class="edge">
<title>q2&#45;&gt;q6</title>
<path fill="none" stroke="black" d="M196.05,-393.12C197.86,-382.4 198.52,-369.02 194.07,-357.95 191.13,-350.65 186.25,-343.92 180.88,-338.08"/>
<polygon fill="black" stroke="black" points="182.98,-335.24 173.4,-330.71 178.07,-340.22 182.98,-335.24"/>
<text text-anchor="middle" x="205.07" y="-362.15" font-family="Times,serif" font-size="14.00">54</text>
</g>
<!-- q2&#45;&gt;q6 -->
<g id="edge31" class="edge">
<title>q2&#45;&gt;q6</title>
<path fill="none" stroke="black" d="M205.28,-397.87C214.32,-386.77 223.11,-371.18 216.07,-357.95 209.57,-345.75 197.75,-336.49 186.15,-329.82"/>
<polygon fill="black" stroke="black" points="187.49,-326.58 177.01,-325.03 184.24,-332.78 187.49,-326.58"/>
<text text-anchor="middle" x="226.07" y="-362.15" font-family="Times,serif" font-size="14.00">55</text>
</g>
<!-- q2&#45;&gt;q6 -->
<g id="edge32" class="edge">
<title>q2&#45;&gt;q6</title>
<path fill="none" stroke="black" d="M209.06,-402.89C226.11,-392.52 247.66,-375.12 237.07,-357.95 226.35,-340.58 205.95,-330.19 188.05,-324.13"/>
<polygon fill="black" stroke="black" points="189.03,-320.77 178.44,-321.19 186.98,-327.46 189.03,-320.77"/>
<text text-anchor="middle" x="247.07" y="-362.15" font-family="Times,serif" font-size="14.00">56</text>
</g>
<!-- q2&#45;&gt;q6 -->
<g id="edge33" class="edge">
<title>q2&#45;&gt;q6</title>
<path fill="none" stroke="black" d="M210.52,-406.36C235.21,-397.56 272.94,-379.93 258.07,-357.95 242.69,-335.21 212.66,-324.87 188.81,-320.17"/>
<polygon fill="black" stroke="black" points="189.14,-316.68 178.69,-318.43 187.96,-323.58 189.14,-316.68"/>
<text text-anchor="middle" x="269.07" y="-362.15" font-family="Times,serif" font-size="14.00">57</text>
</g>
<!-- q3&#45;&gt;q4 -->
<g id="edge34" class="edge">
<title>q3&#45;&gt;q4</title>
<path fill="none" stroke="black" d="M319.3,-214.97C268.02,-211.92 136.95,-201.97 101.07,-178.37 71.62,-159.01 69.26,-136.04 79.07,-102.19 84.16,-84.61 85.55,-77.08 101.07,-67.39 158.17,-31.73 363.38,-26.4 446.12,-25.73"/>
<polygon fill="black" stroke="black" points="446.3,-29.23 456.27,-25.66 446.25,-22.23 446.3,-29.23"/>
<text text-anchor="middle" x="86.07" y="-118.68" font-family="Times,serif" font-size="14.00">48</text>
</g>
<!-- q3&#45;&gt;q4 -->
<g id="edge35" class="edge">
<title>q3&#45;&gt;q4</title>
<path fill="none" stroke="black" d="M319.56,-214.03C276.5,-209.42 178.37,-197.13 151.07,-178.37 122.02,-158.42 119.26,-136.04 129.07,-102.19 134.16,-84.61 135.62,-77.21 151.07,-67.39 199.37,-36.67 370.77,-28.53 445.64,-26.41"/>
<polygon fill="black" stroke="black" points="446.05,-29.9 455.96,-26.14 445.87,-22.91 446.05,-29.9"/>
<text text-anchor="middle" x="136.07" y="-118.68" font-family="Times,serif" font-size="14.00">49</text>
</g>
<!-- q3&#45;&gt;q4 -->
<g id="edge36" class="edge">
<title>q3&#45;&gt;q4</title>
<path fill="none" stroke="black" d="M319.19,-215.06C290.09,-212.7 236.87,-204.81 201.07,-178.37 172.71,-157.44 169.26,-136.04 179.07,-102.19 184.16,-84.61 185.73,-77.38 201.07,-67.39 240.85,-41.47 380.12,-30.92 446.01,-27.31"/>
<polygon fill="black" stroke="black" points="446.5,-30.79 456.3,-26.77 446.13,-23.8 446.5,-30.79"/>
<text text-anchor="middle" x="186.07" y="-118.68" font-family="Times,serif" font-size="14.00">50</text>
</g>
<!-- q3&#45;&gt;q4 -->
<g id="edge37" class="edge">
<title>q3&#45;&gt;q4</title>
<path fill="none" stroke="black" d="M319.81,-211.27C300.44,-205.87 271.28,-195.53 251.07,-178.37 224.2,-155.57 219.26,-136.04 229.07,-102.19 234.16,-84.61 235.89,-77.62 251.07,-67.39 282.44,-46.24 390.15,-33.78 446.34,-28.57"/>
<polygon fill="black" stroke="black" points="446.88,-32.03 456.52,-27.65 446.25,-25.06 446.88,-32.03"/>
<text text-anchor="middle" x="236.07" y="-118.68" font-family="Times,serif" font-size="14.00">51</text>
</g>
<!-- q3&#45;&gt;q4 -->
<g id="edge38" class="edge">
<title>q3&#45;&gt;q4</title>
<path fill="none" stroke="black" d="M323.85,-203.79C308.38,-190.85 286.39,-168.85 279.07,-143.57 269.26,-109.72 272.33,-87.79 301.07,-67.39 344.46,-36.58 407.21,-28.19 446,-26.1"/>
<polygon fill="black" stroke="black" points="446.43,-29.59 456.27,-25.67 446.13,-22.6 446.43,-29.59"/>
<text text-anchor="middle" x="286.07" y="-118.68" font-family="Times,serif" font-size="14.00">52</text>
</g>
<!-- q3&#45;&gt;q4 -->
<g id="edge39" class="edge">
<title>q3&#45;&gt;q4</title>
<path fill="none" stroke="black" d="M334.06,-197.26C324.89,-164.45 312.28,-97.41 351.07,-67.39 378.9,-45.84 418.2,-35.26 446.29,-30.18"/>
<polygon fill="black" stroke="black" points="447.16,-33.58 456.45,-28.48 446.02,-26.67 447.16,-33.58"/>
<text text-anchor="middle" x="336.07" y="-118.68" font-family="Times,serif" font-size="14.00">53</text>
</g>
<!-- q3&#45;&gt;q4 -->
<g id="edge40" class="edge">
<title>q3&#45;&gt;q4</title>
<path fill="none" stroke="black" d="M342.73,-196.42C348.06,-164.75 362.98,-102.43 401.07,-67.39 414.81,-54.74 433.11,-44.83 448.74,-37.85"/>
<polygon fill="black" stroke="black" points="450.23,-41.02 458.06,-33.88 447.49,-34.58 450.23,-41.02"/>
<text text-anchor="middle" x="381.07" y="-118.68" font-family="Times,serif" font-size="14.00">54</text>
</g>
<!-- q3&#45;&gt;q4 -->
<g id="edge41" class="edge">
<title>q3&#45;&gt;q4</title>
<path fill="none" stroke="black" d="M352.44,-200.47C363.52,-186.14 379.86,-164.07 392.07,-143.57 411.33,-111.23 405.59,-96.81 429.07,-67.39 435.72,-59.04 444.34,-51.3 452.63,-44.81"/>
<polygon fill="black" stroke="black" points="454.81,-47.54 460.73,-38.75 450.63,-41.93 454.81,-47.54"/>
<text text-anchor="middle" x="416.07" y="-118.68" font-family="Times,serif" font-size="14.00">55</text>
</g>
<!-- q3&#45;&gt;q4 -->
<g id="edge42" class="edge">
<title>q3&#45;&gt;q4</title>
<path fill="none" stroke="black" d="M356.68,-203.85C366.3,-196.63 378.55,-187.21 389.07,-178.37 406.6,-163.65 414.42,-162.67 427.07,-143.57 446.9,-113.62 438.19,-99.61 454.07,-67.39 456.24,-62.98 458.78,-58.46 461.42,-54.11"/>
<polygon fill="black" stroke="black" points="464.49,-55.81 466.9,-45.49 458.58,-52.06 464.49,-55.81"/>
<text text-anchor="middle" x="449.07" y="-118.68" font-family="Times,serif" font-size="14.00">56</text>
</g>
<!-- q3&#45;&gt;q4 -->
<g id="edge43" class="edge">
<title>q3&#45;&gt;q4</title>
<path fill="none" stroke="black" d="M359.87,-210.39C387.59,-201.29 437.11,-180.61 460.07,-143.57 475.69,-118.37 480.42,-84.66 481.55,-59.75"/>
<polygon fill="black" stroke="black" points="485.05,-59.75 481.83,-49.66 478.05,-59.56 485.05,-59.75"/>
<text text-anchor="middle" x="482.07" y="-118.68" font-family="Times,serif" font-size="14.00">57</text>
</g>
<!-- q5 -->
<g id="node8" class="node">
<title>q5</title>
<ellipse fill="none" stroke="black" cx="638.07" cy="-122.88" rx="20.89" ry="20.89"/>
<text text-anchor="middle" x="638.07" y="-118.68" font-family="Times,serif" font-size="14.00">q5</text>
</g>
<!-- q3&#45;&gt;q5 -->
<g id="edge44" class="edge">
<title>q3&#45;&gt;q5</title>
<path fill="none" stroke="black" d="M360.67,-213.78C395.92,-209.48 469.72,-198.72 529.07,-178.37 558.53,-168.27 590.15,-151.77 611.71,-139.57"/>
<polygon fill="black" stroke="black" points="613.65,-142.49 620.58,-134.47 610.16,-136.42 613.65,-142.49"/>
<text text-anchor="middle" x="576.07" y="-165.77" font-family="Times,serif" font-size="14.00">43</text>
</g>
<!-- q3&#45;&gt;q5 -->
<g id="edge45" class="edge">
<title>q3&#45;&gt;q5</title>
<path fill="none" stroke="black" d="M360.89,-214.64C413,-210.8 547.73,-199.1 587.07,-178.37 600.4,-171.35 612.15,-159.45 621,-148.56"/>
<polygon fill="black" stroke="black" points="623.86,-150.59 627.18,-140.53 618.31,-146.32 623.86,-150.59"/>
<text text-anchor="middle" x="615.07" y="-165.77" font-family="Times,serif" font-size="14.00">45</text>
</g>
<!-- q5&#45;&gt;q4 -->
<g id="edge56" class="edge">
<title>q5&#45;&gt;q4</title>
<path fill="none" stroke="black" d="M617.7,-118.82C583.36,-113.26 516.01,-100.57 499.07,-84.19 492.3,-77.64 488.06,-68.61 485.4,-59.61"/>
<polygon fill="black" stroke="black" points="488.74,-58.52 483.04,-49.59 481.93,-60.13 488.74,-58.52"/>
<text text-anchor="middle" x="506.07" y="-71.59" font-family="Times,serif" font-size="14.00">48</text>
</g>
<!-- q5&#45;&gt;q4 -->
<g id="edge57" class="edge">
<title>q5&#45;&gt;q4</title>
<path fill="none" stroke="black" d="M618.02,-117.4C596.48,-111.95 561.88,-101.29 536.07,-84.19 523.26,-75.7 511.28,-63.68 501.79,-52.73"/>
<polygon fill="black" stroke="black" points="504.45,-50.45 495.35,-45.02 499.08,-54.94 504.45,-50.45"/>
<text text-anchor="middle" x="543.07" y="-71.59" font-family="Times,serif" font-size="14.00">49</text>
</g>
<!-- q5&#45;&gt;q4 -->
<g id="edge58" class="edge">
<title>q5&#45;&gt;q4</title>
<path fill="none" stroke="black" d="M620.11,-112.14C606.88,-104.8 588.58,-94.31 573.07,-84.19 562.46,-77.27 560.6,-74.4 550.07,-67.39 537.53,-59.04 523.35,-50.35 511.11,-43.07"/>
<polygon fill="black" stroke="black" points="512.59,-39.88 502.2,-37.82 509.03,-45.91 512.59,-39.88"/>
<text text-anchor="middle" x="580.07" y="-71.59" font-family="Times,serif" font-size="14.00">50</text>
</g>
<!-- q5&#45;&gt;q4 -->
<g id="edge59" class="edge">
<title>q5&#45;&gt;q4</title>
<path fill="none" stroke="black" d="M626.19,-105.74C616.71,-93.8 602.5,-77.87 587.07,-67.39 564.89,-52.33 536.49,-41.53 514.66,-34.7"/>
<polygon fill="black" stroke="black" points="515.42,-31.27 504.84,-31.75 513.41,-37.98 515.42,-31.27"/>
<text text-anchor="middle" x="612.07" y="-71.59" font-family="Times,serif" font-size="14.00">51</text>
</g>
<!-- q5&#45;&gt;q4 -->
<g id="edge60" class="edge">
<title>q5&#45;&gt;q4</title>
<path fill="none" stroke="black" d="M637.28,-102.15C635.79,-90.61 632.08,-76.55 623.07,-67.39 594.91,-38.75 548.19,-29.54 516.07,-26.71"/>
<polygon fill="black" stroke="black" points="516.02,-23.19 505.79,-25.97 515.52,-30.18 516.02,-23.19"/>
<text text-anchor="middle" x="640.07" y="-71.59" font-family="Times,serif" font-size="14.00">52</text>
</g>
<!-- q5&#45;&gt;q4 -->
<g id="edge61" class="edge">
<title>q5&#45;&gt;q4</title>
<path fill="none" stroke="black" d="M648.83,-105.05C654.79,-93.39 659.47,-78.1 651.07,-67.39 634.57,-46.36 560.48,-34.54 515.74,-29.21"/>
<polygon fill="black" stroke="black" points="515.92,-25.71 505.59,-28.05 515.12,-32.66 515.92,-25.71"/>
<text text-anchor="middle" x="662.07" y="-71.59" font-family="Times,serif" font-size="14.00">53</text>
</g>
<!-- q5&#45;&gt;q4 -->
<g id="edge62" class="edge">
<title>q5&#45;&gt;q4</title>
<path fill="none" stroke="black" d="M654.43,-110.12C668.27,-98.73 684.22,-81.22 673.07,-67.39 653.68,-43.34 565.62,-32.45 515.76,-28.14"/>
<polygon fill="black" stroke="black" points="516,-24.64 505.74,-27.31 515.42,-31.62 516,-24.64"/>
<text text-anchor="middle" x="683.07" y="-71.59" font-family="Times,serif" font-size="14.00">54</text>
</g>
<!-- q5&#45;&gt;q4 -->
<g id="edge63" class="edge">
<title>q5&#45;&gt;q4</title>
<path fill="none" stroke="black" d="M656.99,-113.95C678.52,-103.81 708.9,-85.4 694.07,-67.39 671.95,-40.52 570.88,-30.72 516.29,-27.34"/>
<polygon fill="black" stroke="black" points="516.22,-23.83 506.03,-26.75 515.81,-30.82 516.22,-23.83"/>
<text text-anchor="middle" x="704.07" y="-71.59" font-family="Times,serif" font-size="14.00">55</text>
</g>
<!-- q5&#45;&gt;q4 -->
<g id="edge64" class="edge">
<title>q5&#45;&gt;q4</title>
<path fill="none" stroke="black" d="M657.97,-116.72C686.69,-108.34 734.31,-90.36 715.07,-67.39 690.12,-37.61 575.29,-29.08 516.29,-26.65"/>
<polygon fill="black" stroke="black" points="516.08,-23.14 505.96,-26.26 515.82,-30.14 516.08,-23.14"/>
<text text-anchor="middle" x="726.07" y="-71.59" font-family="Times,serif" font-size="14.00">56</text>
</g>
<!-- q5&#45;&gt;q4 -->
<g id="edge65" class="edge">
<title>q5&#45;&gt;q4</title>
<path fill="none" stroke="black" d="M658.39,-118.7C693.93,-112.3 761.4,-96.01 737.07,-67.39 709.15,-34.55 579.84,-27.51 516.38,-26.05"/>
<polygon fill="black" stroke="black" points="516.13,-22.54 506.07,-25.84 515.99,-29.54 516.13,-22.54"/>
<text text-anchor="middle" x="749.07" y="-71.59" font-family="Times,serif" font-size="14.00">57</text>
</g>
</g>
</svg>
