<?xml version="1.0" encoding="UTF-8" standalone="no"?>
<!DOCTYPE svg PUBLIC "-//W3C//DTD SVG 1.1//EN"
 "http://www.w3.org/Graphics/SVG/1.1/DTD/svg11.dtd">
<!-- Generated by graphviz version 2.44.0 (20200518.1210)
 -->
<!-- Title: fsm Pages: 1 -->
<svg width="28pt" height="360pt"
 viewBox="0.00 0.00 28.11 360.00" xmlns="http://www.w3.org/2000/svg" xmlns:xlink="http://www.w3.org/1999/xlink">
<g id="graph0" class="graph" transform="scale(0.11 0.11) rotate(0) translate(4 3390.39)">
<title>fsm</title>
<polygon fill="white" stroke="transparent" points="-4,4 -4,-3390.39 261.03,-3390.39 261.03,4 -4,4"/>
<!-- INITIAL_STATE -->
<g id="node1" class="node">
<title>INITIAL_STATE</title>
<ellipse fill="black" stroke="black" cx="1.8" cy="-1124.69" rx="1.8" ry="1.8"/>
</g>
<!-- q0 -->
<g id="node5" class="node">
<title>q0</title>
<ellipse fill="none" stroke="black" cx="61.29" cy="-1124.69" rx="20.89" ry="20.89"/>
<text text-anchor="middle" x="61.29" y="-1120.49" font-family="Times,serif" font-size="14.00">q0</text>
</g>
<!-- INITIAL_STATE&#45;&gt;q0 -->
<g id="edge1" class="edge">
<title>INITIAL_STATE&#45;&gt;q0</title>
<path fill="none" stroke="black" d="M3.8,-1124.69C7.17,-1124.69 18.55,-1124.69 30.23,-1124.69"/>
<polygon fill="black" stroke="black" points="30.38,-1128.19 40.38,-1124.69 30.38,-1121.19 30.38,-1128.19"/>
</g>
<!-- q1 -->
<g id="node2" class="node">
<title>q1</title>
<ellipse fill="none" stroke="black" cx="163.68" cy="-3259.69" rx="20.86" ry="20.86"/>
<ellipse fill="none" stroke="black" cx="163.68" cy="-3259.69" rx="24.89" ry="24.89"/>
<text text-anchor="middle" x="163.68" y="-3255.49" font-family="Times,serif" font-size="14.00">q1</text>
</g>
<!-- q1&#45;&gt;q1 -->
<g id="edge61" class="edge">
<title>q1&#45;&gt;q1</title>
<path fill="none" stroke="black" d="M160.45,-3284.26C160.27,-3294.12 161.34,-3302.39 163.68,-3302.39 165.14,-3302.39 166.11,-3299.16 166.58,-3294.33"/>
<polygon fill="black" stroke="black" points="170.08,-3294.37 166.91,-3284.26 163.09,-3294.14 170.08,-3294.37"/>
<text text-anchor="middle" x="163.68" y="-3306.59" font-family="Times,serif" font-size="14.00">32</text>
</g>
<!-- q1&#45;&gt;q1 -->
<g id="edge62" class="edge">
<title>q1&#45;&gt;q1</title>
<path fill="none" stroke="black" d="M157.95,-3284C155.95,-3302.12 157.86,-3320.39 163.68,-3320.39 168.41,-3320.39 170.56,-3308.33 170.13,-3294.09"/>
<polygon fill="black" stroke="black" points="173.61,-3293.73 169.41,-3284 166.63,-3294.22 173.61,-3293.73"/>
<text text-anchor="middle" x="163.68" y="-3324.59" font-family="Times,serif" font-size="14.00">9</text>
</g>
<!-- q1&#45;&gt;q1 -->
<g id="edge63" class="edge">
<title>q1&#45;&gt;q1</title>
<path fill="none" stroke="black" d="M156.29,-3283.46C151.52,-3309.18 153.98,-3338.39 163.68,-3338.39 172.13,-3338.39 175.09,-3316.23 172.55,-3293.51"/>
<polygon fill="black" stroke="black" points="175.99,-3292.84 171.07,-3283.46 169.07,-3293.86 175.99,-3292.84"/>
<text text-anchor="middle" x="163.68" y="-3342.59" font-family="Times,serif" font-size="14.00">10</text>
</g>
<!-- q2 -->
<g id="node3" class="node">
<title>q2</title>
<ellipse fill="none" stroke="black" cx="163.68" cy="-1084.69" rx="20.86" ry="20.86"/>
<ellipse fill="none" stroke="black" cx="163.68" cy="-1084.69" rx="24.89" ry="24.89"/>
<text text-anchor="middle" x="163.68" y="-1080.49" font-family="Times,serif" font-size="14.00">q2</text>
</g>
<!-- q2&#45;&gt;q2 -->
<g id="edge64" class="edge">
<title>q2&#45;&gt;q2</title>
<path fill="none" stroke="black" d="M162.19,-1109.69C162.12,-1119.35 162.62,-1127.39 163.68,-1127.39 164.33,-1127.39 164.77,-1124.4 164.99,-1119.89"/>
<polygon fill="black" stroke="black" points="168.5,-1119.75 165.17,-1109.69 161.5,-1119.63 168.5,-1119.75"/>
<text text-anchor="middle" x="163.68" y="-1131.59" font-family="Times,serif" font-size="14.00">65</text>
</g>
<!-- q2&#45;&gt;q2 -->
<g id="edge65" class="edge">
<title>q2&#45;&gt;q2</title>
<path fill="none" stroke="black" d="M161.02,-1109.32C160.12,-1127.33 161.01,-1145.39 163.68,-1145.39 165.85,-1145.39 166.84,-1133.47 166.66,-1119.33"/>
<polygon fill="black" stroke="black" points="170.16,-1119.2 166.34,-1109.32 163.16,-1119.42 170.16,-1119.2"/>
<text text-anchor="middle" x="163.68" y="-1149.59" font-family="Times,serif" font-size="14.00">66</text>
</g>
<!-- q2&#45;&gt;q2 -->
<g id="edge66" class="edge">
<title>q2&#45;&gt;q2</title>
<path fill="none" stroke="black" d="M160.2,-1109.27C158.09,-1134.79 159.25,-1163.39 163.68,-1163.39 167.52,-1163.39 168.9,-1141.88 167.83,-1119.53"/>
<polygon fill="black" stroke="black" points="171.3,-1119.02 167.16,-1109.27 164.32,-1119.47 171.3,-1119.02"/>
<text text-anchor="middle" x="163.68" y="-1167.59" font-family="Times,serif" font-size="14.00">67</text>
</g>
<!-- q2&#45;&gt;q2 -->
<g id="edge67" class="edge">
<title>q2&#45;&gt;q2</title>
<path fill="none" stroke="black" d="M159.58,-1109.46C156.06,-1142.04 157.43,-1181.39 163.68,-1181.39 169.3,-1181.39 170.97,-1149.63 168.7,-1119.55"/>
<polygon fill="black" stroke="black" points="172.18,-1119.1 167.78,-1109.46 165.2,-1119.74 172.18,-1119.1"/>
<text text-anchor="middle" x="163.68" y="-1185.59" font-family="Times,serif" font-size="14.00">68</text>
</g>
<!-- q2&#45;&gt;q2 -->
<g id="edge68" class="edge">
<title>q2&#45;&gt;q2</title>
<path fill="none" stroke="black" d="M159.15,-1109.19C154.02,-1148.67 155.54,-1199.39 163.68,-1199.39 171.12,-1199.39 173.03,-1157.01 169.39,-1119.58"/>
<polygon fill="black" stroke="black" points="172.81,-1118.73 168.21,-1109.19 165.86,-1119.52 172.81,-1118.73"/>
<text text-anchor="middle" x="163.68" y="-1203.59" font-family="Times,serif" font-size="14.00">69</text>
</g>
<!-- q2&#45;&gt;q2 -->
<g id="edge69" class="edge">
<title>q2&#45;&gt;q2</title>
<path fill="none" stroke="black" d="M158.79,-1109.13C152,-1155.28 153.63,-1217.39 163.68,-1217.39 173.03,-1217.39 175.09,-1163.71 169.88,-1119.07"/>
<polygon fill="black" stroke="black" points="173.34,-1118.58 168.57,-1109.13 166.4,-1119.5 173.34,-1118.58"/>
<text text-anchor="middle" x="163.68" y="-1221.59" font-family="Times,serif" font-size="14.00">70</text>
</g>
<!-- q2&#45;&gt;q2 -->
<g id="edge70" class="edge">
<title>q2&#45;&gt;q2</title>
<path fill="none" stroke="black" d="M158.49,-1109.17C149.97,-1161.87 151.7,-1235.39 163.68,-1235.39 174.91,-1235.39 177.13,-1170.77 170.35,-1119.27"/>
<polygon fill="black" stroke="black" points="173.78,-1118.55 168.87,-1109.17 166.86,-1119.57 173.78,-1118.55"/>
<text text-anchor="middle" x="163.68" y="-1239.59" font-family="Times,serif" font-size="14.00">71</text>
</g>
<!-- q2&#45;&gt;q2 -->
<g id="edge71" class="edge">
<title>q2&#45;&gt;q2</title>
<path fill="none" stroke="black" d="M158.29,-1108.88C147.95,-1168.05 149.74,-1253.39 163.68,-1253.39 176.86,-1253.39 179.18,-1177.13 170.66,-1118.8"/>
<polygon fill="black" stroke="black" points="174.11,-1118.2 169.07,-1108.88 167.19,-1119.31 174.11,-1118.2"/>
<text text-anchor="middle" x="163.68" y="-1257.59" font-family="Times,serif" font-size="14.00">72</text>
</g>
<!-- q2&#45;&gt;q2 -->
<g id="edge72" class="edge">
<title>q2&#45;&gt;q2</title>
<path fill="none" stroke="black" d="M158.09,-1108.83C145.93,-1174.39 147.79,-1271.39 163.68,-1271.39 178.76,-1271.39 181.21,-1183.99 171.01,-1119.05"/>
<polygon fill="black" stroke="black" points="174.4,-1118.1 169.27,-1108.83 167.5,-1119.28 174.4,-1118.1"/>
<text text-anchor="middle" x="163.68" y="-1275.59" font-family="Times,serif" font-size="14.00">73</text>
</g>
<!-- q2&#45;&gt;q2 -->
<g id="edge73" class="edge">
<title>q2&#45;&gt;q2</title>
<path fill="none" stroke="black" d="M157.93,-1108.79C143.91,-1180.67 145.83,-1289.39 163.68,-1289.39 180.73,-1289.39 183.25,-1190.22 171.23,-1118.69"/>
<polygon fill="black" stroke="black" points="174.66,-1118.01 169.43,-1108.79 167.77,-1119.25 174.66,-1118.01"/>
<text text-anchor="middle" x="163.68" y="-1293.59" font-family="Times,serif" font-size="14.00">74</text>
</g>
<!-- q2&#45;&gt;q2 -->
<g id="edge74" class="edge">
<title>q2&#45;&gt;q2</title>
<path fill="none" stroke="black" d="M157.76,-1108.87C141.9,-1187.03 143.87,-1307.39 163.68,-1307.39 182.64,-1307.39 185.26,-1197.15 171.55,-1119.16"/>
<polygon fill="black" stroke="black" points="174.9,-1118.04 169.6,-1108.87 168.02,-1119.34 174.9,-1118.04"/>
<text text-anchor="middle" x="163.68" y="-1311.59" font-family="Times,serif" font-size="14.00">75</text>
</g>
<!-- q2&#45;&gt;q2 -->
<g id="edge75" class="edge">
<title>q2&#45;&gt;q2</title>
<path fill="none" stroke="black" d="M157.62,-1108.9C139.89,-1193.32 141.91,-1325.39 163.68,-1325.39 184.62,-1325.39 187.29,-1203.19 171.68,-1118.75"/>
<polygon fill="black" stroke="black" points="175.11,-1118.04 169.74,-1108.9 168.24,-1119.39 175.11,-1118.04"/>
<text text-anchor="middle" x="163.68" y="-1329.59" font-family="Times,serif" font-size="14.00">76</text>
</g>
<!-- q2&#45;&gt;q2 -->
<g id="edge76" class="edge">
<title>q2&#45;&gt;q2</title>
<path fill="none" stroke="black" d="M157.55,-1108.67C137.87,-1199.29 139.91,-1343.39 163.68,-1343.39 186.59,-1343.39 189.31,-1209.52 171.86,-1118.69"/>
<polygon fill="black" stroke="black" points="175.24,-1117.77 169.81,-1108.67 168.38,-1119.17 175.24,-1117.77"/>
<text text-anchor="middle" x="163.68" y="-1347.59" font-family="Times,serif" font-size="14.00">77</text>
</g>
<!-- q2&#45;&gt;q2 -->
<g id="edge77" class="edge">
<title>q2&#45;&gt;q2</title>
<path fill="none" stroke="black" d="M157.42,-1108.79C135.86,-1205.62 137.95,-1361.39 163.68,-1361.39 188.56,-1361.39 191.33,-1215.79 172.01,-1118.62"/>
<polygon fill="black" stroke="black" points="175.42,-1117.86 169.94,-1108.79 168.57,-1119.3 175.42,-1117.86"/>
<text text-anchor="middle" x="163.68" y="-1365.59" font-family="Times,serif" font-size="14.00">78</text>
</g>
<!-- q2&#45;&gt;q2 -->
<g id="edge78" class="edge">
<title>q2&#45;&gt;q2</title>
<path fill="none" stroke="black" d="M157.35,-1108.72C133.85,-1211.71 135.97,-1379.39 163.68,-1379.39 190.53,-1379.39 193.35,-1222.03 172.14,-1118.56"/>
<polygon fill="black" stroke="black" points="175.55,-1117.75 170.01,-1108.72 168.71,-1119.23 175.55,-1117.75"/>
<text text-anchor="middle" x="163.68" y="-1383.59" font-family="Times,serif" font-size="14.00">79</text>
</g>
<!-- q2&#45;&gt;q2 -->
<g id="edge79" class="edge">
<title>q2&#45;&gt;q2</title>
<path fill="none" stroke="black" d="M157.24,-1108.81C131.85,-1217.97 133.99,-1397.39 163.68,-1397.39 192.5,-1397.39 195.36,-1228.32 172.28,-1118.57"/>
<polygon fill="black" stroke="black" points="175.69,-1117.81 170.12,-1108.81 168.86,-1119.33 175.69,-1117.81"/>
<text text-anchor="middle" x="163.68" y="-1401.59" font-family="Times,serif" font-size="14.00">80</text>
</g>
<!-- q2&#45;&gt;q2 -->
<g id="edge80" class="edge">
<title>q2&#45;&gt;q2</title>
<path fill="none" stroke="black" d="M157.18,-1108.74C129.84,-1224.04 132,-1415.39 163.68,-1415.39 194.46,-1415.39 197.38,-1234.72 172.43,-1118.71"/>
<polygon fill="black" stroke="black" points="175.79,-1117.72 170.18,-1108.74 168.97,-1119.26 175.79,-1117.72"/>
<text text-anchor="middle" x="163.68" y="-1419.59" font-family="Times,serif" font-size="14.00">81</text>
</g>
<!-- q2&#45;&gt;q2 -->
<g id="edge81" class="edge">
<title>q2&#45;&gt;q2</title>
<path fill="none" stroke="black" d="M157.17,-1108.52C127.83,-1229.92 130,-1433.39 163.68,-1433.39 196.47,-1433.39 199.39,-1240.51 172.45,-1118.29"/>
<polygon fill="black" stroke="black" points="175.85,-1117.48 170.19,-1108.52 169.03,-1119.05 175.85,-1117.48"/>
<text text-anchor="middle" x="163.68" y="-1437.59" font-family="Times,serif" font-size="14.00">82</text>
</g>
<!-- q2&#45;&gt;q2 -->
<g id="edge82" class="edge">
<title>q2&#45;&gt;q2</title>
<path fill="none" stroke="black" d="M157.1,-1108.56C125.82,-1236.08 128.02,-1451.39 163.68,-1451.39 198.44,-1451.39 201.4,-1246.87 172.58,-1118.43"/>
<polygon fill="black" stroke="black" points="175.95,-1117.49 170.26,-1108.56 169.14,-1119.09 175.95,-1117.49"/>
<text text-anchor="middle" x="163.68" y="-1455.59" font-family="Times,serif" font-size="14.00">83</text>
</g>
<!-- q2&#45;&gt;q2 -->
<g id="edge83" class="edge">
<title>q2&#45;&gt;q2</title>
<path fill="none" stroke="black" d="M156.96,-1108.89C123.82,-1242.57 126.06,-1469.39 163.68,-1469.39 200.38,-1469.39 203.41,-1253.51 172.77,-1118.85"/>
<polygon fill="black" stroke="black" points="176.12,-1117.81 170.4,-1108.89 169.31,-1119.43 176.12,-1117.81"/>
<text text-anchor="middle" x="163.68" y="-1473.59" font-family="Times,serif" font-size="14.00">84</text>
</g>
<!-- q2&#45;&gt;q2 -->
<g id="edge84" class="edge">
<title>q2&#45;&gt;q2</title>
<path fill="none" stroke="black" d="M156.95,-1108.72C121.82,-1248.48 124.06,-1487.39 163.68,-1487.39 202.37,-1487.39 205.42,-1259.54 172.82,-1118.71"/>
<polygon fill="black" stroke="black" points="176.16,-1117.62 170.41,-1108.72 169.36,-1119.26 176.16,-1117.62"/>
<text text-anchor="middle" x="163.68" y="-1491.59" font-family="Times,serif" font-size="14.00">85</text>
</g>
<!-- q2&#45;&gt;q2 -->
<g id="edge85" class="edge">
<title>q2&#45;&gt;q2</title>
<path fill="none" stroke="black" d="M156.86,-1108.89C119.81,-1254.76 122.09,-1505.39 163.68,-1505.39 204.34,-1505.39 207.43,-1265.89 172.94,-1118.87"/>
<polygon fill="black" stroke="black" points="176.28,-1117.77 170.5,-1108.89 169.48,-1119.43 176.28,-1117.77"/>
<text text-anchor="middle" x="163.68" y="-1509.59" font-family="Times,serif" font-size="14.00">86</text>
</g>
<!-- q2&#45;&gt;q2 -->
<g id="edge86" class="edge">
<title>q2&#45;&gt;q2</title>
<path fill="none" stroke="black" d="M156.91,-1108.51C117.8,-1260.42 120.06,-1523.39 163.68,-1523.39 206.36,-1523.39 209.44,-1271.59 172.92,-1118.45"/>
<polygon fill="black" stroke="black" points="176.26,-1117.38 170.45,-1108.51 169.46,-1119.06 176.26,-1117.38"/>
<text text-anchor="middle" x="163.68" y="-1527.59" font-family="Times,serif" font-size="14.00">87</text>
</g>
<!-- q2&#45;&gt;q2 -->
<g id="edge87" class="edge">
<title>q2&#45;&gt;q2</title>
<path fill="none" stroke="black" d="M156.87,-1108.52C115.8,-1266.5 118.07,-1541.39 163.68,-1541.39 208.35,-1541.39 211.45,-1277.66 172.97,-1118.38"/>
<polygon fill="black" stroke="black" points="176.32,-1117.36 170.5,-1108.52 169.53,-1119.07 176.32,-1117.36"/>
<text text-anchor="middle" x="163.68" y="-1545.59" font-family="Times,serif" font-size="14.00">88</text>
</g>
<!-- q2&#45;&gt;q2 -->
<g id="edge88" class="edge">
<title>q2&#45;&gt;q2</title>
<path fill="none" stroke="black" d="M156.85,-1108.44C113.79,-1272.49 116.07,-1559.39 163.68,-1559.39 210.36,-1559.39 213.46,-1283.58 172.99,-1118.19"/>
<polygon fill="black" stroke="black" points="176.36,-1117.28 170.51,-1108.44 169.58,-1119 176.36,-1117.28"/>
<text text-anchor="middle" x="163.68" y="-1563.59" font-family="Times,serif" font-size="14.00">89</text>
</g>
<!-- q2&#45;&gt;q2 -->
<g id="edge89" class="edge">
<title>q2&#45;&gt;q2</title>
<path fill="none" stroke="black" d="M156.78,-1108.56C111.79,-1278.69 114.09,-1577.39 163.68,-1577.39 212.32,-1577.39 215.46,-1289.96 173.1,-1118.42"/>
<polygon fill="black" stroke="black" points="176.45,-1117.38 170.58,-1108.56 169.67,-1119.11 176.45,-1117.38"/>
<text text-anchor="middle" x="163.68" y="-1581.59" font-family="Times,serif" font-size="14.00">90</text>
</g>
<!-- q2&#45;&gt;q2 -->
<g id="edge90" class="edge">
<title>q2&#45;&gt;q2</title>
<path fill="none" stroke="black" d="M156.73,-1108.62C109.79,-1284.83 112.11,-1595.39 163.68,-1595.39 214.3,-1595.39 217.47,-1296.24 173.19,-1118.56"/>
<polygon fill="black" stroke="black" points="176.52,-1117.43 170.63,-1108.62 169.74,-1119.18 176.52,-1117.43"/>
<text text-anchor="middle" x="163.68" y="-1599.59" font-family="Times,serif" font-size="14.00">97</text>
</g>
<!-- q2&#45;&gt;q2 -->
<g id="edge91" class="edge">
<title>q2&#45;&gt;q2</title>
<path fill="none" stroke="black" d="M156.7,-1108.62C107.79,-1290.89 110.11,-1613.39 163.68,-1613.39 216.31,-1613.39 219.48,-1302.13 173.2,-1118.36"/>
<polygon fill="black" stroke="black" points="176.57,-1117.42 170.66,-1108.62 169.79,-1119.18 176.57,-1117.42"/>
<text text-anchor="middle" x="163.68" y="-1617.59" font-family="Times,serif" font-size="14.00">98</text>
</g>
<!-- q2&#45;&gt;q2 -->
<g id="edge92" class="edge">
<title>q2&#45;&gt;q2</title>
<path fill="none" stroke="black" d="M156.68,-1108.57C105.78,-1296.89 108.12,-1631.39 163.68,-1631.39 218.3,-1631.39 221.48,-1308.23 173.24,-1118.35"/>
<polygon fill="black" stroke="black" points="176.6,-1117.36 170.68,-1108.57 169.83,-1119.13 176.6,-1117.36"/>
<text text-anchor="middle" x="163.68" y="-1635.59" font-family="Times,serif" font-size="14.00">99</text>
</g>
<!-- q2&#45;&gt;q2 -->
<g id="edge93" class="edge">
<title>q2&#45;&gt;q2</title>
<path fill="none" stroke="black" d="M156.68,-1108.47C103.78,-1302.82 106.11,-1649.39 163.68,-1649.39 220.29,-1649.39 223.49,-1314.23 173.27,-1118.27"/>
<polygon fill="black" stroke="black" points="176.62,-1117.24 170.68,-1108.47 169.85,-1119.03 176.62,-1117.24"/>
<text text-anchor="middle" x="163.68" y="-1653.59" font-family="Times,serif" font-size="14.00">100</text>
</g>
<!-- q2&#45;&gt;q2 -->
<g id="edge94" class="edge">
<title>q2&#45;&gt;q2</title>
<path fill="none" stroke="black" d="M156.61,-1108.61C101.78,-1309.04 104.13,-1667.39 163.68,-1667.39 222.27,-1667.39 225.49,-1320.5 173.35,-1118.42"/>
<polygon fill="black" stroke="black" points="176.7,-1117.38 170.75,-1108.61 169.93,-1119.18 176.7,-1117.38"/>
<text text-anchor="middle" x="163.68" y="-1671.59" font-family="Times,serif" font-size="14.00">101</text>
</g>
<!-- q2&#45;&gt;q2 -->
<g id="edge95" class="edge">
<title>q2&#45;&gt;q2</title>
<path fill="none" stroke="black" d="M156.65,-1108.41C99.77,-1314.85 102.12,-1685.39 163.68,-1685.39 224.28,-1685.39 227.5,-1326.34 173.34,-1118.2"/>
<polygon fill="black" stroke="black" points="176.68,-1117.16 170.71,-1108.41 169.92,-1118.97 176.68,-1117.16"/>
<text text-anchor="middle" x="163.68" y="-1689.59" font-family="Times,serif" font-size="14.00">102</text>
</g>
<!-- q2&#45;&gt;q2 -->
<g id="edge96" class="edge">
<title>q2&#45;&gt;q2</title>
<path fill="none" stroke="black" d="M156.61,-1108.47C97.77,-1320.97 100.13,-1703.39 163.68,-1703.39 226.27,-1703.39 229.5,-1332.46 173.38,-1118.24"/>
<polygon fill="black" stroke="black" points="176.74,-1117.22 170.76,-1108.47 169.98,-1119.04 176.74,-1117.22"/>
<text text-anchor="middle" x="163.68" y="-1707.59" font-family="Times,serif" font-size="14.00">103</text>
</g>
<!-- q2&#45;&gt;q2 -->
<g id="edge97" class="edge">
<title>q2&#45;&gt;q2</title>
<path fill="none" stroke="black" d="M156.58,-1108.5C95.77,-1327.04 98.14,-1721.39 163.68,-1721.39 228.26,-1721.39 231.51,-1338.51 173.42,-1118.22"/>
<polygon fill="black" stroke="black" points="176.78,-1117.24 170.79,-1108.5 170.02,-1119.07 176.78,-1117.24"/>
<text text-anchor="middle" x="163.68" y="-1725.59" font-family="Times,serif" font-size="14.00">104</text>
</g>
<!-- q2&#45;&gt;q2 -->
<g id="edge98" class="edge">
<title>q2&#45;&gt;q2</title>
<path fill="none" stroke="black" d="M156.56,-1108.49C93.77,-1333.07 96.14,-1739.39 163.68,-1739.39 230.23,-1739.39 233.51,-1344.89 173.52,-1118.48"/>
<polygon fill="black" stroke="black" points="176.81,-1117.22 170.8,-1108.49 170.05,-1119.06 176.81,-1117.22"/>
<text text-anchor="middle" x="163.68" y="-1743.59" font-family="Times,serif" font-size="14.00">105</text>
</g>
<!-- q2&#45;&gt;q2 -->
<g id="edge99" class="edge">
<title>q2&#45;&gt;q2</title>
<path fill="none" stroke="black" d="M156.55,-1108.44C91.76,-1339.06 94.14,-1757.39 163.68,-1757.39 232.23,-1757.39 235.52,-1350.82 173.52,-1118.35"/>
<polygon fill="black" stroke="black" points="176.83,-1117.17 170.81,-1108.44 170.07,-1119.01 176.83,-1117.17"/>
<text text-anchor="middle" x="163.68" y="-1761.59" font-family="Times,serif" font-size="14.00">106</text>
</g>
<!-- q2&#45;&gt;q2 -->
<g id="edge100" class="edge">
<title>q2&#45;&gt;q2</title>
<path fill="none" stroke="black" d="M156.55,-1108.36C89.76,-1344.99 92.14,-1775.39 163.68,-1775.39 234.25,-1775.39 237.52,-1356.68 173.51,-1118.18"/>
<polygon fill="black" stroke="black" points="176.83,-1117.08 170.81,-1108.36 170.09,-1118.93 176.83,-1117.08"/>
<text text-anchor="middle" x="163.68" y="-1779.59" font-family="Times,serif" font-size="14.00">107</text>
</g>
<!-- q2&#45;&gt;q2 -->
<g id="edge101" class="edge">
<title>q2&#45;&gt;q2</title>
<path fill="none" stroke="black" d="M156.47,-1108.61C87.76,-1351.33 90.17,-1793.39 163.68,-1793.39 236.22,-1793.39 239.52,-1362.91 173.58,-1118.31"/>
<polygon fill="black" stroke="black" points="176.93,-1117.32 170.9,-1108.61 170.18,-1119.18 176.93,-1117.32"/>
<text text-anchor="middle" x="163.68" y="-1797.59" font-family="Times,serif" font-size="14.00">108</text>
</g>
<!-- q2&#45;&gt;q2 -->
<g id="edge102" class="edge">
<title>q2&#45;&gt;q2</title>
<path fill="none" stroke="black" d="M156.49,-1108.47C85.76,-1357.19 88.16,-1811.39 163.68,-1811.39 238.21,-1811.39 241.53,-1369.09 173.63,-1118.41"/>
<polygon fill="black" stroke="black" points="176.92,-1117.17 170.87,-1108.47 170.17,-1119.04 176.92,-1117.17"/>
<text text-anchor="middle" x="163.68" y="-1815.59" font-family="Times,serif" font-size="14.00">109</text>
</g>
<!-- q2&#45;&gt;q2 -->
<g id="edge103" class="edge">
<title>q2&#45;&gt;q2</title>
<path fill="none" stroke="black" d="M156.41,-1108.67C83.76,-1363.47 86.18,-1829.39 163.68,-1829.39 240.2,-1829.39 243.53,-1375.22 173.68,-1118.47"/>
<polygon fill="black" stroke="black" points="177,-1117.36 170.95,-1108.67 170.26,-1119.24 177,-1117.36"/>
<text text-anchor="middle" x="163.68" y="-1833.59" font-family="Times,serif" font-size="14.00">110</text>
</g>
<!-- q2&#45;&gt;q2 -->
<g id="edge104" class="edge">
<title>q2&#45;&gt;q2</title>
<path fill="none" stroke="black" d="M156.46,-1108.46C81.76,-1369.24 84.16,-1847.39 163.68,-1847.39 242.23,-1847.39 245.53,-1380.85 173.6,-1118.11"/>
<polygon fill="black" stroke="black" points="176.97,-1117.15 170.9,-1108.46 170.23,-1119.03 176.97,-1117.15"/>
<text text-anchor="middle" x="163.68" y="-1851.59" font-family="Times,serif" font-size="14.00">111</text>
</g>
<!-- q2&#45;&gt;q2 -->
<g id="edge105" class="edge">
<title>q2&#45;&gt;q2</title>
<path fill="none" stroke="black" d="M156.4,-1108.62C79.75,-1375.47 82.18,-1865.39 163.68,-1865.39 244.18,-1865.39 247.53,-1387.35 173.73,-1118.49"/>
<polygon fill="black" stroke="black" points="177.04,-1117.3 170.96,-1108.62 170.3,-1119.19 177.04,-1117.3"/>
<text text-anchor="middle" x="163.68" y="-1869.59" font-family="Times,serif" font-size="14.00">112</text>
</g>
<!-- q2&#45;&gt;q2 -->
<g id="edge106" class="edge">
<title>q2&#45;&gt;q2</title>
<path fill="none" stroke="black" d="M156.46,-1108.35C77.75,-1381.16 80.16,-1883.39 163.68,-1883.39 246.22,-1883.39 249.54,-1392.86 173.63,-1118.03"/>
<polygon fill="black" stroke="black" points="176.98,-1117.02 170.9,-1108.35 170.25,-1118.92 176.98,-1117.02"/>
<text text-anchor="middle" x="163.68" y="-1887.59" font-family="Times,serif" font-size="14.00">113</text>
</g>
<!-- q2&#45;&gt;q2 -->
<g id="edge107" class="edge">
<title>q2&#45;&gt;q2</title>
<path fill="none" stroke="black" d="M156.42,-1108.46C75.75,-1387.33 78.17,-1901.39 163.68,-1901.39 248.19,-1901.39 251.54,-1399.3 173.75,-1118.36"/>
<polygon fill="black" stroke="black" points="177.04,-1117.13 170.95,-1108.46 170.3,-1119.03 177.04,-1117.13"/>
<text text-anchor="middle" x="163.68" y="-1905.59" font-family="Times,serif" font-size="14.00">114</text>
</g>
<!-- q2&#45;&gt;q2 -->
<g id="edge108" class="edge">
<title>q2&#45;&gt;q2</title>
<path fill="none" stroke="black" d="M156.37,-1108.55C73.75,-1393.47 76.19,-1919.39 163.68,-1919.39 250.19,-1919.39 253.55,-1405.21 173.74,-1118.24"/>
<polygon fill="black" stroke="black" points="177.08,-1117.22 170.99,-1108.55 170.35,-1119.13 177.08,-1117.22"/>
<text text-anchor="middle" x="163.68" y="-1923.59" font-family="Times,serif" font-size="14.00">115</text>
</g>
<!-- q2&#45;&gt;q2 -->
<g id="edge109" class="edge">
<title>q2&#45;&gt;q2</title>
<path fill="none" stroke="black" d="M156.34,-1108.63C71.75,-1399.59 74.2,-1937.39 163.68,-1937.39 252.16,-1937.39 255.55,-1411.6 173.84,-1118.52"/>
<polygon fill="black" stroke="black" points="177.13,-1117.29 171.02,-1108.63 170.39,-1119.21 177.13,-1117.29"/>
<text text-anchor="middle" x="163.68" y="-1941.59" font-family="Times,serif" font-size="14.00">116</text>
</g>
<!-- q2&#45;&gt;q2 -->
<g id="edge110" class="edge">
<title>q2&#45;&gt;q2</title>
<path fill="none" stroke="black" d="M156.31,-1108.69C69.75,-1405.68 72.2,-1955.39 163.68,-1955.39 254.17,-1955.39 257.55,-1417.43 173.81,-1118.35"/>
<polygon fill="black" stroke="black" points="177.16,-1117.34 171.05,-1108.69 170.43,-1119.26 177.16,-1117.34"/>
<text text-anchor="middle" x="163.68" y="-1959.59" font-family="Times,serif" font-size="14.00">117</text>
</g>
<!-- q2&#45;&gt;q2 -->
<g id="edge111" class="edge">
<title>q2&#45;&gt;q2</title>
<path fill="none" stroke="black" d="M156.29,-1108.73C67.75,-1411.76 70.21,-1973.39 163.68,-1973.39 256.15,-1973.39 259.55,-1423.76 173.9,-1118.58"/>
<polygon fill="black" stroke="black" points="177.19,-1117.38 171.07,-1108.73 170.46,-1119.3 177.19,-1117.38"/>
<text text-anchor="middle" x="163.68" y="-1977.59" font-family="Times,serif" font-size="14.00">118</text>
</g>
<!-- q2&#45;&gt;q2 -->
<g id="edge112" class="edge">
<title>q2&#45;&gt;q2</title>
<path fill="none" stroke="black" d="M156.27,-1108.75C65.75,-1417.81 68.22,-1991.39 163.68,-1991.39 258.12,-1991.39 261.55,-1430.06 173.98,-1118.8"/>
<polygon fill="black" stroke="black" points="177.22,-1117.4 171.09,-1108.75 170.49,-1119.33 177.22,-1117.4"/>
<text text-anchor="middle" x="163.68" y="-1995.59" font-family="Times,serif" font-size="14.00">119</text>
</g>
<!-- q2&#45;&gt;q2 -->
<g id="edge113" class="edge">
<title>q2&#45;&gt;q2</title>
<path fill="none" stroke="black" d="M156.26,-1108.75C63.74,-1423.83 66.22,-2009.39 163.68,-2009.39 260.14,-2009.39 263.56,-1435.78 173.92,-1118.53"/>
<polygon fill="black" stroke="black" points="177.24,-1117.39 171.1,-1108.75 170.51,-1119.33 177.24,-1117.39"/>
<text text-anchor="middle" x="163.68" y="-2013.59" font-family="Times,serif" font-size="14.00">120</text>
</g>
<!-- q2&#45;&gt;q2 -->
<g id="edge114" class="edge">
<title>q2&#45;&gt;q2</title>
<path fill="none" stroke="black" d="M156.25,-1108.74C61.74,-1429.84 64.22,-2027.39 163.68,-2027.39 262.12,-2027.39 265.56,-1442.03 173.99,-1118.7"/>
<polygon fill="black" stroke="black" points="177.25,-1117.38 171.11,-1108.74 170.52,-1119.32 177.25,-1117.38"/>
<text text-anchor="middle" x="163.68" y="-2031.59" font-family="Times,serif" font-size="14.00">121</text>
</g>
<!-- q2&#45;&gt;q2 -->
<g id="edge115" class="edge">
<title>q2&#45;&gt;q2</title>
<path fill="none" stroke="black" d="M156.25,-1108.71C59.74,-1435.82 62.22,-2045.39 163.68,-2045.39 264.15,-2045.39 267.56,-1447.66 173.91,-1118.37"/>
<polygon fill="black" stroke="black" points="177.26,-1117.34 171.11,-1108.71 170.53,-1119.29 177.26,-1117.34"/>
<text text-anchor="middle" x="163.68" y="-2049.59" font-family="Times,serif" font-size="14.00">122</text>
</g>
<!-- q2&#45;&gt;q2 -->
<g id="edge116" class="edge">
<title>q2&#45;&gt;q2</title>
<path fill="none" stroke="black" d="M156.33,-1108.41C57.74,-1441.46 60.19,-2063.39 163.68,-2063.39 266.16,-2063.39 269.56,-1453.55 173.89,-1118.25"/>
<polygon fill="black" stroke="black" points="177.18,-1117.03 171.03,-1108.41 170.46,-1118.99 177.18,-1117.03"/>
<text text-anchor="middle" x="163.68" y="-2067.59" font-family="Times,serif" font-size="14.00">48</text>
</g>
<!-- q2&#45;&gt;q2 -->
<g id="edge117" class="edge">
<title>q2&#45;&gt;q2</title>
<path fill="none" stroke="black" d="M156.34,-1108.33C55.74,-1447.39 58.19,-2081.39 163.68,-2081.39 268.17,-2081.39 271.57,-1459.41 173.87,-1118.1"/>
<polygon fill="black" stroke="black" points="177.18,-1116.96 171.02,-1108.33 170.46,-1118.91 177.18,-1116.96"/>
<text text-anchor="middle" x="163.68" y="-2085.59" font-family="Times,serif" font-size="14.00">49</text>
</g>
<!-- q2&#45;&gt;q2 -->
<g id="edge118" class="edge">
<title>q2&#45;&gt;q2</title>
<path fill="none" stroke="black" d="M156.28,-1108.5C53.74,-1453.62 56.2,-2099.39 163.68,-2099.39 270.16,-2099.39 273.57,-1465.54 173.91,-1118.18"/>
<polygon fill="black" stroke="black" points="177.24,-1117.12 171.08,-1108.5 170.52,-1119.08 177.24,-1117.12"/>
<text text-anchor="middle" x="163.68" y="-2103.59" font-family="Times,serif" font-size="14.00">50</text>
</g>
<!-- q2&#45;&gt;q2 -->
<g id="edge119" class="edge">
<title>q2&#45;&gt;q2</title>
<path fill="none" stroke="black" d="M156.3,-1108.4C51.74,-1459.5 54.2,-2117.39 163.68,-2117.39 272.15,-2117.39 275.57,-1471.65 173.94,-1118.25"/>
<polygon fill="black" stroke="black" points="177.23,-1117.01 171.06,-1108.4 170.51,-1118.98 177.23,-1117.01"/>
<text text-anchor="middle" x="163.68" y="-2121.59" font-family="Times,serif" font-size="14.00">51</text>
</g>
<!-- q2&#45;&gt;q2 -->
<g id="edge120" class="edge">
<title>q2&#45;&gt;q2</title>
<path fill="none" stroke="black" d="M156.33,-1108.28C49.74,-1465.37 52.19,-2135.39 163.68,-2135.39 274.17,-2135.39 277.57,-1477.42 173.89,-1118.03"/>
<polygon fill="black" stroke="black" points="177.2,-1116.89 171.03,-1108.28 170.49,-1118.86 177.2,-1116.89"/>
<text text-anchor="middle" x="163.68" y="-2139.59" font-family="Times,serif" font-size="14.00">52</text>
</g>
<!-- q2&#45;&gt;q2 -->
<g id="edge121" class="edge">
<title>q2&#45;&gt;q2</title>
<path fill="none" stroke="black" d="M156.28,-1108.41C47.74,-1471.55 50.2,-2153.39 163.68,-2153.39 276.16,-2153.39 279.57,-1483.48 173.91,-1118.06"/>
<polygon fill="black" stroke="black" points="177.26,-1117.02 171.08,-1108.41 170.54,-1118.99 177.26,-1117.02"/>
<text text-anchor="middle" x="163.68" y="-2157.59" font-family="Times,serif" font-size="14.00">53</text>
</g>
<!-- q2&#45;&gt;q2 -->
<g id="edge122" class="edge">
<title>q2&#45;&gt;q2</title>
<path fill="none" stroke="black" d="M156.24,-1108.53C45.73,-1477.72 48.22,-2171.39 163.68,-2171.39 278.13,-2171.39 281.57,-1489.86 174.01,-1118.34"/>
<polygon fill="black" stroke="black" points="177.3,-1117.14 171.12,-1108.53 170.59,-1119.11 177.3,-1117.14"/>
<text text-anchor="middle" x="163.68" y="-2175.59" font-family="Times,serif" font-size="14.00">54</text>
</g>
<!-- q2&#45;&gt;q2 -->
<g id="edge123" class="edge">
<title>q2&#45;&gt;q2</title>
<path fill="none" stroke="black" d="M156.28,-1108.36C43.73,-1483.53 46.2,-2189.39 163.68,-2189.39 280.16,-2189.39 283.58,-1495.54 173.94,-1118.05"/>
<polygon fill="black" stroke="black" points="177.27,-1116.96 171.08,-1108.36 170.55,-1118.95 177.27,-1116.96"/>
<text text-anchor="middle" x="163.68" y="-2193.59" font-family="Times,serif" font-size="14.00">55</text>
</g>
<!-- q2&#45;&gt;q2 -->
<g id="edge124" class="edge">
<title>q2&#45;&gt;q2</title>
<path fill="none" stroke="black" d="M156.24,-1108.46C41.73,-1489.67 44.21,-2207.39 163.68,-2207.39 282.13,-2207.39 285.58,-1501.88 174.03,-1118.31"/>
<polygon fill="black" stroke="black" points="177.31,-1117.06 171.12,-1108.46 170.6,-1119.05 177.31,-1117.06"/>
<text text-anchor="middle" x="163.68" y="-2211.59" font-family="Times,serif" font-size="14.00">56</text>
</g>
<!-- q2&#45;&gt;q2 -->
<g id="edge125" class="edge">
<title>q2&#45;&gt;q2</title>
<path fill="none" stroke="black" d="M156.3,-1108.27C39.73,-1495.43 42.19,-2225.39 163.68,-2225.39 284.16,-2225.39 287.58,-1507.5 173.94,-1117.98"/>
<polygon fill="black" stroke="black" points="177.26,-1116.86 171.07,-1108.27 170.55,-1118.85 177.26,-1116.86"/>
<text text-anchor="middle" x="163.68" y="-2229.59" font-family="Times,serif" font-size="14.00">57</text>
</g>
<!-- q3 -->
<g id="node4" class="node">
<title>q3</title>
<ellipse fill="none" stroke="black" cx="163.68" cy="-24.69" rx="20.86" ry="20.86"/>
<ellipse fill="none" stroke="black" cx="163.68" cy="-24.69" rx="24.89" ry="24.89"/>
<text text-anchor="middle" x="163.68" y="-20.49" font-family="Times,serif" font-size="14.00">q3</text>
</g>
<!-- q0&#45;&gt;q1 -->
<g id="edge2" class="edge">
<title>q0&#45;&gt;q1</title>
<path fill="none" stroke="black" d="M62.49,-1145.42C64.12,-1317.7 76.22,-2514.8 99.99,-2874.69 110.36,-3031.75 82.58,-3079.75 138.99,-3226.69 139.71,-3228.57 140.56,-3230.44 141.51,-3232.28"/>
<polygon fill="black" stroke="black" points="138.69,-3234.37 146.86,-3241.11 144.68,-3230.75 138.69,-3234.37"/>
<text text-anchor="middle" x="110.49" y="-3173.89" font-family="Times,serif" font-size="14.00">32</text>
</g>
<!-- q0&#45;&gt;q1 -->
<g id="edge3" class="edge">
<title>q0&#45;&gt;q1</title>
<path fill="none" stroke="black" d="M62.83,-1145.63C65.9,-1263.93 81.67,-1860.52 99.99,-2347.69 100.45,-2359.91 134.99,-3215.15 138.99,-3226.69 139.72,-3228.81 140.63,-3230.9 141.67,-3232.95"/>
<polygon fill="black" stroke="black" points="138.7,-3234.8 146.86,-3241.56 144.69,-3231.18 138.7,-3234.8"/>
<text text-anchor="middle" x="110.49" y="-2842.89" font-family="Times,serif" font-size="14.00">9</text>
</g>
<!-- q0&#45;&gt;q1 -->
<g id="edge4" class="edge">
<title>q0&#45;&gt;q1</title>
<path fill="none" stroke="black" d="M62.31,-1145.68C62.56,-1253.64 65.59,-1757.37 99.99,-2167.69 105.95,-2238.81 115.6,-2255.73 120.99,-2326.89 124.76,-2376.75 123.19,-3179.25 138.99,-3226.69 139.69,-3228.81 140.59,-3230.92 141.61,-3232.97"/>
<polygon fill="black" stroke="black" points="138.63,-3234.8 146.77,-3241.59 144.64,-3231.21 138.63,-3234.8"/>
<text text-anchor="middle" x="110.49" y="-2330.89" font-family="Times,serif" font-size="14.00">10</text>
</g>
<!-- q0&#45;&gt;q2 -->
<g id="edge5" class="edge">
<title>q0&#45;&gt;q2</title>
<path fill="none" stroke="black" d="M62.25,-1145.61C62.09,-1287.73 62.78,-2106.84 99.99,-2142.69 106.71,-2149.17 114.26,-2149.16 120.99,-2142.69 158.69,-2106.45 162.31,-1298.37 162.65,-1119.53"/>
<polygon fill="black" stroke="black" points="166.15,-1119.37 162.66,-1109.37 159.15,-1119.36 166.15,-1119.37"/>
<text text-anchor="middle" x="110.49" y="-2150.89" font-family="Times,serif" font-size="14.00">65</text>
</g>
<!-- q0&#45;&gt;q2 -->
<g id="edge6" class="edge">
<title>q0&#45;&gt;q2</title>
<path fill="none" stroke="black" d="M62.29,-1145.68C62.35,-1284.69 64.29,-2068.34 99.99,-2102.69 106.71,-2109.16 114.25,-2109.16 120.99,-2102.69 157.2,-2067.94 161.97,-1294.41 162.59,-1119.59"/>
<polygon fill="black" stroke="black" points="166.09,-1119.42 162.62,-1109.41 159.09,-1119.4 166.09,-1119.42"/>
<text text-anchor="middle" x="110.49" y="-2110.89" font-family="Times,serif" font-size="14.00">66</text>
</g>
<!-- q0&#45;&gt;q2 -->
<g id="edge7" class="edge">
<title>q0&#45;&gt;q2</title>
<path fill="none" stroke="black" d="M62.32,-1145.69C62.62,-1281.37 65.79,-2029.84 99.99,-2062.69 106.72,-2069.16 114.25,-2069.15 120.99,-2062.69 155.71,-2029.42 161.63,-1290.12 162.53,-1119.57"/>
<polygon fill="black" stroke="black" points="166.03,-1119.41 162.58,-1109.4 159.03,-1119.38 166.03,-1119.41"/>
<text text-anchor="middle" x="110.49" y="-2070.89" font-family="Times,serif" font-size="14.00">67</text>
</g>
<!-- q0&#45;&gt;q2 -->
<g id="edge8" class="edge">
<title>q0&#45;&gt;q2</title>
<path fill="none" stroke="black" d="M62.36,-1145.64C62.9,-1277.77 67.29,-1991.34 99.99,-2022.69 106.72,-2029.15 114.24,-2029.14 120.99,-2022.69 154.2,-1990.93 161.25,-1287.02 162.46,-1120.01"/>
<polygon fill="black" stroke="black" points="165.96,-1119.82 162.53,-1109.79 158.96,-1119.77 165.96,-1119.82"/>
<text text-anchor="middle" x="110.49" y="-2030.89" font-family="Times,serif" font-size="14.00">68</text>
</g>
<!-- q0&#45;&gt;q2 -->
<g id="edge9" class="edge">
<title>q0&#45;&gt;q2</title>
<path fill="none" stroke="black" d="M62.4,-1145.53C63.18,-1273.89 68.78,-1952.83 99.99,-1982.69 106.73,-1989.15 114.24,-1989.14 120.99,-1982.69 152.71,-1952.41 160.87,-1282.66 162.39,-1120.03"/>
<polygon fill="black" stroke="black" points="165.89,-1119.67 162.48,-1109.64 158.89,-1119.61 165.89,-1119.67"/>
<text text-anchor="middle" x="110.49" y="-1990.89" font-family="Times,serif" font-size="14.00">69</text>
</g>
<!-- q0&#45;&gt;q2 -->
<g id="edge10" class="edge">
<title>q0&#45;&gt;q2</title>
<path fill="none" stroke="black" d="M62.45,-1145.36C63.48,-1269.73 70.27,-1914.31 99.99,-1942.69 106.74,-1949.14 114.23,-1949.13 120.99,-1942.69 151.27,-1913.85 160.5,-1276.63 162.31,-1119.48"/>
<polygon fill="black" stroke="black" points="165.81,-1119.46 162.43,-1109.42 158.82,-1119.38 165.81,-1119.46"/>
<text text-anchor="middle" x="110.49" y="-1950.89" font-family="Times,serif" font-size="14.00">70</text>
</g>
<!-- q0&#45;&gt;q2 -->
<g id="edge11" class="edge">
<title>q0&#45;&gt;q2</title>
<path fill="none" stroke="black" d="M62.5,-1145.51C63.81,-1266.61 71.78,-1875.82 99.99,-1902.69 106.74,-1909.13 114.22,-1909.12 120.99,-1902.69 149.77,-1875.34 160.07,-1272.86 162.22,-1119.8"/>
<polygon fill="black" stroke="black" points="165.73,-1119.62 162.37,-1109.57 158.73,-1119.52 165.73,-1119.62"/>
<text text-anchor="middle" x="110.49" y="-1910.89" font-family="Times,serif" font-size="14.00">71</text>
</g>
<!-- q0&#45;&gt;q2 -->
<g id="edge12" class="edge">
<title>q0&#45;&gt;q2</title>
<path fill="none" stroke="black" d="M62.56,-1145.58C64.15,-1263.08 73.28,-1837.31 99.99,-1862.69 106.75,-1869.12 114.21,-1869.11 120.99,-1862.69 148.28,-1836.82 159.62,-1268.55 162.13,-1119.98"/>
<polygon fill="black" stroke="black" points="165.63,-1119.68 162.3,-1109.63 158.63,-1119.57 165.63,-1119.68"/>
<text text-anchor="middle" x="110.49" y="-1870.89" font-family="Times,serif" font-size="14.00">72</text>
</g>
<!-- q0&#45;&gt;q2 -->
<g id="edge13" class="edge">
<title>q0&#45;&gt;q2</title>
<path fill="none" stroke="black" d="M62.62,-1145.55C64.51,-1259.12 74.77,-1798.8 99.99,-1822.69 106.76,-1829.11 114.2,-1829.1 120.99,-1822.69 146.81,-1798.29 159.16,-1263.72 162.02,-1120"/>
<polygon fill="black" stroke="black" points="165.53,-1119.65 162.22,-1109.58 158.53,-1119.51 165.53,-1119.65"/>
<text text-anchor="middle" x="110.49" y="-1830.89" font-family="Times,serif" font-size="14.00">73</text>
</g>
<!-- q0&#45;&gt;q2 -->
<g id="edge14" class="edge">
<title>q0&#45;&gt;q2</title>
<path fill="none" stroke="black" d="M62.69,-1145.42C64.88,-1254.75 76.25,-1760.28 99.99,-1782.69 106.77,-1789.1 114.19,-1789.09 120.99,-1782.69 145.37,-1759.72 158.7,-1257.36 161.91,-1119.45"/>
<polygon fill="black" stroke="black" points="165.41,-1119.5 162.14,-1109.42 158.41,-1119.34 165.41,-1119.5"/>
<text text-anchor="middle" x="110.49" y="-1790.89" font-family="Times,serif" font-size="14.00">74</text>
</g>
<!-- q0&#45;&gt;q2 -->
<g id="edge15" class="edge">
<title>q0&#45;&gt;q2</title>
<path fill="none" stroke="black" d="M62.77,-1145.53C65.29,-1251.01 77.75,-1721.77 99.99,-1742.69 106.78,-1749.09 114.18,-1749.08 120.99,-1742.69 143.89,-1721.19 158.18,-1252.59 161.78,-1119.6"/>
<polygon fill="black" stroke="black" points="165.28,-1119.64 162.05,-1109.55 158.28,-1119.45 165.28,-1119.64"/>
<text text-anchor="middle" x="110.49" y="-1750.89" font-family="Times,serif" font-size="14.00">75</text>
</g>
<!-- q0&#45;&gt;q2 -->
<g id="edge16" class="edge">
<title>q0&#45;&gt;q2</title>
<path fill="none" stroke="black" d="M62.01,-1145.7C60.88,-1244.98 58.62,-1663.93 99.99,-1702.69 106.8,-1709.07 114.17,-1709.07 120.99,-1702.69 163.69,-1662.78 163.93,-1244.92 163.03,-1119.86"/>
<polygon fill="black" stroke="black" points="166.53,-1119.66 162.95,-1109.69 159.53,-1119.72 166.53,-1119.66"/>
<text text-anchor="middle" x="110.49" y="-1710.89" font-family="Times,serif" font-size="14.00">76</text>
</g>
<!-- q0&#45;&gt;q2 -->
<g id="edge17" class="edge">
<title>q0&#45;&gt;q2</title>
<path fill="none" stroke="black" d="M62.12,-1145.5C61.54,-1240.13 61.55,-1626.86 99.99,-1662.69 106.81,-1669.06 114.15,-1669.05 120.99,-1662.69 160.8,-1625.65 163.1,-1238.84 162.86,-1119.54"/>
<polygon fill="black" stroke="black" points="166.36,-1119.47 162.83,-1109.48 159.36,-1119.49 166.36,-1119.47"/>
<text text-anchor="middle" x="110.49" y="-1670.89" font-family="Times,serif" font-size="14.00">77</text>
</g>
<!-- q0&#45;&gt;q2 -->
<g id="edge18" class="edge">
<title>q0&#45;&gt;q2</title>
<path fill="none" stroke="black" d="M62.24,-1145.44C62.24,-1235.54 64.5,-1589.79 99.99,-1622.69 106.83,-1629.04 114.14,-1629.03 120.99,-1622.69 157.87,-1588.56 162.22,-1233.66 162.66,-1119.71"/>
<polygon fill="black" stroke="black" points="166.16,-1119.46 162.69,-1109.45 159.16,-1119.44 166.16,-1119.46"/>
<text text-anchor="middle" x="110.49" y="-1630.89" font-family="Times,serif" font-size="14.00">78</text>
</g>
<!-- q0&#45;&gt;q2 -->
<g id="edge19" class="edge">
<title>q0&#45;&gt;q2</title>
<path fill="none" stroke="black" d="M62.39,-1145.48C63,-1231.03 67.45,-1552.73 99.99,-1582.69 106.85,-1589.02 114.12,-1589.01 120.99,-1582.69 154.98,-1551.43 161.27,-1227.71 162.42,-1119.61"/>
<polygon fill="black" stroke="black" points="165.92,-1119.59 162.52,-1109.55 158.92,-1119.52 165.92,-1119.59"/>
<text text-anchor="middle" x="110.49" y="-1590.89" font-family="Times,serif" font-size="14.00">79</text>
</g>
<!-- q0&#45;&gt;q2 -->
<g id="edge20" class="edge">
<title>q0&#45;&gt;q2</title>
<path fill="none" stroke="black" d="M61.97,-1145.56C60.9,-1237.3 60.45,-1597.97 120.99,-1542.69 152.09,-1514.29 160.25,-1221.49 162.15,-1119.49"/>
<polygon fill="black" stroke="black" points="165.65,-1119.46 162.33,-1109.4 158.65,-1119.34 165.65,-1119.46"/>
<text text-anchor="middle" x="110.49" y="-1551.89" font-family="Times,serif" font-size="14.00">80</text>
</g>
<!-- q0&#45;&gt;q2 -->
<g id="edge21" class="edge">
<title>q0&#45;&gt;q2</title>
<path fill="none" stroke="black" d="M62.77,-1145.35C64.72,-1220.83 73.31,-1478.54 99.99,-1502.69 106.91,-1508.96 114.07,-1508.96 120.99,-1502.69 149.19,-1477.16 159.12,-1215.51 161.82,-1119.65"/>
<polygon fill="black" stroke="black" points="165.32,-1119.68 162.1,-1109.59 158.33,-1119.49 165.32,-1119.68"/>
<text text-anchor="middle" x="110.49" y="-1510.89" font-family="Times,serif" font-size="14.00">81</text>
</g>
<!-- q0&#45;&gt;q2 -->
<g id="edge22" class="edge">
<title>q0&#45;&gt;q2</title>
<path fill="none" stroke="black" d="M63.05,-1145.8C65.78,-1216.47 76.28,-1441.48 99.99,-1462.69 106.94,-1468.92 114.03,-1468.92 120.99,-1462.69 146.33,-1439.99 157.89,-1208.8 161.43,-1119.57"/>
<polygon fill="black" stroke="black" points="164.94,-1119.54 161.83,-1109.41 157.94,-1119.27 164.94,-1119.54"/>
<text text-anchor="middle" x="110.49" y="-1470.89" font-family="Times,serif" font-size="14.00">82</text>
</g>
<!-- q0&#45;&gt;q2 -->
<g id="edge23" class="edge">
<title>q0&#45;&gt;q2</title>
<path fill="none" stroke="black" d="M63.36,-1145.54C66.89,-1210.23 79.16,-1404.33 99.99,-1422.69 106.99,-1428.87 113.99,-1428.88 120.99,-1422.69 143.48,-1402.81 156.52,-1201.74 160.96,-1119.48"/>
<polygon fill="black" stroke="black" points="164.46,-1119.55 161.49,-1109.38 157.47,-1119.18 164.46,-1119.55"/>
<text text-anchor="middle" x="110.49" y="-1430.89" font-family="Times,serif" font-size="14.00">83</text>
</g>
<!-- q0&#45;&gt;q2 -->
<g id="edge24" class="edge">
<title>q0&#45;&gt;q2</title>
<path fill="none" stroke="black" d="M62.01,-1145.66C61.76,-1201.55 64.46,-1351.98 99.99,-1382.69 107.05,-1388.8 113.94,-1388.82 120.99,-1382.69 159.7,-1349.02 163.55,-1191.59 163.25,-1120.14"/>
<polygon fill="black" stroke="black" points="166.74,-1119.81 163.17,-1109.84 159.74,-1119.86 166.74,-1119.81"/>
<text text-anchor="middle" x="110.49" y="-1390.89" font-family="Times,serif" font-size="14.00">84</text>
</g>
<!-- q0&#45;&gt;q2 -->
<g id="edge25" class="edge">
<title>q0&#45;&gt;q2</title>
<path fill="none" stroke="black" d="M62.64,-1145.63C63.94,-1195.22 70.16,-1317.58 99.99,-1342.69 107.13,-1348.7 113.88,-1348.74 120.99,-1342.69 154.14,-1314.47 161.02,-1183.59 162.38,-1119.81"/>
<polygon fill="black" stroke="black" points="165.89,-1119.51 162.57,-1109.45 158.89,-1119.39 165.89,-1119.51"/>
<text text-anchor="middle" x="110.49" y="-1350.89" font-family="Times,serif" font-size="14.00">85</text>
</g>
<!-- q0&#45;&gt;q2 -->
<g id="edge26" class="edge">
<title>q0&#45;&gt;q2</title>
<path fill="none" stroke="black" d="M62.21,-1145.67C62.68,-1201.36 68.83,-1345.82 120.99,-1302.69 148.61,-1279.86 158.1,-1175.11 161.23,-1119.55"/>
<polygon fill="black" stroke="black" points="164.73,-1119.62 161.76,-1109.45 157.74,-1119.25 164.73,-1119.62"/>
<text text-anchor="middle" x="110.49" y="-1313.89" font-family="Times,serif" font-size="14.00">86</text>
</g>
<!-- q0&#45;&gt;q2 -->
<g id="edge27" class="edge">
<title>q0&#45;&gt;q2</title>
<path fill="none" stroke="black" d="M63.58,-1145.57C67.18,-1191.59 79.98,-1295.2 120.99,-1262.69 143.13,-1245.14 154.64,-1165.91 159.59,-1119.28"/>
<polygon fill="black" stroke="black" points="163.08,-1119.61 160.61,-1109.3 156.12,-1118.9 163.08,-1119.61"/>
<text text-anchor="middle" x="110.49" y="-1272.89" font-family="Times,serif" font-size="14.00">87</text>
</g>
<!-- q0&#45;&gt;q2 -->
<g id="edge28" class="edge">
<title>q0&#45;&gt;q2</title>
<path fill="none" stroke="black" d="M65.9,-1145.08C72.96,-1179.95 90.65,-1245.22 120.99,-1222.69 152.72,-1199.13 161.17,-1152.13 162.98,-1119.57"/>
<polygon fill="black" stroke="black" points="166.48,-1119.68 163.36,-1109.56 159.49,-1119.42 166.48,-1119.68"/>
<text text-anchor="middle" x="110.49" y="-1230.89" font-family="Times,serif" font-size="14.00">88</text>
</g>
<!-- q0&#45;&gt;q2 -->
<g id="edge29" class="edge">
<title>q0&#45;&gt;q2</title>
<path fill="none" stroke="black" d="M70.28,-1143.34C80.78,-1165.07 100.31,-1196.36 120.99,-1182.69 142.16,-1168.69 152.61,-1141.53 157.75,-1119.35"/>
<polygon fill="black" stroke="black" points="161.24,-1119.76 159.82,-1109.26 154.39,-1118.35 161.24,-1119.76"/>
<text text-anchor="middle" x="110.49" y="-1189.89" font-family="Times,serif" font-size="14.00">89</text>
</g>
<!-- q0&#45;&gt;q2 -->
<g id="edge30" class="edge">
<title>q0&#45;&gt;q2</title>
<path fill="none" stroke="black" d="M78.58,-1136.18C90.7,-1143.22 107.42,-1149.65 120.99,-1142.69 132.37,-1136.86 141.34,-1126.31 148.01,-1115.8"/>
<polygon fill="black" stroke="black" points="151.08,-1117.48 153.06,-1107.08 145.02,-1113.97 151.08,-1117.48"/>
<text text-anchor="middle" x="110.49" y="-1148.89" font-family="Times,serif" font-size="14.00">90</text>
</g>
<!-- q0&#45;&gt;q2 -->
<g id="edge31" class="edge">
<title>q0&#45;&gt;q2</title>
<path fill="none" stroke="black" d="M80.89,-1117.99C92.48,-1113.74 107.66,-1108.06 120.99,-1102.69 124.31,-1101.36 127.76,-1099.93 131.19,-1098.48"/>
<polygon fill="black" stroke="black" points="132.87,-1101.57 140.69,-1094.42 130.12,-1095.13 132.87,-1101.57"/>
<text text-anchor="middle" x="110.49" y="-1114.89" font-family="Times,serif" font-size="14.00">97</text>
</g>
<!-- q0&#45;&gt;q2 -->
<g id="edge32" class="edge">
<title>q0&#45;&gt;q2</title>
<path fill="none" stroke="black" d="M72.48,-1107.21C79.01,-1097.81 88.44,-1087.11 99.99,-1081.89 109.12,-1077.76 119.79,-1076.97 129.71,-1077.64"/>
<polygon fill="black" stroke="black" points="129.35,-1081.12 139.68,-1078.79 130.15,-1074.16 129.35,-1081.12"/>
<text text-anchor="middle" x="110.49" y="-1085.89" font-family="Times,serif" font-size="14.00">98</text>
</g>
<!-- q0&#45;&gt;q2 -->
<g id="edge33" class="edge">
<title>q0&#45;&gt;q2</title>
<path fill="none" stroke="black" d="M67.19,-1104.76C72.36,-1088.43 82.29,-1066.38 99.99,-1055.89 111.85,-1048.87 125.71,-1053.98 137.38,-1061.73"/>
<polygon fill="black" stroke="black" points="135.32,-1064.56 145.43,-1067.71 139.49,-1058.94 135.32,-1064.56"/>
<text text-anchor="middle" x="110.49" y="-1059.89" font-family="Times,serif" font-size="14.00">99</text>
</g>
<!-- q0&#45;&gt;q2 -->
<g id="edge34" class="edge">
<title>q0&#45;&gt;q2</title>
<path fill="none" stroke="black" d="M64.04,-1104.11C67.17,-1081.8 75.85,-1047.21 99.99,-1030.89 116.53,-1019.71 133.62,-1036.6 145.77,-1054.34"/>
<polygon fill="black" stroke="black" points="142.98,-1056.46 151.32,-1063 148.87,-1052.69 142.98,-1056.46"/>
<text text-anchor="middle" x="110.49" y="-1034.89" font-family="Times,serif" font-size="14.00">100</text>
</g>
<!-- q0&#45;&gt;q2 -->
<g id="edge35" class="edge">
<title>q0&#45;&gt;q2</title>
<path fill="none" stroke="black" d="M62.03,-1103.73C62.96,-1076.1 69.25,-1028.38 99.99,-1005.89 122.2,-989.64 140.8,-1023.18 151.83,-1051.42"/>
<polygon fill="black" stroke="black" points="148.66,-1052.93 155.41,-1061.09 155.23,-1050.5 148.66,-1052.93"/>
<text text-anchor="middle" x="110.49" y="-1009.89" font-family="Times,serif" font-size="14.00">101</text>
</g>
<!-- q0&#45;&gt;q2 -->
<g id="edge36" class="edge">
<title>q0&#45;&gt;q2</title>
<path fill="none" stroke="black" d="M64.59,-1104.08C69.1,-1067.82 80.41,-995.03 99.99,-979.89 128.7,-957.69 147.05,-1012.06 156.05,-1050.51"/>
<polygon fill="black" stroke="black" points="152.66,-1051.36 158.24,-1060.37 159.49,-1049.85 152.66,-1051.36"/>
<text text-anchor="middle" x="110.49" y="-983.89" font-family="Times,serif" font-size="14.00">102</text>
</g>
<!-- q0&#45;&gt;q2 -->
<g id="edge37" class="edge">
<title>q0&#45;&gt;q2</title>
<path fill="none" stroke="black" d="M63.71,-1104.02C67.02,-1062.75 76.79,-972.53 99.99,-953.89 135.47,-925.39 152.1,-1002.33 158.81,-1050.03"/>
<polygon fill="black" stroke="black" points="155.35,-1050.56 160.13,-1060.01 162.29,-1049.64 155.35,-1050.56"/>
<text text-anchor="middle" x="110.49" y="-957.89" font-family="Times,serif" font-size="14.00">103</text>
</g>
<!-- q0&#45;&gt;q2 -->
<g id="edge38" class="edge">
<title>q0&#45;&gt;q2</title>
<path fill="none" stroke="black" d="M63.03,-1103.98C65.16,-1057.91 72.99,-949.23 99.99,-926.89 142.66,-891.58 156.47,-993.11 160.79,-1049.63"/>
<polygon fill="black" stroke="black" points="157.32,-1050.22 161.51,-1059.95 164.31,-1049.73 157.32,-1050.22"/>
<text text-anchor="middle" x="110.49" y="-930.89" font-family="Times,serif" font-size="14.00">104</text>
</g>
<!-- q0&#45;&gt;q2 -->
<g id="edge39" class="edge">
<title>q0&#45;&gt;q2</title>
<path fill="none" stroke="black" d="M62.48,-1103.68C63.43,-1052.61 68.93,-924.22 99.99,-897.89 150.66,-854.94 160.53,-984.64 162.34,-1049.77"/>
<polygon fill="black" stroke="black" points="158.85,-1050.09 162.58,-1060.01 165.85,-1049.93 158.85,-1050.09"/>
<text text-anchor="middle" x="110.49" y="-901.89" font-family="Times,serif" font-size="14.00">105</text>
</g>
<!-- q0&#45;&gt;q2 -->
<g id="edge40" class="edge">
<title>q0&#45;&gt;q2</title>
<path fill="none" stroke="black" d="M62.03,-1103.83C61.82,-1048.19 64.61,-898.46 99.99,-867.89 158.91,-816.99 164.13,-975.76 163.52,-1049.35"/>
<polygon fill="black" stroke="black" points="160.02,-1049.51 163.39,-1059.56 167.02,-1049.6 160.02,-1049.51"/>
<text text-anchor="middle" x="110.49" y="-871.89" font-family="Times,serif" font-size="14.00">106</text>
</g>
<!-- q0&#45;&gt;q2 -->
<g id="edge41" class="edge">
<title>q0&#45;&gt;q2</title>
<path fill="none" stroke="black" d="M63.47,-1103.67C67.24,-1040.32 79.91,-854.51 99.99,-836.89 107,-830.74 113.86,-830.87 120.99,-836.89 152.71,-863.73 160.31,-987.82 162.12,-1049.58"/>
<polygon fill="black" stroke="black" points="158.62,-1049.74 162.38,-1059.64 165.62,-1049.55 158.62,-1049.74"/>
<text text-anchor="middle" x="110.49" y="-840.89" font-family="Times,serif" font-size="14.00">107</text>
</g>
<!-- q0&#45;&gt;q2 -->
<g id="edge42" class="edge">
<title>q0&#45;&gt;q2</title>
<path fill="none" stroke="black" d="M63.23,-1103.7C66.44,-1036.57 78.03,-830.37 99.99,-810.89 106.97,-804.7 113.91,-804.81 120.99,-810.89 156.38,-841.31 162.07,-983.02 162.75,-1049.76"/>
<polygon fill="black" stroke="black" points="159.25,-1049.82 162.82,-1059.8 166.25,-1049.78 159.25,-1049.82"/>
<text text-anchor="middle" x="110.49" y="-814.89" font-family="Times,serif" font-size="14.00">108</text>
</g>
<!-- q0&#45;&gt;q2 -->
<g id="edge43" class="edge">
<title>q0&#45;&gt;q2</title>
<path fill="none" stroke="black" d="M63.02,-1103.96C65.69,-1033.48 76.11,-806.27 99.99,-784.89 106.94,-778.67 113.95,-778.77 120.99,-784.89 160.01,-818.86 163.67,-977.92 163.28,-1049.56"/>
<polygon fill="black" stroke="black" points="159.78,-1049.84 163.19,-1059.87 166.78,-1049.9 159.78,-1049.84"/>
<text text-anchor="middle" x="110.49" y="-788.89" font-family="Times,serif" font-size="14.00">109</text>
</g>
<!-- q0&#45;&gt;q2 -->
<g id="edge44" class="edge">
<title>q0&#45;&gt;q2</title>
<path fill="none" stroke="black" d="M62.85,-1103.94C65.03,-1029.94 74.21,-782.15 99.99,-758.89 106.92,-752.64 113.98,-752.73 120.99,-758.89 142.6,-777.91 156.06,-969.64 160.78,-1049.78"/>
<polygon fill="black" stroke="black" points="157.29,-1050.09 161.36,-1059.87 164.28,-1049.69 157.29,-1050.09"/>
<text text-anchor="middle" x="110.49" y="-762.89" font-family="Times,serif" font-size="14.00">110</text>
</g>
<!-- q0&#45;&gt;q2 -->
<g id="edge45" class="edge">
<title>q0&#45;&gt;q2</title>
<path fill="none" stroke="black" d="M62.7,-1103.82C64.41,-1026.28 72.33,-758.02 99.99,-732.89 106.9,-726.62 114.01,-726.69 120.99,-732.89 144.44,-753.73 156.99,-964.8 161.12,-1049.65"/>
<polygon fill="black" stroke="black" points="157.63,-1050 161.61,-1059.82 164.63,-1049.67 157.63,-1050"/>
<text text-anchor="middle" x="110.49" y="-736.89" font-family="Times,serif" font-size="14.00">111</text>
</g>
<!-- q0&#45;&gt;q2 -->
<g id="edge46" class="edge">
<title>q0&#45;&gt;q2</title>
<path fill="none" stroke="black" d="M62.57,-1103.83C63.83,-1023.05 70.42,-733.91 99.99,-706.89 106.88,-700.6 114.03,-700.67 120.99,-706.89 146.32,-729.58 157.89,-960.66 161.43,-1049.84"/>
<polygon fill="black" stroke="black" points="157.94,-1050.13 161.83,-1059.99 164.94,-1049.86 157.94,-1050.13"/>
<text text-anchor="middle" x="110.49" y="-710.89" font-family="Times,serif" font-size="14.00">112</text>
</g>
<!-- q0&#45;&gt;q2 -->
<g id="edge47" class="edge">
<title>q0&#45;&gt;q2</title>
<path fill="none" stroke="black" d="M62.45,-1103.98C63.28,-1020.24 68.49,-709.83 99.99,-680.89 155.55,-629.85 162.06,-942.37 162.68,-1049.56"/>
<polygon fill="black" stroke="black" points="159.18,-1049.87 162.72,-1059.85 166.18,-1049.84 159.18,-1049.87"/>
<text text-anchor="middle" x="110.49" y="-684.89" font-family="Times,serif" font-size="14.00">113</text>
</g>
<!-- q0&#45;&gt;q2 -->
<g id="edge48" class="edge">
<title>q0&#45;&gt;q2</title>
<path fill="none" stroke="black" d="M62.34,-1103.91C62.75,-1016.89 66.51,-684.8 99.99,-653.89 159.5,-598.95 163.31,-938 162.97,-1049.81"/>
<polygon fill="black" stroke="black" points="159.47,-1049.88 162.92,-1059.9 166.47,-1049.92 159.47,-1049.88"/>
<text text-anchor="middle" x="110.49" y="-657.89" font-family="Times,serif" font-size="14.00">114</text>
</g>
<!-- q0&#45;&gt;q2 -->
<g id="edge49" class="edge">
<title>q0&#45;&gt;q2</title>
<path fill="none" stroke="black" d="M62.24,-1103.95C62.24,-1013.89 64.51,-659.78 99.99,-626.89 163.38,-568.12 164.47,-932.78 163.23,-1049.57"/>
<polygon fill="black" stroke="black" points="159.73,-1049.72 163.11,-1059.76 166.73,-1049.8 159.73,-1049.72"/>
<text text-anchor="middle" x="110.49" y="-630.89" font-family="Times,serif" font-size="14.00">115</text>
</g>
<!-- q0&#45;&gt;q2 -->
<g id="edge50" class="edge">
<title>q0&#45;&gt;q2</title>
<path fill="none" stroke="black" d="M62.15,-1103.74C61.75,-1010.19 62.47,-633.81 99.99,-598.89 106.82,-592.53 114.11,-592.58 120.99,-598.89 154.07,-629.26 160.96,-943.11 162.34,-1049.58"/>
<polygon fill="black" stroke="black" points="158.84,-1049.84 162.47,-1059.8 165.84,-1049.76 158.84,-1049.84"/>
<text text-anchor="middle" x="110.49" y="-602.89" font-family="Times,serif" font-size="14.00">116</text>
</g>
<!-- q0&#45;&gt;q2 -->
<g id="edge51" class="edge">
<title>q0&#45;&gt;q2</title>
<path fill="none" stroke="black" d="M62.08,-1104C61.31,-1008.07 60.51,-609.76 99.99,-572.89 106.81,-566.52 114.12,-566.57 120.99,-572.89 155.96,-605.13 161.6,-939.24 162.51,-1049.56"/>
<polygon fill="black" stroke="black" points="159.01,-1049.85 162.58,-1059.82 166.01,-1049.79 159.01,-1049.85"/>
<text text-anchor="middle" x="110.49" y="-576.89" font-family="Times,serif" font-size="14.00">117</text>
</g>
<!-- q0&#45;&gt;q2 -->
<g id="edge52" class="edge">
<title>q0&#45;&gt;q2</title>
<path fill="none" stroke="black" d="M62.01,-1103.69C60.89,-1004.45 58.63,-585.64 99.99,-546.89 106.8,-540.51 114.14,-540.55 120.99,-546.89 157.86,-581.02 162.21,-935.78 162.65,-1049.69"/>
<polygon fill="black" stroke="black" points="159.16,-1049.95 162.69,-1059.94 166.16,-1049.93 159.16,-1049.95"/>
<text text-anchor="middle" x="110.49" y="-550.89" font-family="Times,serif" font-size="14.00">118</text>
</g>
<!-- q0&#45;&gt;q2 -->
<g id="edge53" class="edge">
<title>q0&#45;&gt;q2</title>
<path fill="none" stroke="black" d="M62.8,-1103.99C65.43,-1000.27 78.27,-541.3 99.99,-520.89 106.79,-514.5 114.15,-514.54 120.99,-520.89 159.74,-556.88 162.79,-931.88 162.79,-1049.56"/>
<polygon fill="black" stroke="black" points="159.29,-1049.81 162.78,-1059.81 166.29,-1049.82 159.29,-1049.81"/>
<text text-anchor="middle" x="110.49" y="-524.89" font-family="Times,serif" font-size="14.00">119</text>
</g>
<!-- q0&#45;&gt;q2 -->
<g id="edge54" class="edge">
<title>q0&#45;&gt;q2</title>
<path fill="none" stroke="black" d="M62.75,-1103.81C65.17,-997.03 77.31,-516.25 99.99,-494.89 106.78,-488.49 114.16,-488.53 120.99,-494.89 161.63,-532.76 163.35,-928.29 162.91,-1049.55"/>
<polygon fill="black" stroke="black" points="159.41,-1049.75 162.87,-1059.76 166.41,-1049.78 159.41,-1049.75"/>
<text text-anchor="middle" x="110.49" y="-498.89" font-family="Times,serif" font-size="14.00">120</text>
</g>
<!-- q0&#45;&gt;q2 -->
<g id="edge55" class="edge">
<title>q0&#45;&gt;q2</title>
<path fill="none" stroke="black" d="M62.69,-1104.03C64.89,-995.07 76.33,-491.23 99.99,-468.89 106.77,-462.49 114.17,-462.52 120.99,-468.89 163.54,-508.66 163.89,-925.03 163.02,-1049.65"/>
<polygon fill="black" stroke="black" points="159.52,-1049.76 162.95,-1059.79 166.52,-1049.81 159.52,-1049.76"/>
<text text-anchor="middle" x="110.49" y="-472.89" font-family="Times,serif" font-size="14.00">121</text>
</g>
<!-- q0&#45;&gt;q2 -->
<g id="edge56" class="edge">
<title>q0&#45;&gt;q2</title>
<path fill="none" stroke="black" d="M62.65,-1103.95C64.65,-992.23 75.37,-466.19 99.99,-442.89 106.77,-436.48 114.18,-436.51 120.99,-442.89 165.46,-484.57 164.4,-922.1 163.13,-1049.86"/>
<polygon fill="black" stroke="black" points="159.63,-1049.84 163.02,-1059.88 166.63,-1049.92 159.63,-1049.84"/>
<text text-anchor="middle" x="110.49" y="-446.89" font-family="Times,serif" font-size="14.00">122</text>
</g>
<!-- q0&#45;&gt;q3 -->
<g id="edge57" class="edge">
<title>q0&#45;&gt;q3</title>
<path fill="none" stroke="black" d="M62.6,-1103.79C64.04,-1018.33 71.25,-687.33 99.99,-416.89 114.13,-283.79 142.87,-127.04 155.94,-59.04"/>
<polygon fill="black" stroke="black" points="159.44,-59.38 157.9,-48.9 152.56,-58.05 159.44,-59.38"/>
<text text-anchor="middle" x="110.49" y="-420.89" font-family="Times,serif" font-size="14.00">43</text>
</g>
<!-- q0&#45;&gt;q3 -->
<g id="edge58" class="edge">
<title>q0&#45;&gt;q3</title>
<path fill="none" stroke="black" d="M62.52,-1103.91C63.88,-987.67 71.89,-417.26 99.99,-243.89 110.98,-176.07 135.89,-99.44 150.79,-57.13"/>
<polygon fill="black" stroke="black" points="154.11,-58.24 154.17,-47.64 147.52,-55.89 154.11,-58.24"/>
<text text-anchor="middle" x="110.49" y="-247.89" font-family="Times,serif" font-size="14.00">42</text>
</g>
<!-- q0&#45;&gt;q3 -->
<g id="edge59" class="edge">
<title>q0&#45;&gt;q3</title>
<path fill="none" stroke="black" d="M62.47,-1103.98C63.69,-969.89 71.68,-227.29 99.99,-130.89 108.54,-101.77 126.84,-72.34 141.47,-51.87"/>
<polygon fill="black" stroke="black" points="144.39,-53.81 147.48,-43.67 138.75,-49.67 144.39,-53.81"/>
<text text-anchor="middle" x="110.49" y="-134.89" font-family="Times,serif" font-size="14.00">40</text>
</g>
<!-- q0&#45;&gt;q3 -->
<g id="edge60" class="edge">
<title>q0&#45;&gt;q3</title>
<path fill="none" stroke="black" d="M62.48,-1103.57C63.86,-958.23 73.03,-110.57 99.99,-63.89 106.88,-51.96 119.01,-43.15 130.77,-36.93"/>
<polygon fill="black" stroke="black" points="132.52,-39.97 140.02,-32.49 129.49,-33.66 132.52,-39.97"/>
<text text-anchor="middle" x="110.49" y="-67.89" font-family="Times,serif" font-size="14.00">41</text>
</g>
</g>
</svg>
