<?xml version="1.0" encoding="UTF-8" standalone="no"?>
<!DOCTYPE svg PUBLIC "-//W3C//DTD SVG 1.1//EN"
 "http://www.w3.org/Graphics/SVG/1.1/DTD/svg11.dtd">
<!-- Generated by graphviz version 2.44.0 (20200518.1210)
 -->
<!-- Title: tree Pages: 1 -->
<svg width="100%" height="100%"
 viewBox="0.00 0.00 205.30 360.00" xmlns="http://www.w3.org/2000/svg" xmlns:xlink="http://www.w3.org/1999/xlink">
<g id="graph0" class="graph" transform="scale(0.32 0.32) rotate(0) translate(4 1120)">
<title>tree</title>
<polygon fill="white" stroke="transparent" points="-4,4 -4,-1120 637,-1120 637,4 -4,4"/>
<!-- 0 -->
<g id="node1" class="node">
<title>0</title>
<ellipse fill="none" stroke="black" cx="363" cy="-1098" rx="27" ry="18"/>
<text text-anchor="middle" x="363" y="-1093.8" font-family="Times,serif" font-size="14.00">.</text>
</g>
<!-- 1 -->
<g id="node2" class="node">
<title>1</title>
<ellipse fill="none" stroke="black" cx="327" cy="-1026" rx="27" ry="18"/>
<text text-anchor="middle" x="327" y="-1021.8" font-family="Times,serif" font-size="14.00">.</text>
</g>
<!-- 0&#45;&gt;1 -->
<g id="edge1" class="edge">
<title>0&#45;&gt;1</title>
<path fill="none" stroke="black" d="M354.65,-1080.76C350.29,-1072.28 344.85,-1061.71 339.96,-1052.2"/>
<polygon fill="black" stroke="black" points="342.99,-1050.44 335.3,-1043.15 336.77,-1053.64 342.99,-1050.44"/>
</g>
<!-- 74 -->
<g id="node75" class="node">
<title>74</title>
<ellipse fill="none" stroke="black" cx="399" cy="-1026" rx="27" ry="18"/>
<text text-anchor="middle" x="399" y="-1021.8" font-family="Times,serif" font-size="14.00">#</text>
</g>
<!-- 0&#45;&gt;74 -->
<g id="edge74" class="edge">
<title>0&#45;&gt;74</title>
<path fill="none" stroke="black" d="M371.35,-1080.76C375.71,-1072.28 381.15,-1061.71 386.04,-1052.2"/>
<polygon fill="black" stroke="black" points="389.23,-1053.64 390.7,-1043.15 383.01,-1050.44 389.23,-1053.64"/>
</g>
<!-- 2 -->
<g id="node3" class="node">
<title>2</title>
<ellipse fill="none" stroke="black" cx="291" cy="-954" rx="27" ry="18"/>
<text text-anchor="middle" x="291" y="-949.8" font-family="Times,serif" font-size="14.00">.</text>
</g>
<!-- 1&#45;&gt;2 -->
<g id="edge2" class="edge">
<title>1&#45;&gt;2</title>
<path fill="none" stroke="black" d="M318.65,-1008.76C314.29,-1000.28 308.85,-989.71 303.96,-980.2"/>
<polygon fill="black" stroke="black" points="306.99,-978.44 299.3,-971.15 300.77,-981.64 306.99,-978.44"/>
</g>
<!-- 46 -->
<g id="node47" class="node">
<title>46</title>
<ellipse fill="none" stroke="black" cx="381" cy="-954" rx="27" ry="18"/>
<text text-anchor="middle" x="381" y="-949.8" font-family="Times,serif" font-size="14.00">?</text>
</g>
<!-- 1&#45;&gt;46 -->
<g id="edge46" class="edge">
<title>1&#45;&gt;46</title>
<path fill="none" stroke="black" d="M338.98,-1009.46C345.98,-1000.4 354.94,-988.79 362.79,-978.61"/>
<polygon fill="black" stroke="black" points="365.71,-980.55 369.05,-970.49 360.17,-976.27 365.71,-980.55"/>
</g>
<!-- 3 -->
<g id="node4" class="node">
<title>3</title>
<ellipse fill="none" stroke="black" cx="210" cy="-882" rx="27" ry="18"/>
<text text-anchor="middle" x="210" y="-877.8" font-family="Times,serif" font-size="14.00">+</text>
</g>
<!-- 2&#45;&gt;3 -->
<g id="edge3" class="edge">
<title>2&#45;&gt;3</title>
<path fill="none" stroke="black" d="M275,-939.17C263.24,-929.01 247.06,-915.03 233.79,-903.56"/>
<polygon fill="black" stroke="black" points="235.82,-900.69 225.97,-896.8 231.25,-905.99 235.82,-900.69"/>
</g>
<!-- 23 -->
<g id="node24" class="node">
<title>23</title>
<ellipse fill="none" stroke="black" cx="291" cy="-882" rx="27" ry="18"/>
<text text-anchor="middle" x="291" y="-877.8" font-family="Times,serif" font-size="14.00">?</text>
</g>
<!-- 2&#45;&gt;23 -->
<g id="edge23" class="edge">
<title>2&#45;&gt;23</title>
<path fill="none" stroke="black" d="M291,-935.7C291,-927.98 291,-918.71 291,-910.11"/>
<polygon fill="black" stroke="black" points="294.5,-910.1 291,-900.1 287.5,-910.1 294.5,-910.1"/>
</g>
<!-- 4 -->
<g id="node5" class="node">
<title>4</title>
<ellipse fill="none" stroke="black" cx="174" cy="-810" rx="27" ry="18"/>
<text text-anchor="middle" x="174" y="-805.8" font-family="Times,serif" font-size="14.00">|</text>
</g>
<!-- 3&#45;&gt;4 -->
<g id="edge4" class="edge">
<title>3&#45;&gt;4</title>
<path fill="none" stroke="black" d="M201.65,-864.76C197.29,-856.28 191.85,-845.71 186.96,-836.2"/>
<polygon fill="black" stroke="black" points="189.99,-834.44 182.3,-827.15 183.77,-837.64 189.99,-834.44"/>
</g>
<!-- 5 -->
<g id="node6" class="node">
<title>5</title>
<ellipse fill="none" stroke="black" cx="102" cy="-738" rx="27" ry="18"/>
<text text-anchor="middle" x="102" y="-733.8" font-family="Times,serif" font-size="14.00">|</text>
</g>
<!-- 4&#45;&gt;5 -->
<g id="edge5" class="edge">
<title>4&#45;&gt;5</title>
<path fill="none" stroke="black" d="M159.43,-794.83C149.25,-784.94 135.48,-771.55 123.97,-760.36"/>
<polygon fill="black" stroke="black" points="126.41,-757.85 116.8,-753.38 121.53,-762.87 126.41,-757.85"/>
</g>
<!-- 22 -->
<g id="node23" class="node">
<title>22</title>
<ellipse fill="none" stroke="black" cx="174" cy="-738" rx="27" ry="18"/>
<text text-anchor="middle" x="174" y="-733.8" font-family="Times,serif" font-size="14.00">57</text>
</g>
<!-- 4&#45;&gt;22 -->
<g id="edge22" class="edge">
<title>4&#45;&gt;22</title>
<path fill="none" stroke="black" d="M174,-791.7C174,-783.98 174,-774.71 174,-766.11"/>
<polygon fill="black" stroke="black" points="177.5,-766.1 174,-756.1 170.5,-766.1 177.5,-766.1"/>
</g>
<!-- 6 -->
<g id="node7" class="node">
<title>6</title>
<ellipse fill="none" stroke="black" cx="102" cy="-666" rx="27" ry="18"/>
<text text-anchor="middle" x="102" y="-661.8" font-family="Times,serif" font-size="14.00">|</text>
</g>
<!-- 5&#45;&gt;6 -->
<g id="edge6" class="edge">
<title>5&#45;&gt;6</title>
<path fill="none" stroke="black" d="M102,-719.7C102,-711.98 102,-702.71 102,-694.11"/>
<polygon fill="black" stroke="black" points="105.5,-694.1 102,-684.1 98.5,-694.1 105.5,-694.1"/>
</g>
<!-- 21 -->
<g id="node22" class="node">
<title>21</title>
<ellipse fill="none" stroke="black" cx="174" cy="-666" rx="27" ry="18"/>
<text text-anchor="middle" x="174" y="-661.8" font-family="Times,serif" font-size="14.00">56</text>
</g>
<!-- 5&#45;&gt;21 -->
<g id="edge21" class="edge">
<title>5&#45;&gt;21</title>
<path fill="none" stroke="black" d="M116.57,-722.83C126.75,-712.94 140.52,-699.55 152.03,-688.36"/>
<polygon fill="black" stroke="black" points="154.47,-690.87 159.2,-681.38 149.59,-685.85 154.47,-690.87"/>
</g>
<!-- 7 -->
<g id="node8" class="node">
<title>7</title>
<ellipse fill="none" stroke="black" cx="102" cy="-594" rx="27" ry="18"/>
<text text-anchor="middle" x="102" y="-589.8" font-family="Times,serif" font-size="14.00">|</text>
</g>
<!-- 6&#45;&gt;7 -->
<g id="edge7" class="edge">
<title>6&#45;&gt;7</title>
<path fill="none" stroke="black" d="M102,-647.7C102,-639.98 102,-630.71 102,-622.11"/>
<polygon fill="black" stroke="black" points="105.5,-622.1 102,-612.1 98.5,-622.1 105.5,-622.1"/>
</g>
<!-- 20 -->
<g id="node21" class="node">
<title>20</title>
<ellipse fill="none" stroke="black" cx="174" cy="-594" rx="27" ry="18"/>
<text text-anchor="middle" x="174" y="-589.8" font-family="Times,serif" font-size="14.00">55</text>
</g>
<!-- 6&#45;&gt;20 -->
<g id="edge20" class="edge">
<title>6&#45;&gt;20</title>
<path fill="none" stroke="black" d="M116.57,-650.83C126.75,-640.94 140.52,-627.55 152.03,-616.36"/>
<polygon fill="black" stroke="black" points="154.47,-618.87 159.2,-609.38 149.59,-613.85 154.47,-618.87"/>
</g>
<!-- 8 -->
<g id="node9" class="node">
<title>8</title>
<ellipse fill="none" stroke="black" cx="102" cy="-522" rx="27" ry="18"/>
<text text-anchor="middle" x="102" y="-517.8" font-family="Times,serif" font-size="14.00">|</text>
</g>
<!-- 7&#45;&gt;8 -->
<g id="edge8" class="edge">
<title>7&#45;&gt;8</title>
<path fill="none" stroke="black" d="M102,-575.7C102,-567.98 102,-558.71 102,-550.11"/>
<polygon fill="black" stroke="black" points="105.5,-550.1 102,-540.1 98.5,-550.1 105.5,-550.1"/>
</g>
<!-- 19 -->
<g id="node20" class="node">
<title>19</title>
<ellipse fill="none" stroke="black" cx="174" cy="-522" rx="27" ry="18"/>
<text text-anchor="middle" x="174" y="-517.8" font-family="Times,serif" font-size="14.00">54</text>
</g>
<!-- 7&#45;&gt;19 -->
<g id="edge19" class="edge">
<title>7&#45;&gt;19</title>
<path fill="none" stroke="black" d="M116.57,-578.83C126.75,-568.94 140.52,-555.55 152.03,-544.36"/>
<polygon fill="black" stroke="black" points="154.47,-546.87 159.2,-537.38 149.59,-541.85 154.47,-546.87"/>
</g>
<!-- 9 -->
<g id="node10" class="node">
<title>9</title>
<ellipse fill="none" stroke="black" cx="93" cy="-450" rx="27" ry="18"/>
<text text-anchor="middle" x="93" y="-445.8" font-family="Times,serif" font-size="14.00">|</text>
</g>
<!-- 8&#45;&gt;9 -->
<g id="edge9" class="edge">
<title>8&#45;&gt;9</title>
<path fill="none" stroke="black" d="M99.82,-504.05C98.83,-496.35 97.63,-487.03 96.52,-478.36"/>
<polygon fill="black" stroke="black" points="99.97,-477.75 95.22,-468.28 93.02,-478.64 99.97,-477.75"/>
</g>
<!-- 18 -->
<g id="node19" class="node">
<title>18</title>
<ellipse fill="none" stroke="black" cx="165" cy="-450" rx="27" ry="18"/>
<text text-anchor="middle" x="165" y="-445.8" font-family="Times,serif" font-size="14.00">53</text>
</g>
<!-- 8&#45;&gt;18 -->
<g id="edge18" class="edge">
<title>8&#45;&gt;18</title>
<path fill="none" stroke="black" d="M115.36,-506.15C123.88,-496.69 135.09,-484.24 144.69,-473.56"/>
<polygon fill="black" stroke="black" points="147.57,-475.6 151.66,-465.82 142.37,-470.92 147.57,-475.6"/>
</g>
<!-- 10 -->
<g id="node11" class="node">
<title>10</title>
<ellipse fill="none" stroke="black" cx="75" cy="-378" rx="27" ry="18"/>
<text text-anchor="middle" x="75" y="-373.8" font-family="Times,serif" font-size="14.00">|</text>
</g>
<!-- 9&#45;&gt;10 -->
<g id="edge10" class="edge">
<title>9&#45;&gt;10</title>
<path fill="none" stroke="black" d="M88.64,-432.05C86.61,-424.14 84.14,-414.54 81.86,-405.69"/>
<polygon fill="black" stroke="black" points="85.2,-404.6 79.32,-395.79 78.42,-406.35 85.2,-404.6"/>
</g>
<!-- 17 -->
<g id="node18" class="node">
<title>17</title>
<ellipse fill="none" stroke="black" cx="147" cy="-378" rx="27" ry="18"/>
<text text-anchor="middle" x="147" y="-373.8" font-family="Times,serif" font-size="14.00">52</text>
</g>
<!-- 9&#45;&gt;17 -->
<g id="edge17" class="edge">
<title>9&#45;&gt;17</title>
<path fill="none" stroke="black" d="M104.98,-433.46C111.98,-424.4 120.94,-412.79 128.79,-402.61"/>
<polygon fill="black" stroke="black" points="131.71,-404.55 135.05,-394.49 126.17,-400.27 131.71,-404.55"/>
</g>
<!-- 11 -->
<g id="node12" class="node">
<title>11</title>
<ellipse fill="none" stroke="black" cx="39" cy="-306" rx="27" ry="18"/>
<text text-anchor="middle" x="39" y="-301.8" font-family="Times,serif" font-size="14.00">|</text>
</g>
<!-- 10&#45;&gt;11 -->
<g id="edge11" class="edge">
<title>10&#45;&gt;11</title>
<path fill="none" stroke="black" d="M66.65,-360.76C62.29,-352.28 56.85,-341.71 51.96,-332.2"/>
<polygon fill="black" stroke="black" points="54.99,-330.44 47.3,-323.15 48.77,-333.64 54.99,-330.44"/>
</g>
<!-- 16 -->
<g id="node17" class="node">
<title>16</title>
<ellipse fill="none" stroke="black" cx="111" cy="-306" rx="27" ry="18"/>
<text text-anchor="middle" x="111" y="-301.8" font-family="Times,serif" font-size="14.00">51</text>
</g>
<!-- 10&#45;&gt;16 -->
<g id="edge16" class="edge">
<title>10&#45;&gt;16</title>
<path fill="none" stroke="black" d="M83.35,-360.76C87.71,-352.28 93.15,-341.71 98.04,-332.2"/>
<polygon fill="black" stroke="black" points="101.23,-333.64 102.7,-323.15 95.01,-330.44 101.23,-333.64"/>
</g>
<!-- 12 -->
<g id="node13" class="node">
<title>12</title>
<ellipse fill="none" stroke="black" cx="27" cy="-234" rx="27" ry="18"/>
<text text-anchor="middle" x="27" y="-229.8" font-family="Times,serif" font-size="14.00">|</text>
</g>
<!-- 11&#45;&gt;12 -->
<g id="edge12" class="edge">
<title>11&#45;&gt;12</title>
<path fill="none" stroke="black" d="M36.1,-288.05C34.77,-280.35 33.18,-271.03 31.69,-262.36"/>
<polygon fill="black" stroke="black" points="35.1,-261.54 29.96,-252.28 28.2,-262.72 35.1,-261.54"/>
</g>
<!-- 15 -->
<g id="node16" class="node">
<title>15</title>
<ellipse fill="none" stroke="black" cx="99" cy="-234" rx="27" ry="18"/>
<text text-anchor="middle" x="99" y="-229.8" font-family="Times,serif" font-size="14.00">50</text>
</g>
<!-- 11&#45;&gt;15 -->
<g id="edge15" class="edge">
<title>11&#45;&gt;15</title>
<path fill="none" stroke="black" d="M52.02,-289.81C60.04,-280.45 70.47,-268.28 79.47,-257.79"/>
<polygon fill="black" stroke="black" points="82.16,-260.03 86.01,-250.16 76.84,-255.47 82.16,-260.03"/>
</g>
<!-- 13 -->
<g id="node14" class="node">
<title>13</title>
<ellipse fill="none" stroke="black" cx="27" cy="-162" rx="27" ry="18"/>
<text text-anchor="middle" x="27" y="-157.8" font-family="Times,serif" font-size="14.00">48</text>
</g>
<!-- 12&#45;&gt;13 -->
<g id="edge13" class="edge">
<title>12&#45;&gt;13</title>
<path fill="none" stroke="black" d="M27,-215.7C27,-207.98 27,-198.71 27,-190.11"/>
<polygon fill="black" stroke="black" points="30.5,-190.1 27,-180.1 23.5,-190.1 30.5,-190.1"/>
</g>
<!-- 14 -->
<g id="node15" class="node">
<title>14</title>
<ellipse fill="none" stroke="black" cx="99" cy="-162" rx="27" ry="18"/>
<text text-anchor="middle" x="99" y="-157.8" font-family="Times,serif" font-size="14.00">49</text>
</g>
<!-- 12&#45;&gt;14 -->
<g id="edge14" class="edge">
<title>12&#45;&gt;14</title>
<path fill="none" stroke="black" d="M41.57,-218.83C51.75,-208.94 65.52,-195.55 77.03,-184.36"/>
<polygon fill="black" stroke="black" points="79.47,-186.87 84.2,-177.38 74.59,-181.85 79.47,-186.87"/>
</g>
<!-- 24 -->
<g id="node25" class="node">
<title>24</title>
<ellipse fill="none" stroke="black" cx="291" cy="-810" rx="27" ry="18"/>
<text text-anchor="middle" x="291" y="-805.8" font-family="Times,serif" font-size="14.00">.</text>
</g>
<!-- 23&#45;&gt;24 -->
<g id="edge24" class="edge">
<title>23&#45;&gt;24</title>
<path fill="none" stroke="black" d="M291,-863.7C291,-855.98 291,-846.71 291,-838.11"/>
<polygon fill="black" stroke="black" points="294.5,-838.1 291,-828.1 287.5,-838.1 294.5,-838.1"/>
</g>
<!-- 25 -->
<g id="node26" class="node">
<title>25</title>
<ellipse fill="none" stroke="black" cx="246" cy="-738" rx="27" ry="18"/>
<text text-anchor="middle" x="246" y="-733.8" font-family="Times,serif" font-size="14.00">46</text>
</g>
<!-- 24&#45;&gt;25 -->
<g id="edge25" class="edge">
<title>24&#45;&gt;25</title>
<path fill="none" stroke="black" d="M280.79,-793.12C275.15,-784.34 268.03,-773.26 261.7,-763.42"/>
<polygon fill="black" stroke="black" points="264.52,-761.34 256.17,-754.82 258.63,-765.13 264.52,-761.34"/>
</g>
<!-- 26 -->
<g id="node27" class="node">
<title>26</title>
<ellipse fill="none" stroke="black" cx="318" cy="-738" rx="27" ry="18"/>
<text text-anchor="middle" x="318" y="-733.8" font-family="Times,serif" font-size="14.00">+</text>
</g>
<!-- 24&#45;&gt;26 -->
<g id="edge26" class="edge">
<title>24&#45;&gt;26</title>
<path fill="none" stroke="black" d="M297.4,-792.41C300.51,-784.34 304.33,-774.43 307.83,-765.35"/>
<polygon fill="black" stroke="black" points="311.13,-766.55 311.46,-755.96 304.6,-764.03 311.13,-766.55"/>
</g>
<!-- 27 -->
<g id="node28" class="node">
<title>27</title>
<ellipse fill="none" stroke="black" cx="318" cy="-666" rx="27" ry="18"/>
<text text-anchor="middle" x="318" y="-661.8" font-family="Times,serif" font-size="14.00">|</text>
</g>
<!-- 26&#45;&gt;27 -->
<g id="edge27" class="edge">
<title>26&#45;&gt;27</title>
<path fill="none" stroke="black" d="M318,-719.7C318,-711.98 318,-702.71 318,-694.11"/>
<polygon fill="black" stroke="black" points="321.5,-694.1 318,-684.1 314.5,-694.1 321.5,-694.1"/>
</g>
<!-- 28 -->
<g id="node29" class="node">
<title>28</title>
<ellipse fill="none" stroke="black" cx="246" cy="-594" rx="27" ry="18"/>
<text text-anchor="middle" x="246" y="-589.8" font-family="Times,serif" font-size="14.00">|</text>
</g>
<!-- 27&#45;&gt;28 -->
<g id="edge28" class="edge">
<title>27&#45;&gt;28</title>
<path fill="none" stroke="black" d="M303.43,-650.83C293.25,-640.94 279.48,-627.55 267.97,-616.36"/>
<polygon fill="black" stroke="black" points="270.41,-613.85 260.8,-609.38 265.53,-618.87 270.41,-613.85"/>
</g>
<!-- 45 -->
<g id="node46" class="node">
<title>45</title>
<ellipse fill="none" stroke="black" cx="318" cy="-594" rx="27" ry="18"/>
<text text-anchor="middle" x="318" y="-589.8" font-family="Times,serif" font-size="14.00">57</text>
</g>
<!-- 27&#45;&gt;45 -->
<g id="edge45" class="edge">
<title>27&#45;&gt;45</title>
<path fill="none" stroke="black" d="M318,-647.7C318,-639.98 318,-630.71 318,-622.11"/>
<polygon fill="black" stroke="black" points="321.5,-622.1 318,-612.1 314.5,-622.1 321.5,-622.1"/>
</g>
<!-- 29 -->
<g id="node30" class="node">
<title>29</title>
<ellipse fill="none" stroke="black" cx="246" cy="-522" rx="27" ry="18"/>
<text text-anchor="middle" x="246" y="-517.8" font-family="Times,serif" font-size="14.00">|</text>
</g>
<!-- 28&#45;&gt;29 -->
<g id="edge29" class="edge">
<title>28&#45;&gt;29</title>
<path fill="none" stroke="black" d="M246,-575.7C246,-567.98 246,-558.71 246,-550.11"/>
<polygon fill="black" stroke="black" points="249.5,-550.1 246,-540.1 242.5,-550.1 249.5,-550.1"/>
</g>
<!-- 44 -->
<g id="node45" class="node">
<title>44</title>
<ellipse fill="none" stroke="black" cx="318" cy="-522" rx="27" ry="18"/>
<text text-anchor="middle" x="318" y="-517.8" font-family="Times,serif" font-size="14.00">56</text>
</g>
<!-- 28&#45;&gt;44 -->
<g id="edge44" class="edge">
<title>28&#45;&gt;44</title>
<path fill="none" stroke="black" d="M260.57,-578.83C270.75,-568.94 284.52,-555.55 296.03,-544.36"/>
<polygon fill="black" stroke="black" points="298.47,-546.87 303.2,-537.38 293.59,-541.85 298.47,-546.87"/>
</g>
<!-- 30 -->
<g id="node31" class="node">
<title>30</title>
<ellipse fill="none" stroke="black" cx="246" cy="-450" rx="27" ry="18"/>
<text text-anchor="middle" x="246" y="-445.8" font-family="Times,serif" font-size="14.00">|</text>
</g>
<!-- 29&#45;&gt;30 -->
<g id="edge30" class="edge">
<title>29&#45;&gt;30</title>
<path fill="none" stroke="black" d="M246,-503.7C246,-495.98 246,-486.71 246,-478.11"/>
<polygon fill="black" stroke="black" points="249.5,-478.1 246,-468.1 242.5,-478.1 249.5,-478.1"/>
</g>
<!-- 43 -->
<g id="node44" class="node">
<title>43</title>
<ellipse fill="none" stroke="black" cx="318" cy="-450" rx="27" ry="18"/>
<text text-anchor="middle" x="318" y="-445.8" font-family="Times,serif" font-size="14.00">55</text>
</g>
<!-- 29&#45;&gt;43 -->
<g id="edge43" class="edge">
<title>29&#45;&gt;43</title>
<path fill="none" stroke="black" d="M260.57,-506.83C270.75,-496.94 284.52,-483.55 296.03,-472.36"/>
<polygon fill="black" stroke="black" points="298.47,-474.87 303.2,-465.38 293.59,-469.85 298.47,-474.87"/>
</g>
<!-- 31 -->
<g id="node32" class="node">
<title>31</title>
<ellipse fill="none" stroke="black" cx="246" cy="-378" rx="27" ry="18"/>
<text text-anchor="middle" x="246" y="-373.8" font-family="Times,serif" font-size="14.00">|</text>
</g>
<!-- 30&#45;&gt;31 -->
<g id="edge31" class="edge">
<title>30&#45;&gt;31</title>
<path fill="none" stroke="black" d="M246,-431.7C246,-423.98 246,-414.71 246,-406.11"/>
<polygon fill="black" stroke="black" points="249.5,-406.1 246,-396.1 242.5,-406.1 249.5,-406.1"/>
</g>
<!-- 42 -->
<g id="node43" class="node">
<title>42</title>
<ellipse fill="none" stroke="black" cx="318" cy="-378" rx="27" ry="18"/>
<text text-anchor="middle" x="318" y="-373.8" font-family="Times,serif" font-size="14.00">54</text>
</g>
<!-- 30&#45;&gt;42 -->
<g id="edge42" class="edge">
<title>30&#45;&gt;42</title>
<path fill="none" stroke="black" d="M260.57,-434.83C270.75,-424.94 284.52,-411.55 296.03,-400.36"/>
<polygon fill="black" stroke="black" points="298.47,-402.87 303.2,-393.38 293.59,-397.85 298.47,-402.87"/>
</g>
<!-- 32 -->
<g id="node33" class="node">
<title>32</title>
<ellipse fill="none" stroke="black" cx="207" cy="-306" rx="27" ry="18"/>
<text text-anchor="middle" x="207" y="-301.8" font-family="Times,serif" font-size="14.00">|</text>
</g>
<!-- 31&#45;&gt;32 -->
<g id="edge32" class="edge">
<title>31&#45;&gt;32</title>
<path fill="none" stroke="black" d="M236.95,-360.76C232.18,-352.19 226.22,-341.49 220.87,-331.9"/>
<polygon fill="black" stroke="black" points="223.92,-330.18 216,-323.15 217.81,-333.59 223.92,-330.18"/>
</g>
<!-- 41 -->
<g id="node42" class="node">
<title>41</title>
<ellipse fill="none" stroke="black" cx="279" cy="-306" rx="27" ry="18"/>
<text text-anchor="middle" x="279" y="-301.8" font-family="Times,serif" font-size="14.00">53</text>
</g>
<!-- 31&#45;&gt;41 -->
<g id="edge41" class="edge">
<title>31&#45;&gt;41</title>
<path fill="none" stroke="black" d="M253.82,-360.41C257.72,-352.13 262.54,-341.92 266.9,-332.66"/>
<polygon fill="black" stroke="black" points="270.14,-334.01 271.24,-323.47 263.81,-331.02 270.14,-334.01"/>
</g>
<!-- 33 -->
<g id="node34" class="node">
<title>33</title>
<ellipse fill="none" stroke="black" cx="171" cy="-234" rx="27" ry="18"/>
<text text-anchor="middle" x="171" y="-229.8" font-family="Times,serif" font-size="14.00">|</text>
</g>
<!-- 32&#45;&gt;33 -->
<g id="edge33" class="edge">
<title>32&#45;&gt;33</title>
<path fill="none" stroke="black" d="M198.65,-288.76C194.29,-280.28 188.85,-269.71 183.96,-260.2"/>
<polygon fill="black" stroke="black" points="186.99,-258.44 179.3,-251.15 180.77,-261.64 186.99,-258.44"/>
</g>
<!-- 40 -->
<g id="node41" class="node">
<title>40</title>
<ellipse fill="none" stroke="black" cx="243" cy="-234" rx="27" ry="18"/>
<text text-anchor="middle" x="243" y="-229.8" font-family="Times,serif" font-size="14.00">52</text>
</g>
<!-- 32&#45;&gt;40 -->
<g id="edge40" class="edge">
<title>32&#45;&gt;40</title>
<path fill="none" stroke="black" d="M215.35,-288.76C219.71,-280.28 225.15,-269.71 230.04,-260.2"/>
<polygon fill="black" stroke="black" points="233.23,-261.64 234.7,-251.15 227.01,-258.44 233.23,-261.64"/>
</g>
<!-- 34 -->
<g id="node35" class="node">
<title>34</title>
<ellipse fill="none" stroke="black" cx="171" cy="-162" rx="27" ry="18"/>
<text text-anchor="middle" x="171" y="-157.8" font-family="Times,serif" font-size="14.00">|</text>
</g>
<!-- 33&#45;&gt;34 -->
<g id="edge34" class="edge">
<title>33&#45;&gt;34</title>
<path fill="none" stroke="black" d="M171,-215.7C171,-207.98 171,-198.71 171,-190.11"/>
<polygon fill="black" stroke="black" points="174.5,-190.1 171,-180.1 167.5,-190.1 174.5,-190.1"/>
</g>
<!-- 39 -->
<g id="node40" class="node">
<title>39</title>
<ellipse fill="none" stroke="black" cx="243" cy="-162" rx="27" ry="18"/>
<text text-anchor="middle" x="243" y="-157.8" font-family="Times,serif" font-size="14.00">51</text>
</g>
<!-- 33&#45;&gt;39 -->
<g id="edge39" class="edge">
<title>33&#45;&gt;39</title>
<path fill="none" stroke="black" d="M185.57,-218.83C195.75,-208.94 209.52,-195.55 221.03,-184.36"/>
<polygon fill="black" stroke="black" points="223.47,-186.87 228.2,-177.38 218.59,-181.85 223.47,-186.87"/>
</g>
<!-- 35 -->
<g id="node36" class="node">
<title>35</title>
<ellipse fill="none" stroke="black" cx="99" cy="-90" rx="27" ry="18"/>
<text text-anchor="middle" x="99" y="-85.8" font-family="Times,serif" font-size="14.00">|</text>
</g>
<!-- 34&#45;&gt;35 -->
<g id="edge35" class="edge">
<title>34&#45;&gt;35</title>
<path fill="none" stroke="black" d="M156.43,-146.83C146.25,-136.94 132.48,-123.55 120.97,-112.36"/>
<polygon fill="black" stroke="black" points="123.41,-109.85 113.8,-105.38 118.53,-114.87 123.41,-109.85"/>
</g>
<!-- 38 -->
<g id="node39" class="node">
<title>38</title>
<ellipse fill="none" stroke="black" cx="171" cy="-90" rx="27" ry="18"/>
<text text-anchor="middle" x="171" y="-85.8" font-family="Times,serif" font-size="14.00">50</text>
</g>
<!-- 34&#45;&gt;38 -->
<g id="edge38" class="edge">
<title>34&#45;&gt;38</title>
<path fill="none" stroke="black" d="M171,-143.7C171,-135.98 171,-126.71 171,-118.11"/>
<polygon fill="black" stroke="black" points="174.5,-118.1 171,-108.1 167.5,-118.1 174.5,-118.1"/>
</g>
<!-- 36 -->
<g id="node37" class="node">
<title>36</title>
<ellipse fill="none" stroke="black" cx="63" cy="-18" rx="27" ry="18"/>
<text text-anchor="middle" x="63" y="-13.8" font-family="Times,serif" font-size="14.00">48</text>
</g>
<!-- 35&#45;&gt;36 -->
<g id="edge36" class="edge">
<title>35&#45;&gt;36</title>
<path fill="none" stroke="black" d="M90.65,-72.76C86.29,-64.28 80.85,-53.71 75.96,-44.2"/>
<polygon fill="black" stroke="black" points="78.99,-42.44 71.3,-35.15 72.77,-45.64 78.99,-42.44"/>
</g>
<!-- 37 -->
<g id="node38" class="node">
<title>37</title>
<ellipse fill="none" stroke="black" cx="135" cy="-18" rx="27" ry="18"/>
<text text-anchor="middle" x="135" y="-13.8" font-family="Times,serif" font-size="14.00">49</text>
</g>
<!-- 35&#45;&gt;37 -->
<g id="edge37" class="edge">
<title>35&#45;&gt;37</title>
<path fill="none" stroke="black" d="M107.35,-72.76C111.71,-64.28 117.15,-53.71 122.04,-44.2"/>
<polygon fill="black" stroke="black" points="125.23,-45.64 126.7,-35.15 119.01,-42.44 125.23,-45.64"/>
</g>
<!-- 47 -->
<g id="node48" class="node">
<title>47</title>
<ellipse fill="none" stroke="black" cx="417" cy="-882" rx="27" ry="18"/>
<text text-anchor="middle" x="417" y="-877.8" font-family="Times,serif" font-size="14.00">.</text>
</g>
<!-- 46&#45;&gt;47 -->
<g id="edge47" class="edge">
<title>46&#45;&gt;47</title>
<path fill="none" stroke="black" d="M389.35,-936.76C393.71,-928.28 399.15,-917.71 404.04,-908.2"/>
<polygon fill="black" stroke="black" points="407.23,-909.64 408.7,-899.15 401.01,-906.44 407.23,-909.64"/>
</g>
<!-- 48 -->
<g id="node49" class="node">
<title>48</title>
<ellipse fill="none" stroke="black" cx="417" cy="-810" rx="27" ry="18"/>
<text text-anchor="middle" x="417" y="-805.8" font-family="Times,serif" font-size="14.00">.</text>
</g>
<!-- 47&#45;&gt;48 -->
<g id="edge48" class="edge">
<title>47&#45;&gt;48</title>
<path fill="none" stroke="black" d="M417,-863.7C417,-855.98 417,-846.71 417,-838.11"/>
<polygon fill="black" stroke="black" points="420.5,-838.1 417,-828.1 413.5,-838.1 420.5,-838.1"/>
</g>
<!-- 54 -->
<g id="node55" class="node">
<title>54</title>
<ellipse fill="none" stroke="black" cx="511" cy="-810" rx="27" ry="18"/>
<text text-anchor="middle" x="511" y="-805.8" font-family="Times,serif" font-size="14.00">+</text>
</g>
<!-- 47&#45;&gt;54 -->
<g id="edge54" class="edge">
<title>47&#45;&gt;54</title>
<path fill="none" stroke="black" d="M434.68,-867.83C448.95,-857.21 469.22,-842.11 485.29,-830.15"/>
<polygon fill="black" stroke="black" points="487.79,-832.65 493.72,-823.87 483.61,-827.04 487.79,-832.65"/>
</g>
<!-- 49 -->
<g id="node50" class="node">
<title>49</title>
<ellipse fill="none" stroke="black" cx="390" cy="-738" rx="27" ry="18"/>
<text text-anchor="middle" x="390" y="-733.8" font-family="Times,serif" font-size="14.00">69</text>
</g>
<!-- 48&#45;&gt;49 -->
<g id="edge49" class="edge">
<title>48&#45;&gt;49</title>
<path fill="none" stroke="black" d="M410.6,-792.41C407.49,-784.34 403.67,-774.43 400.17,-765.35"/>
<polygon fill="black" stroke="black" points="403.4,-764.03 396.54,-755.96 396.87,-766.55 403.4,-764.03"/>
</g>
<!-- 50 -->
<g id="node51" class="node">
<title>50</title>
<ellipse fill="none" stroke="black" cx="462" cy="-738" rx="27" ry="18"/>
<text text-anchor="middle" x="462" y="-733.8" font-family="Times,serif" font-size="14.00">?</text>
</g>
<!-- 48&#45;&gt;50 -->
<g id="edge50" class="edge">
<title>48&#45;&gt;50</title>
<path fill="none" stroke="black" d="M427.21,-793.12C432.85,-784.34 439.97,-773.26 446.3,-763.42"/>
<polygon fill="black" stroke="black" points="449.37,-765.13 451.83,-754.82 443.48,-761.34 449.37,-765.13"/>
</g>
<!-- 51 -->
<g id="node52" class="node">
<title>51</title>
<ellipse fill="none" stroke="black" cx="462" cy="-666" rx="27" ry="18"/>
<text text-anchor="middle" x="462" y="-661.8" font-family="Times,serif" font-size="14.00">|</text>
</g>
<!-- 50&#45;&gt;51 -->
<g id="edge51" class="edge">
<title>50&#45;&gt;51</title>
<path fill="none" stroke="black" d="M462,-719.7C462,-711.98 462,-702.71 462,-694.11"/>
<polygon fill="black" stroke="black" points="465.5,-694.1 462,-684.1 458.5,-694.1 465.5,-694.1"/>
</g>
<!-- 52 -->
<g id="node53" class="node">
<title>52</title>
<ellipse fill="none" stroke="black" cx="390" cy="-594" rx="27" ry="18"/>
<text text-anchor="middle" x="390" y="-589.8" font-family="Times,serif" font-size="14.00">43</text>
</g>
<!-- 51&#45;&gt;52 -->
<g id="edge52" class="edge">
<title>51&#45;&gt;52</title>
<path fill="none" stroke="black" d="M447.43,-650.83C437.25,-640.94 423.48,-627.55 411.97,-616.36"/>
<polygon fill="black" stroke="black" points="414.41,-613.85 404.8,-609.38 409.53,-618.87 414.41,-613.85"/>
</g>
<!-- 53 -->
<g id="node54" class="node">
<title>53</title>
<ellipse fill="none" stroke="black" cx="462" cy="-594" rx="27" ry="18"/>
<text text-anchor="middle" x="462" y="-589.8" font-family="Times,serif" font-size="14.00">45</text>
</g>
<!-- 51&#45;&gt;53 -->
<g id="edge53" class="edge">
<title>51&#45;&gt;53</title>
<path fill="none" stroke="black" d="M462,-647.7C462,-639.98 462,-630.71 462,-622.11"/>
<polygon fill="black" stroke="black" points="465.5,-622.1 462,-612.1 458.5,-622.1 465.5,-622.1"/>
</g>
<!-- 55 -->
<g id="node56" class="node">
<title>55</title>
<ellipse fill="none" stroke="black" cx="534" cy="-738" rx="27" ry="18"/>
<text text-anchor="middle" x="534" y="-733.8" font-family="Times,serif" font-size="14.00">|</text>
</g>
<!-- 54&#45;&gt;55 -->
<g id="edge55" class="edge">
<title>54&#45;&gt;55</title>
<path fill="none" stroke="black" d="M516.57,-792.05C519.2,-784.06 522.39,-774.33 525.33,-765.4"/>
<polygon fill="black" stroke="black" points="528.69,-766.38 528.48,-755.79 522.04,-764.2 528.69,-766.38"/>
</g>
<!-- 56 -->
<g id="node57" class="node">
<title>56</title>
<ellipse fill="none" stroke="black" cx="534" cy="-666" rx="27" ry="18"/>
<text text-anchor="middle" x="534" y="-661.8" font-family="Times,serif" font-size="14.00">|</text>
</g>
<!-- 55&#45;&gt;56 -->
<g id="edge56" class="edge">
<title>55&#45;&gt;56</title>
<path fill="none" stroke="black" d="M534,-719.7C534,-711.98 534,-702.71 534,-694.11"/>
<polygon fill="black" stroke="black" points="537.5,-694.1 534,-684.1 530.5,-694.1 537.5,-694.1"/>
</g>
<!-- 73 -->
<g id="node74" class="node">
<title>73</title>
<ellipse fill="none" stroke="black" cx="606" cy="-666" rx="27" ry="18"/>
<text text-anchor="middle" x="606" y="-661.8" font-family="Times,serif" font-size="14.00">57</text>
</g>
<!-- 55&#45;&gt;73 -->
<g id="edge73" class="edge">
<title>55&#45;&gt;73</title>
<path fill="none" stroke="black" d="M548.57,-722.83C558.75,-712.94 572.52,-699.55 584.03,-688.36"/>
<polygon fill="black" stroke="black" points="586.47,-690.87 591.2,-681.38 581.59,-685.85 586.47,-690.87"/>
</g>
<!-- 57 -->
<g id="node58" class="node">
<title>57</title>
<ellipse fill="none" stroke="black" cx="534" cy="-594" rx="27" ry="18"/>
<text text-anchor="middle" x="534" y="-589.8" font-family="Times,serif" font-size="14.00">|</text>
</g>
<!-- 56&#45;&gt;57 -->
<g id="edge57" class="edge">
<title>56&#45;&gt;57</title>
<path fill="none" stroke="black" d="M534,-647.7C534,-639.98 534,-630.71 534,-622.11"/>
<polygon fill="black" stroke="black" points="537.5,-622.1 534,-612.1 530.5,-622.1 537.5,-622.1"/>
</g>
<!-- 72 -->
<g id="node73" class="node">
<title>72</title>
<ellipse fill="none" stroke="black" cx="606" cy="-594" rx="27" ry="18"/>
<text text-anchor="middle" x="606" y="-589.8" font-family="Times,serif" font-size="14.00">56</text>
</g>
<!-- 56&#45;&gt;72 -->
<g id="edge72" class="edge">
<title>56&#45;&gt;72</title>
<path fill="none" stroke="black" d="M548.57,-650.83C558.75,-640.94 572.52,-627.55 584.03,-616.36"/>
<polygon fill="black" stroke="black" points="586.47,-618.87 591.2,-609.38 581.59,-613.85 586.47,-618.87"/>
</g>
<!-- 58 -->
<g id="node59" class="node">
<title>58</title>
<ellipse fill="none" stroke="black" cx="467" cy="-522" rx="27" ry="18"/>
<text text-anchor="middle" x="467" y="-517.8" font-family="Times,serif" font-size="14.00">|</text>
</g>
<!-- 57&#45;&gt;58 -->
<g id="edge58" class="edge">
<title>57&#45;&gt;58</title>
<path fill="none" stroke="black" d="M520.12,-578.5C510.86,-568.83 498.53,-555.94 488.07,-545.02"/>
<polygon fill="black" stroke="black" points="490.31,-542.29 480.86,-537.49 485.25,-547.13 490.31,-542.29"/>
</g>
<!-- 71 -->
<g id="node72" class="node">
<title>71</title>
<ellipse fill="none" stroke="black" cx="539" cy="-522" rx="27" ry="18"/>
<text text-anchor="middle" x="539" y="-517.8" font-family="Times,serif" font-size="14.00">55</text>
</g>
<!-- 57&#45;&gt;71 -->
<g id="edge71" class="edge">
<title>57&#45;&gt;71</title>
<path fill="none" stroke="black" d="M535.24,-575.7C535.79,-567.98 536.45,-558.71 537.06,-550.11"/>
<polygon fill="black" stroke="black" points="540.56,-550.33 537.78,-540.1 533.57,-549.83 540.56,-550.33"/>
</g>
<!-- 59 -->
<g id="node60" class="node">
<title>59</title>
<ellipse fill="none" stroke="black" cx="464" cy="-450" rx="27" ry="18"/>
<text text-anchor="middle" x="464" y="-445.8" font-family="Times,serif" font-size="14.00">|</text>
</g>
<!-- 58&#45;&gt;59 -->
<g id="edge59" class="edge">
<title>58&#45;&gt;59</title>
<path fill="none" stroke="black" d="M466.26,-503.7C465.93,-495.98 465.53,-486.71 465.16,-478.11"/>
<polygon fill="black" stroke="black" points="468.66,-477.95 464.73,-468.1 461.66,-478.25 468.66,-477.95"/>
</g>
<!-- 70 -->
<g id="node71" class="node">
<title>70</title>
<ellipse fill="none" stroke="black" cx="536" cy="-450" rx="27" ry="18"/>
<text text-anchor="middle" x="536" y="-445.8" font-family="Times,serif" font-size="14.00">54</text>
</g>
<!-- 58&#45;&gt;70 -->
<g id="edge70" class="edge">
<title>58&#45;&gt;70</title>
<path fill="none" stroke="black" d="M481.3,-506.5C490.92,-496.73 503.78,-483.69 514.61,-472.7"/>
<polygon fill="black" stroke="black" points="517.19,-475.06 521.72,-465.49 512.21,-470.15 517.19,-475.06"/>
</g>
<!-- 60 -->
<g id="node61" class="node">
<title>60</title>
<ellipse fill="none" stroke="black" cx="398" cy="-378" rx="27" ry="18"/>
<text text-anchor="middle" x="398" y="-373.8" font-family="Times,serif" font-size="14.00">|</text>
</g>
<!-- 59&#45;&gt;60 -->
<g id="edge60" class="edge">
<title>59&#45;&gt;60</title>
<path fill="none" stroke="black" d="M450,-434.15C440.99,-424.6 429.11,-411.99 418.98,-401.25"/>
<polygon fill="black" stroke="black" points="421.38,-398.7 411.98,-393.82 416.29,-403.5 421.38,-398.7"/>
</g>
<!-- 69 -->
<g id="node70" class="node">
<title>69</title>
<ellipse fill="none" stroke="black" cx="470" cy="-378" rx="27" ry="18"/>
<text text-anchor="middle" x="470" y="-373.8" font-family="Times,serif" font-size="14.00">53</text>
</g>
<!-- 59&#45;&gt;69 -->
<g id="edge69" class="edge">
<title>59&#45;&gt;69</title>
<path fill="none" stroke="black" d="M465.48,-431.7C466.14,-423.98 466.94,-414.71 467.68,-406.11"/>
<polygon fill="black" stroke="black" points="471.17,-406.37 468.53,-396.1 464.19,-405.77 471.17,-406.37"/>
</g>
<!-- 61 -->
<g id="node62" class="node">
<title>61</title>
<ellipse fill="none" stroke="black" cx="382" cy="-306" rx="27" ry="18"/>
<text text-anchor="middle" x="382" y="-301.8" font-family="Times,serif" font-size="14.00">|</text>
</g>
<!-- 60&#45;&gt;61 -->
<g id="edge61" class="edge">
<title>60&#45;&gt;61</title>
<path fill="none" stroke="black" d="M394.13,-360.05C392.35,-352.26 390.19,-342.82 388.19,-334.08"/>
<polygon fill="black" stroke="black" points="391.59,-333.24 385.95,-324.28 384.76,-334.8 391.59,-333.24"/>
</g>
<!-- 68 -->
<g id="node69" class="node">
<title>68</title>
<ellipse fill="none" stroke="black" cx="454" cy="-306" rx="27" ry="18"/>
<text text-anchor="middle" x="454" y="-301.8" font-family="Times,serif" font-size="14.00">52</text>
</g>
<!-- 60&#45;&gt;68 -->
<g id="edge68" class="edge">
<title>60&#45;&gt;68</title>
<path fill="none" stroke="black" d="M410.15,-361.81C417.56,-352.55 427.18,-340.52 435.52,-330.09"/>
<polygon fill="black" stroke="black" points="438.36,-332.15 441.87,-322.16 432.89,-327.78 438.36,-332.15"/>
</g>
<!-- 62 -->
<g id="node63" class="node">
<title>62</title>
<ellipse fill="none" stroke="black" cx="348" cy="-234" rx="27" ry="18"/>
<text text-anchor="middle" x="348" y="-229.8" font-family="Times,serif" font-size="14.00">|</text>
</g>
<!-- 61&#45;&gt;62 -->
<g id="edge62" class="edge">
<title>61&#45;&gt;62</title>
<path fill="none" stroke="black" d="M374.11,-288.76C370.1,-280.49 365.11,-270.23 360.58,-260.9"/>
<polygon fill="black" stroke="black" points="363.6,-259.1 356.08,-251.63 357.3,-262.16 363.6,-259.1"/>
</g>
<!-- 67 -->
<g id="node68" class="node">
<title>67</title>
<ellipse fill="none" stroke="black" cx="420" cy="-234" rx="27" ry="18"/>
<text text-anchor="middle" x="420" y="-229.8" font-family="Times,serif" font-size="14.00">51</text>
</g>
<!-- 61&#45;&gt;67 -->
<g id="edge67" class="edge">
<title>61&#45;&gt;67</title>
<path fill="none" stroke="black" d="M390.81,-288.76C395.42,-280.28 401.16,-269.71 406.32,-260.2"/>
<polygon fill="black" stroke="black" points="409.54,-261.61 411.23,-251.15 403.39,-258.27 409.54,-261.61"/>
</g>
<!-- 63 -->
<g id="node64" class="node">
<title>63</title>
<ellipse fill="none" stroke="black" cx="315" cy="-162" rx="27" ry="18"/>
<text text-anchor="middle" x="315" y="-157.8" font-family="Times,serif" font-size="14.00">|</text>
</g>
<!-- 62&#45;&gt;63 -->
<g id="edge63" class="edge">
<title>62&#45;&gt;63</title>
<path fill="none" stroke="black" d="M340.18,-216.41C336.28,-208.13 331.46,-197.92 327.1,-188.66"/>
<polygon fill="black" stroke="black" points="330.19,-187.02 322.76,-179.47 323.86,-190.01 330.19,-187.02"/>
</g>
<!-- 66 -->
<g id="node67" class="node">
<title>66</title>
<ellipse fill="none" stroke="black" cx="387" cy="-162" rx="27" ry="18"/>
<text text-anchor="middle" x="387" y="-157.8" font-family="Times,serif" font-size="14.00">50</text>
</g>
<!-- 62&#45;&gt;66 -->
<g id="edge66" class="edge">
<title>62&#45;&gt;66</title>
<path fill="none" stroke="black" d="M357.05,-216.76C361.82,-208.19 367.78,-197.49 373.13,-187.9"/>
<polygon fill="black" stroke="black" points="376.19,-189.59 378,-179.15 370.08,-186.18 376.19,-189.59"/>
</g>
<!-- 64 -->
<g id="node65" class="node">
<title>64</title>
<ellipse fill="none" stroke="black" cx="243" cy="-90" rx="27" ry="18"/>
<text text-anchor="middle" x="243" y="-85.8" font-family="Times,serif" font-size="14.00">48</text>
</g>
<!-- 63&#45;&gt;64 -->
<g id="edge64" class="edge">
<title>63&#45;&gt;64</title>
<path fill="none" stroke="black" d="M300.43,-146.83C290.25,-136.94 276.48,-123.55 264.97,-112.36"/>
<polygon fill="black" stroke="black" points="267.41,-109.85 257.8,-105.38 262.53,-114.87 267.41,-109.85"/>
</g>
<!-- 65 -->
<g id="node66" class="node">
<title>65</title>
<ellipse fill="none" stroke="black" cx="315" cy="-90" rx="27" ry="18"/>
<text text-anchor="middle" x="315" y="-85.8" font-family="Times,serif" font-size="14.00">49</text>
</g>
<!-- 63&#45;&gt;65 -->
<g id="edge65" class="edge">
<title>63&#45;&gt;65</title>
<path fill="none" stroke="black" d="M315,-143.7C315,-135.98 315,-126.71 315,-118.11"/>
<polygon fill="black" stroke="black" points="318.5,-118.1 315,-108.1 311.5,-118.1 318.5,-118.1"/>
</g>
</g>
</svg>
