<?xml version="1.0" encoding="UTF-8" standalone="no"?>
<!DOCTYPE svg PUBLIC "-//W3C//DTD SVG 1.1//EN"
 "http://www.w3.org/Graphics/SVG/1.1/DTD/svg11.dtd">
<!-- Generated by graphviz version 2.44.0 (20200518.1210)
 -->
<!-- Title: fsm Pages: 1 -->
<svg width="238pt" height="360pt"
 viewBox="0.00 0.00 238.37 360.00" xmlns="http://www.w3.org/2000/svg" xmlns:xlink="http://www.w3.org/1999/xlink">
<g id="graph0" class="graph" transform="scale(0.36 0.36) rotate(0) translate(4 996.24)">
<title>fsm</title>
<polygon fill="white" stroke="transparent" points="-4,4 -4,-996.24 658.31,-996.24 658.31,4 -4,4"/>
<!-- INITIAL_STATE -->
<g id="node1" class="node">
<title>INITIAL_STATE</title>
<ellipse fill="black" stroke="black" cx="1.8" cy="-443.55" rx="1.8" ry="1.8"/>
</g>
<!-- q0 -->
<g id="node5" class="node">
<title>q0</title>
<ellipse fill="none" stroke="black" cx="61.29" cy="-443.55" rx="20.89" ry="20.89"/>
<text text-anchor="middle" x="61.29" y="-439.35" font-family="Times,serif" font-size="14.00">q0</text>
</g>
<!-- INITIAL_STATE&#45;&gt;q0 -->
<g id="edge1" class="edge">
<title>INITIAL_STATE&#45;&gt;q0</title>
<path fill="none" stroke="black" d="M3.8,-443.55C7.17,-443.55 18.55,-443.55 30.23,-443.55"/>
<polygon fill="black" stroke="black" points="30.38,-447.05 40.38,-443.55 30.38,-440.05 30.38,-447.05"/>
</g>
<!-- q1 -->
<g id="node2" class="node">
<title>q1</title>
<ellipse fill="none" stroke="black" cx="156.68" cy="-443.55" rx="20.86" ry="20.86"/>
<ellipse fill="none" stroke="black" cx="156.68" cy="-443.55" rx="24.89" ry="24.89"/>
<text text-anchor="middle" x="156.68" y="-439.35" font-family="Times,serif" font-size="14.00">q1</text>
</g>
<!-- q1&#45;&gt;q1 -->
<g id="edge12" class="edge">
<title>q1&#45;&gt;q1</title>
<path fill="none" stroke="black" d="M155.19,-468.54C155.12,-478.21 155.62,-486.24 156.68,-486.24 157.33,-486.24 157.77,-483.26 157.99,-478.74"/>
<polygon fill="black" stroke="black" points="161.5,-478.61 158.17,-468.54 154.5,-478.48 161.5,-478.61"/>
<text text-anchor="middle" x="156.68" y="-490.44" font-family="Times,serif" font-size="14.00">48</text>
</g>
<!-- q1&#45;&gt;q1 -->
<g id="edge13" class="edge">
<title>q1&#45;&gt;q1</title>
<path fill="none" stroke="black" d="M154.02,-468.17C153.12,-486.19 154.01,-504.24 156.68,-504.24 158.85,-504.24 159.84,-492.32 159.66,-478.19"/>
<polygon fill="black" stroke="black" points="163.16,-478.05 159.34,-468.17 156.16,-478.28 163.16,-478.05"/>
<text text-anchor="middle" x="156.68" y="-508.44" font-family="Times,serif" font-size="14.00">49</text>
</g>
<!-- q1&#45;&gt;q1 -->
<g id="edge14" class="edge">
<title>q1&#45;&gt;q1</title>
<path fill="none" stroke="black" d="M153.2,-468.12C151.09,-493.65 152.25,-522.24 156.68,-522.24 160.52,-522.24 161.9,-500.74 160.83,-478.38"/>
<polygon fill="black" stroke="black" points="164.3,-477.87 160.16,-468.12 157.32,-478.33 164.3,-477.87"/>
<text text-anchor="middle" x="156.68" y="-526.44" font-family="Times,serif" font-size="14.00">50</text>
</g>
<!-- q1&#45;&gt;q1 -->
<g id="edge15" class="edge">
<title>q1&#45;&gt;q1</title>
<path fill="none" stroke="black" d="M152.58,-468.31C149.06,-500.9 150.43,-540.24 156.68,-540.24 162.3,-540.24 163.97,-508.48 161.7,-478.4"/>
<polygon fill="black" stroke="black" points="165.18,-477.96 160.78,-468.31 158.2,-478.59 165.18,-477.96"/>
<text text-anchor="middle" x="156.68" y="-544.44" font-family="Times,serif" font-size="14.00">51</text>
</g>
<!-- q1&#45;&gt;q1 -->
<g id="edge16" class="edge">
<title>q1&#45;&gt;q1</title>
<path fill="none" stroke="black" d="M152.15,-468.05C147.02,-507.52 148.54,-558.24 156.68,-558.24 164.12,-558.24 166.03,-515.86 162.39,-478.43"/>
<polygon fill="black" stroke="black" points="165.81,-477.59 161.21,-468.05 158.86,-478.38 165.81,-477.59"/>
<text text-anchor="middle" x="156.68" y="-562.44" font-family="Times,serif" font-size="14.00">52</text>
</g>
<!-- q1&#45;&gt;q1 -->
<g id="edge17" class="edge">
<title>q1&#45;&gt;q1</title>
<path fill="none" stroke="black" d="M151.79,-467.98C145,-514.14 146.63,-576.24 156.68,-576.24 166.03,-576.24 168.09,-522.56 162.88,-477.93"/>
<polygon fill="black" stroke="black" points="166.34,-477.44 161.57,-467.98 159.4,-478.35 166.34,-477.44"/>
<text text-anchor="middle" x="156.68" y="-580.44" font-family="Times,serif" font-size="14.00">53</text>
</g>
<!-- q1&#45;&gt;q1 -->
<g id="edge18" class="edge">
<title>q1&#45;&gt;q1</title>
<path fill="none" stroke="black" d="M151.49,-468.02C142.97,-520.72 144.7,-594.24 156.68,-594.24 167.91,-594.24 170.13,-529.62 163.35,-478.12"/>
<polygon fill="black" stroke="black" points="166.78,-477.41 161.87,-468.02 159.86,-478.42 166.78,-477.41"/>
<text text-anchor="middle" x="156.68" y="-598.44" font-family="Times,serif" font-size="14.00">54</text>
</g>
<!-- q1&#45;&gt;q1 -->
<g id="edge19" class="edge">
<title>q1&#45;&gt;q1</title>
<path fill="none" stroke="black" d="M151.29,-467.74C140.95,-526.91 142.74,-612.24 156.68,-612.24 169.86,-612.24 172.18,-535.98 163.66,-477.66"/>
<polygon fill="black" stroke="black" points="167.11,-477.06 162.07,-467.74 160.19,-478.16 167.11,-477.06"/>
<text text-anchor="middle" x="156.68" y="-616.44" font-family="Times,serif" font-size="14.00">55</text>
</g>
<!-- q1&#45;&gt;q1 -->
<g id="edge20" class="edge">
<title>q1&#45;&gt;q1</title>
<path fill="none" stroke="black" d="M151.09,-467.69C138.93,-533.24 140.79,-630.24 156.68,-630.24 171.76,-630.24 174.21,-542.84 164.01,-477.9"/>
<polygon fill="black" stroke="black" points="167.4,-476.96 162.27,-467.69 160.5,-478.14 167.4,-476.96"/>
<text text-anchor="middle" x="156.68" y="-634.44" font-family="Times,serif" font-size="14.00">56</text>
</g>
<!-- q1&#45;&gt;q1 -->
<g id="edge21" class="edge">
<title>q1&#45;&gt;q1</title>
<path fill="none" stroke="black" d="M150.93,-467.65C136.91,-539.52 138.83,-648.24 156.68,-648.24 173.73,-648.24 176.25,-549.07 164.23,-477.54"/>
<polygon fill="black" stroke="black" points="167.66,-476.86 162.43,-467.65 160.77,-478.11 167.66,-476.86"/>
<text text-anchor="middle" x="156.68" y="-652.44" font-family="Times,serif" font-size="14.00">57</text>
</g>
<!-- q2 -->
<g id="node6" class="node">
<title>q2</title>
<ellipse fill="none" stroke="black" cx="252.07" cy="-627.55" rx="20.89" ry="20.89"/>
<text text-anchor="middle" x="252.07" y="-623.35" font-family="Times,serif" font-size="14.00">q2</text>
</g>
<!-- q1&#45;&gt;q2 -->
<g id="edge22" class="edge">
<title>q1&#45;&gt;q2</title>
<path fill="none" stroke="black" d="M168.76,-465.38C185.84,-499.02 218.55,-563.49 237.18,-600.2"/>
<polygon fill="black" stroke="black" points="234.17,-602 241.82,-609.33 240.42,-598.83 234.17,-602"/>
<text text-anchor="middle" x="206.37" y="-555.75" font-family="Times,serif" font-size="14.00">46</text>
</g>
<!-- q3 -->
<g id="node7" class="node">
<title>q3</title>
<ellipse fill="none" stroke="black" cx="442.84" cy="-443.55" rx="20.89" ry="20.89"/>
<text text-anchor="middle" x="442.84" y="-439.35" font-family="Times,serif" font-size="14.00">q3</text>
</g>
<!-- q1&#45;&gt;q3 -->
<g id="edge23" class="edge">
<title>q1&#45;&gt;q3</title>
<path fill="none" stroke="black" d="M181.42,-443.55C232.92,-443.55 354.85,-443.55 411.69,-443.55"/>
<polygon fill="black" stroke="black" points="411.84,-447.05 421.84,-443.55 411.84,-440.05 411.84,-447.05"/>
<text text-anchor="middle" x="297.76" y="-447.75" font-family="Times,serif" font-size="14.00">69</text>
</g>
<!-- q4 -->
<g id="node3" class="node">
<title>q4</title>
<ellipse fill="none" stroke="black" cx="629.61" cy="-298.55" rx="20.86" ry="20.86"/>
<ellipse fill="none" stroke="black" cx="629.61" cy="-298.55" rx="24.89" ry="24.89"/>
<text text-anchor="middle" x="629.61" y="-294.35" font-family="Times,serif" font-size="14.00">q4</text>
</g>
<!-- q4&#45;&gt;q4 -->
<g id="edge46" class="edge">
<title>q4&#45;&gt;q4</title>
<path fill="none" stroke="black" d="M628.12,-323.54C628.05,-333.21 628.55,-341.24 629.61,-341.24 630.26,-341.24 630.7,-338.26 630.93,-333.74"/>
<polygon fill="black" stroke="black" points="634.43,-333.61 631.11,-323.54 627.43,-333.48 634.43,-333.61"/>
<text text-anchor="middle" x="629.61" y="-345.44" font-family="Times,serif" font-size="14.00">48</text>
</g>
<!-- q4&#45;&gt;q4 -->
<g id="edge47" class="edge">
<title>q4&#45;&gt;q4</title>
<path fill="none" stroke="black" d="M626.95,-323.17C626.06,-341.19 626.94,-359.24 629.61,-359.24 631.79,-359.24 632.78,-347.32 632.59,-333.19"/>
<polygon fill="black" stroke="black" points="636.09,-333.05 632.28,-323.17 629.09,-333.28 636.09,-333.05"/>
<text text-anchor="middle" x="629.61" y="-363.44" font-family="Times,serif" font-size="14.00">49</text>
</g>
<!-- q4&#45;&gt;q4 -->
<g id="edge48" class="edge">
<title>q4&#45;&gt;q4</title>
<path fill="none" stroke="black" d="M626.14,-323.12C624.03,-348.65 625.19,-377.24 629.61,-377.24 633.46,-377.24 634.84,-355.74 633.76,-333.38"/>
<polygon fill="black" stroke="black" points="637.24,-332.87 633.09,-323.12 630.25,-333.33 637.24,-332.87"/>
<text text-anchor="middle" x="629.61" y="-381.44" font-family="Times,serif" font-size="14.00">50</text>
</g>
<!-- q4&#45;&gt;q4 -->
<g id="edge49" class="edge">
<title>q4&#45;&gt;q4</title>
<path fill="none" stroke="black" d="M625.51,-323.31C622,-355.9 623.36,-395.24 629.61,-395.24 635.23,-395.24 636.9,-363.48 634.64,-333.4"/>
<polygon fill="black" stroke="black" points="638.11,-332.96 633.72,-323.31 631.14,-333.59 638.11,-332.96"/>
<text text-anchor="middle" x="629.61" y="-399.44" font-family="Times,serif" font-size="14.00">51</text>
</g>
<!-- q4&#45;&gt;q4 -->
<g id="edge50" class="edge">
<title>q4&#45;&gt;q4</title>
<path fill="none" stroke="black" d="M625.08,-323.05C619.96,-362.52 621.47,-413.24 629.61,-413.24 637.06,-413.24 638.96,-370.86 635.32,-333.43"/>
<polygon fill="black" stroke="black" points="638.75,-332.59 634.15,-323.05 631.79,-333.38 638.75,-332.59"/>
<text text-anchor="middle" x="629.61" y="-417.44" font-family="Times,serif" font-size="14.00">52</text>
</g>
<!-- q4&#45;&gt;q4 -->
<g id="edge51" class="edge">
<title>q4&#45;&gt;q4</title>
<path fill="none" stroke="black" d="M624.73,-322.98C617.93,-369.14 619.56,-431.24 629.61,-431.24 638.96,-431.24 641.03,-377.56 635.81,-332.93"/>
<polygon fill="black" stroke="black" points="639.28,-332.44 634.5,-322.98 632.34,-333.35 639.28,-332.44"/>
<text text-anchor="middle" x="629.61" y="-435.44" font-family="Times,serif" font-size="14.00">53</text>
</g>
<!-- q4&#45;&gt;q4 -->
<g id="edge52" class="edge">
<title>q4&#45;&gt;q4</title>
<path fill="none" stroke="black" d="M624.42,-323.02C615.91,-375.72 617.64,-449.24 629.61,-449.24 640.84,-449.24 643.07,-384.62 636.28,-333.12"/>
<polygon fill="black" stroke="black" points="639.72,-332.41 634.81,-323.02 632.79,-333.42 639.72,-332.41"/>
<text text-anchor="middle" x="629.61" y="-453.44" font-family="Times,serif" font-size="14.00">54</text>
</g>
<!-- q4&#45;&gt;q4 -->
<g id="edge53" class="edge">
<title>q4&#45;&gt;q4</title>
<path fill="none" stroke="black" d="M624.22,-322.74C613.88,-381.91 615.68,-467.24 629.61,-467.24 642.79,-467.24 645.12,-390.98 636.59,-332.66"/>
<polygon fill="black" stroke="black" points="640.04,-332.06 635,-322.74 633.13,-333.16 640.04,-332.06"/>
<text text-anchor="middle" x="629.61" y="-471.44" font-family="Times,serif" font-size="14.00">55</text>
</g>
<!-- q4&#45;&gt;q4 -->
<g id="edge54" class="edge">
<title>q4&#45;&gt;q4</title>
<path fill="none" stroke="black" d="M624.03,-322.69C611.86,-388.24 613.72,-485.24 629.61,-485.24 644.7,-485.24 647.14,-397.84 636.95,-332.9"/>
<polygon fill="black" stroke="black" points="640.34,-331.96 635.2,-322.69 633.44,-333.14 640.34,-331.96"/>
<text text-anchor="middle" x="629.61" y="-489.44" font-family="Times,serif" font-size="14.00">56</text>
</g>
<!-- q4&#45;&gt;q4 -->
<g id="edge55" class="edge">
<title>q4&#45;&gt;q4</title>
<path fill="none" stroke="black" d="M623.86,-322.65C609.85,-394.52 611.76,-503.24 629.61,-503.24 646.66,-503.24 649.18,-404.07 637.16,-332.54"/>
<polygon fill="black" stroke="black" points="640.59,-331.86 635.37,-322.65 633.71,-333.11 640.59,-331.86"/>
<text text-anchor="middle" x="629.61" y="-507.44" font-family="Times,serif" font-size="14.00">57</text>
</g>
<!-- q6 -->
<g id="node4" class="node">
<title>q6</title>
<ellipse fill="none" stroke="black" cx="347.45" cy="-627.55" rx="20.86" ry="20.86"/>
<ellipse fill="none" stroke="black" cx="347.45" cy="-627.55" rx="24.89" ry="24.89"/>
<text text-anchor="middle" x="347.45" y="-623.35" font-family="Times,serif" font-size="14.00">q6</text>
</g>
<!-- q6&#45;&gt;q6 -->
<g id="edge66" class="edge">
<title>q6&#45;&gt;q6</title>
<path fill="none" stroke="black" d="M345.96,-652.54C345.89,-662.21 346.39,-670.24 347.45,-670.24 348.1,-670.24 348.54,-667.26 348.77,-662.74"/>
<polygon fill="black" stroke="black" points="352.27,-662.61 348.95,-652.54 345.27,-662.48 352.27,-662.61"/>
<text text-anchor="middle" x="347.45" y="-674.44" font-family="Times,serif" font-size="14.00">48</text>
</g>
<!-- q6&#45;&gt;q6 -->
<g id="edge67" class="edge">
<title>q6&#45;&gt;q6</title>
<path fill="none" stroke="black" d="M344.79,-652.17C343.9,-670.19 344.78,-688.24 347.45,-688.24 349.63,-688.24 350.62,-676.32 350.43,-662.19"/>
<polygon fill="black" stroke="black" points="353.93,-662.05 350.12,-652.17 346.93,-662.28 353.93,-662.05"/>
<text text-anchor="middle" x="347.45" y="-692.44" font-family="Times,serif" font-size="14.00">49</text>
</g>
<!-- q6&#45;&gt;q6 -->
<g id="edge68" class="edge">
<title>q6&#45;&gt;q6</title>
<path fill="none" stroke="black" d="M343.98,-652.12C341.87,-677.65 343.02,-706.24 347.45,-706.24 351.3,-706.24 352.68,-684.74 351.6,-662.38"/>
<polygon fill="black" stroke="black" points="355.07,-661.87 350.93,-652.12 348.09,-662.33 355.07,-661.87"/>
<text text-anchor="middle" x="347.45" y="-710.44" font-family="Times,serif" font-size="14.00">50</text>
</g>
<!-- q6&#45;&gt;q6 -->
<g id="edge69" class="edge">
<title>q6&#45;&gt;q6</title>
<path fill="none" stroke="black" d="M343.35,-652.31C339.84,-684.9 341.2,-724.24 347.45,-724.24 353.07,-724.24 354.74,-692.48 352.48,-662.4"/>
<polygon fill="black" stroke="black" points="355.95,-661.96 351.56,-652.31 348.98,-662.59 355.95,-661.96"/>
<text text-anchor="middle" x="347.45" y="-728.44" font-family="Times,serif" font-size="14.00">51</text>
</g>
<!-- q6&#45;&gt;q6 -->
<g id="edge70" class="edge">
<title>q6&#45;&gt;q6</title>
<path fill="none" stroke="black" d="M342.92,-652.05C337.8,-691.52 339.31,-742.24 347.45,-742.24 354.9,-742.24 356.8,-699.86 353.16,-662.43"/>
<polygon fill="black" stroke="black" points="356.59,-661.59 351.99,-652.05 349.63,-662.38 356.59,-661.59"/>
<text text-anchor="middle" x="347.45" y="-746.44" font-family="Times,serif" font-size="14.00">52</text>
</g>
<!-- q6&#45;&gt;q6 -->
<g id="edge71" class="edge">
<title>q6&#45;&gt;q6</title>
<path fill="none" stroke="black" d="M342.56,-651.98C335.77,-698.14 337.4,-760.24 347.45,-760.24 356.8,-760.24 358.87,-706.56 353.65,-661.93"/>
<polygon fill="black" stroke="black" points="357.12,-661.44 352.34,-651.98 350.18,-662.35 357.12,-661.44"/>
<text text-anchor="middle" x="347.45" y="-764.44" font-family="Times,serif" font-size="14.00">53</text>
</g>
<!-- q6&#45;&gt;q6 -->
<g id="edge72" class="edge">
<title>q6&#45;&gt;q6</title>
<path fill="none" stroke="black" d="M342.26,-652.02C333.75,-704.72 335.48,-778.24 347.45,-778.24 358.68,-778.24 360.91,-713.62 354.12,-662.12"/>
<polygon fill="black" stroke="black" points="357.56,-661.41 352.65,-652.02 350.63,-662.42 357.56,-661.41"/>
<text text-anchor="middle" x="347.45" y="-782.44" font-family="Times,serif" font-size="14.00">54</text>
</g>
<!-- q6&#45;&gt;q6 -->
<g id="edge73" class="edge">
<title>q6&#45;&gt;q6</title>
<path fill="none" stroke="black" d="M342.06,-651.74C331.72,-710.91 333.52,-796.24 347.45,-796.24 360.63,-796.24 362.96,-719.98 354.43,-661.66"/>
<polygon fill="black" stroke="black" points="357.88,-661.06 352.84,-651.74 350.97,-662.16 357.88,-661.06"/>
<text text-anchor="middle" x="347.45" y="-800.44" font-family="Times,serif" font-size="14.00">55</text>
</g>
<!-- q6&#45;&gt;q6 -->
<g id="edge74" class="edge">
<title>q6&#45;&gt;q6</title>
<path fill="none" stroke="black" d="M341.87,-651.69C329.7,-717.24 331.56,-814.24 347.45,-814.24 362.54,-814.24 364.98,-726.84 354.79,-661.9"/>
<polygon fill="black" stroke="black" points="358.17,-660.96 353.04,-651.69 351.27,-662.14 358.17,-660.96"/>
<text text-anchor="middle" x="347.45" y="-818.44" font-family="Times,serif" font-size="14.00">56</text>
</g>
<!-- q6&#45;&gt;q6 -->
<g id="edge75" class="edge">
<title>q6&#45;&gt;q6</title>
<path fill="none" stroke="black" d="M341.7,-651.65C327.68,-723.52 329.6,-832.24 347.45,-832.24 364.5,-832.24 367.02,-733.07 355,-661.54"/>
<polygon fill="black" stroke="black" points="358.43,-660.86 353.21,-651.65 351.55,-662.11 358.43,-660.86"/>
<text text-anchor="middle" x="347.45" y="-836.44" font-family="Times,serif" font-size="14.00">57</text>
</g>
<!-- q6&#45;&gt;q3 -->
<g id="edge76" class="edge">
<title>q6&#45;&gt;q3</title>
<path fill="none" stroke="black" d="M359.53,-605.72C376.61,-572.08 409.33,-507.61 427.96,-470.9"/>
<polygon fill="black" stroke="black" points="431.19,-472.27 432.59,-461.77 424.95,-469.1 431.19,-472.27"/>
<text text-anchor="middle" x="397.15" y="-544.75" font-family="Times,serif" font-size="14.00">69</text>
</g>
<!-- q0&#45;&gt;q1 -->
<g id="edge2" class="edge">
<title>q0&#45;&gt;q1</title>
<path fill="none" stroke="black" d="M64.11,-464.18C68,-503.02 78.57,-584.64 99.99,-601.55 142.77,-635.33 152.76,-534.96 155.04,-478.76"/>
<polygon fill="black" stroke="black" points="158.55,-478.61 155.39,-468.49 151.55,-478.37 158.55,-478.61"/>
<text text-anchor="middle" x="106.99" y="-611.75" font-family="Times,serif" font-size="14.00">48</text>
</g>
<!-- q0&#45;&gt;q1 -->
<g id="edge3" class="edge">
<title>q0&#45;&gt;q1</title>
<path fill="none" stroke="black" d="M62.08,-464.38C63.07,-491.82 69.42,-539.22 99.99,-561.55 132.1,-585 146.36,-520.82 152.15,-478.15"/>
<polygon fill="black" stroke="black" points="155.64,-478.45 153.41,-468.1 148.69,-477.58 155.64,-478.45"/>
<text text-anchor="middle" x="106.99" y="-570.75" font-family="Times,serif" font-size="14.00">49</text>
</g>
<!-- q0&#45;&gt;q1 -->
<g id="edge4" class="edge">
<title>q0&#45;&gt;q1</title>
<path fill="none" stroke="black" d="M65.87,-463.89C70.34,-482.51 79.98,-509 99.99,-521.55 121.7,-535.17 137.45,-504.14 146.55,-477.27"/>
<polygon fill="black" stroke="black" points="149.92,-478.24 149.6,-467.65 143.24,-476.13 149.92,-478.24"/>
<text text-anchor="middle" x="106.99" y="-528.75" font-family="Times,serif" font-size="14.00">50</text>
</g>
<!-- q0&#45;&gt;q1 -->
<g id="edge5" class="edge">
<title>q0&#45;&gt;q1</title>
<path fill="none" stroke="black" d="M73.33,-460.55C83.14,-473.31 98.3,-487.62 113.99,-481.55 120.74,-478.93 127.06,-474.66 132.65,-469.91"/>
<polygon fill="black" stroke="black" points="135.39,-472.14 140.27,-462.73 130.59,-467.04 135.39,-472.14"/>
<text text-anchor="middle" x="106.99" y="-486.75" font-family="Times,serif" font-size="14.00">51</text>
</g>
<!-- q0&#45;&gt;q1 -->
<g id="edge6" class="edge">
<title>q0&#45;&gt;q1</title>
<path fill="none" stroke="black" d="M82.1,-443.55C93.59,-443.55 108.38,-443.55 121.68,-443.55"/>
<polygon fill="black" stroke="black" points="121.93,-447.05 131.93,-443.55 121.93,-440.05 121.93,-447.05"/>
<text text-anchor="middle" x="106.99" y="-447.75" font-family="Times,serif" font-size="14.00">52</text>
</g>
<!-- q0&#45;&gt;q1 -->
<g id="edge7" class="edge">
<title>q0&#45;&gt;q1</title>
<path fill="none" stroke="black" d="M78.79,-432.09C85.12,-428.34 92.6,-424.65 99.99,-422.75 108.85,-420.47 118.25,-422.26 126.75,-425.58"/>
<polygon fill="black" stroke="black" points="125.36,-428.79 135.9,-429.84 128.31,-422.44 125.36,-428.79"/>
<text text-anchor="middle" x="106.99" y="-426.75" font-family="Times,serif" font-size="14.00">53</text>
</g>
<!-- q0&#45;&gt;q1 -->
<g id="edge8" class="edge">
<title>q0&#45;&gt;q1</title>
<path fill="none" stroke="black" d="M72.13,-425.82C81.71,-411.12 97.24,-393.68 113.99,-400.75 121.78,-404.04 128.84,-409.58 134.85,-415.59"/>
<polygon fill="black" stroke="black" points="132.55,-418.28 141.86,-423.34 137.74,-413.58 132.55,-418.28"/>
<text text-anchor="middle" x="106.99" y="-404.75" font-family="Times,serif" font-size="14.00">54</text>
</g>
<!-- q0&#45;&gt;q1 -->
<g id="edge9" class="edge">
<title>q0&#45;&gt;q1</title>
<path fill="none" stroke="black" d="M67.65,-423.83C73.03,-408.26 83.02,-387.59 99.99,-377.75 118.71,-366.9 134.05,-389.3 143.86,-410.85"/>
<polygon fill="black" stroke="black" points="140.72,-412.41 147.84,-420.25 147.16,-409.68 140.72,-412.41"/>
<text text-anchor="middle" x="106.99" y="-381.75" font-family="Times,serif" font-size="14.00">55</text>
</g>
<!-- q0&#45;&gt;q1 -->
<g id="edge10" class="edge">
<title>q0&#45;&gt;q1</title>
<path fill="none" stroke="black" d="M64.45,-423.04C67.92,-401.64 76.89,-369.1 99.99,-353.75 124.73,-337.3 140.46,-377.61 148.67,-409.45"/>
<polygon fill="black" stroke="black" points="145.33,-410.5 151.08,-419.4 152.13,-408.86 145.33,-410.5"/>
<text text-anchor="middle" x="106.99" y="-357.75" font-family="Times,serif" font-size="14.00">56</text>
</g>
<!-- q0&#45;&gt;q1 -->
<g id="edge11" class="edge">
<title>q0&#45;&gt;q1</title>
<path fill="none" stroke="black" d="M62.3,-422.81C63.56,-396.02 70.25,-350.28 99.99,-328.75 131.25,-306.11 145.75,-367.47 151.83,-408.97"/>
<polygon fill="black" stroke="black" points="148.38,-409.59 153.2,-419.03 155.32,-408.65 148.38,-409.59"/>
<text text-anchor="middle" x="106.99" y="-332.75" font-family="Times,serif" font-size="14.00">57</text>
</g>
<!-- q2&#45;&gt;q6 -->
<g id="edge24" class="edge">
<title>q2&#45;&gt;q6</title>
<path fill="none" stroke="black" d="M254.3,-648.43C257.3,-691.11 266.59,-785.96 290.76,-805.55 339.04,-844.67 346.23,-725.12 346.81,-662.8"/>
<polygon fill="black" stroke="black" points="350.31,-662.61 346.85,-652.6 343.31,-662.59 350.31,-662.61"/>
<text text-anchor="middle" x="297.76" y="-815.75" font-family="Times,serif" font-size="14.00">48</text>
</g>
<!-- q2&#45;&gt;q6 -->
<g id="edge25" class="edge">
<title>q2&#45;&gt;q6</title>
<path fill="none" stroke="black" d="M255.63,-648.03C260.45,-682.88 272.11,-751.31 290.76,-765.55 328.24,-794.16 340.59,-711.83 344.59,-662.2"/>
<polygon fill="black" stroke="black" points="348.08,-662.39 345.32,-652.16 341.1,-661.88 348.08,-662.39"/>
<text text-anchor="middle" x="297.76" y="-774.75" font-family="Times,serif" font-size="14.00">49</text>
</g>
<!-- q2&#45;&gt;q6 -->
<g id="edge26" class="edge">
<title>q2&#45;&gt;q6</title>
<path fill="none" stroke="black" d="M254.42,-648.18C257.17,-671.42 265.52,-708.21 290.76,-725.55 317.63,-744 333.11,-696.96 340.65,-661.83"/>
<polygon fill="black" stroke="black" points="344.12,-662.35 342.65,-651.86 337.25,-660.97 344.12,-662.35"/>
<text text-anchor="middle" x="297.76" y="-733.75" font-family="Times,serif" font-size="14.00">50</text>
</g>
<!-- q2&#45;&gt;q6 -->
<g id="edge27" class="edge">
<title>q2&#45;&gt;q6</title>
<path fill="none" stroke="black" d="M259.92,-646.97C265.81,-660.46 275.77,-677.41 290.76,-685.55 307.48,-694.62 322.18,-677.61 332.27,-659.7"/>
<polygon fill="black" stroke="black" points="335.6,-660.88 337.11,-650.39 329.39,-657.65 335.6,-660.88"/>
<text text-anchor="middle" x="297.76" y="-691.75" font-family="Times,serif" font-size="14.00">51</text>
</g>
<!-- q2&#45;&gt;q6 -->
<g id="edge28" class="edge">
<title>q2&#45;&gt;q6</title>
<path fill="none" stroke="black" d="M270.12,-637.67C276.39,-640.85 283.69,-643.95 290.76,-645.55 299.15,-647.45 308.07,-646.13 316.26,-643.5"/>
<polygon fill="black" stroke="black" points="317.76,-646.68 325.81,-639.79 315.22,-640.15 317.76,-646.68"/>
<text text-anchor="middle" x="297.76" y="-649.75" font-family="Times,serif" font-size="14.00">52</text>
</g>
<!-- q2&#45;&gt;q6 -->
<g id="edge29" class="edge">
<title>q2&#45;&gt;q6</title>
<path fill="none" stroke="black" d="M273.01,-625.79C278.73,-625.36 284.99,-624.96 290.76,-624.75 297.78,-624.49 305.3,-624.6 312.46,-624.89"/>
<polygon fill="black" stroke="black" points="312.44,-628.4 322.61,-625.43 312.81,-621.41 312.44,-628.4"/>
<text text-anchor="middle" x="297.76" y="-628.75" font-family="Times,serif" font-size="14.00">53</text>
</g>
<!-- q2&#45;&gt;q6 -->
<g id="edge30" class="edge">
<title>q2&#45;&gt;q6</title>
<path fill="none" stroke="black" d="M268.61,-614.96C275.06,-610.5 282.88,-606.03 290.76,-603.75 300.21,-601.02 310.18,-603.46 319.04,-607.65"/>
<polygon fill="black" stroke="black" points="317.36,-610.72 327.8,-612.52 320.76,-604.6 317.36,-610.72"/>
<text text-anchor="middle" x="297.76" y="-607.75" font-family="Times,serif" font-size="14.00">54</text>
</g>
<!-- q2&#45;&gt;q6 -->
<g id="edge31" class="edge">
<title>q2&#45;&gt;q6</title>
<path fill="none" stroke="black" d="M262.2,-609.49C271.61,-593.58 287.32,-574.04 304.76,-581.75 313.24,-585.5 320.74,-591.92 326.96,-598.79"/>
<polygon fill="black" stroke="black" points="324.59,-601.42 333.65,-606.92 330,-596.97 324.59,-601.42"/>
<text text-anchor="middle" x="297.76" y="-585.75" font-family="Times,serif" font-size="14.00">55</text>
</g>
<!-- q2&#45;&gt;q6 -->
<g id="edge32" class="edge">
<title>q2&#45;&gt;q6</title>
<path fill="none" stroke="black" d="M257.96,-607.61C263.13,-591.28 273.07,-569.23 290.76,-558.75 310.2,-547.24 325.68,-571.63 335.33,-594.49"/>
<polygon fill="black" stroke="black" points="332.19,-596.06 339.11,-604.08 338.7,-593.5 332.19,-596.06"/>
<text text-anchor="middle" x="297.76" y="-562.75" font-family="Times,serif" font-size="14.00">56</text>
</g>
<!-- q2&#45;&gt;q6 -->
<g id="edge33" class="edge">
<title>q2&#45;&gt;q6</title>
<path fill="none" stroke="black" d="M254.95,-606.78C258.18,-584.69 266.96,-550.77 290.76,-534.75 316.26,-517.58 331.91,-560.24 339.89,-593.28"/>
<polygon fill="black" stroke="black" points="336.5,-594.17 342.12,-603.15 343.33,-592.63 336.5,-594.17"/>
<text text-anchor="middle" x="297.76" y="-538.75" font-family="Times,serif" font-size="14.00">57</text>
</g>
<!-- q3&#45;&gt;q4 -->
<g id="edge34" class="edge">
<title>q3&#45;&gt;q4</title>
<path fill="none" stroke="black" d="M444.01,-464.51C444.9,-518.98 450.22,-663.05 481.53,-696.55 513.52,-730.77 555.69,-731.45 586.92,-696.55 610.93,-669.72 623.39,-425.38 627.27,-333.38"/>
<polygon fill="black" stroke="black" points="630.77,-333.32 627.69,-323.19 623.78,-333.03 630.77,-333.32"/>
<text text-anchor="middle" x="534.23" y="-725.75" font-family="Times,serif" font-size="14.00">48</text>
</g>
<!-- q3&#45;&gt;q4 -->
<g id="edge35" class="edge">
<title>q3&#45;&gt;q4</title>
<path fill="none" stroke="black" d="M444.93,-464.43C447.76,-510.39 456.92,-618.2 481.53,-643.55 514.17,-677.15 555.41,-678.21 586.92,-643.55 627.62,-598.78 630.14,-412.4 629.32,-333.78"/>
<polygon fill="black" stroke="black" points="632.82,-333.38 629.19,-323.42 625.82,-333.47 632.82,-333.38"/>
<text text-anchor="middle" x="534.23" y="-672.75" font-family="Times,serif" font-size="14.00">49</text>
</g>
<!-- q3&#45;&gt;q4 -->
<g id="edge36" class="edge">
<title>q3&#45;&gt;q4</title>
<path fill="none" stroke="black" d="M446.43,-464.07C451.42,-500.23 463.48,-573.12 481.53,-590.55 515.24,-623.07 555.04,-624.86 586.92,-590.55 620.99,-553.88 627.34,-402.97 628.44,-333.66"/>
<polygon fill="black" stroke="black" points="631.94,-333.7 628.57,-323.65 624.94,-333.61 631.94,-333.7"/>
<text text-anchor="middle" x="534.23" y="-619.75" font-family="Times,serif" font-size="14.00">50</text>
</g>
<!-- q3&#45;&gt;q4 -->
<g id="edge37" class="edge">
<title>q3&#45;&gt;q4</title>
<path fill="none" stroke="black" d="M446.42,-464.03C450.25,-485.58 459.52,-518.92 481.53,-537.55 517.29,-567.81 554.52,-571.37 586.92,-537.55 614.41,-508.86 624.03,-392.64 627.18,-333.49"/>
<polygon fill="black" stroke="black" points="630.68,-333.65 627.69,-323.49 623.69,-333.3 630.68,-333.65"/>
<text text-anchor="middle" x="534.23" y="-565.75" font-family="Times,serif" font-size="14.00">51</text>
</g>
<!-- q3&#45;&gt;q4 -->
<g id="edge38" class="edge">
<title>q3&#45;&gt;q4</title>
<path fill="none" stroke="black" d="M455.28,-460.25C461.97,-468.77 471.14,-478.58 481.53,-484.55 522.15,-507.88 553.72,-517.58 586.92,-484.55 607.91,-463.66 619.93,-381.08 625.26,-333.27"/>
<polygon fill="black" stroke="black" points="628.77,-333.37 626.36,-323.06 621.81,-332.63 628.77,-333.37"/>
<text text-anchor="middle" x="534.23" y="-509.75" font-family="Times,serif" font-size="14.00">52</text>
</g>
<!-- q3&#45;&gt;q4 -->
<g id="edge39" class="edge">
<title>q3&#45;&gt;q4</title>
<path fill="none" stroke="black" d="M463.4,-448.58C493.97,-455.17 553.09,-462.52 586.92,-431.55 614.31,-406.48 623.84,-363.7 627.09,-333.43"/>
<polygon fill="black" stroke="black" points="630.59,-333.57 627.99,-323.3 623.62,-332.95 630.59,-333.57"/>
<text text-anchor="middle" x="534.23" y="-457.75" font-family="Times,serif" font-size="14.00">53</text>
</g>
<!-- q3&#45;&gt;q4 -->
<g id="edge40" class="edge">
<title>q3&#45;&gt;q4</title>
<path fill="none" stroke="black" d="M463.27,-439.08C493.14,-431.35 550.68,-412.89 586.92,-378.55 600.57,-365.61 610.59,-347.21 617.38,-331.32"/>
<polygon fill="black" stroke="black" points="620.72,-332.4 621.2,-321.82 614.22,-329.79 620.72,-332.4"/>
<text text-anchor="middle" x="534.23" y="-425.75" font-family="Times,serif" font-size="14.00">54</text>
</g>
<!-- q3&#45;&gt;q4 -->
<g id="edge41" class="edge">
<title>q3&#45;&gt;q4</title>
<path fill="none" stroke="black" d="M457.34,-428.75C470.59,-414.91 491.9,-394.37 513.53,-380.75 543.38,-361.96 558.69,-371.69 586.92,-350.55 595.47,-344.15 603.27,-335.61 609.75,-327.3"/>
<polygon fill="black" stroke="black" points="612.64,-329.28 615.77,-319.16 607.01,-325.12 612.64,-329.28"/>
<text text-anchor="middle" x="534.23" y="-384.75" font-family="Times,serif" font-size="14.00">55</text>
</g>
<!-- q3&#45;&gt;q4 -->
<g id="edge42" class="edge">
<title>q3&#45;&gt;q4</title>
<path fill="none" stroke="black" d="M452.01,-424.84C462.81,-402.35 483.97,-365.11 513.53,-344.75 541.3,-325.62 556.07,-339.15 586.92,-325.55 591.51,-323.52 596.17,-321.02 600.63,-318.37"/>
<polygon fill="black" stroke="black" points="602.83,-321.12 609.41,-312.81 599.09,-315.2 602.83,-321.12"/>
<text text-anchor="middle" x="534.23" y="-348.75" font-family="Times,serif" font-size="14.00">56</text>
</g>
<!-- q3&#45;&gt;q4 -->
<g id="edge43" class="edge">
<title>q3&#45;&gt;q4</title>
<path fill="none" stroke="black" d="M447.65,-423.37C454.65,-392.81 472.72,-335.79 513.53,-311.75 526.88,-303.88 565.85,-300.71 594.76,-299.42"/>
<polygon fill="black" stroke="black" points="595.04,-302.91 604.89,-299.03 594.77,-295.92 595.04,-302.91"/>
<text text-anchor="middle" x="534.23" y="-315.75" font-family="Times,serif" font-size="14.00">57</text>
</g>
<!-- q5 -->
<g id="node8" class="node">
<title>q5</title>
<ellipse fill="none" stroke="black" cx="534.23" cy="-142.55" rx="20.89" ry="20.89"/>
<text text-anchor="middle" x="534.23" y="-138.35" font-family="Times,serif" font-size="14.00">q5</text>
</g>
<!-- q3&#45;&gt;q5 -->
<g id="edge44" class="edge">
<title>q3&#45;&gt;q5</title>
<path fill="none" stroke="black" d="M444.9,-422.95C447.46,-383.77 455.8,-296.29 481.53,-227.75 489.74,-205.88 503.67,-183.38 515,-167"/>
<polygon fill="black" stroke="black" points="518.05,-168.76 520.98,-158.57 512.34,-164.71 518.05,-168.76"/>
<text text-anchor="middle" x="488.53" y="-232.75" font-family="Times,serif" font-size="14.00">43</text>
</g>
<!-- q3&#45;&gt;q5 -->
<g id="edge45" class="edge">
<title>q3&#45;&gt;q5</title>
<path fill="none" stroke="black" d="M444.65,-422.56C447.13,-367.21 456.04,-218.7 481.53,-177.75 487.39,-168.35 496.78,-160.85 505.97,-155.23"/>
<polygon fill="black" stroke="black" points="507.91,-158.16 514.95,-150.24 504.51,-152.04 507.91,-158.16"/>
<text text-anchor="middle" x="488.53" y="-182.75" font-family="Times,serif" font-size="14.00">45</text>
</g>
<!-- q5&#45;&gt;q4 -->
<g id="edge56" class="edge">
<title>q5&#45;&gt;q4</title>
<path fill="none" stroke="black" d="M537.67,-163.19C541.51,-188.32 550.94,-231.06 572.92,-260.55 579.6,-269.51 589.05,-277.07 598.26,-283.03"/>
<polygon fill="black" stroke="black" points="596.56,-286.09 606.94,-288.25 600.17,-280.1 596.56,-286.09"/>
<text text-anchor="middle" x="579.92" y="-278.75" font-family="Times,serif" font-size="14.00">48</text>
</g>
<!-- q5&#45;&gt;q4 -->
<g id="edge57" class="edge">
<title>q5&#45;&gt;q4</title>
<path fill="none" stroke="black" d="M543.16,-161.32C550.23,-177.43 561.24,-201.07 572.92,-220.55 578.35,-229.61 580.76,-231.17 586.92,-239.75 594.1,-249.73 601.91,-260.71 608.8,-270.45"/>
<polygon fill="black" stroke="black" points="605.96,-272.49 614.59,-278.63 611.68,-268.45 605.96,-272.49"/>
<text text-anchor="middle" x="579.92" y="-244.75" font-family="Times,serif" font-size="14.00">49</text>
</g>
<!-- q5&#45;&gt;q4 -->
<g id="edge58" class="edge">
<title>q5&#45;&gt;q4</title>
<path fill="none" stroke="black" d="M550.31,-156.48C561.51,-167.42 576.57,-183.49 586.92,-199.75 600.01,-220.3 610.62,-245.66 617.85,-265.55"/>
<polygon fill="black" stroke="black" points="614.6,-266.84 621.23,-275.11 621.2,-264.51 614.6,-266.84"/>
<text text-anchor="middle" x="579.92" y="-204.75" font-family="Times,serif" font-size="14.00">50</text>
</g>
<!-- q5&#45;&gt;q4 -->
<g id="edge59" class="edge">
<title>q5&#45;&gt;q4</title>
<path fill="none" stroke="black" d="M555.02,-145.1C565.78,-147.47 578.57,-152.02 586.92,-160.75 613.5,-188.54 623.19,-232.7 626.69,-263.52"/>
<polygon fill="black" stroke="black" points="623.24,-264.2 627.69,-273.81 630.21,-263.52 623.24,-264.2"/>
<text text-anchor="middle" x="579.92" y="-165.75" font-family="Times,serif" font-size="14.00">51</text>
</g>
<!-- q5&#45;&gt;q4 -->
<g id="edge60" class="edge">
<title>q5&#45;&gt;q4</title>
<path fill="none" stroke="black" d="M552.15,-132.12C563.09,-126.85 577.06,-123.04 586.92,-130.75 607.66,-146.97 619.56,-219.76 624.99,-263.97"/>
<polygon fill="black" stroke="black" points="621.53,-264.49 626.17,-274.01 628.48,-263.67 621.53,-264.49"/>
<text text-anchor="middle" x="579.92" y="-135.75" font-family="Times,serif" font-size="14.00">52</text>
</g>
<!-- q5&#45;&gt;q4 -->
<g id="edge61" class="edge">
<title>q5&#45;&gt;q4</title>
<path fill="none" stroke="black" d="M546.4,-125.42C557.07,-111.19 573.46,-94.89 586.92,-105.75 611.06,-125.22 621.91,-213.65 626.2,-263.71"/>
<polygon fill="black" stroke="black" points="622.71,-264.09 627.01,-273.77 629.69,-263.52 622.71,-264.09"/>
<text text-anchor="middle" x="579.92" y="-110.75" font-family="Times,serif" font-size="14.00">53</text>
</g>
<!-- q5&#45;&gt;q4 -->
<g id="edge62" class="edge">
<title>q5&#45;&gt;q4</title>
<path fill="none" stroke="black" d="M542.02,-123.1C551.13,-100 568.33,-66.4 586.92,-81.75 614.41,-104.45 623.96,-208.62 627.13,-263.89"/>
<polygon fill="black" stroke="black" points="623.64,-264.13 627.67,-273.93 630.63,-263.75 623.64,-264.13"/>
<text text-anchor="middle" x="579.92" y="-86.75" font-family="Times,serif" font-size="14.00">54</text>
</g>
<!-- q5&#45;&gt;q4 -->
<g id="edge63" class="edge">
<title>q5&#45;&gt;q4</title>
<path fill="none" stroke="black" d="M539.21,-122.36C546.22,-91.22 562.39,-37.1 586.92,-57.75 617.7,-83.65 625.76,-203.29 627.87,-263.59"/>
<polygon fill="black" stroke="black" points="624.37,-263.9 628.19,-273.78 631.37,-263.68 624.37,-263.9"/>
<text text-anchor="middle" x="579.92" y="-62.75" font-family="Times,serif" font-size="14.00">55</text>
</g>
<!-- q5&#45;&gt;q4 -->
<g id="edge64" class="edge">
<title>q5&#45;&gt;q4</title>
<path fill="none" stroke="black" d="M537.35,-121.97C542.12,-83.33 555.78,-6.11 586.92,-32.75 621.13,-62.01 627.46,-197.92 628.5,-263.27"/>
<polygon fill="black" stroke="black" points="625.01,-263.54 628.63,-273.5 632,-263.45 625.01,-263.54"/>
<text text-anchor="middle" x="579.92" y="-37.75" font-family="Times,serif" font-size="14.00">56</text>
</g>
<!-- q5&#45;&gt;q4 -->
<g id="edge65" class="edge">
<title>q5&#45;&gt;q4</title>
<path fill="none" stroke="black" d="M536.06,-121.84C538.59,-76.19 548.62,26.47 586.92,-6.75 624.8,-39.6 629.12,-193.11 629.06,-263.33"/>
<polygon fill="black" stroke="black" points="625.56,-263.44 629.02,-273.45 632.56,-263.47 625.56,-263.44"/>
<text text-anchor="middle" x="579.92" y="-11.75" font-family="Times,serif" font-size="14.00">57</text>
</g>
</g>
</svg>
